<?xml version="1.0" encoding="UTF-8"?>
<svg id="Iceberg" xmlns="http://www.w3.org/2000/svg" viewBox="0 0 534.85 518.5">
  <defs>
    <style>
      .cls-1 {
        fill: #f2f2f2;
      }

      .cls-2 {
        fill: #9fd5ff;
      }
    </style>
  </defs>
  <path class="cls-2" d="M168,283c2.45-12.72,24.09-140.33,24.09-140.33,0,0,40.02,19.14,46.98,22.62C246.03,154.85,350.42,0,350.42,0l76.56,113.1,12.18,107.88,43.5-48.72,19.14,67.86,8.7,12.18,24.36,266.21-534.85-.5L76,222l45,16,47,45Z"/>
  <path class="cls-1" d="M350.42,0l7.92,80.01-39.24,67.89,81.78,104.4-6.96,81.78-3.24,79.44,20.64-119.46,27.84-73.08s-11.14-98.56-12.18-107.88C418.28,99.18,350.42,0,350.42,0Z"/>
  <path class="cls-1" d="M482.66,172.25l-31.32,113.1,20.88,59.16,17.4,5.22s38.95,100.59,38.62,96.4-15.93-199.3-15.93-199.3l-10.5-6.72-19.14-67.86Z"/>
  <polygon class="cls-1" points="192.09 142.67 232.11 196.61 239.07 165.29 192.09 142.67"/>
  <polygon class="cls-1" points="76 222 101.4 259.25 128.01 259.25 161 290 171 314 168 283 121 238 76 222"/>
</svg>