<svg id="Logo" xmlns="http://www.w3.org/2000/svg" viewBox="0 0 516.93 461.01"><defs><style>.cls-1{fill:#f2f2f2}.cls-2{fill:#171636}.cls-3{fill:#333}.cls-4{fill:#173387}</style></defs><g id="Calque_4" data-name="Calque 4"><path d="M287.09 200.31C288.5 193 319.5 82 319.5 82s23 11 27 13c4-6 64-95 64-95l44 65 7 62 25-28 11 39 5 7 14 153-289 136 59.59-233.69Z" style="fill:#9fd5ff"/><path class="cls-1" d="m410.5 0 4.55 45.98L392.5 85l47 60-4 47-1.86 45.66L445.5 169l16-42s-6.41-56.65-7-62c-5-8-44-65-44-65ZM486.5 99l-18 65 12 34 10 3s22.39 57.81 22.19 55.41-9.16-114.55-9.16-114.55l-6.04-3.86-11-39ZM319.5 82l23 31 4-18-27-13z"/><path class="cls-2" d="M92.25 375.02c-47.6-9.79-76.52-10.75-87.36-10.66 32.58-.65 60.46 4.53 87.36 10.66ZM373.03 357.43l-.03 1.07s-82.51 43.3-193.06 33.28c80.91 5.84 150.15-11.9 193.09-34.35Z"/><path class="cls-2" d="M398 195.5c-1.57 2.78-3.05 6-4.43 9.58a71.03 71.03 0 0 0-14.06 6.57c-19.15 11.63-31.04 30.81-33.74 44.42-2.42 12.19-1.5 21.77 1.48 29.22 3.44 8.62 9.61 14.41 16.52 18.12.6.31 1.2.62 1.81.91.12.06.25.12.38.18.03.02.06.04.1.05 3.21 1.5 6.52 2.57 9.75 3.31-1.17 14.79-3.9 52.99-4.31 62.14-43.8 24.98-113.79 37.39-203 29-56.47-6.82-138-36-166.95-34.58-.65.03-1.1.05-1.34.07-.07 0-.14.01-.21.01 23-35 228.5-191.5 300-227s93.5-28.5 106-19 14 38-8 77Z"/><path class="cls-3" d="M92.25 375.02c-47.6-9.79-76.52-10.75-87.36-10.66 32.58-.65 60.46 4.53 87.36 10.66ZM373.06 357.41l-.06 1.09s-82.51 43.3-193.06 33.28c80.91 5.84 150.15-11.9 193.09-34.35s.02-.01.03-.02Z"/><path class="cls-1" d="M0 364.5c23-35 228.5-191.5 300-227s93.5-28.5 106-19c7.27 5.52 10.82 17.46 8.19 34.16C398.5 93 0 364.5 0 364.5Z"/><path class="cls-1" d="M5.5 349c45-113 179.8-227.27 229.16-247.67 42.87-19.67 56.51-7.69 69.84 24.67-80 38-249.92 170-299 223Z"/><path class="cls-4" d="M166.5 138c-2.24-4.9-18.55-59.18-20.24-73.12s51.26-36.58 59.04-20.94 16.5 50.25 17.8 56.19c-15.59 5.87-48.05 28.44-56.59 37.87Z"/><path class="cls-2" d="M150.8 85.31c-2.29-8.77-4.04-16.34-4.54-20.42-1.69-13.93 51.26-36.58 59.04-20.94 1.81 3.63 3.67 8.29 5.47 13.37C197.5 56 167.5 67 150.8 85.31Z"/><path class="cls-4" d="M160.5 143c-16 13-29 24-43 37-12 11-18.46 18.57-27 28-12 13-19.46 23.57-28 33-2.24-4.9-16.55-44.18-18.24-58.12-1.17-9.64 11.94-20.06 22.71-20.39-2.49-6.38-4.71-15.61-4.71-15.61s24.6-28.72 36.84-23.22c-1.45-5.35-2.49-9.86-2.84-12.78C94.57 96.95 136.72 77.37 144.5 93s14.7 44.06 16 50Z"/><path class="cls-2" d="M99.5 127c-2.35-7.06-3.2-13.36-3.83-16.68C93.53 99 135.68 77.57 142.9 89.96c1.68 2.88 3.45 6.59 5.21 10.66-10.94-.36-35.93 10.48-48.62 26.39Z"/><path class="cls-2" d="M66.93 162.83c-.3-.72-.58-1.42-.87-2.12-2.37-5.82-4.22-10.78-4.97-13.64-2.29-8.71 22.54-25.63 36.66-26.19 1.75 5.11 2.76 7.64 3.75 13.11-11.39 4.35-26.15 16.61-34.57 28.83Z"/><path class="cls-2" d="M47.5 197c-2.38-5.76-4.25-12.84-4.97-15.58-1.58-6 11.91-16.57 23.53-20.7 1.44 3.29 4.44 12.29 4.44 12.29s-18 14-23 24Z"/><path class="cls-4" d="M1.49 364.45c-.2.1-.39.2-.58.32-.3-.09-.6-.18-.91-.27.07 0 .14-.01.21-.01.43-.01.86-.03 1.28-.04ZM92.25 375.02c-47.6-9.79-76.52-10.75-87.36-10.66 32.58-.65 60.46 4.53 87.36 10.66ZM373.06 357.41l-.06 1.09s-82.51 43.3-193.06 33.28c80.91 5.84 150.15-11.9 193.09-34.35s.02-.01.03-.02Z"/><path class="cls-4" d="M373.06 357.41c12.95-6.78 23.51-13.98 31.27-21.09-.58.76-1.18 1.52-1.8 2.29-8.42 10.44-22.11 21.35-40.1 31.42l-.06 1.25s-88.36 49.64-206.74 38.16c-3.35-.26-6.73-.56-10.11-.9-10.6-1.37-20.87-3.26-30.97-5.43-20.56-7.68-42.57-15.65-66.48-23.58-14.94-4.96-30.62-9.91-47.16-14.76.19-.12.38-.22.58-.32 1.07-.04 2.12-.06 3.18-.09h.22c10.84-.09 39.76.87 87.36 10.66 25.89 5.9 50.87 12.68 78.25 15.98 3.16.3 6.31.56 9.44.78C290.49 401.8 373 358.5 373 358.5l.06-1.09ZM516.37 325.06c.9-23.44-2.76-49.41-15.87-71.96 14.92 22.4 17.88 49.03 15.87 71.96Z"/><path class="cls-4" d="M516.37 325.06c-1.87 21.31-8.03 39.41-12.87 47.94-42 74-127 97-216 85-52.29-7.05-104.56-29.36-172.95-54.89 10.1 2.17 20.37 4.06 30.97 5.43 3.38.34 6.76.64 10.11.9 118.38 11.48 206.74-38.16 206.74-38.16l.06-1.25c17.99-10.07 31.68-20.98 40.1-31.42.62-.77 1.22-1.53 1.8-2.29 2.31-2.12 4.37-4.23 6.17-6.32 19-22 19.31-39.72 16-49-1.27-3.56-3.32-6.41-5.86-8.58-4.8-4.09-11.36-5.77-17.82-5.25-3.58.27-7.13 1.23-10.32 2.83-12 6-12 22-2 34-4.49-.53-9.39-1.68-14.05-3.71a.3.3 0 0 1-.1-.04c-.13-.06-.25-.11-.38-.17-.56-.25-1.11-.51-1.66-.78-6.45-3.24-12.22-8.29-15.43-15.81-2.78-6.5-3.64-14.85-1.38-25.49 2.52-11.87 13.62-28.6 31.51-38.74 16.51-9.36 38.81-13.12 65.49-2.26 19.39 7.89 33.21 18.95 42.83 31.63 1.12 1.47 2.17 2.96 3.17 4.47 13.11 22.55 16.77 48.52 15.87 71.96ZM4.67 364.36c-1.06.03-2.11.05-3.18.09.02-.02.04-.03.06-.03.76-.02 1.8-.05 3.12-.06ZM92.25 375.02c-47.6-9.79-76.52-10.75-87.36-10.66 32.58-.65 60.46 4.53 87.36 10.66ZM48.07 379.53C33.1 374.77 17.29 369.92.5 365c.14-.08.27-.16.41-.23 16.54 4.85 32.22 9.8 47.16 14.76Z"/><path class="cls-4" d="M179.94 391.78c-3.13-.22-6.28-.48-9.44-.78-27.38-3.3-52.36-10.08-78.25-15.98 10.08 2.07 20.99 4.54 32.75 7.48 18.88 4.72 37.27 7.68 54.94 9.28ZM373.06 357.41l-.06 1.09s-82.51 43.3-193.06 33.28c80.91 5.84 150.15-11.9 193.09-34.35s.02-.01.03-.02Z"/></g></svg>