<svg id="Layer_1" xmlns="http://www.w3.org/2000/svg" version="1.1" viewBox="0 0 2858 478.1"><defs><style>.st0{stroke:#173387}.st0,.st1,.st2{fill:none;stroke-miterlimit:10}.st0,.st2{stroke-width:2px}.st3{fill:#171636}.st4{fill:#173387}.st1,.st2{stroke:#171636}</style></defs><g id="_2eme_plan"><path class="st2" d="M2715.6 299.8H2857v-115h-141.4v-71h-64.3V78.3h-31.4V1H1v476.1h2623.3V406h27.1v-31.5h64.6l-.4-74.7z"/><path class="st2" d="M2510.7 325.1h48.3V162.3h-48.3V74.4h-24.1c-1.9 0-22.6-22.6-22.6-22.6h-64.1l-22.1 22.1h-23.1v20.9h-30.3l-19.5-19.5h-67.2l-17.8 17.8h-69.5l-20.2-20.2h-67.1l-21.2 21.2h-111.3V68.2h-94.7v68.1h-281.1V91.1h-120.1l-17.6-17.6h-57.9l-15.9 15.9h-20.6s-15.6-13-15.6-15.6-59.4 0-59.4 0l-17.6 17.6h-51.7v62.8h-377V93.5H626.2V79.9H46v315.8h578.3v-9.3h175.8v-91h159.7v94.1h89.8c20.4 21.7 78 31 111.4 2.5 26.6-.6 73.1 0 73.1 0l16.4 16.4h58.5l17.8-17.8h15.6l18.3 18.3h57.2l17.4-17.5h118.1v-65.7H1837v88.5h92.9v-24.8H2042l21.4 21.4h67.2l20.9-20.9h63.9l21.1 21.1h68l22.6-22.6h28.2v21.4h21.7l21.1 21h67.5l21.7-21.7h23.5v-84.2Z"/><path class="st1" d="M2354.7 94.8v94h-28.4v105.9h28.4s-.6 93.8 0 93.8M2510.7 325.1v-31.5h-156M2493.4 293.6V189.8h-115.1l-6.3 16.8v70.9l7 16.1M2510.7 189.8v-27.5M2493.4 189.8h65.6M2510.7 293.6h48.3"/><path class="st1" d="m2378.3 189.8-23.6-1v27.3l-9.9 12.3h-18.5M2009.8 94.8v94h158.7v104.8h-158.7v95.9M2009.8 188.8v104.8M1930 389.5v-41h-92.9M1930.6 94.1v42.4h-94.7v52.2h18.6v104.9h-477.3V288s54.1-47.3 0-94.2v-5h270.6s.6 104.8 0 104.8"/><path class="st2" d="M1930 188.8c-7.7 24.2-39.7 34.5-46.7 34.5-.6-14.1 0-34.5 0-34.5h78.4v104.9H1883v-34.4s39.3 6.7 47 34.4c22.7-14.1 49.3-64.2 0-104.9Z"/><path class="st1" d="M1835.9 293.6V188.8h-125.1M1710.8 136.3v157.3M1789.2 136.3v52.5M1576.5 188.9v-52.6h-85.7v52.5M1490.8 91.1v45.2M1522.3 188.9v-52.6M1592.4 293.6V188.8M1467.8 293.6V188.9M1443.7 293.6V188.9M1405.8 293.6V188.9M1443.7 271.6h-37.9M1443.7 241.2h-37.9M1443.7 210.7h-37.9M1621 293.6V188.9M1647.9 209.2H1621M1648 241.4h-27M1647.9 271.6H1621M1381.3 284v-25.9h7.1V224h-8v-27.2M1601.4 325.8v-32.2M1487.3 391.5v-97.9M1553.6 325.8h-66.3M1443.7 391.5v-47.1M1335.4 390.6v-46.2M1224.3 391.9v-47.5M1443.7 136.3V91.1M1333.1 89.4v46.9M1224.3 91.5v44.8M1178.4 154.3v237.5M1178.4 188.9H801.5l-1.4 106.5"/><path class="st1" d="M1045.3 188.9V295l-85.5.4M982.1 188.9v106.4M1005.3 188.9v106.3M1045.3 271.6h-40M1045.3 210.7h-40M1045.3 240.4h-40M1037.3 295v17.5M1035.6 389.5V374M855.2 188.9v106.4M831 188.9v106.5M800.4 273H831M800.8 240.4H831M801.2 206.6H831M801.3 130.2h-32V93.6M800.1 351.6h-30.8v34.8M624.3 386.4v-47.9h-62.6v-23.2h-62.5v13.8h-14.5v-13.8h-62.4v80.4"/><path class="st2" d="M655.2 218.4v-32.2h40.4s4.4 29-40.4 32.2ZM655.2 260.6v34.6h40.5s4.9-34-40.5-34.6Z"/><path class="st1" d="M587 186.2h37.2v105.3H587zM624.3 256.4H587M624.3 218.4H587M499.4 186.2h30.9v105.3h-30.9zM530.3 256.4h-30.9M530.3 218.4h-30.9M626.1 93.6v45.9h-63.7v22.1h-63V80M562.4 139.5V80M577.6 139.5V80M562.4 120.8h-63M577.6 338.5v57.2M561.7 338.5v57.2M499.2 329.1v66.6M484.7 329.1v66.6M561.7 358.4h-62.3M484.7 80v81.6h-62.4V80M499.4 149.6h-14.7M139.1 186.2h345.6v105.3H139.1zM430.8 291.6V186.2M390.3 291.6V186.2M430.8 206.6h-40.5M430.8 238.9h-40.5M430.8 270.7h-40.5M366.6 291.6V186.2M238.3 291.6V186.2M218.3 291.6V186.2M185.7 291.6V186.2M218.3 206.6h-32.6M218.3 238.9h-32.6M218.3 270.7h-32.6M405.6 80v84.1H295.9V80M350.8 80v84.1M405.6 122H295.9M484.7 120.8h-62.4M279.4 80v84.1H171.2V80M225.3 80v84.1M279.4 120.8H171.2M100.2 80v84.1M154.5 120.8h-54.3M46 186.2h78.6v105.4H46M46 238.9h78.6M100.2 395.7v-80.4M154.5 358.4h-54.3M279.9 395.7v-80.4H169.4v80.4M224.6 395.7v-80.4M279.9 358.4H169.4M405.2 395.7v-80.4H296.5v80.4M350.8 395.7v-80.4M405.2 358.4H296.5M484.7 358.4H421M169.4 1l-14.9 31.4v131.7H46M169.4 477.1l-14.9-29.6V315.3H46"/></g><g id="points"><path class="st3" d="M532.1 154.2c3 0 6.3-1.3 8.4-3.5s3.6-5.4 3.5-8.4c-.3-6.4-5.2-11.9-11.9-11.9s-6.3 1.3-8.4 3.5-3.6 5.4-3.5 8.4c.3 6.4 5.2 11.9 11.9 11.9Z"/><path class="st4" d="M198.5 154.2c3.1 0 6.3-1.3 8.4-3.5s3.6-5.4 3.5-8.4c-.3-6.4-5.2-11.9-11.9-11.9s-6.3 1.3-8.4 3.5-3.6 5.4-3.5 8.4c.3 6.4 5.2 11.9 11.9 11.9Z"/><circle class="st0" cx="197.4" cy="141.7" r="20.8"/><path class="st4" d="M457.4 345.3c3 0 6.3-1.3 8.4-3.5s3.6-5.5 3.5-8.4c-.3-6.5-5.2-11.9-11.9-11.9s-6.3 1.3-8.4 3.5-3.6 5.5-3.5 8.4c.3 6.5 5.2 11.9 11.9 11.9Z"/><circle class="st0" cx="456.2" cy="332.8" r="20.8"/><path class="st4" d="M604.6 381.6c3 0 6.3-1.3 8.4-3.5s3.6-5.5 3.5-8.4c-.3-6.5-5.2-11.9-11.9-11.9s-6.3 1.3-8.4 3.5-3.6 5.5-3.5 8.4c.3 6.5 5.2 11.9 11.9 11.9Z"/><circle class="st0" cx="603.5" cy="369" r="20.8"/><path class="st4" d="M532 390.3c3 0 6.3-1.3 8.4-3.5s3.6-5.5 3.5-8.4c-.3-6.5-5.2-11.9-11.9-11.9s-6.3 1.3-8.4 3.5-3.6 5.5-3.5 8.4c.3 6.5 5.2 11.9 11.9 11.9Z"/><circle class="st0" cx="530.9" cy="377.8" r="20.8"/><path class="st4" d="M252.8 346c3.1 0 6.3-1.3 8.4-3.5s3.6-5.5 3.5-8.4c-.3-6.5-5.2-11.9-11.9-11.9s-6.3 1.3-8.4 3.5-3.6 5.5-3.5 8.4c.3 6.5 5.2 11.9 11.9 11.9Z"/><circle class="st0" cx="251.6" cy="333.4" r="20.8"/><path class="st3" d="M325.5 391.1c3 0 6.3-1.3 8.4-3.5s3.6-5.5 3.5-8.4c-.3-6.5-5.2-11.9-11.9-11.9s-6.3 1.3-8.4 3.5-3.6 5.5-3.5 8.4c.3 6.5 5.2 11.9 11.9 11.9ZM455.3 385.9c3 0 6.3-1.3 8.4-3.5s3.6-5.5 3.5-8.4c-.3-6.5-5.2-11.9-11.9-11.9s-6.3 1.3-8.4 3.5-3.6 5.5-3.5 8.4c.3 6.5 5.2 11.9 11.9 11.9Z"/><circle class="st2" cx="325.5" cy="379.1" r="19"/><path class="st3" d="M325.5 349.6c3 0 6.3-1.3 8.4-3.5s3.6-5.5 3.5-8.4c-.3-6.5-5.2-11.9-11.9-11.9s-6.3 1.3-8.4 3.5-3.6 5.5-3.5 8.4c.3 6.5 5.2 11.9 11.9 11.9Z"/><circle class="st2" cx="325.5" cy="337.7" r="19"/></g></svg>