<?xml version="1.0" encoding="UTF-8"?><svg xmlns="http://www.w3.org/2000/svg" viewBox="0 0 2857.97 478.15"><defs><style>.cls-1{stroke:#173387;}.cls-1,.cls-2,.cls-3{fill:none;stroke-miterlimit:10;}.cls-1,.cls-3{stroke-width:2px;}.cls-4{fill:#173387;}.cls-2,.cls-3{stroke:#171636;}</style></defs><g id="_2eme_plan"><polygon class="cls-3" points="2715.63 299.77 2856.97 299.77 2856.97 184.82 2715.63 184.82 2715.63 113.83 2651.31 113.83 2651.31 78.26 2619.95 78.26 2619.95 1 1 1 1 477.15 2624.27 477.15 2624.27 406.04 2651.41 406.04 2651.41 374.54 2716.01 374.54 2715.63 299.77"/><path class="cls-3" d="M2510.7,325.14h48.29v-162.83h-48.29v-87.91h-24.15c-1.86,0-22.6-22.6-22.6-22.6h-64.08l-22.13,22.13h-23.06v20.89h-30.34l-19.5-19.5h-67.17l-17.8,17.8h-69.5l-20.2-20.2h-67.1l-21.17,21.17h-111.32v-25.89h-94.72v68.1h-281.08v-45.19h-120.11l-17.64-17.64h-57.89l-15.94,15.94h-20.59s-15.56-13-15.56-15.56-59.36,0-59.36,0l-17.61,17.61h-51.73v62.8h-377.04v-60.67h-175.21v-13.62H46.03v315.75h578.25v-9.29h175.83v-91.01h159.73v94.1h89.77c20.43,21.67,78.01,30.96,111.44,2.48,26.62-.62,73.05,0,73.05,0l16.41,16.41h58.51l17.8-17.8h15.63l18.34,18.34h57.19l17.45-17.45h118.13v-65.74h283.55v88.53h92.87v-24.76h112.06l21.36,21.36h67.17l20.89-20.89h63.92l21.13,21.13h68.02l22.56-22.56h28.21v21.4h21.67l21.05,21.05h67.48l21.67-21.67h23.53v-84.2Z"/><path class="cls-2" d="M2354.68,94.83v93.96h-28.39v105.93h28.39s-.62,93.84,0,93.84"/><polyline class="cls-2" points="2510.7 325.14 2510.7 293.65 2354.68 293.65"/><polyline class="cls-2" points="2493.37 293.65 2493.37 189.78 2378.28 189.78 2371.96 206.62 2371.96 277.51 2378.98 293.65"/><line class="cls-2" x1="2510.7" y1="189.78" x2="2510.7" y2="162.31"/><line class="cls-2" x1="2493.37" y1="189.78" x2="2558.99" y2="189.78"/><line class="cls-2" x1="2510.7" y1="293.65" x2="2558.99" y2="293.65"/><polyline class="cls-2" points="2378.28 189.78 2354.68 188.79 2354.68 216.14 2344.82 228.36 2326.3 228.36"/><polyline class="cls-2" points="2009.8 94.83 2009.8 188.79 2168.47 188.79 2168.47 293.65 2009.8 293.65 2009.8 389.52"/><line class="cls-2" x1="2009.8" y1="188.79" x2="2009.8" y2="293.65"/><polyline class="cls-2" points="1929.98 389.52 1929.98 348.52 1837.11 348.52"/><path class="cls-2" d="M1930.59,94.09v42.44h-94.72v52.25h18.56v104.86h-477.26v-5.56s54.13-47.33,0-94.22v-5.01h270.63s.64,104.79,0,104.79"/><path class="cls-3" d="M1929.98,188.79c-7.69,24.19-39.7,34.47-46.74,34.47-.62-14.13,0-34.47,0-34.47h78.39v104.86h-78.67v-34.42s39.33,6.73,47.02,34.42c22.65-14.13,49.29-64.17,0-104.86Z"/><polyline class="cls-2" points="1835.87 293.65 1835.87 188.79 1710.81 188.79"/><line class="cls-2" x1="1710.81" y1="136.31" x2="1710.81" y2="293.65"/><line class="cls-2" x1="1789.2" y1="136.31" x2="1789.2" y2="188.79"/><polyline class="cls-2" points="1576.46 188.86 1576.46 136.31 1490.78 136.31 1490.78 188.79"/><line class="cls-2" x1="1490.78" y1="91.11" x2="1490.78" y2="136.31"/><line class="cls-2" x1="1522.31" y1="188.86" x2="1522.31" y2="136.31"/><line class="cls-2" x1="1592.41" y1="293.65" x2="1592.41" y2="188.79"/><line class="cls-2" x1="1467.78" y1="293.65" x2="1467.78" y2="188.86"/><line class="cls-2" x1="1443.67" y1="293.65" x2="1443.67" y2="188.86"/><line class="cls-2" x1="1405.83" y1="293.65" x2="1405.83" y2="188.86"/><line class="cls-2" x1="1443.67" y1="271.57" x2="1405.83" y2="271.57"/><line class="cls-2" x1="1443.67" y1="241.22" x2="1405.83" y2="241.22"/><line class="cls-2" x1="1443.67" y1="210.74" x2="1405.83" y2="210.74"/><line class="cls-2" x1="1620.98" y1="293.65" x2="1620.98" y2="188.86"/><line class="cls-2" x1="1647.91" y1="209.25" x2="1620.98" y2="209.25"/><line class="cls-2" x1="1648.04" y1="241.4" x2="1620.98" y2="241.4"/><line class="cls-2" x1="1647.91" y1="271.57" x2="1620.98" y2="271.57"/><polyline class="cls-2" points="1381.32 283.95 1381.32 258.07 1388.36 258.07 1388.36 224 1380.43 224 1380.43 196.82"/><line class="cls-2" x1="1601.42" y1="325.76" x2="1601.42" y2="293.65"/><line class="cls-2" x1="1487.34" y1="391.5" x2="1487.34" y2="293.65"/><line class="cls-2" x1="1553.56" y1="325.76" x2="1487.34" y2="325.76"/><line class="cls-2" x1="1443.67" y1="391.5" x2="1443.67" y2="344.35"/><line class="cls-2" x1="1335.38" y1="390.61" x2="1335.38" y2="344.35"/><line class="cls-2" x1="1224.34" y1="391.89" x2="1224.34" y2="344.35"/><line class="cls-2" x1="1443.67" y1="136.31" x2="1443.67" y2="91.11"/><line class="cls-2" x1="1333.13" y1="89.41" x2="1333.13" y2="136.31"/><path class="cls-2" d="M1224.34,91.46s0,46.24,0,44.85"/><line class="cls-2" x1="1178.38" y1="154.26" x2="1178.38" y2="391.77"/><polyline class="cls-2" points="1178.38 188.86 801.48 188.86 800.1 295.42"/><polyline class="cls-2" points="1045.32 188.86 1045.32 294.96 959.83 295.42"/><line class="cls-2" x1="982.13" y1="188.86" x2="982.13" y2="295.3"/><line class="cls-2" x1="1005.3" y1="188.86" x2="1005.3" y2="295.17"/><line class="cls-2" x1="1045.32" y1="271.57" x2="1005.3" y2="271.57"/><line class="cls-2" x1="1045.32" y1="210.74" x2="1005.3" y2="210.74"/><line class="cls-2" x1="1045.32" y1="240.39" x2="1005.3" y2="240.39"/><line class="cls-2" x1="1037.28" y1="295" x2="1037.28" y2="312.46"/><line class="cls-2" x1="1035.56" y1="389.52" x2="1035.56" y2="373.99"/><line class="cls-2" x1="855.21" y1="188.86" x2="855.21" y2="295.3"/><line class="cls-2" x1="831" y1="188.86" x2="831" y2="295.42"/><line class="cls-2" x1="800.39" y1="273.01" x2="831" y2="273.01"/><line class="cls-2" x1="800.81" y1="240.39" x2="831" y2="240.39"/><line class="cls-2" x1="801.25" y1="206.65" x2="831" y2="206.65"/><polyline class="cls-2" points="801.34 130.19 769.29 130.19 769.29 93.59"/><polyline class="cls-2" points="800.1 351.59 769.29 351.59 769.29 386.43"/><polyline class="cls-2" points="624.27 386.43 624.27 338.53 561.67 338.53 561.67 315.3 499.24 315.3 499.24 329.09 484.72 329.09 484.72 315.3 422.29 315.3 422.29 395.71"/><path class="cls-3" d="M655.17,218.38v-32.17h40.37s4.42,29.02-40.37,32.17Z"/><path class="cls-3" d="M655.17,260.65v34.65h40.49s4.93-34.02-40.49-34.65Z"/><rect class="cls-2" x="587.04" y="186.2" width="37.23" height="105.35"/><line class="cls-2" x1="624.27" y1="256.39" x2="587.04" y2="256.39"/><line class="cls-2" x1="624.27" y1="218.38" x2="587.04" y2="218.38"/><rect class="cls-2" x="499.35" y="186.2" width="30.91" height="105.35"/><line class="cls-2" x1="530.26" y1="256.39" x2="499.35" y2="256.39"/><line class="cls-2" x1="530.26" y1="218.38" x2="499.35" y2="218.38"/><polyline class="cls-2" points="626.13 93.59 626.13 139.52 562.44 139.52 562.44 161.6 499.35 161.6 499.35 79.97"/><line class="cls-2" x1="562.44" y1="139.52" x2="562.44" y2="79.97"/><line class="cls-2" x1="577.58" y1="139.52" x2="577.58" y2="79.97"/><line class="cls-2" x1="562.44" y1="120.79" x2="499.35" y2="120.79"/><line class="cls-2" x1="577.58" y1="338.53" x2="577.58" y2="395.71"/><line class="cls-2" x1="561.67" y1="338.53" x2="561.67" y2="395.71"/><line class="cls-2" x1="499.24" y1="329.09" x2="499.24" y2="395.71"/><line class="cls-2" x1="484.72" y1="329.09" x2="484.72" y2="395.71"/><line class="cls-2" x1="561.67" y1="358.43" x2="499.35" y2="358.43"/><polyline class="cls-2" points="484.72 79.97 484.72 161.6 422.29 161.6 422.29 79.97"/><line class="cls-2" x1="499.35" y1="149.62" x2="484.72" y2="149.62"/><rect class="cls-2" x="139.13" y="186.2" width="345.59" height="105.35"/><line class="cls-2" x1="430.77" y1="291.56" x2="430.77" y2="186.2"/><line class="cls-2" x1="390.26" y1="291.56" x2="390.26" y2="186.2"/><line class="cls-2" x1="430.77" y1="206.6" x2="390.26" y2="206.6"/><line class="cls-2" x1="430.77" y1="238.88" x2="390.26" y2="238.88"/><line class="cls-2" x1="430.77" y1="270.72" x2="390.26" y2="270.72"/><line class="cls-2" x1="366.57" y1="291.56" x2="366.57" y2="186.2"/><line class="cls-2" x1="238.34" y1="291.56" x2="238.34" y2="186.2"/><line class="cls-2" x1="218.32" y1="291.56" x2="218.32" y2="186.2"/><line class="cls-2" x1="185.66" y1="291.56" x2="185.66" y2="186.2"/><line class="cls-2" x1="218.32" y1="206.6" x2="185.66" y2="206.6"/><line class="cls-2" x1="218.32" y1="238.88" x2="185.66" y2="238.88"/><line class="cls-2" x1="218.32" y1="270.72" x2="185.66" y2="270.72"/><polyline class="cls-2" points="405.62 79.97 405.62 164.08 295.88 164.08 295.88 79.97"/><line class="cls-2" x1="350.75" y1="79.97" x2="350.75" y2="164.08"/><line class="cls-2" x1="405.62" y1="122.03" x2="295.88" y2="122.03"/><line class="cls-2" x1="484.72" y1="120.79" x2="422.29" y2="120.79"/><polyline class="cls-2" points="279.35 79.97 279.35 164.08 171.24 164.08 171.24 79.97"/><line class="cls-2" x1="225.29" y1="79.97" x2="225.29" y2="164.08"/><line class="cls-2" x1="279.35" y1="120.79" x2="171.24" y2="120.79"/><line class="cls-2" x1="100.24" y1="79.97" x2="100.24" y2="164.08"/><line class="cls-2" x1="154.46" y1="120.79" x2="100.24" y2="120.79"/><polyline class="cls-2" points="46.03 186.2 124.64 186.2 124.64 291.56 46.03 291.56"/><line class="cls-2" x1="46.03" y1="238.88" x2="124.64" y2="238.88"/><line class="cls-2" x1="100.24" y1="395.71" x2="100.24" y2="315.3"/><line class="cls-2" x1="154.46" y1="358.43" x2="100.24" y2="358.43"/><polyline class="cls-2" points="279.89 395.71 279.89 315.3 169.42 315.3 169.42 395.71"/><line class="cls-2" x1="224.65" y1="395.71" x2="224.65" y2="315.3"/><line class="cls-2" x1="279.89" y1="358.43" x2="169.42" y2="358.43"/><polyline class="cls-2" points="405.16 395.71 405.16 315.3 296.49 315.3 296.49 395.71"/><line class="cls-2" x1="350.83" y1="395.71" x2="350.83" y2="315.3"/><line class="cls-2" x1="405.16" y1="358.43" x2="296.49" y2="358.43"/><line class="cls-2" x1="484.72" y1="358.43" x2="421.04" y2="358.43"/><polyline class="cls-2" points="169.42 1 154.46 32.4 154.46 79.97 154.46 164.08 46.03 164.08"/><polyline class="cls-2" points="169.42 477.15 154.46 447.53 154.46 395.71 154.46 315.3 46.03 315.3"/></g><g id="points"><path class="cls-4" d="M453.73,350.64c15.32,0,15.35-23.81,0-23.81s-15.35,23.81,0,23.81h0Z"/><circle class="cls-1" cx="453.51" cy="338.53" r="17.35"/><path class="cls-4" d="M258.14,350.64c15.32,0,15.35-23.81,0-23.81s-15.35,23.81,0,23.81h0Z"/><circle class="cls-1" cx="257.92" cy="338.53" r="17.35"/></g></svg>