<?xml version="1.0" encoding="UTF-8"?>
<svg id="partie_2" xmlns="http://www.w3.org/2000/svg" xmlns:xlink="http://www.w3.org/1999/xlink" viewBox="0 0 674 315.39">
  <defs>
    <style>
      .cls-1 {
        fill: #f5f6f0;
      }

      .cls-1, .cls-2, .cls-3, .cls-4, .cls-5, .cls-6, .cls-7 {
        stroke: #171636;
        stroke-linecap: round;
      }

      .cls-1, .cls-2, .cls-3, .cls-4, .cls-5, .cls-7 {
        stroke-linejoin: round;
      }

      .cls-2 {
        fill: url(#Dégradé_sans_nom_15-2);
      }

      .cls-3 {
        fill: url(#Dégradé_sans_nom_15-3);
      }

      .cls-8 {
        stroke: #1b1935;
      }

      .cls-8, .cls-4, .cls-6 {
        fill: none;
      }

      .cls-8, .cls-6 {
        stroke-miterlimit: 10;
      }

      .cls-5 {
        fill: url(#Dégradé_sans_nom_15-4);
      }

      .cls-7 {
        fill: url(#Dégradé_sans_nom_15);
      }
    </style>
    <linearGradient id="Dégradé_sans_nom_15" data-name="Dégradé sans nom 15" x1="252.5" y1="198.09" x2="252.5" y2="174.25" gradientUnits="userSpaceOnUse">
      <stop offset="0" stop-color="#333"/>
      <stop offset="1" stop-color="#9a9a9e"/>
    </linearGradient>
    <linearGradient id="Dégradé_sans_nom_15-2" data-name="Dégradé sans nom 15" x1="383.5" y1="138.33" x2="383.5" y2="115.62" xlink:href="#Dégradé_sans_nom_15"/>
    <linearGradient id="Dégradé_sans_nom_15-3" data-name="Dégradé sans nom 15" x1="436.58" y1="111.44" x2="436.58" y2="90.92" xlink:href="#Dégradé_sans_nom_15"/>
    <linearGradient id="Dégradé_sans_nom_15-4" data-name="Dégradé sans nom 15" x1="128.46" y1="258.93" x2="128.46" y2="237.64" xlink:href="#Dégradé_sans_nom_15"/>
  </defs>
  <polygon class="cls-1" points=".5 265.87 127.17 306.92 673.5 47.21 673.5 53.77 127.77 314.89 .52 272.57 .5 265.87"/>
  <polyline class="cls-4" points="527.8 7.37 7.82 254.29 .5 265.87 532.16 11.38 538.3 8.45"/>
  <polyline class="cls-4" points="127.47 314.83 127.17 306.92 141.94 295.71 666 41.67 668.96 40.23 668.95 37.06 668.92 29.66 656.72 26.19 644.47 22.91 671.06 9.16 644.77 .5 616.38 13.94 595.73 7.25 589.42 10.63 579.35 7.08 561.17 16.23"/>
  <polyline class="cls-6" points="663.74 12.9 643.87 6.18 617.13 20.86 595.41 12.41 589.4 16 579.35 12.53 567.36 19.08 538.3 8.45"/>
  <line class="cls-6" x1="665.88" y1="50.83" x2="665.88" y2="41.88"/>
  <polyline class="cls-4" points="201.26 190.36 278.94 153.61 269.68 149.73 279.84 144.95 280.13 141.06 289.99 135.99 299.85 135.99 306.57 133.45 306.28 128.82 316.58 123.89 324.35 124.18 328.83 122.09 355.72 108.65 367.07 111.94 425.03 84.75 410.69 79.67 424.73 73.4 432.8 74.29 450.72 65.63 452.82 58.76 466.86 52.48 477.91 52.48 489.86 46.51 490.16 41.73 504.8 33.66 516.15 33.96 521.83 32.47 516.45 29.48 521.23 27.99 521.23 23.8 532.43 17.38 545.28 17.38 551.88 13.42"/>
  <polyline class="cls-4" points="566.67 18.81 573.52 21.4 582.95 16.12 620.91 29.38 611.55 34.76 627.09 39.74 626.69 49.5 616.13 53.08 604.38 53.08 603.88 55.27 599.5 56.27 594.92 55.87 590.14 57.26 590.14 62.44 576 69.41 564.25 69.01 552.9 74.39 552.5 80.17 537.76 87.34 526.81 87.14 496.13 107.45 474.03 99.69 417.06 126.87 434.59 133.84 403.52 148.38 401.33 152.96 393.36 157.35 384.6 157.94 376.23 157.94 376.33 163.84 368.57 169.2 358.61 169.4 346.26 175.17 335.5 186.03 322.56 186.43 305.23 194.79 279.54 186.43"/>
  <line class="cls-4" x1="254.32" y1="198.09" x2="242.09" y2="203.75"/>
  <polyline class="cls-4" points="278.94 153.61 289.39 156.45 251.35 174.25"/>
  <line class="cls-4" x1="223.51" y1="187.27" x2="210.52" y2="193.35"/>
  <polygon class="cls-7" points="281.48 184.23 279.54 186.43 254.32 198.09 223.51 187.27 251.3 174.27 251.35 174.25 281.48 184.23"/>
  <polyline class="cls-4" points="251.05 196.58 251.3 174.31 251.3 174.27 251.35 174.29"/>
  <polyline class="cls-4" points="266.99 166.91 295.82 177.66 281.48 184.23"/>
  <line class="cls-4" x1="289.4" y1="156.45" x2="346.26" y2="175.17"/>
  <polygon class="cls-2" points="356.42 128.37 384.3 138.33 410.59 125.38 382.91 115.62 356.42 128.37"/>
  <line class="cls-4" x1="341.48" y1="116.02" x2="364.78" y2="123.59"/>
  <line class="cls-4" x1="396.25" y1="132.35" x2="419.95" y2="139.92"/>
  <line class="cls-4" x1="417.06" y1="126.87" x2="402.82" y2="134.74"/>
  <polygon class="cls-3" points="410.79 102.48 435.09 111.44 462.38 99.69 436.88 90.92 410.79 102.48"/>
  <line class="cls-4" x1="398.04" y1="97.3" x2="410.79" y2="102.48"/>
  <line class="cls-4" x1="435.49" y1="91.12" x2="435.89" y2="109.84"/>
  <polyline class="cls-4" points="434.59 133.84 434.49 149.28 401.8 163.47 402.1 167.35 392.77 171.99 383.5 171.84 376.71 174.82 376.78 178.71 367.52 183.64 358.41 184.23 343.1 191.63 340.26 197.01 332.34 200.29 321.89 201.34 304.78 210 277.6 202.38 261.31 209.55"/>
  <line class="cls-4" x1="277.74" y1="187.3" x2="277.6" y2="202.38"/>
  <line class="cls-4" x1="303.74" y1="194.39" x2="303.89" y2="209.63"/>
  <line class="cls-4" x1="322.56" y1="186.43" x2="321.89" y2="201.34"/>
  <line class="cls-4" x1="335.5" y1="186.03" x2="335.26" y2="198.87"/>
  <line class="cls-4" x1="343.02" y1="178.56" x2="343.1" y2="191.63"/>
  <line class="cls-4" x1="359.9" y1="169.3" x2="359.6" y2="184.09"/>
  <line class="cls-4" x1="366.85" y1="169.37" x2="366.77" y2="183.64"/>
  <line class="cls-4" x1="376.33" y1="163.84" x2="376.71" y2="174.82"/>
  <line class="cls-4" x1="384.6" y1="157.94" x2="384.77" y2="171.91"/>
  <line class="cls-4" x1="392.54" y1="157.27" x2="392.77" y2="171.99"/>
  <line class="cls-4" x1="401.33" y1="152.96" x2="401.65" y2="162.72"/>
  <polyline class="cls-4" points="473.23 100.09 473.13 115.42 496.63 121.7 496.13 107.45"/>
  <line class="cls-4" x1="433.4" y1="132.95" x2="473.13" y2="115.42"/>
  <polyline class="cls-4" points="496.63 121.7 510.33 115.3 510.48 110.07 526.91 102.6 537.36 102 537.76 87.34"/>
  <polyline class="cls-4" points="537.36 102 552.9 95.35 552.5 80.17"/>
  <polyline class="cls-4" points="552.75 89.75 564.55 84.23 575.6 83.93 576 69.41"/>
  <line class="cls-4" x1="564.25" y1="69.01" x2="564.55" y2="84.23"/>
  <polyline class="cls-4" points="575.6 83.93 590.69 76.46 590.14 62.44"/>
  <polyline class="cls-4" points="594.92 55.87 594.87 70.63 590.54 72.13"/>
  <polyline class="cls-4" points="599.5 56.27 600.03 71.6 594.87 70.63"/>
  <polyline class="cls-4" points="603.89 55.27 604.06 69.66 600.03 71.6"/>
  <line class="cls-4" x1="616.13" y1="53.08" x2="616.13" y2="65.84"/>
  <line class="cls-4" x1="604.06" y1="69.66" x2="609.81" y2="68.91"/>
  <line class="cls-4" x1="626.69" y1="49.5" x2="626.61" y2="60.77"/>
  <line class="cls-4" x1="450.72" y1="65.63" x2="523.92" y2="89.38"/>
  <line class="cls-4" x1="436.88" y1="90.92" x2="423.39" y2="85.62"/>
  <polyline class="cls-4" points="425.03 84.75 439.47 78.38 432.8 74.29"/>
  <polyline class="cls-4" points="479.7 101.28 494.84 94.31 507.79 99.29"/>
  <polyline class="cls-4" points="115.52 286.86 119.6 285.41 125.38 287.6 125.58 301.94 119.48 299.44 115.08 303.05 115.52 286.86 30.08 257.58 29.72 275.27"/>
  <polyline class="cls-4" points="125.38 287.6 235.02 232.83 230.64 229.05 266.49 211.92 191.4 187.42 156.95 204.15 151.27 203.45 30.08 257.58"/>
  <polyline class="cls-4" points="235.02 232.83 235.32 246.75 125.58 301.94"/>
  <polyline class="cls-4" points="266.49 211.92 266.79 227.26 235.22 242.09"/>
  <polygon class="cls-4" points="159.83 221.48 127.45 237.64 127.37 237.68 103.44 249.62 64.43 269.08 58.26 266.69 153.86 220.09 153.86 215.31 138.52 209.13 142.51 207.14 159.64 213.51 159.83 221.48"/>
  <polygon class="cls-4" points="193.49 232.83 98.09 280.43 90.52 278.04 129.79 258.93 153.48 247.4 187.92 230.64 193.49 232.83"/>
  <line class="cls-4" x1="76.58" y1="263.71" x2="101.28" y2="272.87"/>
  <line class="cls-4" x1="90.33" y1="256.74" x2="116.42" y2="265.5"/>
  <line class="cls-4" x1="142.11" y1="230.44" x2="167.21" y2="240.2"/>
  <line class="cls-4" x1="159.84" y1="221.48" x2="187.92" y2="230.64"/>
  <polyline class="cls-4" points="193.5 232.83 200.67 229.35 207.24 231.14 217.6 224.77 230.64 229.05"/>
  <polygon class="cls-5" points="153.48 247.4 129.79 258.93 103.44 249.62 127.37 237.68 127.45 237.64 153.48 247.4"/>
  <polyline class="cls-4" points="127.5 257.49 127.37 237.68 127.37 237.68"/>
  <line class="cls-4" x1="119.6" y1="285.41" x2="119.48" y2="299.44"/>
  <line class="cls-4" x1="382.91" y1="115.62" x2="382.71" y2="137.53"/>
  <line class="cls-4" x1="673.5" y1="47.21" x2="666" y2="45.02"/>
  <polyline class="cls-8" points="671.06 9.16 671.06 17.15 655.36 25.83"/>
  <polyline class="cls-8" points="644.47 22.91 644.47 29.93 668.82 36.98"/>
  <line class="cls-4" x1="527.8" y1="7.37" x2="533.16" y2="10.91"/>
</svg>