<?xml version="1.0" encoding="UTF-8"?>
<svg id="partie_5" xmlns="http://www.w3.org/2000/svg" xmlns:xlink="http://www.w3.org/1999/xlink" viewBox="0 0 967.46 526.41">
  <defs>
    <style>
      .cls-1, .cls-2, .cls-3, .cls-4, .cls-5, .cls-6, .cls-7, .cls-8, .cls-9, .cls-10, .cls-11, .cls-12, .cls-13, .cls-14 {
        stroke: #171636;
      }

      .cls-1, .cls-3, .cls-10, .cls-12, .cls-13 {
        stroke-miterlimit: 10;
      }

      .cls-1, .cls-4 {
        fill: #f2f2f2;
      }

      .cls-2 {
        fill: url(#Dégradé_sans_nom_15-2);
      }

      .cls-2, .cls-4, .cls-5, .cls-6, .cls-7, .cls-8, .cls-9, .cls-11, .cls-14 {
        stroke-linejoin: round;
      }

      .cls-2, .cls-4, .cls-5, .cls-6, .cls-7, .cls-9, .cls-10, .cls-12, .cls-14 {
        stroke-linecap: round;
      }

      .cls-3 {
        fill: #171636;
      }

      .cls-5 {
        fill: url(#Dégradé_sans_nom_15-5);
      }

      .cls-6 {
        fill: url(#Dégradé_sans_nom_8);
      }

      .cls-7, .cls-8, .cls-10, .cls-13 {
        fill: none;
      }

      .cls-9 {
        fill: url(#Dégradé_sans_nom_15-4);
      }

      .cls-11 {
        fill: #bb9c87;
      }

      .cls-12 {
        fill: url(#Dégradé_sans_nom_15-3);
      }

      .cls-14 {
        fill: url(#Dégradé_sans_nom_15);
      }
    </style>
    <linearGradient id="Dégradé_sans_nom_15" data-name="Dégradé sans nom 15" x1="686.73" y1="143.78" x2="686.73" y2="106.3" gradientUnits="userSpaceOnUse">
      <stop offset="0" stop-color="#333"/>
      <stop offset="1" stop-color="#9a9a9e"/>
    </linearGradient>
    <linearGradient id="Dégradé_sans_nom_15-2" data-name="Dégradé sans nom 15" x1="432.06" y1="264.96" x2="432.06" y2="229.98" xlink:href="#Dégradé_sans_nom_15"/>
    <linearGradient id="Dégradé_sans_nom_15-3" data-name="Dégradé sans nom 15" x1="516.54" y1="226.73" x2="516.54" y2="188.96" xlink:href="#Dégradé_sans_nom_15"/>
    <linearGradient id="Dégradé_sans_nom_15-4" data-name="Dégradé sans nom 15" x1="552.84" y1="203.16" x2="552.84" y2="178.01" xlink:href="#Dégradé_sans_nom_15"/>
    <linearGradient id="Dégradé_sans_nom_15-5" data-name="Dégradé sans nom 15" x1="391.83" y1="283.34" x2="391.83" y2="249.7" xlink:href="#Dégradé_sans_nom_15"/>
    <linearGradient id="Dégradé_sans_nom_8" data-name="Dégradé sans nom 8" x1="300.63" y1="329.73" x2="300.63" y2="290.4" gradientUnits="userSpaceOnUse">
      <stop offset="0" stop-color="#333"/>
      <stop offset="1" stop-color="#9a9a9e"/>
    </linearGradient>
  </defs>
  <path class="cls-11" d="M965.46,55.65c-4.11,24.16-31.7,32.56-31.7,32.56.34-.83.32-2.95.17-5.29v-.02s2.73-1.3,2.73-1.3h.01s8.05-3.84,8.05-3.84v-4.86c1.43-.13,2.49-.72,2.49-2.16s-.92-2.57-2.49-3.05v-2.78s-1.02.51-1.02.51c0,0-.17-1.71,0-12.17-2.51-2.34-5.14-1.62-7.18-.26h-.01c-2.13,1.42-3.61,3.52-3.61,3.52,0,0-.86,2.57-.17,8.4,2.83.84,3.99,2.23,4.4,3.51.51,1.58-.12,3-.12,3h-.01s-.01,0-.01,0l-1.69,1.25-2.3,1.68-2.33,1.69s.18,9.77-.17,14.23c4.63,1.54,3.09,6.68,3.09,6.68l-49.26,23.46s-31.68,31.05-66.51,45.42c-75.63,31.2-201.84,104.91-178.57,102.85,0,0-158.17,75.45-176.55,85.29-18.37,9.85-90.28,38.02-90.28,38.02,0,0-262.22,97.92-267.44,99.88-5.22,1.96-52.18,26.08-60.33,29.34-8.16,3.26-31.31,4.57-31.31,4.57,0,0-.33,1.63-2.29-6.2-10.76-1.96-10.01-36.81-10.01-36.81,0,0,99.23-26.71,109.47-30.12,10.23-3.41,128.48-42.05,138.71-45.83,10.24-3.79,132.32-57.31,132.32-57.31,0,0,225.16-109.58,237.29-115.27,12.13-5.69,97.99-47.49,102.45-49.47,4.45-1.98,59.87-30.67,80.66-42.79,20.79-12.13,98.28-70.71,104.47-76.28,6.19-5.57,42.18-39.62,40.6-45.74,6.53,2.27,16.95-2.86,16.95-2.86,0,0,5.65,14.39,1.53,38.55Z"/>
  <path class="cls-8" d="M928.05,71.93l.03,4.86-8.02,3.89c2.95-1.46,1.03-9.84.29-10.17.41.18,4.82,1.72,7.7,1.42Z"/>
  <path class="cls-3" d="M965.89,5.53c-2.04,2.37-4.4,3.22-4.4,3.22,0,0-1.18,1.97.92,2.04,2.1.06.06,2.29-.2,2.1-.26-.2,1.36,4.52,1.36,4.52,0,0-10.42,5.13-16.95,2.86,1.58,6.12-34.4,40.18-40.59,45.75-6.19,5.57-83.67,64.16-104.46,76.29-20.78,12.12-76.2,40.82-80.65,42.8-4.46,1.98-90.31,43.79-102.44,49.48-12.12,5.69-237.27,115.3-237.27,115.3,0,0-122.07,53.54-132.31,57.33-10.23,3.78-128.47,42.44-138.7,45.85-10.24,3.41-109.47,30.13-109.47,30.13,0,0,.73-10.11-.21-30.24,64.63-9.84,318.91-102.56,324.06-104.43,5.15-1.88,207.82-97.05,207.82-97.05l108.55-52.08,48.54-23.28,29.84-14.32s6.32-3.1,15.75-7.73c26.43-12.97,77.29-37.95,81.79-40.31,6.12-3.21,63.19-34.07,70.18-38.15,6.98-4.07,31.26-24.52,44.74-38.54,13.49-14.03,14.57-21.79,14.57-21.79,0,0,18.61-14.46,19.09-14.46.44.03,2.47,2.35.44,4.71Z"/>
  <path class="cls-13" d="M965.45.82c-56.75-5.44-230.8,60.55-230.8,60.55,0,0-295.21,133.58-456.01,210.51-1.75.83-3.49,1.67-5.21,2.49-18.91,9.07-37.16,18.49-54.66,28.06C88.62,373.63.52,452.95.52,452.95"/>
  <path class="cls-1" d="M928.9,104.65c-7.2,4.94-11.83-8.59-11.83-8.59,0,0,1.51-5.15-3.13-6.66.32-4.46.08-14.23.08-14.23l2.32-1.71s.7,4.59.99,8.54v.02s-.14,5.29-.14,5.29c2.75.9,18.91,12.41,11.71,17.33Z"/>
  <path class="cls-4" d="M920.43,67.5c-.42-1.28-1.59-2.66-4.42-3.48-.73-5.83.12-8.4.12-8.4,0,0,1.47-2.11,3.59-3.54h.01c6.93,1.71,3.73,11.78.71,15.43Z"/>
  <path class="cls-7" d="M920.31,70.5h-.01"/>
  <path class="cls-4" d="M930.53,69.76c0,1.44-1.05,2.04-2.48,2.18-2.88.3-7.29-1.24-7.7-1.42t-.02,0s.62-1.42.1-3c3.11-1.13,5.77-1.34,7.59-.78,1.57.47,2.5,1.52,2.51,3.03Z"/>
  <path class="cls-4" d="M920.06,80.69h-.01c-3,1.45-1.42-8.92-1.42-8.92l1.68-1.26h.01s0,0,.01,0,.01,0,.02,0c.73.34,2.66,8.71-.29,10.17Z"/>
  <line class="cls-13" x1="915.86" y1="5.77" x2="946.36" y2="15.27"/>
  <path class="cls-10" d="M932.62,10.47s16.36-3.7,21.93-2.08"/>
  <polyline class="cls-7" points="712.96 99.85 760.14 77.51 768.36 78.62 787.24 69.64 783.48 67.65 834.28 43.71 863.9 29.05 869.91 31.2 890.7 21.1 897.28 23.74 918.19 13.92 931.11 17.37 892.25 36.89 900.88 40.22 869.91 55.2 825.28 77.6 740.63 117.42"/>
  <polyline class="cls-7" points="706.62 106.3 717.54 101.68 712.96 99.85"/>
  <line class="cls-10" x1="809.21" y1="35.3" x2="834.28" y2="43.71"/>
  <line class="cls-10" x1="869.91" y1="55.2" x2="900.3" y2="65.67"/>
  <polyline class="cls-10" points="735.08 154.07 708.12 145.36 755.62 122.56 665.65 92.71"/>
  <polyline class="cls-10" points="656.92 96.68 679.16 104.87 640.26 123.39 615.06 115.77"/>
  <path class="cls-4" d="M706.62,140.57l-19.89,9.56-7.96-2.58c-.49-1.43-1.56-3.26-3.94-4.24-1.76-.72-4.68-.33-7.7.47l17-8.95,2.6-1.37c9-4.74,19.89,7.11,19.89,7.11Z"/>
  <path class="cls-14" d="M742.33,123.39l-35.71,17.18s-10.89-11.85-19.89-7.11l-19.6,10.32-36.01-11.67,54.07-25.81,57.14,17.09Z"/>
  <polygon class="cls-2" points="463.72 246.96 474.65 250.46 442.97 264.96 387.37 246.61 417.15 232.17 427.56 234.91 439.61 229.98 476.75 240.91 463.72 246.96"/>
  <polyline class="cls-7" points="348.68 238.74 381 249.7 387.37 246.61"/>
  <polygon class="cls-12" points="509.24 188.96 473.14 206.4 479.06 209.24 467.05 214.52 505.99 226.73 518.16 221.41 529.11 224.66 566.03 207.84 509.24 188.96"/>
  <polygon class="cls-9" points="533.17 178.01 516.54 184.5 573.73 203.16 589.15 195.86 533.17 178.01"/>
  <polyline class="cls-7" points="552.84 170.22 545 167.62 552.84 165.12"/>
  <polygon class="cls-5" points="434.98 267.38 410.53 280.71 397.58 277.33 386.69 283.34 348.68 271.88 360.41 266.82 350.57 264.37 381 249.7 434.98 267.38"/>
  <polyline class="cls-7" points="472.39 279.64 434.98 267.38 434.99 267.38"/>
  <polyline class="cls-7" points="278.64 271.88 364.27 300.64 343.45 311.22 381.86 322.01"/>
  <polyline class="cls-6" points="343.44 311.22 334.19 308.24 348.68 302.43 313.04 290.4 300.48 296.94 292.32 294.18 252.58 313.12 263.75 316.65 290.98 325.26 305.11 329.73 343.44 311.22"/>
  <line class="cls-7" x1="246.83" y1="311.3" x2="218.77" y2="302.43"/>
  <polyline class="cls-7" points="268.01 276.99 305.43 287.55 292.32 294.18 292.92 325.87"/>
  <line class="cls-7" x1="290.98" y1="325.26" x2="242.91" y2="348.88"/>
  <polyline class="cls-7" points="264.82 338.12 263.75 316.65 215.73 340.15"/>
  <polygon class="cls-7" points="260.46 355.13 263.47 356.07 229.84 375.2 220.23 371.77 212.34 376.58 206.85 374.17 194.84 381.38 188.67 379.66 160.65 393.79 119.34 380.63 140.89 370.85 145.95 372.57 131.01 379.32 158.89 388.5 171.62 382.4 172.98 381.75 180.75 378.06 137.72 363.2 144.72 359.04 158.18 363.2 184.69 351.37 173.72 348.59 246.83 311.3 252.58 313.12 207.34 337.46 215.73 340.15 215.61 340.21 241.99 348.59 242.91 348.88 253.3 352.22 292.54 332.62 300.92 334.72 260.46 355.13"/>
  <line class="cls-7" x1="241.99" y1="348.59" x2="215.73" y2="340.15"/>
  <polyline class="cls-13" points="146.96 410.52 81.31 389.34 81.31 410.52 114.14 421.27"/>
  <path class="cls-1" d="M689.49,176.12l-48.54,23.28-88.11-29.18,1.28-7.2s-7.23,1.24,0-2.5c7.23-3.74,5.24-3.99,5.24-3.99l19.2-8.98s-1.75-3.24,1.75-3.99c3.49-.75,2.99,2.25,2.99,2.25l28.43-14.47s18.58-6.19,19.39.77c.06,6.96,0,8.96,0,8.96,0,0,5.8-1.75,6.3,1,.5,2.74-2,4.49-2.75,4.49.25,1.49,4.99,1.74,1,4.73,3.24,1,1.81,3.25,1.81,3.25l15.15-7.49s3.24-1.49,4.24.5c1.6-.72,6.02-2.65,10.26-3.77,3.02-.8,5.94-1.19,7.7-.47,2.38.98,3.45,2.81,3.94,4.24.37,1.11.39,1.96.39,1.96v7.02l7.57,2s2.31,3.49-1.43,3.24v11.22s4,.31,4.19,3.13Z"/>
  <line class="cls-7" x1="313.04" y1="290.4" x2="313.1" y2="325.87"/>
  <line class="cls-7" x1="300.48" y1="296.94" x2="300.63" y2="328.31"/>
  <line class="cls-7" x1="374.04" y1="253.05" x2="373.45" y2="279.34"/>
  <line class="cls-7" x1="360.41" y1="266.82" x2="360.41" y2="275.41"/>
  <line class="cls-7" x1="417.15" y1="232.17" x2="417.15" y2="256.01"/>
  <line class="cls-7" x1="427.56" y1="234.9" x2="427.56" y2="259.3"/>
  <line class="cls-7" x1="439.62" y1="229.97" x2="439.62" y2="263.1"/>
  <line class="cls-7" x1="463.72" y1="246.96" x2="463.72" y2="255.46"/>
  <line class="cls-7" x1="479.06" y1="209.24" x2="479.06" y2="218.28"/>
  <line class="cls-7" x1="509.24" y1="188.96" x2="509.24" y2="225.31"/>
  <line class="cls-7" x1="533.17" y1="178.01" x2="533.17" y2="189.93"/>
  <line class="cls-7" x1="686.73" y1="150.13" x2="719.33" y2="161.8"/>
  <path class="cls-13" d="M25.46,447.61s36.06-33.82,55.85-37.1"/>
  <line class="cls-7" x1="684.13" y1="134.83" x2="685.19" y2="106.3"/>
</svg>