<svg id="partie_5" xmlns="http://www.w3.org/2000/svg" xmlns:xlink="http://www.w3.org/1999/xlink" viewBox="0 0 967.46 526.41"><defs><linearGradient id="Dégradé_sans_nom_15" data-name="Dégradé sans nom 15" x1="686.73" y1="143.78" x2="686.73" y2="106.3" gradientUnits="userSpaceOnUse"><stop offset="0" stop-color="#333"/><stop offset="1" stop-color="#9a9a9e"/></linearGradient><linearGradient id="Dégradé_sans_nom_15-2" data-name="Dégradé sans nom 15" x1="432.06" y1="264.96" x2="432.06" y2="229.98" xlink:href="#Dégradé_sans_nom_15"/><linearGradient id="Dégradé_sans_nom_15-3" data-name="Dégradé sans nom 15" x1="516.54" y1="226.73" x2="516.54" y2="188.96" xlink:href="#Dégradé_sans_nom_15"/><linearGradient id="Dégradé_sans_nom_15-4" data-name="Dégradé sans nom 15" x1="552.84" y1="203.16" x2="552.84" y2="178.01" xlink:href="#Dégradé_sans_nom_15"/><linearGradient id="Dégradé_sans_nom_15-5" data-name="Dégradé sans nom 15" x1="391.83" y1="283.34" x2="391.83" y2="249.7" xlink:href="#Dégradé_sans_nom_15"/><linearGradient id="Dégradé_sans_nom_8" data-name="Dégradé sans nom 8" x1="300.63" y1="329.73" x2="300.63" y2="290.4" gradientUnits="userSpaceOnUse"><stop offset="0" stop-color="#333"/><stop offset="1" stop-color="#9a9a9e"/></linearGradient><style>.cls-1,.cls-10,.cls-13,.cls-4,.cls-7{stroke:#171636}.cls-1,.cls-10,.cls-13{stroke-miterlimit:10}.cls-1,.cls-4{fill:#f2f2f2}.cls-4,.cls-7{stroke-linejoin:round}.cls-10,.cls-4,.cls-7{stroke-linecap:round}.cls-10,.cls-13,.cls-7{fill:none}</style></defs><path d="M965.46 55.65c-4.11 24.16-31.7 32.56-31.7 32.56.34-.83.32-2.95.17-5.29v-.02l2.73-1.3h.01l8.05-3.84V72.9c1.43-.13 2.49-.72 2.49-2.16s-.92-2.57-2.49-3.05v-2.78l-1.02.51s-.17-1.71 0-12.17c-2.51-2.34-5.14-1.62-7.18-.26h-.01c-2.13 1.42-3.61 3.52-3.61 3.52s-.86 2.57-.17 8.4c2.83.84 3.99 2.23 4.4 3.51.51 1.58-.12 3-.12 3h-.02l-1.69 1.25-2.3 1.68-2.33 1.69s.18 9.77-.17 14.23c4.63 1.54 3.09 6.68 3.09 6.68l-49.26 23.46s-31.68 31.05-66.51 45.42c-75.63 31.2-201.84 104.91-178.57 102.85 0 0-158.17 75.45-176.55 85.29-18.37 9.85-90.28 38.02-90.28 38.02s-262.22 97.92-267.44 99.88c-5.22 1.96-52.18 26.08-60.33 29.34-8.16 3.26-31.31 4.57-31.31 4.57s-.33 1.63-2.29-6.2C.29 517.62 1.04 482.77 1.04 482.77s99.23-26.71 109.47-30.12c10.23-3.41 128.48-42.05 138.71-45.83 10.24-3.79 132.32-57.31 132.32-57.31S606.7 239.93 618.83 234.24c12.13-5.69 97.99-47.49 102.45-49.47 4.45-1.98 59.87-30.67 80.66-42.79 20.79-12.13 98.28-70.71 104.47-76.28 6.19-5.57 42.18-39.62 40.6-45.74 6.53 2.27 16.95-2.86 16.95-2.86s5.65 14.39 1.53 38.55Z" style="fill:#bb9c87;stroke-linejoin:round;stroke:#171636"/><path d="m928.05 71.93.03 4.86-8.02 3.89c2.95-1.46 1.03-9.84.29-10.17.41.18 4.82 1.72 7.7 1.42Z" style="fill:none;stroke-linejoin:round;stroke:#171636"/><path d="M965.89 5.53c-2.04 2.37-4.4 3.22-4.4 3.22s-1.18 1.97.92 2.04c2.1.06.06 2.29-.2 2.1-.26-.2 1.36 4.52 1.36 4.52s-10.42 5.13-16.95 2.86c1.58 6.12-34.4 40.18-40.59 45.75-6.19 5.57-83.67 64.16-104.46 76.29-20.78 12.12-76.2 40.82-80.65 42.8-4.46 1.98-90.31 43.79-102.44 49.48-12.12 5.69-237.27 115.3-237.27 115.3s-122.07 53.54-132.31 57.33c-10.23 3.78-128.47 42.44-138.7 45.85C99.96 456.48.73 483.2.73 483.2s.73-10.11-.21-30.24c64.63-9.84 318.91-102.56 324.06-104.43 5.15-1.88 207.82-97.05 207.82-97.05l108.55-52.08 48.54-23.28 29.84-14.32s6.32-3.1 15.75-7.73c26.43-12.97 77.29-37.95 81.79-40.31 6.12-3.21 63.19-34.07 70.18-38.15 6.98-4.07 31.26-24.52 44.74-38.54 13.49-14.03 14.57-21.79 14.57-21.79S964.97.82 965.45.82c.44.03 2.47 2.35.44 4.71Z" style="fill:#171636;stroke-miterlimit:10;stroke:#171636"/><path class="cls-13" d="M965.45.82c-56.75-5.44-230.8 60.55-230.8 60.55S439.44 194.95 278.64 271.88c-1.75.83-3.49 1.67-5.21 2.49-18.91 9.07-37.16 18.49-54.66 28.06C88.62 373.63.52 452.95.52 452.95"/><path class="cls-1" d="M928.9 104.65c-7.2 4.94-11.83-8.59-11.83-8.59s1.51-5.15-3.13-6.66c.32-4.46.08-14.23.08-14.23l2.32-1.71s.7 4.59.99 8.54v.02l-.14 5.29c2.75.9 18.91 12.41 11.71 17.33Z"/><path class="cls-4" d="M920.43 67.5c-.42-1.28-1.59-2.66-4.42-3.48-.73-5.83.12-8.4.12-8.4s1.47-2.11 3.59-3.54h.01c6.93 1.71 3.73 11.78.71 15.43Z"/><path class="cls-7" d="M920.31 70.5h-.01"/><path class="cls-4" d="M930.53 69.76c0 1.44-1.05 2.04-2.48 2.18-2.88.3-7.29-1.24-7.7-1.42h-.02s.62-1.42.1-3c3.11-1.13 5.77-1.34 7.59-.78 1.57.47 2.5 1.52 2.51 3.03Z"/><path class="cls-4" d="M920.06 80.69h-.01c-3 1.45-1.42-8.92-1.42-8.92l1.68-1.26h.04c.73.34 2.66 8.71-.29 10.17Z"/><path class="cls-13" d="m915.86 5.77 30.5 9.5"/><path class="cls-10" d="M932.62 10.47s16.36-3.7 21.93-2.08"/><path class="cls-7" d="m712.96 99.85 47.18-22.34 8.22 1.11 18.88-8.98-3.76-1.99 50.8-23.94 29.62-14.66 6.01 2.15 20.79-10.1 6.58 2.64 20.91-9.82 12.92 3.45-38.86 19.52 8.63 3.33-30.97 14.98-44.63 22.4-84.65 39.82"/><path class="cls-7" d="m706.62 106.3 10.92-4.62-4.58-1.83"/><path class="cls-10" d="m809.21 35.3 25.07 8.41M869.91 55.2l30.39 10.47M735.08 154.07l-26.96-8.71 47.5-22.8-89.97-29.85"/><path class="cls-10" d="m656.92 96.68 22.24 8.19-38.9 18.52-25.2-7.62"/><path class="cls-4" d="m706.62 140.57-19.89 9.56-7.96-2.58c-.49-1.43-1.56-3.26-3.94-4.24-1.76-.72-4.68-.33-7.7.47l17-8.95 2.6-1.37c9-4.74 19.89 7.11 19.89 7.11Z"/><path d="m742.33 123.39-35.71 17.18s-10.89-11.85-19.89-7.11l-19.6 10.32-36.01-11.67 54.07-25.81 57.14 17.09Z" style="fill:url(#Dégradé_sans_nom_15);stroke-linecap:round;stroke-linejoin:round;stroke:#171636"/><path style="stroke-linecap:round;stroke-linejoin:round;fill:url(#Dégradé_sans_nom_15-2);stroke:#171636" d="m463.72 246.96 10.93 3.5-31.68 14.5-55.6-18.35 29.78-14.44 10.41 2.74 12.05-4.93 37.14 10.93-13.03 6.05z"/><path class="cls-7" d="M348.68 238.74 381 249.7l6.37-3.09"/><path style="fill:url(#Dégradé_sans_nom_15-3);stroke-linecap:round;stroke-miterlimit:10;stroke:#171636" d="m509.24 188.96-36.1 17.44 5.92 2.84-12.01 5.28 38.94 12.21 12.17-5.32 10.95 3.25 36.92-16.82-56.79-18.88z"/><path style="fill:url(#Dégradé_sans_nom_15-4);stroke-linecap:round;stroke-linejoin:round;stroke:#171636" d="m533.17 178.01-16.63 6.49 57.19 18.66 15.42-7.3-55.98-17.85z"/><path class="cls-7" d="m552.84 170.22-7.84-2.6 7.84-2.5"/><path style="fill:url(#Dégradé_sans_nom_15-5);stroke-linecap:round;stroke-linejoin:round;stroke:#171636" d="m434.98 267.38-24.45 13.33-12.95-3.38-10.89 6.01-38.01-11.46 11.73-5.06-9.84-2.45L381 249.7l53.98 17.68z"/><path class="cls-7" d="m472.39 279.64-37.41-12.26h.01M278.64 271.88l85.63 28.76-20.82 10.58 38.41 10.79"/><path style="fill:url(#Dégradé_sans_nom_8);stroke-linecap:round;stroke-linejoin:round;stroke:#171636" d="m343.44 311.22-9.25-2.98 14.49-5.81-35.64-12.03-12.56 6.54-8.16-2.76-39.74 18.94 11.17 3.53 27.23 8.61 14.13 4.47 38.33-18.51"/><path class="cls-7" d="m246.83 311.3-28.06-8.87M268.01 276.99l37.42 10.56-13.11 6.63.6 31.69M290.98 325.26l-48.07 23.62M264.82 338.12l-1.07-21.47-48.02 23.5"/><path class="cls-7" d="m260.46 355.13 3.01.94-33.63 19.13-9.61-3.43-7.89 4.81-5.49-2.41-12.01 7.21-6.17-1.72-28.02 14.13-41.31-13.16 21.55-9.78 5.06 1.72-14.94 6.75 27.88 9.18 12.73-6.1 1.36-.65 7.77-3.69-43.03-14.86 7-4.16 13.46 4.16 26.51-11.83-10.97-2.78 73.11-37.29 5.75 1.82-45.24 24.34 8.39 2.69-.12.06 26.38 8.38.92.29 10.39 3.34 39.24-19.6 8.38 2.1-40.46 20.41zM241.99 348.59l-26.26-8.44"/><path class="cls-13" d="m146.96 410.52-65.65-21.18v21.18l32.83 10.75"/><path class="cls-1" d="m689.49 176.12-48.54 23.28-88.11-29.18 1.28-7.2s-7.23 1.24 0-2.5 5.24-3.99 5.24-3.99l19.2-8.98s-1.75-3.24 1.75-3.99c3.49-.75 2.99 2.25 2.99 2.25l28.43-14.47s18.58-6.19 19.39.77c.06 6.96 0 8.96 0 8.96s5.8-1.75 6.3 1c.5 2.74-2 4.49-2.75 4.49.25 1.49 4.99 1.74 1 4.73 3.24 1 1.81 3.25 1.81 3.25l15.15-7.49s3.24-1.49 4.24.5c1.6-.72 6.02-2.65 10.26-3.77 3.02-.8 5.94-1.19 7.7-.47 2.38.98 3.45 2.81 3.94 4.24.37 1.11.39 1.96.39 1.96v7.02l7.57 2s2.31 3.49-1.43 3.24v11.22s4 .31 4.19 3.13Z"/><path class="cls-7" d="m313.04 290.4.06 35.47M300.48 296.94l.15 31.37M374.04 253.05l-.59 26.29M360.41 266.82v8.59M417.15 232.17v23.84M427.56 234.9v24.4M439.62 229.97v33.13M463.72 246.96v8.5M479.06 209.24v9.04M509.24 188.96v36.35M533.17 178.01v11.92M686.73 150.13l32.6 11.67"/><path class="cls-13" d="M25.46 447.61s36.06-33.82 55.85-37.1"/><path class="cls-7" d="m684.13 134.83 1.06-28.53"/></svg>