<?xml version="1.0" encoding="UTF-8"?>
<svg id="partie_4" xmlns="http://www.w3.org/2000/svg" xmlns:xlink="http://www.w3.org/1999/xlink" viewBox="0 0 986.37 498.39">
  <defs>
    <style>
      .cls-1 {
        fill: url(#Dégradé_sans_nom_15-2);
      }

      .cls-1, .cls-2, .cls-3, .cls-4, .cls-5, .cls-6, .cls-7, .cls-8 {
        stroke: #171636;
        stroke-linecap: round;
      }

      .cls-1, .cls-2, .cls-3, .cls-4, .cls-5, .cls-6, .cls-8 {
        stroke-linejoin: round;
      }

      .cls-2 {
        fill: url(#Dégradé_sans_nom_15-3);
      }

      .cls-3 {
        fill: url(#Dégradé_sans_nom_15-5);
      }

      .cls-4, .cls-7 {
        fill: none;
      }

      .cls-5 {
        fill: url(#Dégradé_sans_nom_15-4);
      }

      .cls-6 {
        fill: #171636;
      }

      .cls-7 {
        stroke-miterlimit: 10;
      }

      .cls-8 {
        fill: url(#Dégradé_sans_nom_15);
      }
    </style>
    <linearGradient id="Dégradé_sans_nom_15" data-name="Dégradé sans nom 15" x1="405.44" y1="285.99" x2="405.44" y2="265.26" gradientUnits="userSpaceOnUse">
      <stop offset="0" stop-color="#333"/>
      <stop offset="1" stop-color="#9a9a9e"/>
    </linearGradient>
    <linearGradient id="Dégradé_sans_nom_15-2" data-name="Dégradé sans nom 15" x1="274.01" y1="348.19" x2="274.01" y2="327.13" xlink:href="#Dégradé_sans_nom_15"/>
    <linearGradient id="Dégradé_sans_nom_15-3" data-name="Dégradé sans nom 15" x1="535.03" y1="223.78" x2="535.03" y2="202.62" xlink:href="#Dégradé_sans_nom_15"/>
    <linearGradient id="Dégradé_sans_nom_15-4" data-name="Dégradé sans nom 15" x1="585.92" y1="199.37" x2="585.92" y2="175.08" xlink:href="#Dégradé_sans_nom_15"/>
    <linearGradient id="Dégradé_sans_nom_15-5" data-name="Dégradé sans nom 15" x1="664.13" y1="162.14" x2="664.13" y2="139.87" xlink:href="#Dégradé_sans_nom_15"/>
  </defs>
  <polygon class="cls-8" points="431.76 274.51 425.9 277.41 408.51 285.99 379.12 276.41 403.37 265.26 403.42 265.28 431.76 274.51"/>
  <path class="cls-4" d="M258.81,392.57c-23.42,9.59-42.81,17.28-42.81,17.28-24.86,9.52-67.16,23.51-111.73,35.26C51.73,458.95.5,467.76.5,467.76c0,0,24.97-29.21,39.43-40.78,16.44-13.14,57.51-42.87,73.05-52.28,4.09-2.49,16.51-9.93,30.85-18.45l114.98,36.32Z"/>
  <path class="cls-7" d="M974.41,6.21c-8.65-3.38-17.83-5.17-27.11-5.56-10.24-.43-25.44-.15-40.83,3.45-24.59,5.75-65.72,22.4-65.72,22.4l-78.43,33.31-111.73,50.49-120.4,55.57-109.04,51.84-73.08,34.99-27.36,13.1-103.32,49.46c-10.19,4.9-20.25,10.13-30.14,15.7-11.9,6.7-28.69,16.56-43.42,25.29l114.98,36.32c31.41-12.85,70.08-29.1,78.98-34.75,15.54-9.86,97.4-45.56,97.4-45.56l207.03-101.72,155.51-75.74,97.69-49.44s24.8-13.15,46.61-29.88c21.8-16.73,36.44-26.64,42.87-35.6,3.39-4.73-2.56-10.57-10.49-13.67ZM425.9,277.41l-17.39,8.58-29.39-9.58,24.25-11.15.05.02,28.34,9.23-5.86,2.9Z"/>
  <path class="cls-6" d="M985.49,22.57c-3.8,6.1-16.5,16.93-26.51,25.74-9.09,8-15.37,14.22-19.49,18.47-10.61,10.96-36.23,36.2-49.45,45.69-12.52,8.98-59.2,35.08-59.2,35.08l-132.15,65.62-83.95,40.44-79.67,39.13-89.82,43.42-57.56,27.99-69.05,32.46c-20.89,9.82-42.11,18.91-63.63,27.24l-49.27,19.07s-64.36,21.84-86.24,28.18c-26.79,7.77-61.04,15.34-61.04,15.34L.5,497.89v-30.13s51.23-8.81,103.77-22.65c44.57-11.75,86.87-25.74,111.73-35.26,0,0,106.26-42.17,121.79-52.03,15.54-9.86,97.4-45.56,97.4-45.56l207.03-101.72,155.51-75.74,97.69-49.44s24.8-13.15,46.61-29.88c21.8-16.73,36.44-26.64,42.87-35.6l.59,2.69Z"/>
  <line class="cls-7" x1="258.92" y1="392.61" x2="258.81" y2="392.57"/>
  <line class="cls-7" x1="347.37" y1="326.86" x2="379.91" y2="337"/>
  <line class="cls-7" x1="291.52" y1="309.46" x2="341.95" y2="325.17"/>
  <line class="cls-7" x1="253.98" y1="297.76" x2="284.57" y2="307.29"/>
  <polygon class="cls-1" points="248.76 339.67 275.8 348.19 299.25 336.24 273.86 327.13 248.76 339.67"/>
  <polyline class="cls-4" points="341.96 325.14 238.61 375.6 187.67 359.9 291.49 309.57"/>
  <polyline class="cls-4" points="284.58 307.28 181.9 357.99 155.32 349.46 151 352.05 269.07 388.31 274.45 386.05 244.56 377.62 347.35 326.9"/>
  <polygon class="cls-2" points="508.53 215.02 537.52 223.78 561.52 211.82 534.37 202.62 508.53 215.02"/>
  <line class="cls-7" x1="534.35" y1="202.95" x2="534.37" y2="222.64"/>
  <line class="cls-7" x1="403.42" y1="265.26" x2="403.5" y2="283.46"/>
  <line class="cls-7" x1="273.86" y1="327.13" x2="274.15" y2="347.71"/>
  <line class="cls-7" x1="906.47" y1="4.1" x2="979.47" y2="26"/>
  <line class="cls-7" x1="815.79" y1="103.47" x2="842.6" y2="112.09"/>
  <line class="cls-7" x1="728.09" y1="75.27" x2="752.05" y2="82.98"/>
  <polyline class="cls-4" points="857.63 47.86 805.68 73.19 831.86 82.6 882.45 56.23 851.05 45.47 837.09 52.2 807.64 40.69 802.58 42.77 833.24 54.94 770.92 84.22"/>
  <polyline class="cls-4" points="920.52 70.49 886.23 57.8 874.73 63.92 909.98 76.77 905.95 78.56 871 66.01 813.02 97.48"/>
  <polyline class="cls-4" points="871 66.01 906.51 79 909.98 76.77"/>
  <line class="cls-4" x1="818.71" y1="66.84" x2="844.51" y2="76.01"/>
  <line class="cls-4" x1="825.99" y1="63.29" x2="850.96" y2="72.51"/>
  <line class="cls-4" x1="832.32" y1="60.21" x2="857.18" y2="69.4"/>
  <line class="cls-4" x1="839.95" y1="56.48" x2="865.23" y2="65.26"/>
  <polyline class="cls-7" points="285.92 282.47 311.36 288.96 295.47 297.32 306.82 301.31 291.49 309.57"/>
  <polyline class="cls-7" points="341.96 325.14 357.44 317.71 370.58 321 387.46 312.93 414.03 321.6"/>
  <line class="cls-7" x1="348.07" y1="252.71" x2="397.45" y2="267.97"/>
  <line class="cls-7" x1="425.9" y1="277.41" x2="473.86" y2="293.09"/>
  <polyline class="cls-7" points="586.42 139.92 615.14 149.34 677.28 118.67 650.59 110.3"/>
  <polyline class="cls-7" points="525.41 168.26 550.71 175.03 609.09 147.43"/>
  <polyline class="cls-7" points="744.54 80.56 733.85 85.9 741.1 88.7 757.65 80.04 821.92 100.28 806.26 108.42 814.15 110.84 823.46 105.94"/>
  <polyline class="cls-4" points="869.87 15.48 907.9 28.56 924.95 20.04 940.19 24.43 924.38 33.36 957.02 44.12"/>
  <polygon class="cls-5" points="556.91 189.31 585.07 175.08 614.94 185.09 586.96 199.37 556.91 189.31"/>
  <line class="cls-4" x1="585.92" y1="199.02" x2="585.07" y2="175.96"/>
  <polygon class="cls-3" points="637.36 153.36 664.34 139.87 690.89 148.64 664.74 162.14 637.36 153.36"/>
  <path class="cls-4" d="M664.34,139.87s-.02,21.82.41,22.27l21.38,6.92-13.43,6.9,24.89,7.62"/>
  <polygon class="cls-4" points="408.51 285.99 394.16 293.08 364.64 283.62 379.12 276.41 408.51 285.99"/>
  <polygon class="cls-4" points="447.92 266.53 431.76 274.51 403.42 265.28 403.37 265.26 379.12 276.41 397.08 267.86 397.09 267.86 418.08 257.85 447.92 266.53"/>
  <polygon class="cls-4" points="545.68 196.53 491.93 222.64 520.5 232.25 573.62 205.8 545.68 196.53"/>
  <polyline class="cls-4" points="770.92 147.43 728.09 133.21 758.76 116.14 731.04 107.78 698.02 125.2 677.28 118.67"/>
  <polyline class="cls-4" points="614.94 185.09 631.85 190.66 645.73 185.09 674.87 194.64"/>
  <line class="cls-4" x1="475.31" y1="191.96" x2="523.26" y2="207.42"/>
  <polyline class="cls-4" points="75.15 400.63 118.26 412.01 132.41 404.67 144.49 409.42 129.65 416.54 163.89 427.8"/>
  <line class="cls-7" x1="637.36" y1="153.36" x2="618.06" y2="147.9"/>
  <polyline class="cls-4" points="622.06 220.45 606.88 214.39 599.16 217.42 605.54 220.45 594.8 223.78 605.97 228.35"/>
  <polyline class="cls-4" points="561.52 211.82 576.67 216.07 564.85 222.64 594.8 233.84"/>
</svg>