<?xml version="1.0" encoding="UTF-8"?><svg xmlns="http://www.w3.org/2000/svg" viewBox="0 0 3421.93 377.79"><defs><style>.cls-1{stroke:#c7bead;}.cls-1,.cls-2,.cls-3,.cls-4{fill:none;stroke-miterlimit:10;}.cls-1,.cls-2,.cls-4{stroke-width:2px;}.cls-2{stroke:#173387;}.cls-5{fill:#173387;}.cls-3,.cls-4{stroke:#171636;}.cls-6{fill:#c7bead;}</style></defs><g id="_3eme-bis_plan"><path class="cls-4" d="M3192,204.7c-.34-6.29-.4-9.05-.91-13.32-11.03-93.62-117.21-108.67-202.02-117.86-88.69-9.61-499.56-26.48-499.56-26.48H690.5s-340.77,0-637.49,157.68c220.3,118.23,451.35,152.42,643.44,157.79,192.08,5.37,1698.96,5.67,1818.5,1.88,119.54-3.79,386.37-16.27,496.56-32.69,81.08-13.6,179.07-22.76,180.49-127Z"/><line class="cls-4" x1="508.01" y1="347.55" x2="508.01" y2="62.92"/><polyline class="cls-3" points="277.9 113.53 277.9 147.61 319 147.61 319 162.92 458.73 162.92 458.73 151.61 508.01 151.61"/><polyline class="cls-3" points="277.9 297.85 277.9 262.06 317 262.06 317 247.42 458.73 247.42 458.73 258.73 508.01 258.73"/><polyline class="cls-3" points="392.96 328.96 392.96 264.72 377.55 264.72 377.55 247.42"/><line class="cls-3" x1="309.02" y1="262.06" x2="309.02" y2="306.94"/><line class="cls-3" x1="309.02" y1="147.61" x2="309.02" y2="104.55"/><polyline class="cls-3" points="458.73 151.61 458.73 119.67 508.01 119.67"/><polyline class="cls-3" points="508.01 288.19 458.73 288.19 458.73 258.73"/><line class="cls-3" x1="479.68" y1="343.47" x2="479.68" y2="288.19"/><line class="cls-3" x1="186.31" y1="266.1" x2="186.31" y2="144.6"/><rect class="cls-3" x="326.32" y="178.89" width="170.34" height="48.08"/><line class="cls-3" x1="385.26" y1="178.89" x2="385.26" y2="226.96"/><line class="cls-3" x1="392.96" y1="178.89" x2="392.96" y2="226.96"/><line class="cls-3" x1="426.13" y1="178.89" x2="426.13" y2="226.96"/><line class="cls-3" x1="473.37" y1="178.89" x2="473.37" y2="226.96"/><line class="cls-4" x1="696.45" y1="362.51" x2="696.45" y2="47.04"/><line class="cls-3" x1="734.66" y1="363.27" x2="734.66" y2="47.04"/><line class="cls-3" x1="696.45" y1="94.27" x2="734.66" y2="94.27"/><line class="cls-3" x1="696.45" y1="169.87" x2="734.66" y2="169.87"/><line class="cls-3" x1="696.45" y1="240.96" x2="734.66" y2="240.96"/><line class="cls-3" x1="696.45" y1="278.58" x2="734.66" y2="278.58"/><line class="cls-3" x1="696.45" y1="315.83" x2="734.66" y2="315.83"/><circle class="cls-3" cx="666.19" cy="288.19" r="19.45"/><circle class="cls-3" cx="666.19" cy="122.63" r="19.45"/><rect class="cls-3" x="596.68" y="169.87" width="43.04" height="71.09" transform="translate(1236.41 410.84) rotate(180)"/><rect class="cls-3" x="508.01" y="169.87" width="57.21" height="71.09" transform="translate(1073.24 410.84) rotate(180)"/><rect class="cls-3" x="746.23" y="284.1" width="73.95" height="79.17" transform="translate(1566.42 647.38) rotate(180)"/><rect class="cls-3" x="746.23" y="48.69" width="73.95" height="73.95" transform="translate(1566.42 171.32) rotate(180)"/><rect class="cls-3" x="746.23" y="142.09" width="32.01" height="126.65" transform="translate(1524.48 410.83) rotate(180)"/><rect class="cls-3" x="831.22" y="46.81" width="75.05" height="79.47" transform="translate(1737.49 173.08) rotate(180)"/><rect class="cls-3" x="915.1" y="46.81" width="77.26" height="79.47" transform="translate(1907.46 173.08) rotate(180)"/><rect class="cls-3" x="1001.74" y="46.81" width="76.15" height="79.47" transform="translate(2079.63 173.08) rotate(180)"/><rect class="cls-3" x="1087.83" y="46.81" width="75.05" height="79.47" transform="translate(2250.7 173.08) rotate(180)"/><rect class="cls-3" x="831.22" y="284.1" width="72.84" height="80.77" transform="translate(1735.28 648.97) rotate(180)"/><rect class="cls-3" x="915.1" y="284.1" width="75.05" height="80.77" transform="translate(1905.25 648.97) rotate(180)"/><rect class="cls-3" x="1001.74" y="284.1" width="73.4" height="81.62" transform="translate(2076.87 649.83) rotate(180)"/><rect class="cls-3" x="1087.83" y="284.1" width="72.29" height="81.92" transform="translate(2247.95 650.13) rotate(180)"/><rect class="cls-3" x="1053.61" y="142.09" width="21.52" height="126.65" transform="translate(2128.75 410.83) rotate(180)"/><rect class="cls-3" x="810.25" y="169.87" width="243.36" height="71.09" transform="translate(1863.86 410.84) rotate(180)"/><line class="cls-3" x1="789.52" y1="364.03" x2="789.52" y2="284.1"/><polyline class="cls-3" points="746.23 315.83 766.37 315.83 778.24 347.55 778.24 363.27"/><polyline class="cls-3" points="778.24 48.69 778.24 60.32 767.98 94.27 746.23 94.27"/><line class="cls-3" x1="789.52" y1="122.63" x2="789.52" y2="48.69"/><line class="cls-3" x1="820.18" y1="94.27" x2="789.52" y2="94.27"/><line class="cls-3" x1="873.65" y1="126.27" x2="873.65" y2="46.81"/><line class="cls-3" x1="906.27" y1="94.27" x2="873.65" y2="94.27"/><polyline class="cls-3" points="863.13 46.81 863.13 59.82 852.7 94.27 831.22 94.27"/><line class="cls-3" x1="959.74" y1="126.27" x2="959.74" y2="46.81"/><line class="cls-3" x1="992.36" y1="94.27" x2="959.74" y2="94.27"/><polyline class="cls-3" points="949.22 46.81 949.22 59.82 938.79 94.27 915.1 94.27"/><line class="cls-3" x1="1045" y1="126.39" x2="1045" y2="46.93"/><line class="cls-3" x1="1077.62" y1="94.39" x2="1045" y2="94.39"/><polyline class="cls-3" points="1034.48 46.93 1034.48 59.93 1024.05 94.39 1002.57 94.39"/><line class="cls-3" x1="1130.26" y1="126.39" x2="1130.26" y2="46.93"/><line class="cls-3" x1="1162.88" y1="94.39" x2="1130.26" y2="94.39"/><polyline class="cls-3" points="1119.74 46.93 1119.74 59.93 1109.31 94.39 1087.83 94.39"/><line class="cls-3" x1="871.89" y1="285.39" x2="871.89" y2="364.86"/><line class="cls-3" x1="904.51" y1="317.4" x2="871.89" y2="317.4"/><polyline class="cls-3" points="861.38 364.86 861.38 351.85 851.93 317.28 830.45 317.28"/><line class="cls-3" x1="957.98" y1="285.39" x2="957.98" y2="364.86"/><line class="cls-3" x1="990.6" y1="317.4" x2="957.98" y2="317.4"/><polyline class="cls-3" points="949.22 364.74 949.22 351.73 938.79 317.28 915.1 317.28"/><line class="cls-3" x1="1043.24" y1="285.27" x2="1043.24" y2="364.74"/><line class="cls-3" x1="1075.86" y1="317.28" x2="1043.24" y2="317.28"/><polyline class="cls-3" points="1032.72 364.74 1032.72 351.73 1022.29 317.28 1000.81 317.28"/><line class="cls-3" x1="1128.5" y1="285.27" x2="1128.5" y2="364.74"/><line class="cls-3" x1="1161.12" y1="317.28" x2="1128.5" y2="317.28"/><polyline class="cls-3" points="1117.98 364.74 1117.98 351.73 1107.55 317.28 1086.07 317.28"/><line class="cls-3" x1="820.18" y1="315.83" x2="789.52" y2="315.83"/><polyline class="cls-3" points="1045 240.96 1045 268.74 789.52 268.74 789.52 217.25 810.25 217.25"/><line class="cls-3" x1="810.25" y1="240.96" x2="789.52" y2="240.96"/><line class="cls-3" x1="825.63" y1="268.74" x2="825.63" y2="240.96"/><line class="cls-3" x1="863.13" y1="268.74" x2="863.13" y2="240.96"/><line class="cls-3" x1="901.89" y1="268.74" x2="901.89" y2="240.96"/><line class="cls-3" x1="938.07" y1="268.74" x2="938.07" y2="240.96"/><polyline class="cls-3" points="976.05 268.74 976.05 240.96 976.05 169.87"/><line class="cls-3" x1="1011.49" y1="268.74" x2="1011.49" y2="240.96"/><line class="cls-3" x1="1075.13" y1="240.96" x2="1053.61" y2="240.96"/><line class="cls-3" x1="1075.13" y1="223.99" x2="1053.61" y2="223.99"/><line class="cls-3" x1="1075.13" y1="204.77" x2="1053.61" y2="204.77"/><line class="cls-3" x1="1075.13" y1="169.87" x2="1053.61" y2="169.87"/><line class="cls-3" x1="1018.52" y1="240.96" x2="1018.52" y2="169.87"/><line class="cls-3" x1="992.36" y1="240.96" x2="992.36" y2="169.87"/><line class="cls-3" x1="1018.52" y1="183.91" x2="992.36" y2="183.91"/><line class="cls-3" x1="1018.52" y1="223.99" x2="992.36" y2="223.99"/><line class="cls-3" x1="888.2" y1="240.96" x2="888.2" y2="169.87"/><line class="cls-3" x1="873.65" y1="240.96" x2="873.65" y2="169.87"/><line class="cls-3" x1="852.7" y1="240.96" x2="852.7" y2="169.87"/><line class="cls-3" x1="873.65" y1="228.25" x2="852.7" y2="228.25"/><line class="cls-3" x1="873.65" y1="181.07" x2="852.7" y2="181.07"/><polyline class="cls-3" points="810.25 205.42 789.52 205.42 789.52 142.09 1043.24 142.09 1043.24 169.87"/><line class="cls-3" x1="1006.88" y1="169.87" x2="1006.88" y2="142.09"/><line class="cls-3" x1="971.41" y1="169.87" x2="971.41" y2="142.09"/><line class="cls-3" x1="933.81" y1="169.87" x2="933.81" y2="142.09"/><line class="cls-3" x1="896.21" y1="169.87" x2="896.21" y2="142.09"/><line class="cls-3" x1="858.61" y1="169.87" x2="858.61" y2="142.09"/><line class="cls-3" x1="820.18" y1="169.87" x2="820.18" y2="142.09"/><polyline class="cls-3" points="810.25 169.87 810.25 160.85 789.52 160.85"/><line class="cls-3" x1="810.25" y1="181.07" x2="789.52" y2="181.07"/><line class="cls-3" x1="778.24" y1="179.65" x2="746.23" y2="179.65"/><line class="cls-3" x1="778.24" y1="228.25" x2="746.23" y2="228.25"/><line class="cls-3" x1="734.66" y1="203.42" x2="696.45" y2="203.42"/><line class="cls-3" x1="734.66" y1="130.34" x2="696.45" y2="130.34"/><line class="cls-3" x1="1087.83" y1="268.74" x2="1087.83" y2="142.09"/><path class="cls-3" d="M1197.13,234.06v6.91h-25.32v-21.66s17.95-2.74,25.32,14.75Z"/><path class="cls-3" d="M1197.13,173.75v-6.44h-25.32v22.1s18.41,1.83,25.32-15.65Z"/><rect class="cls-3" x="1125.35" y="169.87" width="25.75" height="71.09"/><rect class="cls-3" x="1171.81" y="303.71" width="41.53" height="62.48" transform="translate(2385.16 669.9) rotate(180)"/><rect class="cls-3" x="1203.13" y="47.04" width="64.83" height="49.93" transform="translate(2471.09 144.02) rotate(180)"/><rect class="cls-3" x="1171.81" y="47.04" width="31.32" height="47.22" transform="translate(2374.95 141.31) rotate(180)"/><rect class="cls-3" x="1267.96" y="47.04" width="43.9" height="59.12" transform="translate(2579.82 153.21) rotate(180)"/><rect class="cls-3" x="1311.86" y="47.04" width="41.86" height="59.12" transform="translate(2665.57 153.21) rotate(180)"/><rect class="cls-3" x="1353.72" y="47.04" width="31.65" height="39.62" transform="translate(2739.08 133.7) rotate(180)"/><rect class="cls-3" x="1353.72" y="86.66" width="31.65" height="19.5" transform="translate(2739.08 192.82) rotate(180)"/><rect class="cls-3" x="1385.36" y="47.04" width="37.26" height="59.12" transform="translate(2807.99 153.21) rotate(180)"/><rect class="cls-3" x="1422.63" y="47.04" width="38.28" height="59.12" transform="translate(2883.54 153.21) rotate(180)"/><rect class="cls-3" x="1460.91" y="47.04" width="32.16" height="59.12" transform="translate(2953.98 153.21) rotate(180)"/><rect class="cls-3" x="1267.96" y="169.87" width="165.39" height="71.09" transform="translate(2701.31 410.84) rotate(180)"/><rect class="cls-3" x="1267.96" y="123.52" width="213.88" height="161.87" transform="translate(2749.8 408.91) rotate(180)"/><line class="cls-3" x1="1493.07" y1="86.66" x2="1460.91" y2="86.66"/><line class="cls-3" x1="1369.54" y1="106.16" x2="1369.54" y2="86.66"/><line class="cls-3" x1="1305.73" y1="169.87" x2="1305.73" y2="123.52"/><line class="cls-3" x1="1337.89" y1="169.87" x2="1337.89" y2="123.52"/><line class="cls-3" x1="1374.9" y1="169.87" x2="1374.9" y2="123.52"/><line class="cls-3" x1="1411.4" y1="169.87" x2="1411.4" y2="123.52"/><line class="cls-3" x1="1481.84" y1="169.87" x2="1433.35" y2="169.87"/><line class="cls-3" x1="1445.09" y1="123.52" x2="1445.09" y2="169.87"/><line class="cls-3" x1="1481.84" y1="215.77" x2="1433.35" y2="215.77"/><polyline class="cls-3" points="1433.35 240.96 1454.28 240.96 1454.28 285.39"/><line class="cls-3" x1="1481.84" y1="249.09" x2="1454.28" y2="249.09"/><line class="cls-3" x1="1418.03" y1="240.96" x2="1418.03" y2="285.39"/><line class="cls-3" x1="1381.28" y1="285.39" x2="1381.28" y2="240.96"/><line class="cls-3" x1="1343.51" y1="285.39" x2="1343.51" y2="240.96"/><line class="cls-3" x1="1305.73" y1="285.39" x2="1305.73" y2="240.96"/><line class="cls-3" x1="1289.91" y1="240.96" x2="1289.91" y2="169.87"/><line class="cls-3" x1="1303.18" y1="240.96" x2="1303.18" y2="169.87"/><line class="cls-3" x1="1393.53" y1="240.96" x2="1393.53" y2="169.87"/><line class="cls-3" x1="1407.31" y1="240.96" x2="1407.31" y2="169.87"/><line class="cls-3" x1="1433.35" y1="226.63" x2="1407.31" y2="226.63"/><line class="cls-3" x1="1433.35" y1="183.91" x2="1407.31" y2="183.91"/><line class="cls-3" x1="1289.91" y1="226.63" x2="1267.96" y2="226.63"/><line class="cls-3" x1="1289.91" y1="181.71" x2="1267.96" y2="181.71"/><rect class="cls-3" x="1225.59" y="303.71" width="42.37" height="62.62" transform="translate(2493.55 670.04) rotate(180)"/><rect class="cls-3" x="1267.96" y="303.71" width="43.9" height="62.72" transform="translate(2579.82 670.14) rotate(180)"/><rect class="cls-3" x="1311.86" y="303.71" width="41.86" height="62.81" transform="translate(2665.57 670.23) rotate(180)"/><rect class="cls-3" x="1225.59" y="334.36" width="32.16" height="32.16" transform="translate(2483.34 700.88) rotate(180)"/><rect class="cls-3" x="1171.81" y="332.65" width="33.87" height="33.87" transform="translate(2377.5 699.17) rotate(180)"/><rect class="cls-3" x="1353.72" y="303.71" width="31.88" height="62.81" transform="translate(2739.31 670.23) rotate(180)"/><rect class="cls-3" x="1364.37" y="334.36" width="21.22" height="32.16" transform="translate(2749.97 700.88) rotate(180)"/><rect class="cls-3" x="1353.72" y="303.71" width="31.88" height="18.99" transform="translate(2739.31 626.41) rotate(180)"/><rect class="cls-3" x="1385.6" y="303.71" width="36.83" height="62.94" transform="translate(2808.02 670.36) rotate(180)"/><rect class="cls-3" x="1422.43" y="303.71" width="37.77" height="62.99" transform="translate(2882.62 670.41) rotate(180)"/><rect class="cls-3" x="1460.2" y="303.71" width="31.21" height="62.99" transform="translate(2951.6 670.41) rotate(180)"/><rect class="cls-3" x="1470.18" y="332.65" width="21.22" height="34.05" transform="translate(2961.59 699.36) rotate(180)"/><rect class="cls-3" x="1460.2" y="303.71" width="31.21" height="18.99" transform="translate(2951.6 626.41) rotate(180)"/><rect class="cls-3" x="1491.41" y="303.71" width="38.7" height="63.08" transform="translate(3021.52 670.5) rotate(180)"/><rect class="cls-3" x="1530.11" y="303.71" width="38.7" height="63.12" transform="translate(3098.93 670.54) rotate(180)"/><rect class="cls-3" x="1568.82" y="303.71" width="40.58" height="63.16" transform="translate(3178.21 670.58) rotate(180)"/><rect class="cls-3" x="1609.39" y="303.71" width="31.53" height="63.18" transform="translate(3250.31 670.6) rotate(180)"/><rect class="cls-3" x="1609.39" y="332.65" width="21.22" height="34.23" transform="translate(3240.01 699.54) rotate(180)"/><rect class="cls-3" x="1609.39" y="303.71" width="31.53" height="18.99" transform="translate(3250.31 626.41) rotate(180)"/><rect class="cls-3" x="1493.07" y="47.04" width="37.04" height="59.12" transform="translate(3023.18 153.21) rotate(180)"/><rect class="cls-3" x="1530.11" y="47.04" width="38.7" height="59.12" transform="translate(3098.93 153.21) rotate(180)"/><rect class="cls-3" x="1568.82" y="47.04" width="40.58" height="59.12" transform="translate(3178.21 153.21) rotate(180)"/><rect class="cls-3" x="1471.04" y="47.04" width="22.04" height="29.56" transform="translate(2964.11 123.65) rotate(180)"/><rect class="cls-3" x="1491.41" y="123.52" width="64.1" height="161.87" transform="translate(3046.92 408.91) rotate(180)"/><rect class="cls-3" x="1522.06" y="239.32" width="33.45" height="46.07" transform="translate(3077.57 524.71) rotate(180)"/><rect class="cls-3" x="1491.41" y="169.87" width="23.55" height="69.45" transform="translate(3006.37 409.19) rotate(180)"/><line class="cls-3" x1="1522.06" y1="239.32" x2="1514.96" y2="239.32"/><line class="cls-3" x1="1555.51" y1="204.59" x2="1514.96" y2="204.59"/><line class="cls-3" x1="1555.51" y1="169.87" x2="1514.96" y2="169.87"/><polyline class="cls-3" points="1525.77 123.52 1525.77 141.67 1522.06 141.67 1522.06 169.87"/><rect class="cls-3" x="1609.39" y="47.04" width="31.53" height="59.12" transform="translate(3250.31 153.21) rotate(180)"/><rect class="cls-3" x="1640.92" y="47.04" width="38.09" height="59.12" transform="translate(3319.92 153.21) rotate(180)"/><rect class="cls-3" x="1609.39" y="88.83" width="31.53" height="17.33" transform="translate(3250.31 194.99) rotate(180)"/><rect class="cls-3" x="1609.39" y="47.04" width="21.39" height="29.56" transform="translate(3240.18 123.65) rotate(180)"/><rect class="cls-3" x="1565.89" y="123.52" width="64.9" height="161.87" transform="translate(3196.67 408.91) rotate(180)"/><rect class="cls-3" x="1565.89" y="123.52" width="41.01" height="117.45" transform="translate(3172.79 364.48) rotate(180)"/><polyline class="cls-3" points="1630.78 169.87 1606.9 169.87 1565.89 169.87"/><line class="cls-3" x1="1630.78" y1="142.46" x2="1606.9" y2="142.46"/><line class="cls-3" x1="1630.78" y1="194.74" x2="1606.9" y2="194.74"/><line class="cls-3" x1="1630.78" y1="215.77" x2="1606.9" y2="215.77"/><line class="cls-3" x1="1606.9" y1="205.42" x2="1565.89" y2="205.42"/><line class="cls-3" x1="1606.9" y1="240.96" x2="1630.78" y2="240.96"/><polyline class="cls-3" points="1595.63 285.39 1595.63 268.65 1598.34 268.65 1598.34 240.96"/><line class="cls-3" x1="1625.16" y1="322.7" x2="1625.16" y2="303.71"/><line class="cls-3" x1="1476.99" y1="106.16" x2="1476.99" y2="86.66"/><line class="cls-3" x1="1625.16" y1="106.16" x2="1625.16" y2="88.83"/><line class="cls-3" x1="1369.66" y1="322.7" x2="1369.54" y2="303.71"/><line class="cls-3" x1="1475.8" y1="322.7" x2="1475.8" y2="303.71"/><rect class="cls-3" x="1640.92" y="303.71" width="38.09" height="63.2" transform="translate(3319.92 670.62) rotate(180)"/><rect class="cls-3" x="1679" y="303.71" width="42.81" height="63.18" transform="translate(3400.82 670.6) rotate(180)"/><rect class="cls-3" x="1679" y="47.04" width="42.81" height="59.12" transform="translate(3400.82 153.21) rotate(180)"/><rect class="cls-3" x="1721.82" y="47.04" width="36.05" height="59.12" transform="translate(3479.69 153.21) rotate(180)"/><rect class="cls-3" x="1757.87" y="47.04" width="32.9" height="59.12" transform="translate(3548.64 153.21) rotate(180)"/><rect class="cls-3" x="1790.77" y="47.04" width="37.41" height="59.12" transform="translate(3618.94 153.21) rotate(180)"/><rect class="cls-3" x="1828.17" y="47.04" width="43.79" height="59.12" transform="translate(3700.14 153.21) rotate(180)"/><rect class="cls-3" x="1871.96" y="47.04" width="36.76" height="59.12" transform="translate(3780.69 153.21) rotate(180)"/><rect class="cls-3" x="1908.72" y="47.04" width="32.47" height="59.12" transform="translate(3849.92 153.21) rotate(180)"/><rect class="cls-3" x="1941.19" y="47.04" width="36.15" height="59.12" transform="translate(3918.54 153.21) rotate(180)"/><rect class="cls-3" x="1977.34" y="47.04" width="37.37" height="59.12" transform="translate(3992.06 153.21) rotate(180)"/><rect class="cls-3" x="2014.71" y="47.04" width="33.08" height="59.12" transform="translate(4062.51 153.21) rotate(180)"/><rect class="cls-3" x="2047.8" y="47.04" width="37.98" height="59.12" transform="translate(4133.58 153.21) rotate(180)"/><rect class="cls-3" x="2085.78" y="47.04" width="42.27" height="59.12" transform="translate(4213.84 153.21) rotate(180)"/><rect class="cls-3" x="2128.06" y="47.04" width="37.37" height="59.12" transform="translate(4293.48 153.21) rotate(180)"/><rect class="cls-3" x="2165.43" y="47.04" width="30.63" height="59.12" transform="translate(4361.49 153.21) rotate(180)"/><rect class="cls-3" x="2196.06" y="47.04" width="38.6" height="59.12" transform="translate(4430.72 153.21) rotate(180)"/><rect class="cls-3" x="2234.66" y="47.04" width="37.37" height="59.12" transform="translate(4506.69 153.21) rotate(180)"/><rect class="cls-3" x="2272.03" y="47.04" width="44.11" height="44.4" transform="translate(4588.17 138.49) rotate(180)"/><polyline class="cls-3" points="2196.06 65.1 2187.48 65.1 2175.84 85.93 2175.84 106.16"/><polyline class="cls-3" points="2033.97 106.16 2033.97 85.63 2023.9 65.1 2014.71 65.1"/><polyline class="cls-3" points="1919.75 106.16 1919.75 85.63 1931.39 65.1 1941.19 65.1"/><line class="cls-3" x1="1790.77" y1="85.63" x2="1757.87" y2="85.63"/><line class="cls-3" x1="1774.32" y1="106.16" x2="1774.32" y2="85.63"/><rect class="cls-3" x="1723.01" y="306.75" width="36.05" height="59.12" transform="translate(3482.07 672.62) rotate(180)"/><rect class="cls-3" x="1759.06" y="306.75" width="32.9" height="59.12" transform="translate(3551.02 672.62) rotate(180)"/><rect class="cls-3" x="1791.96" y="306.75" width="37.41" height="59.12" transform="translate(3621.32 672.62) rotate(180)"/><rect class="cls-3" x="1829.36" y="306.75" width="43.79" height="59.12" transform="translate(3702.52 672.62) rotate(180)"/><rect class="cls-3" x="1873.15" y="306.75" width="36.76" height="59.12" transform="translate(3783.07 672.62) rotate(180)"/><rect class="cls-3" x="1909.91" y="306.75" width="32.47" height="59.12" transform="translate(3852.3 672.62) rotate(180)"/><rect class="cls-3" x="1942.38" y="306.75" width="36.15" height="59.12" transform="translate(3920.91 672.62) rotate(180)"/><rect class="cls-3" x="1978.53" y="306.75" width="37.37" height="59.12" transform="translate(3994.43 672.62) rotate(180)"/><rect class="cls-3" x="2015.9" y="306.75" width="33.08" height="59.12" transform="translate(4064.89 672.62) rotate(180)"/><rect class="cls-3" x="2048.99" y="306.75" width="37.98" height="59.12" transform="translate(4135.96 672.62) rotate(180)"/><rect class="cls-3" x="2086.97" y="306.75" width="42.27" height="59.12" transform="translate(4216.21 672.62) rotate(180)"/><rect class="cls-3" x="2129.24" y="306.75" width="37.37" height="59.12" transform="translate(4295.86 672.62) rotate(180)"/><rect class="cls-3" x="2166.62" y="306.75" width="30.63" height="59.12" transform="translate(4363.87 672.62) rotate(180)"/><rect class="cls-3" x="2197.25" y="306.75" width="38.6" height="59.12" transform="translate(4433.1 672.62) rotate(180)"/><rect class="cls-3" x="2235.85" y="306.75" width="37.37" height="59.12" transform="translate(4509.06 672.62) rotate(180)"/><polyline class="cls-3" points="2197.25 347.81 2188.67 347.81 2177.03 326.98 2177.03 306.75"/><polyline class="cls-3" points="2035.16 306.75 2035.16 327.28 2025.09 347.81 2015.9 347.81"/><polyline class="cls-3" points="1920.94 306.75 1920.94 327.28 1932.58 347.81 1942.38 347.81"/><line class="cls-3" x1="1791.96" y1="327.28" x2="1759.06" y2="327.28"/><line class="cls-3" x1="1775.51" y1="306.75" x2="1775.51" y2="327.28"/><rect class="cls-3" x="2273.22" y="306.75" width="42.92" height="59.12" transform="translate(4589.36 672.62) rotate(180)"/><rect class="cls-3" x="1679" y="169.87" width="164.27" height="71.09" transform="translate(3522.28 410.84) rotate(180)"/><rect class="cls-3" x="1843.27" y="169.87" width="129.11" height="71.09" transform="translate(3815.66 410.84) rotate(180)"/><rect class="cls-3" x="1913.21" y="240.96" width="37.12" height="44.43" transform="translate(3863.54 526.36) rotate(180)"/><rect class="cls-3" x="1875.55" y="240.96" width="37.66" height="44.43" transform="translate(3788.76 526.36) rotate(180)"/><rect class="cls-3" x="1829.36" y="240.96" width="35.43" height="44.43" transform="translate(3694.16 526.36) rotate(180)"/><rect class="cls-3" x="1790.77" y="240.96" width="38.59" height="44.43" transform="translate(3620.13 526.36) rotate(180)"/><rect class="cls-3" x="1752.89" y="240.96" width="37.87" height="44.43" transform="translate(3543.66 526.36) rotate(180)"/><rect class="cls-3" x="1716.85" y="240.96" width="36.04" height="44.43" transform="translate(3469.75 526.36) rotate(180)"/><rect class="cls-3" x="1679" y="240.96" width="37.85" height="44.43" transform="translate(3395.86 526.36) rotate(180)"/><rect class="cls-3" x="1640.92" y="240.96" width="38.09" height="44.43" transform="translate(3319.92 526.36) rotate(180)"/><rect class="cls-3" x="1640.92" y="169.87" width="38.09" height="71.09" transform="translate(3319.92 410.84) rotate(180)"/><rect class="cls-3" x="1640.92" y="123.78" width="20.32" height="46.09" transform="translate(3302.16 293.65) rotate(180)"/><rect class="cls-3" x="1661.24" y="123.78" width="17.76" height="46.09" transform="translate(3340.25 293.65) rotate(180)"/><rect class="cls-3" x="1679" y="123.78" width="36.15" height="46.09" transform="translate(3394.16 293.65) rotate(180)"/><rect class="cls-3" x="1715.15" y="123.78" width="37.74" height="46.09" transform="translate(3468.05 293.65) rotate(180)"/><rect class="cls-3" x="1752.89" y="123.78" width="37.87" height="46.09" transform="translate(3543.66 293.65) rotate(180)"/><rect class="cls-3" x="1825.55" y="123.78" width="178.94" height="46.09" transform="translate(3830.05 293.65) rotate(180)"/><polyline class="cls-3" points="1790.77 135.25 1800.61 135.25 1800.61 123.78 1825.55 123.78"/><rect class="cls-3" x="1950.33" y="240.96" width="54.16" height="44.43" transform="translate(3954.82 526.36) rotate(180)"/><line class="cls-3" x1="1886.63" y1="240.96" x2="1886.63" y2="169.87"/><line class="cls-3" x1="1825.55" y1="240.96" x2="1825.55" y2="169.87"/><line class="cls-3" x1="1808.16" y1="240.96" x2="1808.16" y2="169.87"/><line class="cls-3" x1="1704.54" y1="240.96" x2="1704.54" y2="169.87"/><line class="cls-3" x1="1721.82" y1="240.96" x2="1721.82" y2="169.87"/><path class="cls-3" d="M2004.49,169.87v24.45s28.86-4.3,29.48-14.34"/><path class="cls-3" d="M2004.49,240.96v-25.71s29.14-.29,29.48,14.05"/><line class="cls-3" x1="1982.7" y1="240.96" x2="1982.7" y2="169.87"/><rect class="cls-3" x="2080.67" y="169.87" width="170.06" height="71.09" transform="translate(4331.4 410.84) rotate(180)"/><rect class="cls-3" x="2080.67" y="240.96" width="62.27" height="44.43" transform="translate(4223.61 526.36) rotate(180)"/><rect class="cls-3" x="2142.94" y="240.96" width="38.99" height="44.43" transform="translate(4324.87 526.36) rotate(180)"/><rect class="cls-3" x="2181.93" y="240.96" width="34.62" height="44.43" transform="translate(4398.48 526.36) rotate(180)"/><rect class="cls-3" x="2216.55" y="240.96" width="23.02" height="44.43" transform="translate(4456.11 526.36) rotate(180)"/><rect class="cls-3" x="2080.67" y="123.85" width="33.5" height="46.02" transform="translate(4194.84 293.72) rotate(180)"/><rect class="cls-3" x="2114.17" y="123.85" width="40.37" height="46.02" transform="translate(4268.7 293.72) rotate(180)"/><rect class="cls-3" x="2154.53" y="123.85" width="37.36" height="46.02" transform="translate(4346.43 293.72) rotate(180)"/><rect class="cls-3" x="2191.89" y="123.85" width="47.67" height="46.02" transform="translate(4431.46 293.72) rotate(180)"/><polyline class="cls-3" points="2106.92 285.39 2106.92 276.31 2103.86 276.31 2103.86 240.96 2105.39 217.9 2134.35 217.9"/><line class="cls-3" x1="2216.55" y1="169.87" x2="2216.55" y2="123.85"/><line class="cls-3" x1="2239.56" y1="146.83" x2="2215.73" y2="146.86"/><line class="cls-3" x1="2228.06" y1="240.96" x2="2228.06" y2="169.87"/><line class="cls-3" x1="2196.06" y1="240.96" x2="2196.06" y2="169.87"/><polyline class="cls-3" points="2157.11 240.96 2157.11 220.48 2134.35 220.48 2134.35 240.96 2134.35 169.87"/><polyline class="cls-3" points="2134.35 192.13 2103.86 192.13 2103.86 169.87"/><line class="cls-3" x1="2111.8" y1="217.9" x2="2111.8" y2="192.13"/><rect class="cls-3" x="2250.73" y="123.85" width="65.41" height="161.54" transform="translate(4566.87 409.24) rotate(180)"/><rect class="cls-3" x="2283.43" y="251.65" width="32.71" height="33.75" transform="translate(4599.58 537.04) rotate(180)"/><rect class="cls-3" x="2283.43" y="204.62" width="32.71" height="47.02" transform="translate(4599.58 456.27) rotate(180)"/><rect class="cls-3" x="2283.43" y="159.5" width="32.71" height="45.13" transform="translate(4599.58 364.12) rotate(180)"/><rect class="cls-3" x="2283.43" y="123.85" width="32.71" height="35.64" transform="translate(4599.58 283.35) rotate(180)"/><rect class="cls-3" x="2250.73" y="251.65" width="22.49" height="33.75" transform="translate(4523.95 537.04) rotate(180)"/><rect class="cls-3" x="2250.73" y="197.72" width="22.49" height="53.93" transform="translate(4523.95 449.36) rotate(180)"/><rect class="cls-3" x="2250.73" y="156.92" width="22.49" height="40.8" transform="translate(4523.95 354.64) rotate(180)"/><rect class="cls-3" x="2250.73" y="123.85" width="22.49" height="33.07" transform="translate(4523.95 280.77) rotate(180)"/><line class="cls-3" x1="2316.14" y1="306.75" x2="2316.14" y2="91.45"/><path class="cls-4" d="M2357.53,169.87s0-74.72,0-73.79,171.04,0,171.04,0v23.58s91.99.46,92.45,0,0,9.25,0,9.25l45.76,28.02s0,97.72,0,96.79-45.76,26.35-45.76,26.35v11.09h-92.92v18.95h-168.73v-69.15h-22.65v-71.09h20.8Z"/><line class="cls-3" x1="2389.89" y1="240.96" x2="2359.38" y2="240.96"/><line class="cls-3" x1="2389.89" y1="169.87" x2="2357.53" y2="169.87"/><line class="cls-3" x1="2421.32" y1="310.11" x2="2421.32" y2="96.47"/><polyline class="cls-3" points="2571.1 291.16 2571.1 240.96 2561.39 240.96 2561.39 167.27 2571.1 167.27 2571.1 119.82"/><line class="cls-3" x1="2616.4" y1="238.92" x2="2666.79" y2="237.07"/><path class="cls-3" d="M2614.55,169.87c.46-.29,52.24,0,52.24,0"/><rect class="cls-3" x="2621.02" y="194.08" width="19.65" height="23.11" transform="translate(5261.69 411.28) rotate(180)"/><rect class="cls-3" x="2366.77" y="194.08" width="23.11" height="23.11" transform="translate(4756.66 411.28) rotate(180)"/><rect class="cls-3" x="2336.73" y="135.37" width="20.8" height="34.5" transform="translate(4694.25 305.24) rotate(180)"/><rect class="cls-3" x="2336.73" y="240.96" width="22.65" height="34.01" transform="translate(4696.1 515.94) rotate(180)"/><rect class="cls-3" x="2563.23" y="96.47" width="30.98" height="23.32" transform="translate(5157.45 216.27) rotate(180)"/><rect class="cls-3" x="2528.57" y="93.31" width="34.67" height="26.49" transform="translate(5091.8 213.1) rotate(180)"/><rect class="cls-3" x="2561.39" y="291.16" width="32.82" height="20.8" transform="translate(5155.6 603.12) rotate(180)"/><rect class="cls-3" x="2528.57" y="291.16" width="32.82" height="24.5" transform="translate(5089.96 606.82) rotate(180)"/><circle class="cls-3" cx="2640.67" cy="291.16" r="19.88"/><circle class="cls-3" cx="2640.8" cy="117.35" r="19.88"/><rect class="cls-3" x="2666.79" y="173.28" width="44.38" height="63.79" transform="translate(5377.95 410.35) rotate(180)"/><rect class="cls-3" x="2777.27" y="173.28" width="34.67" height="65.64" transform="translate(5589.21 412.2) rotate(180)"/><rect class="cls-3" x="2811.94" y="153.86" width="87.83" height="103.55" transform="translate(5711.71 411.28) rotate(180)"/><line class="cls-4" x1="2999.97" y1="333.33" x2="2999.97" y2="74.73"/><line class="cls-3" x1="2899.77" y1="206.1" x2="2999.97" y2="206.1"/><line class="cls-3" x1="2872.03" y1="324.9" x2="2872.03" y2="345.76"/><line class="cls-3" x1="2872.03" y1="310.11" x2="2872.03" y2="257.41"/><line class="cls-3" x1="2872.03" y1="153.86" x2="2872.03" y2="65.24"/><path class="cls-3" d="M2975.58,122.43s-74.43-1.39-75.81,0"/><line class="cls-3" x1="2975.58" y1="164.96" x2="2924.27" y2="164.96"/><line class="cls-3" x1="2975.58" y1="244.93" x2="2924.27" y2="244.93"/><line class="cls-3" x1="2975.58" y1="287.46" x2="2899.77" y2="287.46"/><line class="cls-3" x1="2942.3" y1="324.9" x2="2942.3" y2="339.79"/><line class="cls-3" x1="2942.3" y1="87.76" x2="2942.3" y2="69.63"/><rect class="cls-3" x="3016.26" y="142.77" width="24.96" height="124.35" transform="translate(6057.49 409.89) rotate(180)"/><line class="cls-3" x1="2614.55" y1="360.56" x2="2614.55" y2="291.16"/><line class="cls-3" x1="2614.55" y1="52.45" x2="2614.55" y2="119.8"/></g><g id="points"><path class="cls-5" d="M935.51,121.64c3.05,0,6.26-1.33,8.42-3.49,2.07-2.07,3.62-5.45,3.49-8.42-.29-6.45-5.23-11.91-11.91-11.91-3.05,0-6.26,1.33-8.42,3.49s-3.62,5.45-3.49,8.42c.29,6.45,5.23,11.91,11.91,11.91h0Z"/><ellipse class="cls-2" cx="935.92" cy="110.79" rx="19.54" ry="19.55"/><path class="cls-5" d="M1018.27,120.58c3.05,0,6.26-1.33,8.42-3.49s3.62-5.45,3.49-8.42c-.29-6.45-5.23-11.91-11.91-11.91-3.05,0-6.26,1.33-8.42,3.49s-3.62,5.45-3.49,8.42c.29,6.45,5.23,11.91,11.91,11.91h0Z"/><ellipse class="cls-2" cx="1018.68" cy="109.73" rx="19.54" ry="19.55"/><path class="cls-5" d="M933.4,77.21c3.05,0,6.26-1.33,8.42-3.49s3.62-5.45,3.49-8.42c-.29-6.45-5.23-11.91-11.91-11.91-3.05,0-6.26,1.33-8.42,3.49s-3.62,5.45-3.49,8.42c.29,6.45,5.23,11.91,11.91,11.91h0Z"/><ellipse class="cls-2" cx="933.81" cy="66.36" rx="19.54" ry="19.55"/><path class="cls-5" d="M715.58,81.5c3.05,0,6.26-1.33,8.42-3.49s3.62-5.45,3.49-8.42c-.29-6.45-5.23-11.91-11.91-11.91-3.05,0-6.26,1.33-8.42,3.49-2.07,2.07-3.62,5.45-3.49,8.42.29,6.45,5.23,11.91,11.91,11.91h0Z"/><ellipse class="cls-2" cx="715.99" cy="70.66" rx="19.54" ry="19.55"/><path class="cls-5" d="M1736.02,274.91c3.05,0,6.26-1.33,8.42-3.49,2.07-2.07,3.62-5.45,3.49-8.42-.29-6.45-5.23-11.91-11.91-11.91-3.05,0-6.26,1.33-8.42,3.49-2.07,2.07-3.62,5.45-3.49,8.42.29,6.45,5.23,11.91,11.91,11.91h0Z"/><circle class="cls-2" cx="1734.89" cy="262.35" r="20.8"/><path class="cls-5" d="M1742.17,348.87c3.05,0,6.26-1.33,8.42-3.49,2.07-2.07,3.62-5.45,3.49-8.42-.29-6.45-5.23-11.91-11.91-11.91-3.05,0-6.26,1.33-8.42,3.49-2.07,2.07-3.62,5.45-3.49,8.42.29,6.45,5.23,11.91,11.91,11.91h0Z"/><circle class="cls-2" cx="1741.03" cy="336.31" r="20.8"/><path class="cls-5" d="M1927.28,348.87c3.05,0,6.26-1.33,8.42-3.49,2.07-2.07,3.62-5.45,3.49-8.42-.29-6.45-5.23-11.91-11.91-11.91-3.05,0-6.26,1.33-8.42,3.49s-3.62,5.45-3.49,8.42c.29,6.45,5.23,11.91,11.91,11.91h0Z"/><circle class="cls-2" cx="1926.15" cy="336.31" r="20.8"/><path class="cls-5" d="M1394.66,159.25c3.05,0,6.26-1.33,8.42-3.49s3.62-5.45,3.49-8.42c-.29-6.45-5.23-11.91-11.91-11.91-3.05,0-6.26,1.33-8.42,3.49s-3.62,5.45-3.49,8.42c.29,6.45,5.23,11.91,11.91,11.91h0Z"/><circle class="cls-2" cx="1393.53" cy="146.69" r="20.8"/><path class="cls-5" d="M1431.11,159.38c3.05,0,6.26-1.33,8.42-3.49,2.07-2.07,3.62-5.45,3.49-8.42-.29-6.45-5.23-11.91-11.91-11.91-3.05,0-6.26,1.33-8.42,3.49s-3.62,5.45-3.49,8.42c.29,6.45,5.23,11.91,11.91,11.91h0Z"/><circle class="cls-2" cx="1429.97" cy="146.83" r="20.8"/><path class="cls-5" d="M1506.62,161.63c3.05,0,6.26-1.33,8.42-3.49,2.07-2.07,3.62-5.45,3.49-8.42-.29-6.45-5.23-11.91-11.91-11.91-3.05,0-6.26,1.33-8.42,3.49-2.07,2.07-3.62,5.45-3.49,8.42.29,6.45,5.23,11.91,11.91,11.91h0Z"/><circle class="cls-2" cx="1505.49" cy="149.07" r="20.8"/><path class="cls-6" d="M1291.04,84.57c3.05,0,6.26-1.33,8.42-3.49s3.62-5.45,3.49-8.42c-.29-6.45-5.23-11.91-11.91-11.91-3.05,0-6.26,1.33-8.42,3.49s-3.62,5.45-3.49,8.42c.29,6.45,5.23,11.91,11.91,11.91h0Z"/><circle class="cls-1" cx="1289.91" cy="72.01" r="20.8"/><path class="cls-5" d="M1540.44,275.74c3.05,0,6.26-1.33,8.42-3.49s3.62-5.45,3.49-8.42c-.29-6.45-5.23-11.91-11.91-11.91-3.05,0-6.26,1.33-8.42,3.49-2.07,2.07-3.62,5.45-3.49,8.42.29,6.45,5.23,11.91,11.91,11.91h0Z"/><circle class="cls-2" cx="1539.31" cy="263.18" r="20.8"/><path class="cls-5" d="M886.43,267.41c3.05,0,6.26-1.33,8.42-3.49s3.62-5.45,3.49-8.42c-.29-6.45-5.23-11.91-11.91-11.91-3.05,0-6.26,1.33-8.42,3.49-2.07,2.07-3.62,5.45-3.49,8.42.29,6.45,5.23,11.91,11.91,11.91h0Z"/><circle class="cls-2" cx="885.3" cy="254.85" r="20.8"/><path class="cls-5" d="M1241.78,360.37c3.05,0,6.26-1.33,8.42-3.49s3.62-5.45,3.49-8.42c-.29-6.45-5.23-11.91-11.91-11.91-3.05,0-6.26,1.33-8.42,3.49s-3.62,5.45-3.49,8.42c.29,6.45,5.23,11.91,11.91,11.91h0Z"/><circle class="cls-2" cx="1240.65" cy="347.81" r="20.8"/><path class="cls-5" d="M1060.68,356.06c3.05,0,6.26-1.33,8.42-3.49s3.62-5.45,3.49-8.42c-.29-6.45-5.23-11.91-11.91-11.91-3.05,0-6.26,1.33-8.42,3.49-2.07,2.07-3.62,5.45-3.49,8.42.29,6.45,5.23,11.91,11.91,11.91h0Z"/><circle class="cls-2" cx="1059.55" cy="343.5" r="20.8"/><path class="cls-5" d="M1320.79,159.25c3.05,0,6.26-1.33,8.42-3.49s3.62-5.45,3.49-8.42c-.29-6.45-5.23-11.91-11.91-11.91-3.05,0-6.26,1.33-8.42,3.49s-3.62,5.45-3.49,8.42c.29,6.45,5.23,11.91,11.91,11.91h0Z"/><circle class="cls-2" cx="1319.66" cy="146.69" r="20.8"/><path class="cls-5" d="M1539.31,200.8c3.05,0,6.26-1.33,8.42-3.49,2.07-2.07,3.62-5.45,3.49-8.42-.29-6.45-5.23-11.91-11.91-11.91-3.05,0-6.26,1.33-8.42,3.49-2.07,2.07-3.62,5.45-3.49,8.42.29,6.45,5.23,11.91,11.91,11.91h0Z"/><path class="cls-5" d="M1407.31,86.66c3.05,0,6.26-1.33,8.42-3.49s3.62-5.45,3.49-8.42c-.29-6.45-5.23-11.91-11.91-11.91-3.05,0-6.26,1.33-8.42,3.49-2.07,2.07-3.62,5.45-3.49,8.42.29,6.45,5.23,11.91,11.91,11.91h0Z"/><path class="cls-5" d="M2215.36,90.6c3.05,0,6.26-1.33,8.42-3.49s3.62-5.45,3.49-8.42c-.29-6.45-5.23-11.91-11.91-11.91-3.05,0-6.26,1.33-8.42,3.49-2.07,2.07-3.62,5.45-3.49,8.42.29,6.45,5.23,11.91,11.91,11.91h0Z"/><path class="cls-5" d="M1997.22,90.6c3.05,0,6.26-1.33,8.42-3.49,2.07-2.07,3.62-5.45,3.49-8.42-.29-6.45-5.23-11.91-11.91-11.91-3.05,0-6.26,1.33-8.42,3.49s-3.62,5.45-3.49,8.42c.29,6.45,5.23,11.91,11.91,11.91h0Z"/><path class="cls-5" d="M2253.34,90.6c3.05,0,6.26-1.33,8.42-3.49s3.62-5.45,3.49-8.42c-.29-6.45-5.23-11.91-11.91-11.91-3.05,0-6.26,1.33-8.42,3.49-2.07,2.07-3.62,5.45-3.49,8.42.29,6.45,5.23,11.91,11.91,11.91h0Z"/><path class="cls-6" d="M1336.36,350.66c3.05,0,6.26-1.33,8.42-3.49s3.62-5.45,3.49-8.42c-.29-6.45-5.23-11.91-11.91-11.91-3.05,0-6.26,1.33-8.42,3.49s-3.62,5.45-3.49,8.42c.29,6.45,5.23,11.91,11.91,11.91h0Z"/><ellipse class="cls-1" cx="1336.77" cy="339.81" rx="19.54" ry="19.55"/></g></svg>