<svg xmlns="http://www.w3.org/2000/svg" viewBox="0 0 2857.97 478.15"><defs><style>.cls-1{stroke:#173387}.cls-1,.cls-2,.cls-3{fill:none;stroke-miterlimit:10}.cls-1,.cls-3{stroke-width:2px}.cls-4{fill:#173387}.cls-2,.cls-3{stroke:#171636}</style></defs><g id="_2eme_plan"><path class="cls-3" d="M2715.63 299.77h141.34V184.82h-141.34v-70.99h-64.32V78.26h-31.36V1H1v476.15h2623.27v-71.11h27.14v-31.5h64.6l-.38-74.77z"/><path class="cls-3" d="M2510.7 325.14h48.29V162.31h-48.29V74.4h-24.15c-1.86 0-22.6-22.6-22.6-22.6h-64.08l-22.13 22.13h-23.06v20.89h-30.34l-19.5-19.5h-67.17l-17.8 17.8h-69.5l-20.2-20.2h-67.1l-21.17 21.17h-111.32V68.2h-94.72v68.1h-281.08V91.11h-120.11l-17.64-17.64h-57.89l-15.94 15.94h-20.59s-15.56-13-15.56-15.56-59.36 0-59.36 0l-17.61 17.61h-51.73v62.8H801.31V93.59H626.1V79.97H46.03v315.75h578.25v-9.29h175.83v-91.01h159.73v94.1h89.77c20.43 21.67 78.01 30.96 111.44 2.48 26.62-.62 73.05 0 73.05 0l16.41 16.41h58.51l17.8-17.8h15.63l18.34 18.34h57.19l17.45-17.45h118.13v-65.74h283.55v88.53h92.87v-24.76h112.06l21.36 21.36h67.17l20.89-20.89h63.92l21.13 21.13h68.02l22.56-22.56h28.21v21.4h21.67l21.05 21.05h67.48l21.67-21.67h23.53v-84.2Z"/><path class="cls-2" d="M2354.68 94.83v93.96h-28.39v105.93h28.39s-.62 93.84 0 93.84M2510.7 325.14v-31.49h-156.02M2493.37 293.65V189.78h-115.09l-6.32 16.84v70.89l7.02 16.14M2510.7 189.78v-27.47M2493.37 189.78h65.62M2510.7 293.65h48.29"/><path class="cls-2" d="m2378.28 189.78-23.6-.99v27.35l-9.86 12.22h-18.52M2009.8 94.83v93.96h158.67v104.86H2009.8v95.87M2009.8 188.79v104.86M1929.98 389.52v-41h-92.87M1930.59 94.09v42.44h-94.72v52.25h18.56v104.86h-477.26v-5.56s54.13-47.33 0-94.22v-5.01h270.63s.64 104.79 0 104.79"/><path class="cls-3" d="M1929.98 188.79c-7.69 24.19-39.7 34.47-46.74 34.47-.62-14.13 0-34.47 0-34.47h78.39v104.86h-78.67v-34.42s39.33 6.73 47.02 34.42c22.65-14.13 49.29-64.17 0-104.86Z"/><path class="cls-2" d="M1835.87 293.65V188.79h-125.06M1710.81 136.31v157.34M1789.2 136.31v52.48M1576.46 188.86v-52.55h-85.68v52.48M1490.78 91.11v45.2M1522.31 188.86v-52.55M1592.41 293.65V188.79M1467.78 293.65V188.86M1443.67 293.65V188.86M1405.83 293.65V188.86M1443.67 271.57h-37.84M1443.67 241.22h-37.84M1443.67 210.74h-37.84M1620.98 293.65V188.86M1647.91 209.25h-26.93M1648.04 241.4h-27.06M1647.91 271.57h-26.93M1381.32 283.95v-25.88h7.04V224h-7.93v-27.18M1601.42 325.76v-32.11M1487.34 391.5v-97.85M1553.56 325.76h-66.22M1443.67 391.5v-47.15M1335.38 390.61v-46.26M1224.34 391.89v-47.54M1443.67 136.31v-45.2M1333.13 89.41v46.9M1224.34 91.46v44.85M1178.38 154.26v237.51M1178.38 188.86h-376.9l-1.38 106.56"/><path class="cls-2" d="M1045.32 188.86v106.1l-85.49.46M982.13 188.86V295.3M1005.3 188.86v106.31M1045.32 271.57h-40.02M1045.32 210.74h-40.02M1045.32 240.39h-40.02M1037.28 295v17.46M1035.56 389.52v-15.53M855.21 188.86V295.3M831 188.86v106.56M800.39 273.01H831M800.81 240.39H831M801.25 206.65H831M801.34 130.19h-32.05v-36.6M800.1 351.59h-30.81v34.84M624.27 386.43v-47.9h-62.6V315.3h-62.43v13.79h-14.52V315.3h-62.43v80.41"/><path class="cls-3" d="M655.17 218.38v-32.17h40.37s4.42 29.02-40.37 32.17ZM655.17 260.65v34.65h40.49s4.93-34.02-40.49-34.65Z"/><path class="cls-2" d="M587.04 186.2h37.23v105.35h-37.23zM624.27 256.39h-37.23M624.27 218.38h-37.23M499.35 186.2h30.91v105.35h-30.91zM530.26 256.39h-30.91M530.26 218.38h-30.91M626.13 93.59v45.93h-63.69v22.08h-63.09V79.97M562.44 139.52V79.97M577.58 139.52V79.97M562.44 120.79h-63.09M577.58 338.53v57.18M561.67 338.53v57.18M499.24 329.09v66.62M484.72 329.09v66.62M561.67 358.43h-62.32M484.72 79.97v81.63h-62.43V79.97M499.35 149.62h-14.63M139.13 186.2h345.59v105.35H139.13zM430.77 291.56V186.2M390.26 291.56V186.2M430.77 206.6h-40.51M430.77 238.88h-40.51M430.77 270.72h-40.51M366.57 291.56V186.2M238.34 291.56V186.2M218.32 291.56V186.2M185.66 291.56V186.2M218.32 206.6h-32.66M218.32 238.88h-32.66M218.32 270.72h-32.66M405.62 79.97v84.11H295.88V79.97M350.75 79.97v84.11M405.62 122.03H295.88M484.72 120.79h-62.43M279.35 79.97v84.11H171.24V79.97M225.29 79.97v84.11M279.35 120.79H171.24M100.24 79.97v84.11M154.46 120.79h-54.22M46.03 186.2h78.61v105.36H46.03M46.03 238.88h78.61M100.24 395.71V315.3M154.46 358.43h-54.22M279.89 395.71V315.3H169.42v80.41M224.65 395.71V315.3M279.89 358.43H169.42M405.16 395.71V315.3H296.49v80.41M350.83 395.71V315.3M405.16 358.43H296.49M484.72 358.43h-63.68M169.42 1l-14.96 31.4v131.68H46.03M169.42 477.15l-14.96-29.62V315.3H46.03"/></g><g id="points"><path class="cls-4" d="M453.73 350.64c15.32 0 15.35-23.81 0-23.81s-15.35 23.81 0 23.81Z"/><circle class="cls-1" cx="453.51" cy="338.53" r="17.35"/><path class="cls-4" d="M258.14 350.64c15.32 0 15.35-23.81 0-23.81s-15.35 23.81 0 23.81Z"/><circle class="cls-1" cx="257.92" cy="338.53" r="17.35"/></g></svg>