<svg id="partie_4" xmlns="http://www.w3.org/2000/svg" xmlns:xlink="http://www.w3.org/1999/xlink" viewBox="0 0 986.37 498.39"><defs><linearGradient id="Dégradé_sans_nom_15" data-name="Dégradé sans nom 15" x1="405.44" y1="285.99" x2="405.44" y2="265.26" gradientUnits="userSpaceOnUse"><stop offset="0" stop-color="#333"/><stop offset="1" stop-color="#9a9a9e"/></linearGradient><linearGradient id="Dégradé_sans_nom_15-2" data-name="Dégradé sans nom 15" x1="274.01" y1="348.19" x2="274.01" y2="327.13" xlink:href="#Dégradé_sans_nom_15"/><linearGradient id="Dégradé_sans_nom_15-3" data-name="Dégradé sans nom 15" x1="535.03" y1="223.78" x2="535.03" y2="202.62" xlink:href="#Dégradé_sans_nom_15"/><linearGradient id="Dégradé_sans_nom_15-4" data-name="Dégradé sans nom 15" x1="585.92" y1="199.37" x2="585.92" y2="175.08" xlink:href="#Dégradé_sans_nom_15"/><linearGradient id="Dégradé_sans_nom_15-5" data-name="Dégradé sans nom 15" x1="664.13" y1="162.14" x2="664.13" y2="139.87" xlink:href="#Dégradé_sans_nom_15"/><style>.cls-4,.cls-7{stroke:#171636;stroke-linecap:round}.cls-4{stroke-linejoin:round;fill:none}.cls-7{fill:none;stroke-miterlimit:10}</style></defs><path style="fill:url(#Dégradé_sans_nom_15);stroke-linejoin:round;stroke:#171636;stroke-linecap:round" d="m431.76 274.51-5.86 2.9-17.39 8.58-29.39-9.58 24.25-11.15.05.02 28.34 9.23z"/><path class="cls-4" d="M258.81 392.57c-23.42 9.59-42.81 17.28-42.81 17.28-24.86 9.52-67.16 23.51-111.73 35.26C51.73 458.95.5 467.76.5 467.76s24.97-29.21 39.43-40.78c16.44-13.14 57.51-42.87 73.05-52.28 4.09-2.49 16.51-9.93 30.85-18.45l114.98 36.32Z"/><path class="cls-7" d="M974.41 6.21c-8.65-3.38-17.83-5.17-27.11-5.56C937.06.22 921.86.5 906.47 4.1c-24.59 5.75-65.72 22.4-65.72 22.4l-78.43 33.31-111.73 50.49-120.4 55.57-109.04 51.84-73.08 34.99-27.36 13.1-103.32 49.46a525.47 525.47 0 0 0-30.14 15.7c-11.9 6.7-28.69 16.56-43.42 25.29l114.98 36.32c31.41-12.85 70.08-29.1 78.98-34.75 15.54-9.86 97.4-45.56 97.4-45.56l207.03-101.72 155.51-75.74 97.69-49.44s24.8-13.15 46.61-29.88c21.8-16.73 36.44-26.64 42.87-35.6 3.39-4.73-2.56-10.57-10.49-13.67ZM425.9 277.41l-17.39 8.58-29.39-9.58 24.25-11.15.05.02 28.34 9.23-5.86 2.9Z"/><path d="M985.49 22.57c-3.8 6.1-16.5 16.93-26.51 25.74-9.09 8-15.37 14.22-19.49 18.47-10.61 10.96-36.23 36.2-49.45 45.69-12.52 8.98-59.2 35.08-59.2 35.08l-132.15 65.62-83.95 40.44-79.67 39.13-89.82 43.42-57.56 27.99-69.05 32.46a987.466 987.466 0 0 1-63.63 27.24l-49.27 19.07s-64.36 21.84-86.24 28.18c-26.79 7.77-61.04 15.34-61.04 15.34L.5 497.89v-30.13s51.23-8.81 103.77-22.65c44.57-11.75 86.87-25.74 111.73-35.26 0 0 106.26-42.17 121.79-52.03 15.54-9.86 97.4-45.56 97.4-45.56l207.03-101.72 155.51-75.74 97.69-49.44s24.8-13.15 46.61-29.88c21.8-16.73 36.44-26.64 42.87-35.6l.59 2.69Z" style="fill:#171636;stroke-linejoin:round;stroke:#171636;stroke-linecap:round"/><path class="cls-7" d="m258.92 392.61-.11-.04M347.37 326.86 379.91 337M291.52 309.46l50.43 15.71M253.98 297.76l30.59 9.53"/><path style="stroke-linejoin:round;stroke:#171636;stroke-linecap:round;fill:url(#Dégradé_sans_nom_15-2)" d="m248.76 339.67 27.04 8.52 23.45-11.95-25.39-9.11-25.1 12.54z"/><path class="cls-4" d="M341.96 325.14 238.61 375.6l-50.94-15.7 103.82-50.33"/><path class="cls-4" d="M284.58 307.28 181.9 357.99l-26.58-8.53-4.32 2.59 118.07 36.26 5.38-2.26-29.89-8.43 102.79-50.72"/><path style="fill:url(#Dégradé_sans_nom_15-3);stroke-linejoin:round;stroke:#171636;stroke-linecap:round" d="m508.53 215.02 28.99 8.76 24-11.96-27.15-9.2-25.84 12.4z"/><path class="cls-7" d="m534.35 202.95.02 19.69M403.42 265.26l.08 18.2M273.86 327.13l.29 20.58M906.47 4.1l73 21.9M815.79 103.47l26.81 8.62M728.09 75.27l23.96 7.71"/><path class="cls-4" d="m857.63 47.86-51.95 25.33 26.18 9.41 50.59-26.37-31.4-10.76-13.96 6.73-29.45-11.51-5.06 2.08 30.66 12.17-62.32 29.28M920.52 70.49 886.23 57.8l-11.5 6.12 35.25 12.85-4.03 1.79L871 66.01l-57.98 31.47"/><path class="cls-4" d="M871 66.01 906.51 79l3.47-2.23M818.71 66.84l25.8 9.17M825.99 63.29l24.97 9.22M832.32 60.21l24.86 9.19M839.95 56.48l25.28 8.78"/><path class="cls-7" d="m285.92 282.47 25.44 6.49-15.89 8.36 11.35 3.99-15.33 8.26M341.96 325.14l15.48-7.43 13.14 3.29 16.88-8.07 26.57 8.67M348.07 252.71l49.38 15.26M425.9 277.41l47.96 15.68M586.42 139.92l28.72 9.42 62.14-30.67-26.69-8.37M525.41 168.26l25.3 6.77 58.38-27.6M744.54 80.56l-10.69 5.34 7.25 2.8 16.55-8.66 64.27 20.24-15.66 8.14 7.89 2.42 9.31-4.9"/><path class="cls-4" d="m869.87 15.48 38.03 13.08 17.05-8.52 15.24 4.39-15.81 8.93 32.64 10.76"/><path style="fill:url(#Dégradé_sans_nom_15-4);stroke-linejoin:round;stroke:#171636;stroke-linecap:round" d="m556.91 189.31 28.16-14.23 29.87 10.01-27.98 14.28-30.05-10.06z"/><path class="cls-4" d="m585.92 199.02-.85-23.06"/><path style="fill:url(#Dégradé_sans_nom_15-5);stroke-linejoin:round;stroke:#171636;stroke-linecap:round" d="m637.36 153.36 26.98-13.49 26.55 8.77-26.15 13.5-27.38-8.78z"/><path class="cls-4" d="M664.34 139.87s-.02 21.82.41 22.27l21.38 6.92-13.43 6.9 24.89 7.62M408.51 285.99l-14.35 7.09-29.52-9.46 14.48-7.21 29.39 9.58zM447.92 266.53l-16.16 7.98-28.34-9.23-.05-.02-24.25 11.15 17.96-8.55h.01l20.99-10.01 29.84 8.68zM545.68 196.53l-53.75 26.11 28.57 9.61 53.12-26.45-27.94-9.27zM770.92 147.43l-42.83-14.22 30.67-17.07-27.72-8.36-33.02 17.42-20.74-6.53M614.94 185.09l16.91 5.57 13.88-5.57 29.14 9.55M475.31 191.96l47.95 15.46M75.15 400.63l43.11 11.38 14.15-7.34 12.08 4.75-14.84 7.12 34.24 11.26"/><path class="cls-7" d="m637.36 153.36-19.3-5.46"/><path class="cls-4" d="m622.06 220.45-15.18-6.06-7.72 3.03 6.38 3.03-10.74 3.33 11.17 4.57M561.52 211.82l15.15 4.25-11.82 6.57 29.95 11.2"/></svg>