<svg id="partie_2" xmlns="http://www.w3.org/2000/svg" xmlns:xlink="http://www.w3.org/1999/xlink" viewBox="0 0 674 315.39"><defs><linearGradient id="Dégradé_sans_nom_15" data-name="Dégradé sans nom 15" x1="252.5" y1="198.09" x2="252.5" y2="174.25" gradientUnits="userSpaceOnUse"><stop offset="0" stop-color="#333"/><stop offset="1" stop-color="#9a9a9e"/></linearGradient><linearGradient id="Dégradé_sans_nom_15-2" data-name="Dégradé sans nom 15" x1="383.5" y1="138.33" x2="383.5" y2="115.62" xlink:href="#Dégradé_sans_nom_15"/><linearGradient id="Dégradé_sans_nom_15-3" data-name="Dégradé sans nom 15" x1="436.58" y1="111.44" x2="436.58" y2="90.92" xlink:href="#Dégradé_sans_nom_15"/><linearGradient id="Dégradé_sans_nom_15-4" data-name="Dégradé sans nom 15" x1="128.46" y1="258.93" x2="128.46" y2="237.64" xlink:href="#Dégradé_sans_nom_15"/><style>.cls-4,.cls-6{stroke:#171636;stroke-linecap:round}.cls-4{stroke-linejoin:round}.cls-8{stroke:#1b1935}.cls-4,.cls-6,.cls-8{fill:none}.cls-6,.cls-8{stroke-miterlimit:10}</style></defs><path style="stroke-linejoin:round;stroke:#171636;stroke-linecap:round;fill:#f5f6f0" d="m.5 265.87 126.67 41.05L673.5 47.21v6.56L127.77 314.89.52 272.57l-.02-6.7z"/><path class="cls-4" d="M527.8 7.37 7.82 254.29.5 265.87 532.16 11.38l6.14-2.93M127.47 314.83l-.3-7.91 14.77-11.21L666 41.67l2.96-1.44-.01-3.17-.03-7.4-12.2-3.47-12.25-3.28 26.59-13.75L644.77.5l-28.39 13.44-20.65-6.69-6.31 3.38-10.07-3.55-18.18 9.15"/><path class="cls-6" d="m663.74 12.9-19.87-6.72-26.74 14.68-21.72-8.45L589.4 16l-10.05-3.47-11.99 6.55L538.3 8.45M665.88 50.83v-8.95"/><path class="cls-4" d="m201.26 190.36 77.68-36.75-9.26-3.88 10.16-4.78.29-3.89 9.86-5.07h9.86l6.72-2.54-.29-4.63 10.3-4.93 7.77.29 4.48-2.09 26.89-13.44 11.35 3.29 57.96-27.19-14.34-5.08 14.04-6.27 8.07.89 17.92-8.66 2.1-6.87 14.04-6.28h11.05l11.95-5.97.3-4.78 14.64-8.07 11.35.3 5.68-1.49-5.38-2.99 4.78-1.49V23.8l11.2-6.42h12.85l6.6-3.96M566.67 18.81l6.85 2.59 9.43-5.28 37.96 13.26-9.36 5.38 15.54 4.98-.4 9.76-10.56 3.58h-11.75l-.5 2.19-4.38 1-4.58-.4-4.78 1.39v5.18L576 69.41l-11.75-.4-11.35 5.38-.4 5.78-14.74 7.17-10.95-.2-30.68 20.31-22.1-7.76-56.97 27.18 17.53 6.97-31.07 14.54-2.19 4.58-7.97 4.39-8.76.59h-8.37l.1 5.9-7.76 5.36-9.96.2-12.35 5.77-10.76 10.86-12.94.4-17.33 8.36-25.69-8.36M254.32 198.09l-12.23 5.66"/><path class="cls-4" d="m278.94 153.61 10.45 2.84-38.04 17.8M223.51 187.27l-12.99 6.08"/><path style="fill:url(#Dégradé_sans_nom_15);stroke-linejoin:round;stroke:#171636;stroke-linecap:round" d="m281.48 184.23-1.94 2.2-25.22 11.66-30.81-10.82 27.79-13 .05-.02 30.13 9.98z"/><path class="cls-4" d="m251.05 196.58.25-22.27v-.04l.05.02M266.99 166.91l28.83 10.75-14.34 6.57M289.4 156.45l56.86 18.72"/><path style="fill:url(#Dégradé_sans_nom_15-2);stroke-linejoin:round;stroke:#171636;stroke-linecap:round" d="m356.42 128.37 27.88 9.96 26.29-12.95-27.68-9.76-26.49 12.75z"/><path class="cls-4" d="m341.48 116.02 23.3 7.57M396.25 132.35l23.7 7.57M417.06 126.87l-14.24 7.87"/><path style="fill:url(#Dégradé_sans_nom_15-3);stroke-linejoin:round;stroke:#171636;stroke-linecap:round" d="m410.79 102.48 24.3 8.96 27.29-11.75-25.5-8.77-26.09 11.56z"/><path class="cls-4" d="m398.04 97.3 12.75 5.18M435.49 91.12l.4 18.72M434.59 133.84l-.1 15.44-32.69 14.19.3 3.88-9.33 4.64-9.27-.15-6.79 2.98.07 3.89-9.26 4.93-9.11.59-15.31 7.4-2.84 5.38-7.92 3.28-10.45 1.05-17.11 8.66-27.18-7.62-16.29 7.17M277.74 187.3l-.14 15.08M303.74 194.39l.15 15.24M322.56 186.43l-.67 14.91M335.5 186.03l-.24 12.84M343.02 178.56l.08 13.07M359.9 169.3l-.3 14.79M366.85 169.37l-.08 14.27M376.33 163.84l.38 10.98M384.6 157.94l.17 13.97M392.54 157.27l.23 14.72M401.33 152.96l.32 9.76M473.23 100.09l-.1 15.33 23.5 6.28-.5-14.25M433.4 132.95l39.73-17.53M496.63 121.7l13.7-6.4.15-5.23 16.43-7.47 10.45-.6.4-14.66M537.36 102l15.54-6.65-.4-15.18"/><path class="cls-4" d="m552.75 89.75 11.8-5.52 11.05-.3.4-14.52M564.25 69.01l.3 15.22M575.6 83.93l15.09-7.47-.55-14.02M594.92 55.87l-.05 14.76-4.33 1.5M599.5 56.27l.53 15.33-5.16-.97M603.89 55.27l.17 14.39-4.03 1.94M616.13 53.08v12.76M604.06 69.66l5.75-.75M626.69 49.5l-.08 11.27M450.72 65.63l73.2 23.75M436.88 90.92l-13.49-5.3M425.03 84.75l14.44-6.37-6.67-4.09M479.7 101.28l15.14-6.97 12.95 4.98M115.52 286.86l4.08-1.45 5.78 2.19.2 14.34-6.1-2.5-4.4 3.61.44-16.19-85.44-29.28-.36 17.69"/><path class="cls-4" d="m125.38 287.6 109.64-54.77-4.38-3.78 35.85-17.13-75.09-24.5-34.45 16.73-5.68-.7-121.19 54.13M235.02 232.83l.3 13.92-109.74 55.19"/><path class="cls-4" d="m266.49 211.92.3 15.34-31.57 14.83M159.83 221.48l-32.38 16.16-.08.04-23.93 11.94-39.01 19.46-6.17-2.39 95.6-46.6v-4.78l-15.34-6.18 3.99-1.99 17.13 6.37.19 7.97zM193.49 232.83l-95.4 47.6-7.57-2.39 39.27-19.11 23.69-11.53 34.44-16.76 5.57 2.19zM76.58 263.71l24.7 9.16M90.33 256.74l26.09 8.76M142.11 230.44l25.1 9.76M159.84 221.48l28.08 9.16M193.5 232.83l7.17-3.48 6.57 1.79 10.36-6.37 13.04 4.28"/><path style="fill:url(#Dégradé_sans_nom_15-4);stroke-linejoin:round;stroke:#171636;stroke-linecap:round" d="m153.48 247.4-23.69 11.53-26.35-9.31 23.93-11.94.08-.04 26.03 9.76z"/><path class="cls-4" d="m127.5 257.49-.13-19.81h0M119.6 285.41l-.12 14.03M382.91 115.62l-.2 21.91M673.5 47.21l-7.5-2.19"/><path class="cls-8" d="M671.06 9.16v7.99l-15.7 8.68M644.47 22.91v7.02l24.35 7.05"/><path class="cls-4" d="m527.8 7.37 5.36 3.54"/></svg>