<svg id="_1ere_plan" data-name="1ere plan" xmlns="http://www.w3.org/2000/svg" viewBox="0 0 2337.57 461.5"><defs><style>.cls-2,.cls-4,.cls-5,.cls-6{fill:none;stroke:#171636}.cls-4,.cls-5,.cls-6{stroke-miterlimit:10}.cls-2{stroke-linecap:round;stroke-linejoin:round}.cls-4{stroke-dasharray:7.96 3.98}.cls-6{stroke-width:2px}</style></defs><path class="cls-6" d="M2066.88 15.55h46.66M1904.12 15.55h45.21M1647.08 447.37H77.75v6.44s-26.53.19-33.39 0c3.8-110.23-25.01-86.76-43.08-158.76-.62-60.56 0-78.66 0-127.98C9.39 120.25 51.22 113.38 44.35 8.5h33.4v7.05h1709.93M1797.56 447.37h-44.81M1952.79 447.37h-41.25M2107.34 447.37h-40.57M2231.42 15.55h34.7V77.1h70.45v303.45h-71.39v66.82h-43.75M1.28 295.05h41.11M1.28 164.58h41.11"/><path class="cls-6" d="M77.75 447.37V334.42H99.2M77.75 15.55v112.13H99.2M74.38 185.92v90.41h46.57v60.27h445.89v26.48h155.82v-85.99H863.9v92.04h85.68c40.15 25.46 82.74 14.2 98.41 0 21.05.49 67.07 0 67.07 0l14.68 14.68h56.31l9.3-14.68 19.09-.49 11.75 15.65h58.26l13.22-16.63h49.94v-45.04h54.83V276.6h85.19V175.26h-23.99v-22.52h-32.8v-29.38h-82.74V93.01h-51.41l-16.4-16.4h-53.12l-11.75 14.93h-19.09l-11.75-15.18h-57.77l-12.24 15.67h-51.9v60.1H943.14V98.39h-376.3v24.01H120.57v62.18l-46.19 1.34ZM1545.06 333.95V123.32h128.38v58.8h96.86v91.87h-97.63v59.96h-127.61zM2124.71 96.74v265.67H1811.7v-95.22h-12.62v-75.23h12.62V96.74h313.01zM1811.7 362.47v-.06M2141.28 273.76s-.91-89.06 0-89.06h108.88v89.06h-108.88ZM722.65 277.08V98.38M566.84 336.59v-214.2"/><path class="cls-5" d="M120.57 184.57h318.24v93.62H138.54v-93.62M148.4 122.39v62.18M227.27 122.39v62.18M340.85 122.39v47.41H227.27M269.97 122.39v47.41"/><path class="cls-5" d="M304.37 122.39c.19 0 0 47.41 0 47.41M169.67 184.57v93.62M198.53 184.57v93.62M138.54 231.38h59.99M169.67 205.29h28.86M169.67 256.98h28.86M216.9 184.57v93.62M335.3 184.57v93.62"/><ellipse class="cls-4" cx="276.1" cy="231.38" rx="59.2" ry="46.81"/><ellipse cx="1933" cy="229.65" rx="57.18" ry="45.08" style="stroke-miterlimit:10;fill:none;stroke:#171636;stroke-dasharray:7.96 3.98"/><ellipse cx="829.1" cy="230.28" rx="57.59" ry="47.9" style="stroke-dasharray:7.91 3.95;stroke-miterlimit:10;fill:none;stroke:#171636"/><ellipse class="cls-4" cx="1383.09" cy="228.96" rx="59.2" ry="46.81"/><path class="cls-5" d="M120.95 292.89h234.16v43.7M389.19 184.57v93.62M355.11 278.19v-93.62M389.19 231.38h49.62M355.11 122.39v47.41h211.73M526.42 122.39v47.41M490.03 122.39v47.41M454.07 122.39v47.41M425.57 122.39v47.41M368.39 336.59v-43.92h57.18v13.39H512v-14.44h54.84M425.57 336.59v-30.53M439.96 336.59v-30.53M467.62 306.06v30.53M512 306.06v30.53M454.07 184.57h44.55v107.05h-44.55zM566.84 182.38h-56.36v95.81h56.36M124.85 40.22c35.19-28.56 91.44-30 131.54-3.75-37.5 30-92.02 32.02-131.54 3.75ZM269.53 38.32c37.48-28.56 97.39-30 140.09-3.75-39.94 30-98 32.02-140.09 3.75ZM425.57 38.32c37.79-28.56 98.2-30 141.27-3.75-40.27 30-98.82 32.02-141.27 3.75ZM583.61 38.32c37.79-28.56 98.2-30 141.27-3.75-40.27 30-98.82 32.02-141.27 3.75ZM583.61 427.34c37.79-28.56 98.2-30 141.27-3.75-40.27 30-98.82 32.02-141.27 3.75ZM427.98 425.27c38.61-27.44 99.04-27.11 141.31.39-41.13 28.81-99.72 29.11-141.31-.39ZM270.75 425.27c38.61-27.44 99.04-27.11 141.31.39-41.13 28.81-99.72 29.11-141.31-.39ZM123.49 422.7c36.39-27.5 93.26-27.28 132.99.15-38.76 28.88-93.9 29.28-132.99-.15Z"/><path class="cls-6" d="M118.34 441.26v-22.18h-2.82v-4.13h9.77v4.13h-3.26v22.36h3.26v4.12h-9.77v-4.38l2.82.08zM259.3 441.26v-22.18h-2.82v-4.13h9.77v4.13h-3.26v22.36h3.26v4.12h-9.77v-4.38l2.82.08zM416.82 443.08v-22.19H414v-4.13h9.77v4.13h-3.26v22.36h3.26v4.12H414v-4.38l2.82.09zM574.39 443.08v-22.19h-2.82v-4.13h9.77v4.13h-3.26v22.36h3.26v4.12h-9.77v-4.38l2.82.09zM731.78 443.08v-22.19h-2.82v-4.13h9.77v4.13h-3.26v22.36h3.26v4.12h-9.77v-4.38l2.82.09z"/><path class="cls-5" d="M2096.48 440.97c37.79-28.56 98.2-30 141.27-3.75-40.27 30-98.82 32.02-141.27 3.75ZM1938.86 438.9c38.61-27.44 99.04-27.11 141.31.39-41.13 28.81-99.72 29.11-141.31-.39ZM1783.62 438.9c38.61-27.44 99.04-27.11 141.31.39-41.13 28.81-99.72 29.11-141.31-.39ZM1630.31 437.35c37.95-27.46 97.3-27.16 138.82.32-40.42 28.83-97.97 29.16-138.82-.32Z"/><path class="cls-6" d="M1620.22 441.9v-22.19h-2.82v-4.13h9.76v4.13h-3.25v22.36h3.25v4.12h-9.76v-4.38l2.82.09zM1775.18 441.9v-22.19h-2.82v-4.13h9.76v4.13h-3.25v22.36h3.25v4.12h-9.76v-4.38l2.82.09zM1931.7 441.71v-22.19h-2.83v-4.13h9.77v4.13h-3.25v22.36h3.25V446h-9.77v-4.38l2.83.09zM2086.26 441.71v-22.19h-2.82v-4.13h9.77v4.13h-3.26v22.36h3.26V446h-9.77v-4.38l2.82.09zM2244.65 441.71v-22.19h-2.82v-4.13h9.77v4.13h-3.26v22.36h3.26V446h-9.77v-4.38l2.82.09z"/><path class="cls-5" d="M2097.55 25.67c39.12-28.56 101.65-30 146.22-3.75-41.69 30-102.29 32.02-146.22 3.75ZM1936.47 23.6c39.97-27.44 102.52-27.11 146.27.39-42.58 28.81-103.22 29.11-146.27-.39ZM1773.71 23.6c39.97-27.44 102.52-27.11 146.27.39-42.58 28.81-103.22 29.11-146.27-.39ZM1621.29 21.03c37.67-27.5 96.53-27.28 137.66.15-40.12 28.88-97.19 29.28-137.66-.15Z"/><path class="cls-6" d="M1615.96 42.59V20.41h-2.92v-4.13h10.11v4.13h-3.37v22.36h3.37v4.12h-10.11v-4.38l2.92.08zM1761.87 42.59V20.41h-2.92v-4.13h10.11v4.13h-3.37v22.36h3.37v4.12h-10.11v-4.38l2.92.08zM1925.91 42.41V20.22h-2.92v-4.13h10.12v4.13h-3.38v22.36h3.38v4.12h-10.12v-4.38l2.92.09zM2088.01 42.41V20.22h-2.92v-4.13h10.11v4.13h-3.37v22.36h3.37v4.12h-10.11v-4.38l2.92.09zM2250.93 44.41V22.22H2248v-4.13h10.12v4.13h-3.37v22.36h3.37v4.12H2248v-4.38l2.93.09zM117.79 43.2V21.02h-2.82v-4.13h9.77v4.13h-3.26v22.36h3.26v4.12h-9.77v-4.38l2.82.08zM258.75 43.2V21.02h-2.82v-4.13h9.77v4.13h-3.26v22.36h3.26v4.12h-9.77v-4.38l2.82.08zM416.27 43.02V20.83h-2.82V16.7h9.77v4.13h-3.26v22.36h3.26v4.12h-9.77v-4.38l2.82.09zM573.84 44.02V21.83h-2.82V17.7h9.76v4.13h-3.25v22.36h3.25v4.12h-9.76v-4.38l2.82.09zM731.23 43.02V20.83h-2.83V16.7h9.77v4.13h-3.25v22.36h3.25v4.12h-9.77v-4.38l2.83.09z"/><path class="cls-5" d="M176.26 336.59v-43.7M227.27 336.59v-43.7M270.78 336.59v-43.7M314.84 336.59v-43.7M393.7 336.59v-15.26h7.05v-28.44M454.07 231.38h44.55M533.61 182.38v95.81"/><path class="cls-6" d="M630.72 183.53c.01 14.85-6.1 27.46-35.63 28.55v-28.55H667s-.01 8.7 0 10.3c35.3 9.39 33.92 63.25 0 74.7v9.65h-71.91v-28.54c22.59.34 36.06 7.36 35.99 28.54"/><path class="cls-5" d="m722.65 183.53 220.49-1.24v-30.17"/><path class="cls-5" d="M863.89 277.08h79.25v-94.79M751.79 183.53v93.55M771.51 183.53v93.55M886.69 183.53v93.55M908.18 182.29v94.79M908.18 200.14h34.96M908.18 230.28h34.96"/><path class="cls-6" d="M1135.59 200.14h104.76v58.71h-104.76zM1077.75 215.19h30.56v28.92h-30.56z"/><path class="cls-2" d="m1062.44 260.91 45.86-16.8 15.98 15.86-15.98-44.78 15.98-16.36-46.53 16.36-15.31-15.05 15.31 43.97-15.31 16.8zM1062.44 260.91l15.31-45.72M1062.44 200.14l45.86 15.05"/><path class="cls-2" d="m1124.28 198.83-15.98 45.28h-30.55l46.53 15.86"/><path class="cls-5" d="M1347.6 322.62v-46.85h-78.04v-93.62h78.04l.49-58.79"/><path class="cls-5" d="M1463.63 175.25v6.9H1347.6M1305.03 182.15v93.62M1323.89 182.15v93.62M1269.56 201.13h35.47M1269.56 229.49h35.47M1269.56 258.85h35.47M1402.44 276.18l-54.84-.41M1442.3 182.15v94.03M1347.6 307.05h54.84M1463.63 182.15v94.03M1487.62 252.2h-23.99M1487.62 228.96h-23.99M1487.62 203.63h-23.99"/><path class="cls-5" d="M1424.6 182.15v-29.12h6.23M1402.44 123.36v12.48h-54.84M1545.06 273.99h127.61l.77-91.87h-128.38M1657.68 182.15v91.84M1630.39 123.32v58.8M1811.7 182.15h223.96v94.03H1811.7zM1856.04 182.15v94.03"/><path class="cls-5" d="M1869.59 247.99h28.54v17.23l46.98.29v-73.22h-75.52v83.89M1898.13 247.99v-55.7M1883.14 247.99v-55.7M1995.85 182.15v94.03M1954.63 182.15v94.03M2035.67 221.12h-39.82M1995.85 252.82h-41.22M2174.65 215.4v28.18s35.42.38 35.42 0V215.4h-35.42Z"/></svg>