<svg id="_4eme_plan" data-name="4eme plan" xmlns="http://www.w3.org/2000/svg" viewBox="0 0 3889.64 403.63"><defs><style>.cls-1,.cls-2,.cls-3{fill:none;stroke:#171636}.cls-1{stroke-linejoin:round}.cls-2,.cls-3{stroke-miterlimit:10}.cls-3{stroke-width:2px}</style></defs><path class="cls-3" d="M3888.12 201.05c-12.34 132.28-111.03 173.31-754.26 192.02-620.62 21.51-2344.27 0-2344.27 0S159.28 315.11 1.72 201.05c159.8-114.07 776.8-195 793.01-195.01 16.21-.02 2198-6.83 2338.18-4.58 274.42 10.06 774.13-1.31 755.2 199.6Z"/><path class="cls-2" d="M384.78 325.93V74.5M789.58 393.07V6.46M463.14 341.43v-95.31h-34.46v9.63h8.25v20.62h-40.78v51.91M498.1 347.89v-14.15M632.14 370.5v-22.61M726.07 384.52v-25.33M833.15 393.59V6.46M789.58 62.49h43.57M789.58 112.24h43.57M789.58 156.31h43.57M789.58 201.22h43.57M789.58 246.12h43.57M789.58 289h43.57M789.58 339.2h43.57M844.89 6.46v94.32h108.33V5.57M899.05 5.57v95.21M844.89 21.8h-11.74"/><path class="cls-2" d="M844.89 62.49h26.92V49.65M927.14 49.65v12.84h26.08M885.27 5.77v11.74M913.68 5.68v11.83M964.95 5.29v94.32h108.33V4.39M1019.12 4.39v95.22M964.65 15.03h-11.73"/><path class="cls-2" d="M964.95 61.31h26.92V48.48M1047.2 48.48v12.83h26.08M1005.33 4.6v11.73M1033.75 4.51v11.82M1087.02 4.86v94.92h108.33V4.57M1141.18 4.57v95.21M1087.26 14.04h-13.98"/><path class="cls-2" d="M1087.02 61.49h26.91V48.65M1169.27 48.65v12.84h26.08M1127.4 4.77v11.74M1155.81 4.68v11.83M150.23 266.77V134.94M384.78 232.71h-53.33v-63.29h53.33M47.85 227.62v-53.07M331.45 192.76H150.23M331.45 209.82H150.23M463.14 58.62v88.98H438.3v-21.53h-42.15V72.1M441.97 246.12V147.6M463.14 246.12h10.91v-89.81h-10.91M474.05 246.12h48.11v-36.3H498.1v-17.06h-24.05M632.14 244.29v-87.98h-72.86v89.81l72.86-1.83zM672.46 242.92s.69-87.29 0-86.61c-.69.69 53.61 0 53.61 0v86.61h-53.61ZM789.58 86.6h-37.61v40.44h37.61M726.07 14.71V42.5M632.14 28.89v18.87M498.1 52v14.72M846.53 117.86h80.6v165.37h-80.6zM953.22 394.92v-94.38H844.89v94.38M833.15 380.72h11.74M899.05 300.54v94.38"/><path class="cls-2" d="M844.89 339.2h26.92v12.89M952.92 339.2h-25.78v12.89M913.68 394.92v-10.4M885.27 394.92v-10.4M1073.28 395.08V300.7H964.95v94.38M953.22 380.88h11.73M1019.12 300.7v95.61"/><path class="cls-2" d="M964.95 339.35h26.92v12.9M1072.98 339.35h-25.78v12.9M1033.75 396.31v-11.63M1005.33 396.31v-11.63M1195.55 397.03v-97.1h-109.06v97.1M1072.98 388.38h14.24M1141.38 299.93v97.1"/><path class="cls-2" d="M1087.22 338.58h26.91v12.9M1195.25 338.58h-25.79v12.9M1156.01 397.03V383.9M1127.6 397.03V383.9M927.14 246.12h-80.61M927.14 199.77h-80.61M927.14 156.31h-80.61M896.62 117.86v38.45M927.14 137.09h-30.52M1261.14 283.23V117.86h-29.65v38.45h-11.24v-38.45H940.03v165.37h280.22v-37.11h8.18v37.11h32.71zM1261.14 246.12H940.18M1261.14 156.31H940.18M987.44 283.23v-37.11M1033.75 283.23V156.31M1077.36 283.23v-37.11M1125.18 283.23v-37.11M1171.96 283.23V156.31M1188.6 283.23v-37.11M1206.79 246.12v-89.81M1201.59 246.12v-89.81M1153.77 246.12V117.86M1201.59 228.9h-29.63M1201.59 171.21h-29.63M1019.12 246.12V117.86M994.2 246.12v-89.81M1019.12 228.9H994.2M1019.12 171.21H994.2M973.79 156.31v-38.45M1060.09 156.31v-38.45M1106.97 156.31v-38.45M1208.44 4.82v94.96h52.7V4.82M1247.26 4.82v10.21"/><path class="cls-2" d="M1208.44 61.49h26.35V52M1261.14 397.87v-97.94h-54.35v97.94M1246.95 397.87v-9.49"/><path class="cls-2" d="M1206.79 338.58h27.17v12.9M1396.35 4.29v70.29h-68.45v43.28h-66.76M1327.9 74.58h-66.76M1396.35 398.97v-73.22h-68.45v-42.52h-66.76M1327.9 325.75h-66.76M1335.57 154.82h32.71v91.31h-32.71z"/><path class="cls-1" d="M1394.05 181.99v-25.68h40.97c-14.54 3.46-3.96 23.78-40.97 25.68ZM1394.05 218.59v27.54h40.97c-13.55-4.08-6.61-27.54-40.97-27.54Z"/><path class="cls-2" d="M1368.28 215.94h-32.71M1368.28 185.22h-32.71"/><path class="cls-1" d="M1736.05 246.12v-89.81h-219.94v89.81h219.94M1543.17 246.12v-89.81M1559.41 246.12v-89.81M1543.17 228.9h-27.06M1543.17 171.21h-27.06M1543.17 200.47h-27.06M1696.2 246.12v-89.81M1669.13 246.12v-89.81M1736.05 228.9h-39.85M1736.05 201.22h-39.85M1736.05 175.98h-39.85M1635.67 156.31V3.63M1637.64 400.62v-154.5M1516.11 400.62v-18.96M1516.11 3.63v17.84M1810.59 3.17v71.17M1848.76 74.34h-77.13M1810.59 401.54v-74.35M1848.76 327.19h-77.13M1970.42 402.16v-74.97M2009.38 327.19h-77.93M1970.42 2.76v71.58M2009.38 74.34h-77.93M2237.58 246.12v-98.63h-53.27v8.82h-166.19v86.6h166.19v11.13h53.27v-7.92zM2144.41 2.76v153.55M2184.31 147.49v-41.15h113.52v12.46l-113.52.55M2211.63 2.19v46.68h81.32s7.59-1.08 7.59 9.22v16.25h10.3V52.67s1.63-15.26-20.06-14.41c-21.68.85-66.68 0-66.68 0V2.19M2301.08 118.26V81.94h9.79v24.39s.48 9.22-9.79 11.93ZM2211.63 48.87h-10.84V33.69h-7.59v-4.33h-22.77V2.19M2165.55 156.31v-26.12M2184.31 254.04v41.15h143.83v-12.47l-143.83-.54M2211.1 402.62v-51.51h113.05s7.59 1.08 7.59-9.22.29-20.26.29-20.26h10.3l-.29 25.68s1.63 15.26-20.06 14.41c-21.68-.85-70.47 0-70.47 0v8.21h-13.91v32.69M2332.28 281.72v32.02h9.79v-20.09s.48-9.22-9.79-11.93ZM2237.6 369.93v-18.82M2251.51 361.72v-10.61M2237.6 357.73h13.91M2211.1 362.13h-40.61v40.46M2144.7 402.59v-10.9h25.79M2144.7 391.69V242.91M2164.62 242.91v27.93"/><path class="cls-2" d="M2398.48 402.47V1.78M2372.03 401.54v-66.32h26.45M2398.48 274.61h-39.49V245.4M2398.48 245.4h-106.34v-89.09h106.34M2398.48 126.91h-43.03v29.4M2398.48 100.1h-43.03v26.81M2372.03 245.4v-89.09M2184.31 242.91h53.29M2184.31 156.31h53.29M2217.88 242.91v-95.42M2237.58 176.54h-19.7M2237.58 227.3h-19.7M2195.99 242.91v-86.6M2035.47 242.91v-86.6M2018.12 176.54h17.35M2018.12 227.3h17.35M2051.18 242.91v-86.6M2398.48 41.33h-43.03M2478.87 402.25v-38.08h-27.64v-68.98h-52.75M2451.23 364.17v38.42M2451.23 327.19h-52.75M2506.12 141.61h35.52v115.26h-35.52zM2438.68 1.7v72.64h-83.23V1.78M2478.87 1.62v72.72h-40.19M2546.89 1.49v72.85h-68.02M2586.49 1.42v72.92h-39.6M2679.1 1.27v77.64h-53.32V40.09h-39.29"/><path class="cls-2" d="M2615.11 40.09v52.59h-28.62V74.34M2748.42 1.17v38.92h-39.99V1.17"/><path class="cls-2" d="M2692.88 1.17v77.74h51.1V40.04M2506.12 402.25v-18.87M2559.58 401.54v-79.91h41.22V245.4h23.58v-25.84h-51.84v-46.65h28.26v-64.15h199.17v193.08H2600.8"/><path class="cls-2" d="M2600.8 401.54v-79.91h172.53v78.61M2559.58 346.88h41.22M2575.41 321.63v25.25M2679.78 401.12v-52.4M2711.5 401.12v-79.49M2746.24 400.52v-19.86"/><path class="cls-2" d="M2799.97 399.94v-33.62h-26.64M2759.5 301.84v-29.83h40.47M2748.42 143.42h21.21v86.06h-21.21zM2743.98 301.84v-9.58h-36.11v-39.49h10.56V108.76M2698.25 301.84V245.4h-24.3v56.44M2624.38 245.4h94.05M2718.43 156.31H2600.8M2679.78 245.4v-89.09M2840.81 399.44V245.4h15.46v-89.09h-15.46V1.42M2840.81 92.68h-25.71V40.09h-55.6V1.16"/><path class="cls-2" d="M2786.65 59.09h-27.15v-19M2799.97 40.09V1.42M2840.81 49.59h-25.71M2840.81 321.63h-27.01v18.46h27.01M2679.1 40.09h-40.54V1.16M2624.38 1.16l1.4 38.93M3133.85 393.07v-84.6h28.95V92.68h-28.95V1.45M2856.27 245.4h103.98v-89.09h-103.98M2960.25 245.4h13.83v-89.09h-13.83M3162.8 92.68h14.97V2.78M3133.85 59.51h43.92M3188.5 3.19v133.67h108.74V5.99M3311.08 6.55v135.67h103.34V10.71M3426.67 11.36v130.86h36V13.53M3476.44 14.48v95.58h27.58V16.59M3462.67 110.06h-36M3462.67 82.87h-36M3414.42 102.65h-103.34M3377.94 142.22v-39.57M3342.79 142.22v-39.57M3362.75 102.65V8.37M3337.96 70.03h-26.88M3414.42 70.03h-26.81M3297.24 100.6H3188.5M3242.87 4.62v95.98M3188.5 66.82h36.84M3297.24 66.82h-36.12M3261.12 136.86V100.6M3222.93 136.86V100.6M3487.47 110.06v89.84M3530.89 124.72V18.69M3556.62 124.72V21.36M3581.55 124.72V24.12M3487.47 124.72h124.23v67.14h32.17v-27.74l-32.17.8M3643.87 164.12h9.65V35.1M3622.02 29.91v77.92h-28.01V25.77M3622.02 96.98h-28.01M3663.22 36.89v140.94h60.65V49.85M3693.54 43.14v134.69M3723.87 154.98h-60.65M3734.5 130.68h49.46v50.85h-49.46z"/><path class="cls-2" d="M3734.5 181.53v34.67h49.46v-34.67M3162.8 308.47l14.89.22v83.04M3133.78 338.52h43.91M3188.43 391.73V261.17h108.74v126.15M3311.01 386.72V255.81h103.33v125.6M3426.59 380.67V255.81h36v122.5M3476.37 377.33v-89.36h27.58v87.25M3462.59 287.97h-36M3462.59 315.16h-36M3414.34 295.38h-103.33M3377.87 255.81v39.57M3342.72 255.81v39.57M3362.68 295.38v88.88M3337.88 328h-26.87M3414.34 328h-26.8M3297.17 297.43h-108.74M3242.8 389.66v-92.23M3188.43 331.2h36.84M3297.17 331.2h-36.12M3261.05 261.17v36.26M3222.86 261.17v36.26M3487.4 287.97v-89.84M3530.82 273.31v100.6M3556.55 273.31v97.24M3581.48 273.31v94.67M3487.4 273.31h124.23v-67.14h32.16v27.74l-32.16-.8M3643.79 233.91h9.65v124.83M3621.95 363.17V290.2h-28.01v76.39M3621.95 301.05h-28.01M3663.15 357.23V220.2h60.64v125.41M3693.47 351.94V220.2M3723.79 243.05h-60.64M3734.42 216.5h49.46v50.85h-49.46z"/><path class="cls-2" transform="rotate(180 3547.55 198.96)" d="M3522 158.29h51.09v81.34H3522z"/><path class="cls-2" transform="rotate(180 3388.59 198.96)" d="M3370.14 158.29h36.9v81.34h-36.9z"/><path class="cls-2" transform="rotate(180 3343.56 198.96)" d="M3324.45 158.29h38.23v81.34h-38.23z"/><path class="cls-2" transform="rotate(180 3468.055 199.015)" d="M3448.71 158.29h38.69v81.45h-38.69z"/><path class="cls-3" d="M3204.41 243.05h64.6v-88.07h-64.6"/><path class="cls-2" d="M3324.45 239.63h-55.44M3324.45 158.29h-55.44M3448.71 239.74h-41.67M3448.71 158.29h-41.67M3487.47 199.9h-117.33M3362.68 199.9h-93.67"/><path class="cls-3" d="M3114.21 1.45s668.86 35.2 669.67 196.68-669.67 195.6-669.67 195.6"/></svg>