<svg id="_5eme_plan" data-name="5eme plan" xmlns="http://www.w3.org/2000/svg" viewBox="0 0 4425.11 483.03"><defs><style>.cls-1{fill:none;stroke:#1d1c38;stroke-miterlimit:10}</style></defs><path d="M1484.98 479.94c541.3 4.07 1153.76 1.87 1806.22-3.85 411.74.54 789.04-48.4 1131.82-234.59C4080.24 55.31 3702.95 6.4 3291.21 6.94 2638.75 1.22 2026.28-.98 1484.99 3.09 891.1-2.25 441.08 119.53 3.72 241.5c437.36 121.97 887.37 243.77 1481.26 238.44Z" style="stroke-width:2px;fill:none;stroke:#1d1c38;stroke-miterlimit:10"/><path class="cls-1" d="m4305.54 278.46-71.71 25.18v-64h71.71v38.82zM4223.46 306.9l-68.44 22.22v-68.14h68.44v45.92zM4143.17 332.38l-66.67 22.23V267.2h66.67v65.18zM4062.57 359.35v-57.19h-72.29v77.63l72.29-20.44zM3977.24 382.98v-86.89h-44v98.44l44-11.55zM3933.24 239.64h129.33v46.44h-129.33z"/><path class="cls-1" d="m4305.54 200.83-71.71-25.19v64h71.71v-38.81zM4223.46 172.38l-68.44-22.22v68.15h68.44v-45.93zM4142.13 143.48l-66.67-18.8v73.97h66.67v-55.17zM4062.57 119.94v57.18h-72.29V99.49l72.29 20.45zM3977.24 96.31v86.89h-44V84.75l44 11.56zM3933.24 193.2h129.33v46.44h-129.33zM3869.91 239.64v46.45h-61.34v7.03h-81.33v-53.48h142.67z"/><path class="cls-1" d="M3869.91 239.64V193.2h-61.34v-7.04h-81.33v53.48h142.67zM3869.91 81.27l-48.6-12v94.22h48.6V81.27zM3805.76 69.27l-93.8-22.22v116.44h93.8V69.27zM3869.91 409.27l-64.15 16V304.38h64.15v104.89zM3790.5 427.2l-78.82 12.44V316.68h78.82V427.2zM3600.28 316.68h96.44v125.33l-96.44 12.74V316.68zM3587.83 454.75l-97.78 9.78V316.68h97.78v138.07zM3474.94 464.53l-49.33 3.11V316.68h49.33v147.85zM3320.5 318.75h93.41v54.52h-93.41zM3585.46 186.16h111.26v106.96h-111.26zM3507.24 188.68h63.56v104.44h-63.56zM3445.02 188.68h50.67v104.44h-50.67zM3698.35 47.05l-94.22-15.11v116.89h94.22V47.05zM3587.24 163.49h-112.89V22.16l112.89 8.45v132.88zM3397.31 22.16h64.59v141.33h-64.59zM3382.43 22.16l-61.93-3.18v168.29h61.93V22.16zM3063.46 130.98h221.04v221.04h-221.04zM3063.46 352.01v25.48h-360.29v-271.4h360.29V352.01zM2543.17 137.49h76.44v208h-76.44zM2329.77 137.49h176v208h-176zM1724.94 138.38h360.3v208.59h-360.3zM1331.46 27.27h171.56v72h-171.56zM1331.46 148.75h146.67v189.04h-146.67zM858.87 191.42h155.85v104.3H858.87zM574.8 191.42h72v104.37h-72zM239.76 288.01l-62.67-18.89v-51.33l62.67-17.78v88zM662.65 191.42h84v104.3h-84zM795.09 191.42h63.78v104.3h-63.78z"/><path class="cls-1" d="M746.65 295.72h36.44V66.31l-36.44 7.55v221.86z"/><path class="cls-1" d="M675.98 119.64h70.67v53.78h-70.67zM746.65 406.16v-86.22h-84v70.67l84 15.55z"/><path class="cls-1" d="m746.65 406.16 36.44 7.11v-93.33h-36.44v86.22zM646.8 387.27l-73.26-17.33v-58.67h73.26v76zM2820.29 8.31h108v81.33h-108zM3204.35 18.98h84.42v89.78h-84.42zM3140.35 18.98h46.22v89.78h-46.22zM3204.8 373.27h83.98v96.67h-83.98zM3140.35 373.27h46.22v96.67h-46.22zM177.09 289.29v-95.57M239.76 306.04V176.96M675.98 119.64h-13.33V79.35M563.88 384.13V99.5M522.85 375.25V107.76M457.61 360.45v-80.59h-64.48v-74.39h11.35v-69.82"/><path class="cls-1" d="M457.61 122.56v82.28h-53.13M457.61 279.86v-75.02M469.41 119.64v71.78h94.47M563.88 295.72l-41.03.07h-53.44v67.26M563.88 244.01h-41.03M563.88 319.94h-41.03M563.88 260.2h-41.03M563.88 225.03h-41.03M563.88 163.7h-41.03M610.8 311.27v67.48M646.8 349.27h-36M646.8 81.97v81.73h-44.9V90.95M646.8 119.64h-44.9M610.8 295.79V191.42M646.8 242.35h-72M646.8 270.91h-72M646.8 220.69h-73.26M746.65 366.61h-84M695.59 319.94v46.67M783.09 343.27h-36.44M783.09 381.61h-36.44M783.09 260.2h-36.44M783.09 230.83h-36.44M783.09 191.42h-36.44M783.09 155.53h-36.44M746.65 119.64h36.44M892.05 442.01v-81.56h-49.93v-20.09h-43.67v87.68"/><path class="cls-1" d="M845.25 435.29v-48.02l-3.13-8.52v-18.3M798.45 370.31h43.67M858.87 191.42v-18h-44.83v-50.59h140.97v-9.95h-46.57V38.94"/><path class="cls-1" d="M892.05 41.01v70.63h-93.6V54.98M907.17 444.06v-52.88h63.37v-12.43h79.49v81.94M1017.74 345.01v-22.22h-77.63v20.48h74.61M892.05 191.42v-68.59M892.05 173.42h48.06v-30.73h14.9v-19.86M955.01 142.69h48.44V85.56h-21.11V29.94"/><path class="cls-1" d="M955.01 32.83v80.05h48.44M908.44 76.33h46.57M1003.45 85.56h14.29V27.27M1050.03 22.34v103.58h-32.29V85.56h32.29M1033.88 125.92v117.35h-19.16M955.01 151.6h78.87M845.25 173.42v-50.59M1017.74 457.37v-78.62M1050.03 419.72h-32.29M970.54 391.18v60.88M1128.39 15.39v110.53h-63.61V41.01l7.29-5.23V20.22M1128.39 82.82h-63.61M1101.22 125.92v-43.1M1142.26 14.32v111.6h66.44V9.87M1221.63 9.13v113.7h64.52V82.82h12.91V5.59M1208.7 82.82h-66.44M1175.48 125.92V11.96M1253.88 122.83V7.48M1286.15 82.82h-64.52"/><path class="cls-1" transform="rotate(180 1096.59 168.975)" d="M1064.78 146.53h63.61v44.89h-63.61z"/><path class="cls-1" transform="rotate(180 1173.465 170.085)" d="M1142.26 148.75h62.41v42.67h-62.41z"/><path class="cls-1" transform="rotate(180 1253.89 170.085)" d="M1221.63 148.75h64.51v42.67h-64.51z"/><path class="cls-1" transform="rotate(180 1181.92 243.57)" d="M1064.78 191.42h234.27v104.3h-234.27z"/><path class="cls-1" transform="rotate(180 1096.59 317.135)" d="M1064.78 295.72h63.61v42.84h-63.61z"/><path class="cls-1" transform="rotate(180 1174.58 317.135)" d="M1142.26 295.72h64.64v42.84h-64.64z"/><path class="cls-1" transform="rotate(180 1237.755 316.755)" d="M1221.63 295.72h32.24v42.07h-32.24z"/><path class="cls-1" d="M1253.88 191.42v-42.67M1175.48 191.42v-43.29M1096.59 191.42v-44.89M1096.59 337.79v-42.07M1174.58 337.79v-42.07M1142.26 191.42v104.3M1299.06 477.44V76.33M1253.88 337.79l14.27 7.22v13.48h-46.52v115.4"/><path class="cls-1" d="M1253.88 475.55v-81.78h45.18M1268.15 345.01h30.91M1268.15 358.49h30.91M1221.63 393.77h32.25v-35.28M1253.88 404.04h-32.25M1204.67 472.92V358.49h-62.41V468.7M1174.58 471.01V358.49M1204.67 393.77h-62.41M1128.39 467.63V356.46h-63.61v78.83l7.89 7.89v19.59M1128.39 393.77h-63.61M1331.46 337.79h-32.4M1331.46 148.75h-32.4M1551.01 2.62v145.51h-72.88M1299.06 125.92h251.95M1551.01 148.13v190.42l-73.94-.76M1478.13 302.45h72.88M1478.13 184.6h72.88M1441.01 480.1V337.79M1347.7 338.55v29.07h93.31M1488.32 480.1V337.79M1582.32 480.6V2.43M1551.01 338.55h31.31M1488.32 358.49h94M1709.94 481.26V313.85h-64.07v103.33h13.78v13.78h-28.93v-111.6h-48.4M1709.94 364.14h-63.81M1659.65 417.18h50.29M1646.13 430.96v49.14M1630.72 381.36h-48.4M1724.94 346.98h-15M1709.94 313.85h15M1724.94 181.87h-142.62M1770.16 138.38V89.75h-187.84M1582.32 67.63h187.84V2.62M1717.44 1.73v65.9M1659.65 67.63V2.62M1627.17 67.63V1.73M1739.2 138.38V89.75M1832.7 137.49V75.38h16.36v14.37h61.55V44.51h-62.33V1.3M1848.28 44.51v10.13M1849.06 75.38v-7.75M1943.34 346.98V141.9M1910.61 346.98V1.15M1848.28 480.6V367.62h-29.01v-20.64M1910.61 480.6V367.62h-46.74V138.38M2052.41 346.98v-208.6M2085.24 303.96h59.11V181.87h-59.11M2192.66 481.96V295.39h-14.81V189.43h14.81V1.06M2192.66 295.39h31.94V190.21h-31.94M2427.54 481.96V420.2h16.47v-73.22M2410.38 138.38V1.52M2505.77 1.52v135.97M2505.77 345.49v135.69M2505.77 69.95h-45.98V1.52M2615.57 1.52v109.87h-109.8M2615.57 480.71v-87.96h-109.8M2553.81 481.96v-89.21M2581.39 392.75v-47.26M2703.17 295.39h-83.56M2619.61 137.49l41.78.89V121h41.78V56.45h-70.45v81.93M2661.39 2.53v53.92"/><path class="cls-1" d="M2661.39 121V97.42h-28.67M2632.72 56.45h-17.15M2738.41 106.09V56.45h-35.24M2753.5 56.45v33.19h50.1V3.31M2738.41 56.45h65.19M2753.5 56.45V3.02M2703.17 377.49v102.79M2743.14 480.71V377.49M2928.29 38.15h15.74v54.68h119.43v13.26h54.49V72.12h-54.49v20.71M3090.38 106.09V72.12"/><path class="cls-1" d="M3063.46 72.12V57.17h-43.01v35.66M3117.95 5.5v51.67h-88.55V4.82M2991.9 92.83V4.54M2944.03 55.42h47.87M3140.35 57.17h46.22M3242.57 18.98v38.19h-37.77M3257.76 108.75V18.98"/><path class="cls-1" transform="rotate(180 2803.4 436.085)" d="M2756.37 392.75h94.05v86.68h-94.05z"/><path class="cls-1" transform="rotate(180 2913.335 435.72)" d="M2865.98 392.75h94.7v85.95h-94.7z"/><path class="cls-1" transform="rotate(180 2779.885 412.395)" d="M2756.37 392.75h47.03v39.3h-47.03z"/><path class="cls-1" transform="rotate(180 2826.91 412.395)" d="M2803.4 392.75h47.03v39.3h-47.03z"/><path class="cls-1" transform="rotate(180 2826.91 455.56)" d="M2803.4 432.05h47.03v47.03h-47.03z"/><path class="cls-1" transform="rotate(180 2889.395 454.76)" d="M2865.46 430.82h47.88v47.88h-47.88z"/><path class="cls-1" transform="rotate(180 2937.01 450.15)" d="M2913.33 421.61h47.35v57.09h-47.35z"/><path class="cls-1" transform="rotate(180 2943.82 407.175)" d="M2926.95 392.75h33.73v28.86h-33.73z"/><path class="cls-1" transform="rotate(180 3085.86 449.565)" d="M3053.43 421.61h64.86v55.92h-64.86z"/><path class="cls-1" transform="rotate(180 3090.875 392.335)" d="M3063.46 377.49h54.83v29.68h-54.83z"/><path class="cls-1" d="M3038.51 478.14V429.1h-31.13v-9.83h-30.8v29.43h-15.89M3007.38 429.1v48.43M2991.81 401.76v-24.27M3118.29 377.49v-25.48M3117.95 106.09v24.89M3288.77 421.61h-83.97M3242.57 469.94v-96.67M3186.57 421.61h-46.22M3382.43 72.12h-43.54v-52.2M3382.43 116.38h-61.93M3382.43 151.63h-61.93M3445.02 22.16v49.96h-47.71M3461.91 114.46h-64.6M3429.61 163.49v-49.03M3320.5 187.27v131.48M3320.5 476.04V373.27h-31.73M3288.77 407.18h31.73M3320.5 469.94l96.52-2.3v-74.89h-25.83v37.44h-70.69M3368.76 467.64v-36.3M3417.02 430.19h-25.83M3368.76 373.27v-54.52M3320.5 293.12h40.16V187.27M3495.68 241.49h-50.66M3474.94 369.29h-49.33M3474.94 407.18h-49.33M3539.02 459.64V318.75M3587.24 369.29h-97.19M3587.24 410.72h-97.19M3570.8 226.91h-63.56M3538.65 188.68v38.23M3587.24 114.46h-112.89M3524.82 27v45.12h-49.88M3587.24 72.12h-48.22M3539.02 163.49V27M3604.13 148.83v37.33M3651.24 39.49v408.89M3604.13 84.75h47.11M3698.35 99.49h-47.11M3696.72 241.49H3587.24M3696.72 357.34h-45.48M3651.24 369.29h-50.96M3651.24 403.83h-50.96M3696.72 401.35h-45.48M3681.98 186.16v-37.33M3758.86 163.49V58.16M3805.76 114.46h-46.9M3758.86 99.49h-46.9M3808.57 286.09V193.2M3764.72 293.12V186.16M3790.5 394.53h-16.31v6.82h-62.23M3790.5 335.18h-78.82M3869.91 124.68h-48.6M3933.24 207.79h-63.33M3933.24 274.99h-63.33M3933.24 286.09v10M3933.24 394.53l-49.83 12.65V274.99"/><path class="cls-1" d="M3933.24 318.75h-31.67v-12h-18.16M3915.18 397.94v-56.96h-31.77M3933.24 239.64h-63.33M3883.41 207.64V74.93l49.83 9.82M3933.24 193.2v-10M3933.24 171.9h-49.83"/><path class="cls-1" d="M3915.18 81.19v60.1h-31.77M4017.16 193.2v92.89M3967 193.2v92.89M3977.24 154.62h-44M3977.24 128.99h-44M3977.24 329.12h-44M3977.24 354.61h-44M4022.67 370.63v-66.99M4022.67 177.12v-68.47M4263.78 293.12V186.16M4233.83 229.85h-62.87v21.74h62.87M4183.86 319.76v-58.78M4183.86 218.31v-58.79M4108.8 198.65v-64.67M4108.8 345.31V267.2"/></svg>