<svg id="Layer_1" xmlns="http://www.w3.org/2000/svg" version="1.1" viewBox="0 0 3421.9 377.8"><defs><style>.st0{stroke:#173387}.st0,.st1,.st2{fill:none;stroke-miterlimit:10}.st0,.st2{stroke-width:2px}.st3{fill:#171636}.st4{fill:#173387}.st1,.st2{stroke:#171636}</style></defs><g id="_3eme-bis_plan"><path class="st2" d="M3192 204.7c-.3-6.3-.4-9.1-.9-13.3-11-93.6-117.2-108.7-202-117.9-88.7-9.6-499.6-26.5-499.6-26.5h-1799S349.7 47 53 204.7c220.3 118.2 451.4 152.4 643.4 157.8 192.1 5.4 1699 5.7 1818.5 1.9s386.4-16.3 496.6-32.7c81.1-13.6 179.1-22.8 180.5-127ZM508 347.5V62.9"/><path class="st1" d="M277.9 113.5v34.1H319v15.3h139.7v-11.3H508M277.9 297.9v-35.8H317v-14.7h141.7v11.3H508"/><path class="st1" d="M393 329v-64.3h-15.5v-17.3M309 262.1v44.8M309 147.6v-43M458.7 151.6v-31.9H508M508 288.2h-49.3v-29.5M479.7 343.5v-55.3M186.3 266.1V144.6M326.3 178.9h170.3V227H326.3zM385.3 178.9V227M393 178.9V227M426.1 178.9V227M473.4 178.9V227"/><path class="st2" d="M696.5 362.5V47"/><path class="st1" d="M734.7 363.3V47M696.5 94.3h38.2M696.5 169.9h38.2M696.5 241h38.2M696.5 278.6h38.2M696.5 315.8h38.2"/><circle class="st1" cx="666.2" cy="288.2" r="19.5"/><circle class="st1" cx="666.2" cy="122.6" r="19.5"/><path class="st1" d="M596.7 169.9h43V241h-43zM508 169.9h57.2V241H508zM746.2 284.1h74v79.2h-74zM746.2 48.7h74v74h-74zM746.2 142.1h32v126.6h-32zM831.2 46.8h75v79.5h-75zM915.1 46.8h77.3v79.5h-77.3zM1001.7 46.8h76.2v79.5h-76.2zM1087.8 46.8h75.1v79.5h-75.1zM831.2 284.1H904v80.8h-72.8zM915.1 284.1h75v80.8h-75zM1001.7 284.1h73.4v81.6h-73.4zM1087.8 284.1h72.3V366h-72.3zM1053.6 142.1h21.5v126.6h-21.5z"/><path class="st1" d="M810.2 169.9h243.4V241H810.2zM789.5 364v-79.9M746.2 315.8h20.2l11.8 31.7v15.8M778.2 48.7v11.6l-10.2 34h-21.8M789.5 122.6V48.7M820.2 94.3h-30.7M873.7 126.3V46.8M906.3 94.3h-32.6M863.1 46.8v13l-10.4 34.5h-21.5M959.7 126.3V46.8M992.4 94.3h-32.7M949.2 46.8v13l-10.4 34.5h-23.7M1045 126.4V46.9M1077.6 94.4H1045M1034.5 46.9v13l-10.4 34.5h-21.5M1130.3 126.4V46.9M1162.9 94.4h-32.6M1119.7 46.9v13l-10.4 34.5h-21.5M871.9 285.4v79.5M904.5 317.4h-32.6M861.4 364.9v-13l-9.5-34.6h-21.4M958 285.4v79.5M990.6 317.4H958M949.2 364.7v-13l-10.4-34.4h-23.7M1043.2 285.3v79.4M1075.9 317.3h-32.7M1032.7 364.7v-13l-10.4-34.4h-21.5M1128.5 285.3v79.4M1161.1 317.3h-32.6M1118 364.7v-13l-10.4-34.4h-21.5M820.2 315.8h-30.7"/><path class="st1" d="M1045 241v27.7H789.5v-51.5h20.7M810.2 241h-20.7M825.6 268.7V241M863.1 268.7V241M901.9 268.7V241M938.1 268.7V241M976 268.7v-98.8M1011.5 268.7V241M1075.1 241h-21.5M1075.1 224h-21.5M1075.1 204.8h-21.5M1075.1 169.9h-21.5M1018.5 241v-71.1M992.4 241v-71.1M1018.5 183.9h-26.1M1018.5 224h-26.1M888.2 241v-71.1M873.7 241v-71.1M852.7 241v-71.1M873.7 228.2h-21M873.7 181.1h-21M810.2 205.4h-20.7v-63.3h253.7v27.8M1006.9 169.9v-27.8M971.4 169.9v-27.8M933.8 169.9v-27.8M896.2 169.9v-27.8M858.6 169.9v-27.8M820.2 169.9v-27.8"/><path class="st1" d="M810.2 169.9v-9h-20.7M810.2 181.1h-20.7M778.2 179.6h-32M778.2 228.2h-32M734.7 203.4h-38.2M734.7 130.3h-38.2M1087.8 268.7V142.1M1197.1 234.1v6.9h-25.3v-21.7s17.9-2.7 25.3 14.8ZM1197.1 173.8v-6.4h-25.3v22.1s18.4 1.8 25.3-15.6ZM1125.3 169.9h25.8V241h-25.8zM1171.8 303.7h41.5v62.5h-41.5zM1203.1 47.1h64.8V97h-64.8zM1171.8 47h31.3v47.2h-31.3zM1268 47.1h43.9v59.1H1268zM1311.9 47.1h41.9v59.1h-41.9z"/><path class="st1" d="M1353.7 47h31.7v39.6h-31.7zM1353.7 86.7h31.7v19.5h-31.7zM1385.4 47.1h37.3v59.1h-37.3z"/><path class="st1" d="M1422.6 47.1h38.3v59.1h-38.3zM1460.9 47.1h32.2v59.1h-32.2zM1268 169.9h165.4V241H1268z"/><path class="st1" d="M1268 123.5h213.9v161.9H1268zM1493.1 86.7h-32.2M1369.5 106.2V86.7M1305.7 169.9v-46.4M1337.9 169.9v-46.4M1374.9 169.9v-46.4M1411.4 169.9v-46.4M1481.8 169.9h-48.5M1445.1 123.5v46.4M1481.8 215.8h-48.5"/><path class="st1" d="M1433.3 241h21v44.4M1481.8 249.1h-27.5M1418 241v44.4M1381.3 285.4V241M1343.5 285.4V241M1305.7 285.4V241M1289.9 241v-71.1M1303.2 241v-71.1M1393.5 241v-71.1M1407.3 241v-71.1M1433.3 226.6h-26M1433.3 183.9h-26M1289.9 226.6H1268M1289.9 181.7H1268M1225.6 303.7h42.4v62.6h-42.4zM1268 303.7h43.9v62.7H1268zM1311.9 303.7h41.9v62.8h-41.9z"/><path class="st1" d="M1225.6 334.4h32.2v32.2h-32.2zM1171.8 332.6h33.9v33.9h-33.9zM1353.7 303.7h31.9v62.8h-31.9z"/><path class="st1" d="M1364.4 334.4h21.2v32.2h-21.2zM1353.7 303.7h31.9v19h-31.9z"/><path class="st1" d="M1385.6 303.7h36.8v62.9h-36.8zM1422.4 303.7h37.8v63h-37.8zM1460.2 303.7h31.2v63h-31.2z"/><path class="st1" d="M1470.2 332.7h21.2v34h-21.2zM1460.2 303.7h31.2v19h-31.2zM1491.4 303.7h38.7v63.1h-38.7z"/><path class="st1" d="M1530.1 303.7h38.7v63.1h-38.7zM1568.8 303.7h40.6v63.2h-40.6zM1609.4 303.7h31.5v63.2h-31.5z"/><path class="st1" d="M1609.4 332.7h21.2v34.2h-21.2zM1609.4 303.7h31.5v19h-31.5zM1493.1 47.1h37v59.1h-37zM1530.1 47.1h38.7v59.1h-38.7zM1568.8 47.1h40.6v59.1h-40.6zM1471 47.1h22v29.6h-22zM1491.4 123.5h64.1v161.9h-64.1z"/><path class="st1" d="M1522.1 239.3h33.4v46.1h-33.4zM1491.4 169.9h23.6v69.4h-23.6zM1522.1 239.3h-7.1M1555.5 204.6H1515M1555.5 169.9H1515M1525.8 123.5v18.2h-3.7v28.2M1609.4 47.1h31.5v59.1h-31.5zM1640.9 47.1h38.1v59.1h-38.1z"/><path class="st1" d="M1609.4 88.8h31.5v17.3h-31.5zM1609.4 47.1h21.4v29.6h-21.4zM1565.9 123.5h64.9v161.9h-64.9z"/><path class="st1" d="M1565.9 123.5h41V241h-41zM1630.8 169.9h-64.9M1630.8 142.5h-23.9M1630.8 194.7h-23.9M1630.8 215.8h-23.9M1606.9 205.4h-41M1606.9 241h23.9M1595.6 285.4v-16.8h2.7V241M1625.2 322.7v-19M1477 106.2V86.7M1625.2 106.2V88.8M1369.7 322.7l-.2-19M1475.8 322.7v-19M1640.9 303.7h38.1v63.2h-38.1zM1679 303.7h42.8v63.2H1679zM1679 47.1h42.8v59.1H1679zM1721.8 47.1h36.1v59.1h-36.1zM1757.9 47.1h32.9v59.1h-32.9z"/><path class="st1" d="M1790.8 47.1h37.4v59.1h-37.4zM1828.2 47.1h43.8v59.1h-43.8zM1872 47.1h36.8v59.1H1872z"/><path class="st1" d="M1908.7 47.1h32.5v59.1h-32.5zM1941.2 47.1h36.2v59.1h-36.2zM1977.4 47.1h37.4v59.1h-37.4z"/><path class="st1" d="M2014.7 47.1h33.1v59.1h-33.1zM2047.8 47.1h38v59.1h-38zM2085.8 47.1h42.3v59.1h-42.3z"/><path class="st1" d="M2128 47.1h37.4v59.1H2128zM2165.4 47.1h30.6v59.1h-30.6zM2196.1 47.1h38.6v59.1h-38.6zM2234.7 47.1h37.4v59.1h-37.4z"/><path class="st1" d="M2272 47.1h44.1v44.4H2272zM2196.1 65.1h-8.6l-11.7 20.8v20.3M2034 106.2V85.6l-10.1-20.5h-9.2M1919.8 106.2V85.6l11.6-20.5h9.8M1790.8 85.6h-32.9M1774.3 106.2V85.6M1723 306.8h36.1v59.1H1723zM1759.1 306.8h32.9v59.1h-32.9zM1792 306.8h37.4v59.1H1792zM1829.4 306.8h43.8v59.1h-43.8zM1873.2 306.8h36.8v59.1h-36.8z"/><path class="st1" d="M1909.9 306.8h32.5v59.1h-32.5zM1942.4 306.8h36.2v59.1h-36.2z"/><path class="st1" d="M1978.5 306.8h37.4v59.1h-37.4zM2015.9 306.8h33.1v59.1h-33.1zM2049 306.8h38v59.1h-38zM2087 306.8h42.3v59.1H2087z"/><path class="st1" d="M2129.2 306.8h37.4v59.1h-37.4zM2166.6 306.8h30.6v59.1h-30.6zM2197.2 306.8h38.6v59.1h-38.6zM2235.8 306.8h37.4v59.1h-37.4z"/><path class="st1" d="M2197.2 347.8h-8.5L2177 327v-20.2M2035.2 306.8v20.5l-10.1 20.5h-9.2M1920.9 306.8v20.5l11.7 20.5h9.8M1792 327.3h-32.9M1775.5 306.8v20.5M2273.2 306.8h42.9v59.1h-42.9zM1679 169.9h164.3V241H1679zM1843.3 169.9h129.1V241h-129.1zM1913.2 241h37.1v44.4h-37.1zM1875.5 241h37.7v44.4h-37.7zM1829.4 241h35.4v44.4h-35.4zM1790.8 241h38.6v44.4h-38.6z"/><path class="st1" d="M1752.9 241h37.9v44.4h-37.9zM1716.9 241h36v44.4h-36zM1679 241h37.8v44.4H1679zM1640.9 241h38.1v44.4h-38.1zM1640.9 169.9h38.1V241h-38.1zM1640.9 123.8h20.3v46.1h-20.3zM1661.2 123.8h17.8v46.1h-17.8zM1679 123.8h36.2v46.1H1679zM1715.2 123.8h37.7v46.1h-37.7zM1752.9 123.8h37.9v46.1h-37.9zM1825.6 123.8h178.9v46.1h-178.9z"/><path class="st1" d="M1790.8 135.2h9.8v-11.4h25M1950.3 241h54.2v44.4h-54.2zM1886.6 241v-71.1M1825.6 241v-71.1M1808.2 241v-71.1M1704.5 241v-71.1M1721.8 241v-71.1M2004.5 169.9v24.4s28.9-4.3 29.5-14.3M2004.5 241v-25.7s29.1-.3 29.5 14.1M1982.7 241v-71.1M2080.7 169.9h170.1V241h-170.1zM2080.7 241h62.3v44.4h-62.3z"/><path class="st1" d="M2142.9 241h39v44.4h-39zM2181.9 241h34.6v44.4h-34.6zM2216.5 241h23v44.4h-23zM2080.7 123.9h33.5v46h-33.5zM2114.2 123.9h40.4v46h-40.4z"/><path class="st1" d="M2154.5 123.9h37.4v46h-37.4zM2191.9 123.9h47.7v46h-47.7zM2106.9 285.4v-9.1h-3V241l1.5-23.1h29M2216.6 169.9v-46.1M2239.6 146.8l-23.9.1M2228.1 241v-71.1M2196.1 241v-71.1M2157.1 241v-20.5h-22.7V241v-71.1M2134.4 192.1h-30.5v-22.2M2111.8 217.9v-25.8M2250.7 123.9h65.4v161.5h-65.4z"/><path class="st1" d="M2283.4 251.6h32.7v33.8h-32.7zM2283.4 204.6h32.7v47h-32.7zM2283.4 159.5h32.7v45.1h-32.7zM2283.4 123.9h32.7v35.6h-32.7zM2250.7 251.6h22.5v33.8h-22.5zM2250.7 197.7h22.5v53.9h-22.5zM2250.7 156.9h22.5v40.8h-22.5zM2250.7 123.8h22.5v33.1h-22.5zM2316.1 306.8V91.4"/><path class="st2" d="M2357.5 169.9V96.1c0 .9 171 0 171 0v23.6s92 .5 92.4 0 0 9.3 0 9.3l45.8 28v96.8c0-.9-45.8 26.4-45.8 26.4v11.1H2528v19h-168.7v-69.1h-22.6v-71.1h20.8Z"/><path class="st1" d="M2389.9 241h-30.5M2389.9 169.9h-32.4M2421.3 310.1V96.5M2571.1 291.2V241h-9.7v-73.7h9.7v-47.5M2616.4 238.9l50.4-1.8M2614.6 169.9c.5-.3 52.2 0 52.2 0M2621 194.1h19.6v23.1H2621zM2366.8 194.1h23.1v23.1h-23.1zM2336.7 135.4h20.8v34.5h-20.8zM2336.7 241h22.6v34h-22.6zM2563.2 96.5h31v23.3h-31z"/><path class="st1" d="M2528.6 93.3h34.7v26.5h-34.7zM2561.4 291.2h32.8V312h-32.8zM2528.6 291.2h32.8v24.5h-32.8z"/><circle class="st1" cx="2640.7" cy="291.2" r="19.9"/><circle class="st1" cx="2640.8" cy="117.3" r="19.9"/><path class="st1" d="M2666.8 173.3h44.4v63.8h-44.4zM2777.3 173.3h34.7v65.6h-34.7z"/><path class="st1" d="M2811.9 153.9h87.8v103.6h-87.8z"/><path class="st2" d="M3000 333.3V74.7"/><path class="st1" d="M2899.8 206.1H3000M2872 324.9v20.9M2872 310.1v-52.7M2872 153.9V65.2M2975.6 122.4s-74.4-1.4-75.8 0M2975.6 165h-51.3M2975.6 244.9h-51.3M2975.6 287.5h-75.8M2942.3 324.9v14.9M2942.3 87.8V69.6M3016.3 142.8h25v124.3h-25zM2614.6 360.6v-69.4M2614.6 52.5v67.3"/></g><g id="points"><path class="st4" d="M935.5 121.6c3 0 6.3-1.3 8.4-3.5 2.1-2.1 3.6-5.4 3.5-8.4-.3-6.4-5.2-11.9-11.9-11.9s-6.3 1.3-8.4 3.5-3.6 5.4-3.5 8.4c.3 6.4 5.2 11.9 11.9 11.9Z"/><circle class="st0" cx="935.9" cy="110.8" r="19.5"/><path class="st4" d="M1018.3 120.6c3 0 6.3-1.3 8.4-3.5s3.6-5.4 3.5-8.4c-.3-6.4-5.2-11.9-11.9-11.9s-6.3 1.3-8.4 3.5-3.6 5.4-3.5 8.4c.3 6.4 5.2 11.9 11.9 11.9Z"/><circle class="st0" cx="1018.7" cy="109.7" r="19.5"/><path class="st4" d="M933.4 77.2c3 0 6.3-1.3 8.4-3.5s3.6-5.4 3.5-8.4c-.3-6.5-5.2-11.9-11.9-11.9s-6.3 1.3-8.4 3.5-3.6 5.5-3.5 8.4c.3 6.4 5.2 11.9 11.9 11.9Z"/><ellipse class="st0" cx="933.8" cy="66.4" rx="19.5" ry="19.6"/><path class="st4" d="M715.6 81.5c3 0 6.3-1.3 8.4-3.5s3.6-5.4 3.5-8.4c-.3-6.5-5.2-11.9-11.9-11.9s-6.3 1.3-8.4 3.5c-2.1 2.1-3.6 5.4-3.5 8.4.3 6.4 5.2 11.9 11.9 11.9Z"/><ellipse class="st0" cx="716" cy="70.7" rx="19.5" ry="19.6"/><path class="st4" d="M1736 274.9c3.1 0 6.3-1.3 8.4-3.5 2.1-2.1 3.6-5.5 3.5-8.4-.3-6.5-5.2-11.9-11.9-11.9s-6.3 1.3-8.4 3.5c-2.1 2.1-3.6 5.4-3.5 8.4.3 6.5 5.2 11.9 11.9 11.9Z"/><circle class="st0" cx="1734.9" cy="262.4" r="20.8"/><path class="st4" d="M1742.2 348.9c3.1 0 6.3-1.3 8.4-3.5 2.1-2.1 3.6-5.5 3.5-8.4-.3-6.5-5.2-11.9-11.9-11.9s-6.3 1.3-8.4 3.5c-2.1 2.1-3.6 5.5-3.5 8.4.3 6.5 5.2 11.9 11.9 11.9Z"/><circle class="st0" cx="1741" cy="336.3" r="20.8"/><path class="st4" d="M1927.3 348.9c3.1 0 6.3-1.3 8.4-3.5 2.1-2.1 3.6-5.5 3.5-8.4-.3-6.5-5.2-11.9-11.9-11.9s-6.3 1.3-8.4 3.5-3.6 5.5-3.5 8.4c.3 6.5 5.2 11.9 11.9 11.9Z"/><circle class="st0" cx="1926.2" cy="336.3" r="20.8"/><path class="st4" d="M1394.7 159.2c3.1 0 6.3-1.3 8.4-3.5s3.6-5.4 3.5-8.4c-.3-6.4-5.2-11.9-11.9-11.9s-6.3 1.3-8.4 3.5-3.6 5.4-3.5 8.4c.3 6.4 5.2 11.9 11.9 11.9Z"/><circle class="st0" cx="1393.5" cy="146.7" r="20.8"/><path class="st4" d="M1431.1 159.4c3.1 0 6.3-1.3 8.4-3.5 2.1-2.1 3.6-5.4 3.5-8.4-.3-6.4-5.2-11.9-11.9-11.9s-6.3 1.3-8.4 3.5-3.6 5.4-3.5 8.4c.3 6.4 5.2 11.9 11.9 11.9Z"/><circle class="st0" cx="1430" cy="146.8" r="20.8"/><path class="st4" d="M1506.6 161.6c3.1 0 6.3-1.3 8.4-3.5 2.1-2.1 3.6-5.4 3.5-8.4-.3-6.4-5.2-11.9-11.9-11.9s-6.3 1.3-8.4 3.5c-2.1 2.1-3.6 5.4-3.5 8.4.3 6.4 5.2 11.9 11.9 11.9Z"/><circle class="st0" cx="1505.5" cy="149.1" r="20.8"/><path class="st3" d="M1291 84.6c3.1 0 6.3-1.3 8.4-3.5s3.6-5.4 3.5-8.4c-.3-6.4-5.2-11.9-11.9-11.9s-6.3 1.3-8.4 3.5c-2.2 2.2-3.6 5.4-3.5 8.4.3 6.4 5.2 11.9 11.9 11.9Z"/><circle class="st2" cx="1289.9" cy="72" r="20.8"/><path class="st4" d="M1540.4 275.7c3.1 0 6.3-1.3 8.4-3.5s3.6-5.5 3.5-8.4c-.3-6.5-5.2-11.9-11.9-11.9s-6.3 1.3-8.4 3.5c-2.1 2.1-3.6 5.4-3.5 8.4.3 6.5 5.2 11.9 11.9 11.9Z"/><circle class="st0" cx="1539.3" cy="263.2" r="20.8"/><path class="st4" d="M886.4 267.4c3 0 6.3-1.3 8.4-3.5s3.6-5.5 3.5-8.4c-.3-6.4-5.2-11.9-11.9-11.9s-6.3 1.3-8.4 3.5c-2.1 2.1-3.6 5.4-3.5 8.4.3 6.4 5.2 11.9 11.9 11.9Z"/><circle class="st0" cx="885.3" cy="254.9" r="20.8"/><path class="st4" d="M1241.8 360.4c3.1 0 6.3-1.3 8.4-3.5s3.6-5.5 3.5-8.4c-.3-6.5-5.2-11.9-11.9-11.9s-6.3 1.3-8.4 3.5-3.6 5.5-3.5 8.4c.3 6.5 5.2 11.9 11.9 11.9Z"/><circle class="st0" cx="1240.7" cy="347.8" r="20.8"/><path class="st4" d="M1060.7 356.1c3.1 0 6.3-1.3 8.4-3.5s3.6-5.5 3.5-8.4c-.3-6.5-5.2-11.9-11.9-11.9s-6.3 1.3-8.4 3.5c-2.1 2.1-3.6 5.5-3.5 8.4.3 6.5 5.2 11.9 11.9 11.9Z"/><circle class="st0" cx="1059.6" cy="343.5" r="20.8"/><path class="st4" d="M1320.8 159.2c3.1 0 6.3-1.3 8.4-3.5s3.6-5.4 3.5-8.4c-.3-6.4-5.2-11.9-11.9-11.9s-6.3 1.3-8.4 3.5-3.6 5.4-3.5 8.4c.3 6.4 5.2 11.9 11.9 11.9Z"/><circle class="st0" cx="1319.7" cy="146.7" r="20.8"/><path class="st4" d="M1539.3 200.8c3.1 0 6.3-1.3 8.4-3.5 2.1-2.1 3.6-5.4 3.5-8.4-.3-6.4-5.2-11.9-11.9-11.9s-6.3 1.3-8.4 3.5c-2.1 2.1-3.6 5.4-3.5 8.4.3 6.4 5.2 11.9 11.9 11.9ZM1407.3 86.7c3.1 0 6.3-1.3 8.4-3.5s3.6-5.4 3.5-8.4c-.3-6.4-5.2-11.9-11.9-11.9s-6.3 1.3-8.4 3.5c-2.1 2.1-3.6 5.4-3.5 8.4.3 6.4 5.2 11.9 11.9 11.9ZM2215.4 90.6c3.1 0 6.3-1.3 8.4-3.5s3.6-5.4 3.5-8.4c-.3-6.4-5.2-11.9-11.9-11.9s-6.3 1.3-8.4 3.5c-2.1 2.1-3.6 5.4-3.5 8.4.3 6.4 5.2 11.9 11.9 11.9ZM1997.2 90.6c3.1 0 6.3-1.3 8.4-3.5 2.1-2.1 3.6-5.4 3.5-8.4-.3-6.4-5.2-11.9-11.9-11.9s-6.3 1.3-8.4 3.5-3.6 5.4-3.5 8.4c.3 6.4 5.2 11.9 11.9 11.9ZM2253.3 90.6c3.1 0 6.3-1.3 8.4-3.5s3.6-5.4 3.5-8.4c-.3-6.4-5.2-11.9-11.9-11.9s-6.3 1.3-8.4 3.5c-2.1 2.1-3.6 5.4-3.5 8.4.3 6.4 5.2 11.9 11.9 11.9Z"/><path class="st3" d="M1336.4 350.7c3.1 0 6.3-1.3 8.4-3.5s3.6-5.5 3.5-8.4c-.3-6.5-5.2-11.9-11.9-11.9s-6.3 1.3-8.4 3.5-3.6 5.5-3.5 8.4c.3 6.5 5.2 11.9 11.9 11.9Z"/><circle class="st2" cx="1336.8" cy="339.8" r="19.5"/></g></svg>