<?xml version="1.0" encoding="UTF-8"?>
<svg id="_4eme_plan" data-name="4eme plan" xmlns="http://www.w3.org/2000/svg" viewBox="0 0 3889.64 403.63">
  <defs>
    <style>
      .cls-1 {
        stroke-linejoin: round;
      }

      .cls-1, .cls-2, .cls-3 {
        fill: none;
        stroke: #171636;
      }

      .cls-2, .cls-3 {
        stroke-miterlimit: 10;
      }

      .cls-3 {
        stroke-width: 2px;
      }
    </style>
  </defs>
  <path class="cls-3" d="M3888.12,201.05c-12.34,132.28-111.03,173.31-754.26,192.02-620.62,21.51-2344.27,0-2344.27,0,0,0-630.31-77.96-787.87-192.02C161.52,86.98,778.52,6.05,794.73,6.04c16.21-.02,2198-6.83,2338.18-4.58,274.42,10.06,774.13-1.31,755.2,199.6Z"/>
  <line class="cls-2" x1="384.78" y1="325.93" x2="384.78" y2="74.5"/>
  <line class="cls-2" x1="789.58" y1="393.07" x2="789.58" y2="6.46"/>
  <polyline class="cls-2" points="463.14 341.43 463.14 246.12 428.68 246.12 428.68 255.75 436.93 255.75 436.93 276.37 396.15 276.37 396.15 328.28"/>
  <line class="cls-2" x1="498.1" y1="347.89" x2="498.1" y2="333.74"/>
  <line class="cls-2" x1="632.14" y1="370.5" x2="632.14" y2="347.89"/>
  <line class="cls-2" x1="726.07" y1="384.52" x2="726.07" y2="359.19"/>
  <line class="cls-2" x1="833.15" y1="393.59" x2="833.15" y2="6.46"/>
  <line class="cls-2" x1="789.58" y1="62.49" x2="833.15" y2="62.49"/>
  <line class="cls-2" x1="789.58" y1="112.24" x2="833.15" y2="112.24"/>
  <line class="cls-2" x1="789.58" y1="156.31" x2="833.15" y2="156.31"/>
  <line class="cls-2" x1="789.58" y1="201.22" x2="833.15" y2="201.22"/>
  <line class="cls-2" x1="789.58" y1="246.12" x2="833.15" y2="246.12"/>
  <line class="cls-2" x1="789.58" y1="289" x2="833.15" y2="289"/>
  <line class="cls-2" x1="789.58" y1="339.2" x2="833.15" y2="339.2"/>
  <polyline class="cls-2" points="844.89 6.46 844.89 100.78 953.22 100.78 953.22 5.57"/>
  <line class="cls-2" x1="899.05" y1="5.57" x2="899.05" y2="100.78"/>
  <line class="cls-2" x1="844.89" y1="21.8" x2="833.15" y2="21.8"/>
  <polyline class="cls-2" points="844.89 62.49 871.81 62.49 871.81 49.65"/>
  <polyline class="cls-2" points="927.14 49.65 927.14 62.49 953.22 62.49"/>
  <line class="cls-2" x1="885.27" y1="5.77" x2="885.27" y2="17.51"/>
  <line class="cls-2" x1="913.68" y1="5.68" x2="913.68" y2="17.51"/>
  <polyline class="cls-2" points="964.95 5.29 964.95 99.61 1073.28 99.61 1073.28 4.39"/>
  <line class="cls-2" x1="1019.12" y1="4.39" x2="1019.12" y2="99.61"/>
  <line class="cls-2" x1="964.65" y1="15.03" x2="952.92" y2="15.03"/>
  <polyline class="cls-2" points="964.95 61.31 991.87 61.31 991.87 48.48"/>
  <polyline class="cls-2" points="1047.2 48.48 1047.2 61.31 1073.28 61.31"/>
  <line class="cls-2" x1="1005.33" y1="4.6" x2="1005.33" y2="16.33"/>
  <line class="cls-2" x1="1033.75" y1="4.51" x2="1033.75" y2="16.33"/>
  <polyline class="cls-2" points="1087.02 4.86 1087.02 99.78 1195.35 99.78 1195.35 4.57"/>
  <line class="cls-2" x1="1141.18" y1="4.57" x2="1141.18" y2="99.78"/>
  <line class="cls-2" x1="1087.26" y1="14.04" x2="1073.28" y2="14.04"/>
  <polyline class="cls-2" points="1087.02 61.49 1113.93 61.49 1113.93 48.65"/>
  <polyline class="cls-2" points="1169.27 48.65 1169.27 61.49 1195.35 61.49"/>
  <line class="cls-2" x1="1127.4" y1="4.77" x2="1127.4" y2="16.51"/>
  <line class="cls-2" x1="1155.81" y1="4.68" x2="1155.81" y2="16.51"/>
  <line class="cls-2" x1="150.23" y1="266.77" x2="150.23" y2="134.94"/>
  <polyline class="cls-2" points="384.78 232.71 331.45 232.71 331.45 169.42 384.78 169.42"/>
  <line class="cls-2" x1="47.85" y1="227.62" x2="47.85" y2="174.55"/>
  <line class="cls-2" x1="331.45" y1="192.76" x2="150.23" y2="192.76"/>
  <line class="cls-2" x1="331.45" y1="209.82" x2="150.23" y2="209.82"/>
  <polyline class="cls-2" points="463.14 58.62 463.14 147.6 438.3 147.6 438.3 126.07 396.15 126.07 396.15 72.1"/>
  <line class="cls-2" x1="441.97" y1="246.12" x2="441.97" y2="147.6"/>
  <polyline class="cls-2" points="463.14 246.12 474.05 246.12 474.05 156.31 463.14 156.31"/>
  <polyline class="cls-2" points="474.05 246.12 522.16 246.12 522.16 209.82 498.1 209.82 498.1 192.76 474.05 192.76"/>
  <polygon class="cls-2" points="632.14 244.29 632.14 156.31 559.28 156.31 559.28 246.12 632.14 244.29"/>
  <path class="cls-2" d="M672.46,242.92s.69-87.29,0-86.61c-.69.69,53.61,0,53.61,0v86.61h-53.61Z"/>
  <polyline class="cls-2" points="789.58 86.6 751.97 86.6 751.97 127.04 789.58 127.04"/>
  <line class="cls-2" x1="726.07" y1="14.71" x2="726.07" y2="42.5"/>
  <line class="cls-2" x1="632.14" y1="28.89" x2="632.14" y2="47.76"/>
  <line class="cls-2" x1="498.1" y1="52" x2="498.1" y2="66.72"/>
  <rect class="cls-2" x="846.53" y="117.86" width="80.6" height="165.37"/>
  <polyline class="cls-2" points="953.22 394.92 953.22 300.54 844.89 300.54 844.89 394.92"/>
  <line class="cls-2" x1="833.15" y1="380.72" x2="844.89" y2="380.72"/>
  <line class="cls-2" x1="899.05" y1="300.54" x2="899.05" y2="394.92"/>
  <polyline class="cls-2" points="844.89 339.2 871.81 339.2 871.81 352.09"/>
  <polyline class="cls-2" points="952.92 339.2 927.14 339.2 927.14 352.09"/>
  <line class="cls-2" x1="913.68" y1="394.92" x2="913.68" y2="384.52"/>
  <line class="cls-2" x1="885.27" y1="394.92" x2="885.27" y2="384.52"/>
  <polyline class="cls-2" points="1073.28 395.08 1073.28 300.7 964.95 300.7 964.95 395.08"/>
  <line class="cls-2" x1="953.22" y1="380.88" x2="964.95" y2="380.88"/>
  <line class="cls-2" x1="1019.12" y1="300.7" x2="1019.12" y2="396.31"/>
  <polyline class="cls-2" points="964.95 339.35 991.87 339.35 991.87 352.25"/>
  <polyline class="cls-2" points="1072.98 339.35 1047.2 339.35 1047.2 352.25"/>
  <line class="cls-2" x1="1033.75" y1="396.31" x2="1033.75" y2="384.68"/>
  <line class="cls-2" x1="1005.33" y1="396.31" x2="1005.33" y2="384.68"/>
  <polyline class="cls-2" points="1195.55 397.03 1195.55 299.93 1086.49 299.93 1086.49 397.03"/>
  <line class="cls-2" x1="1072.98" y1="388.38" x2="1087.22" y2="388.38"/>
  <line class="cls-2" x1="1141.38" y1="299.93" x2="1141.38" y2="397.03"/>
  <polyline class="cls-2" points="1087.22 338.58 1114.13 338.58 1114.13 351.48"/>
  <polyline class="cls-2" points="1195.25 338.58 1169.46 338.58 1169.46 351.48"/>
  <line class="cls-2" x1="1156.01" y1="397.03" x2="1156.01" y2="383.9"/>
  <line class="cls-2" x1="1127.6" y1="397.03" x2="1127.6" y2="383.9"/>
  <line class="cls-2" x1="927.14" y1="246.12" x2="846.53" y2="246.12"/>
  <line class="cls-2" x1="927.14" y1="199.77" x2="846.53" y2="199.77"/>
  <line class="cls-2" x1="927.14" y1="156.31" x2="846.53" y2="156.31"/>
  <line class="cls-2" x1="896.62" y1="117.86" x2="896.62" y2="156.31"/>
  <line class="cls-2" x1="927.14" y1="137.09" x2="896.62" y2="137.09"/>
  <polygon class="cls-2" points="1261.14 283.23 1261.14 117.86 1231.49 117.86 1231.49 156.31 1220.25 156.31 1220.25 117.86 940.03 117.86 940.03 283.23 1220.25 283.23 1220.25 246.12 1228.43 246.12 1228.43 283.23 1261.14 283.23"/>
  <line class="cls-2" x1="1261.14" y1="246.12" x2="940.18" y2="246.12"/>
  <line class="cls-2" x1="1261.14" y1="156.31" x2="940.18" y2="156.31"/>
  <line class="cls-2" x1="987.44" y1="283.23" x2="987.44" y2="246.12"/>
  <polyline class="cls-2" points="1033.75 283.23 1033.75 246.12 1033.75 156.31"/>
  <line class="cls-2" x1="1077.36" y1="283.23" x2="1077.36" y2="246.12"/>
  <line class="cls-2" x1="1125.18" y1="283.23" x2="1125.18" y2="246.12"/>
  <polyline class="cls-2" points="1171.96 283.23 1171.96 246.12 1171.96 156.31"/>
  <line class="cls-2" x1="1188.6" y1="283.23" x2="1188.6" y2="246.12"/>
  <line class="cls-2" x1="1206.79" y1="246.12" x2="1206.79" y2="156.31"/>
  <line class="cls-2" x1="1201.59" y1="246.12" x2="1201.59" y2="156.31"/>
  <polyline class="cls-2" points="1153.77 246.12 1153.77 156.31 1153.77 117.86"/>
  <line class="cls-2" x1="1201.59" y1="228.9" x2="1171.96" y2="228.9"/>
  <line class="cls-2" x1="1201.59" y1="171.21" x2="1171.96" y2="171.21"/>
  <polyline class="cls-2" points="1019.12 246.12 1019.12 156.31 1019.12 117.86"/>
  <line class="cls-2" x1="994.2" y1="246.12" x2="994.2" y2="156.31"/>
  <line class="cls-2" x1="1019.12" y1="228.9" x2="994.2" y2="228.9"/>
  <line class="cls-2" x1="1019.12" y1="171.21" x2="994.2" y2="171.21"/>
  <line class="cls-2" x1="973.79" y1="156.31" x2="973.79" y2="117.86"/>
  <line class="cls-2" x1="1060.09" y1="156.31" x2="1060.09" y2="117.86"/>
  <line class="cls-2" x1="1106.97" y1="156.31" x2="1106.97" y2="117.86"/>
  <polyline class="cls-2" points="1208.44 4.82 1208.44 99.78 1261.14 99.78 1261.14 4.82"/>
  <line class="cls-2" x1="1247.26" y1="4.82" x2="1247.26" y2="15.03"/>
  <polyline class="cls-2" points="1208.44 61.49 1234.79 61.49 1234.79 52"/>
  <polyline class="cls-2" points="1261.14 397.87 1261.14 299.93 1206.79 299.93 1206.79 397.87"/>
  <line class="cls-2" x1="1246.95" y1="397.87" x2="1246.95" y2="388.38"/>
  <polyline class="cls-2" points="1206.79 338.58 1233.96 338.58 1233.96 351.48"/>
  <polyline class="cls-2" points="1396.35 4.29 1396.35 74.58 1327.9 74.58 1327.9 117.86 1261.14 117.86"/>
  <line class="cls-2" x1="1327.9" y1="74.58" x2="1261.14" y2="74.58"/>
  <polyline class="cls-2" points="1396.35 398.97 1396.35 325.75 1327.9 325.75 1327.9 283.23 1261.14 283.23"/>
  <line class="cls-2" x1="1327.9" y1="325.75" x2="1261.14" y2="325.75"/>
  <rect class="cls-2" x="1335.57" y="154.82" width="32.71" height="91.31"/>
  <path class="cls-1" d="M1394.05,181.99v-25.68h40.97c-14.54,3.46-3.96,23.78-40.97,25.68Z"/>
  <path class="cls-1" d="M1394.05,218.59v27.54h40.97c-13.55-4.08-6.61-27.54-40.97-27.54Z"/>
  <line class="cls-2" x1="1368.28" y1="215.94" x2="1335.57" y2="215.94"/>
  <line class="cls-2" x1="1368.28" y1="185.22" x2="1335.57" y2="185.22"/>
  <polyline class="cls-1" points="1736.05 246.12 1736.05 156.31 1516.11 156.31 1516.11 246.12 1736.05 246.12"/>
  <line class="cls-1" x1="1543.17" y1="246.12" x2="1543.17" y2="156.31"/>
  <line class="cls-1" x1="1559.41" y1="246.12" x2="1559.41" y2="156.31"/>
  <line class="cls-1" x1="1543.17" y1="228.9" x2="1516.11" y2="228.9"/>
  <line class="cls-1" x1="1543.17" y1="171.21" x2="1516.11" y2="171.21"/>
  <line class="cls-1" x1="1543.17" y1="200.47" x2="1516.11" y2="200.47"/>
  <line class="cls-1" x1="1696.2" y1="246.12" x2="1696.2" y2="156.31"/>
  <line class="cls-1" x1="1669.13" y1="246.12" x2="1669.13" y2="156.31"/>
  <line class="cls-1" x1="1736.05" y1="228.9" x2="1696.2" y2="228.9"/>
  <line class="cls-1" x1="1736.05" y1="201.22" x2="1696.2" y2="201.22"/>
  <line class="cls-1" x1="1736.05" y1="175.98" x2="1696.2" y2="175.98"/>
  <line class="cls-1" x1="1635.67" y1="156.31" x2="1635.67" y2="3.63"/>
  <line class="cls-1" x1="1637.64" y1="400.62" x2="1637.64" y2="246.12"/>
  <line class="cls-1" x1="1516.11" y1="400.62" x2="1516.11" y2="381.66"/>
  <line class="cls-1" x1="1516.11" y1="3.63" x2="1516.11" y2="21.47"/>
  <line class="cls-1" x1="1810.59" y1="3.17" x2="1810.59" y2="74.34"/>
  <line class="cls-1" x1="1848.76" y1="74.34" x2="1771.63" y2="74.34"/>
  <line class="cls-1" x1="1810.59" y1="401.54" x2="1810.59" y2="327.19"/>
  <line class="cls-1" x1="1848.76" y1="327.19" x2="1771.63" y2="327.19"/>
  <line class="cls-1" x1="1970.42" y1="402.16" x2="1970.42" y2="327.19"/>
  <line class="cls-1" x1="2009.38" y1="327.19" x2="1931.45" y2="327.19"/>
  <line class="cls-1" x1="1970.42" y1="2.76" x2="1970.42" y2="74.34"/>
  <line class="cls-1" x1="2009.38" y1="74.34" x2="1931.45" y2="74.34"/>
  <polygon class="cls-1" points="2237.58 246.12 2237.58 147.49 2184.31 147.49 2184.31 156.31 2018.12 156.31 2018.12 242.91 2184.31 242.91 2184.31 254.04 2237.58 254.04 2237.58 246.12"/>
  <line class="cls-1" x1="2144.41" y1="2.76" x2="2144.41" y2="156.31"/>
  <polyline class="cls-1" points="2184.31 147.49 2184.31 106.34 2297.83 106.34 2297.83 118.8 2184.31 119.35"/>
  <path class="cls-1" d="M2211.63,2.19v46.68h81.32s7.59-1.08,7.59,9.22v16.25h10.3v-21.67s1.63-15.26-20.06-14.41c-21.68.85-66.68,0-66.68,0V2.19"/>
  <path class="cls-1" d="M2301.08,118.26v-36.32h9.79v24.39s.48,9.22-9.79,11.93Z"/>
  <polyline class="cls-1" points="2211.63 48.87 2200.79 48.87 2200.79 33.69 2193.2 33.69 2193.2 29.36 2170.43 29.36 2170.43 2.19"/>
  <line class="cls-1" x1="2165.55" y1="156.31" x2="2165.55" y2="130.19"/>
  <polyline class="cls-1" points="2184.31 254.04 2184.31 295.19 2328.14 295.19 2328.14 282.72 2184.31 282.18"/>
  <path class="cls-1" d="M2211.1,402.62v-51.51h113.05s7.59,1.08,7.59-9.22.29-20.26.29-20.26h10.3l-.29,25.68s1.63,15.26-20.06,14.41c-21.68-.85-70.47,0-70.47,0v8.21h-13.91v32.69"/>
  <path class="cls-1" d="M2332.28,281.72v32.02h9.79v-20.09s.48-9.22-9.79-11.93Z"/>
  <line class="cls-1" x1="2237.6" y1="369.93" x2="2237.6" y2="351.11"/>
  <line class="cls-1" x1="2251.51" y1="361.72" x2="2251.51" y2="351.11"/>
  <line class="cls-1" x1="2237.6" y1="357.73" x2="2251.51" y2="357.73"/>
  <polyline class="cls-1" points="2211.1 362.13 2170.49 362.13 2170.49 402.59"/>
  <polyline class="cls-1" points="2144.7 402.59 2144.7 391.69 2170.49 391.69"/>
  <line class="cls-1" x1="2144.7" y1="391.69" x2="2144.7" y2="242.91"/>
  <line class="cls-1" x1="2164.62" y1="242.91" x2="2164.62" y2="270.84"/>
  <line class="cls-2" x1="2398.48" y1="402.47" x2="2398.48" y2="1.78"/>
  <polyline class="cls-2" points="2372.03 401.54 2372.03 335.22 2398.48 335.22"/>
  <polyline class="cls-2" points="2398.48 274.61 2358.99 274.61 2358.99 245.4"/>
  <polyline class="cls-2" points="2398.48 245.4 2292.14 245.4 2292.14 156.31 2355.95 156.31 2398.48 156.31"/>
  <polyline class="cls-2" points="2398.48 126.91 2355.45 126.91 2355.45 156.31"/>
  <polyline class="cls-2" points="2398.48 100.1 2355.45 100.1 2355.45 126.91"/>
  <line class="cls-2" x1="2372.03" y1="245.4" x2="2372.03" y2="156.31"/>
  <line class="cls-2" x1="2184.31" y1="242.91" x2="2237.6" y2="242.91"/>
  <line class="cls-2" x1="2184.31" y1="156.31" x2="2237.6" y2="156.31"/>
  <line class="cls-2" x1="2217.88" y1="242.91" x2="2217.88" y2="147.49"/>
  <line class="cls-2" x1="2237.58" y1="176.54" x2="2217.88" y2="176.54"/>
  <line class="cls-2" x1="2237.58" y1="227.3" x2="2217.88" y2="227.3"/>
  <line class="cls-2" x1="2195.99" y1="242.91" x2="2195.99" y2="156.31"/>
  <line class="cls-2" x1="2035.47" y1="242.91" x2="2035.47" y2="156.31"/>
  <line class="cls-2" x1="2018.12" y1="176.54" x2="2035.47" y2="176.54"/>
  <line class="cls-2" x1="2018.12" y1="227.3" x2="2035.47" y2="227.3"/>
  <line class="cls-2" x1="2051.18" y1="242.91" x2="2051.18" y2="156.31"/>
  <line class="cls-2" x1="2398.48" y1="41.33" x2="2355.45" y2="41.33"/>
  <polyline class="cls-2" points="2478.87 402.25 2478.87 364.17 2451.23 364.17 2451.23 295.19 2398.48 295.19"/>
  <line class="cls-2" x1="2451.23" y1="364.17" x2="2451.23" y2="402.59"/>
  <line class="cls-2" x1="2451.23" y1="327.19" x2="2398.48" y2="327.19"/>
  <rect class="cls-2" x="2506.12" y="141.61" width="35.52" height="115.26"/>
  <polyline class="cls-2" points="2438.68 1.7 2438.68 74.34 2398.48 74.34 2355.45 74.34 2355.45 1.78"/>
  <polyline class="cls-2" points="2478.87 1.62 2478.87 74.34 2438.68 74.34"/>
  <polyline class="cls-2" points="2546.89 1.49 2546.89 74.34 2478.87 74.34"/>
  <polyline class="cls-2" points="2586.49 1.42 2586.49 74.34 2546.89 74.34"/>
  <polyline class="cls-2" points="2679.1 1.27 2679.1 78.91 2625.78 78.91 2625.78 40.09 2586.49 40.09"/>
  <polyline class="cls-2" points="2615.11 40.09 2615.11 92.68 2586.49 92.68 2586.49 74.34"/>
  <polyline class="cls-2" points="2748.42 1.17 2748.42 40.09 2708.43 40.09 2708.43 1.17"/>
  <polyline class="cls-2" points="2692.88 1.17 2692.88 78.91 2743.98 78.91 2743.98 40.04"/>
  <line class="cls-2" x1="2506.12" y1="402.25" x2="2506.12" y2="383.38"/>
  <polyline class="cls-2" points="2559.58 401.54 2559.58 321.63 2600.8 321.63 2600.8 245.4 2624.38 245.4 2624.38 219.56 2572.54 219.56 2572.54 172.91 2600.8 172.91 2600.8 108.76 2799.97 108.76 2799.97 301.84 2600.8 301.84"/>
  <polyline class="cls-2" points="2600.8 401.54 2600.8 321.63 2773.33 321.63 2773.33 400.24"/>
  <line class="cls-2" x1="2559.58" y1="346.88" x2="2600.8" y2="346.88"/>
  <line class="cls-2" x1="2575.41" y1="321.63" x2="2575.41" y2="346.88"/>
  <line class="cls-2" x1="2679.78" y1="401.12" x2="2679.78" y2="348.72"/>
  <line class="cls-2" x1="2711.5" y1="401.12" x2="2711.5" y2="321.63"/>
  <line class="cls-2" x1="2746.24" y1="400.52" x2="2746.24" y2="380.66"/>
  <polyline class="cls-2" points="2799.97 399.94 2799.97 366.32 2773.33 366.32"/>
  <polyline class="cls-2" points="2759.5 301.84 2759.5 272.01 2799.97 272.01"/>
  <rect class="cls-2" x="2748.42" y="143.42" width="21.21" height="86.06"/>
  <polyline class="cls-2" points="2743.98 301.84 2743.98 292.26 2707.87 292.26 2707.87 252.77 2718.43 252.77 2718.43 108.76"/>
  <polyline class="cls-2" points="2698.25 301.84 2698.25 245.4 2673.95 245.4 2673.95 301.84"/>
  <line class="cls-2" x1="2624.38" y1="245.4" x2="2718.43" y2="245.4"/>
  <line class="cls-2" x1="2718.43" y1="156.31" x2="2600.8" y2="156.31"/>
  <line class="cls-2" x1="2679.78" y1="245.4" x2="2679.78" y2="156.31"/>
  <polyline class="cls-2" points="2840.81 399.44 2840.81 245.4 2856.27 245.4 2856.27 156.31 2840.81 156.31 2840.81 1.42"/>
  <polyline class="cls-2" points="2840.81 92.68 2815.1 92.68 2815.1 40.09 2759.5 40.09 2759.5 1.16"/>
  <polyline class="cls-2" points="2786.65 59.09 2759.5 59.09 2759.5 40.09"/>
  <line class="cls-2" x1="2799.97" y1="40.09" x2="2799.97" y2="1.42"/>
  <line class="cls-2" x1="2840.81" y1="49.59" x2="2815.1" y2="49.59"/>
  <polyline class="cls-2" points="2840.81 321.63 2813.8 321.63 2813.8 340.09 2840.81 340.09"/>
  <polyline class="cls-2" points="2679.1 40.09 2638.56 40.09 2638.56 1.16"/>
  <line class="cls-2" x1="2624.38" y1="1.16" x2="2625.78" y2="40.09"/>
  <polyline class="cls-2" points="3133.85 393.07 3133.85 308.47 3162.8 308.47 3162.8 92.68 3133.85 92.68 3133.85 1.45"/>
  <polyline class="cls-2" points="2856.27 245.4 2960.25 245.4 2960.25 156.31 2856.27 156.31"/>
  <polyline class="cls-2" points="2960.25 245.4 2974.08 245.4 2974.08 156.31 2960.25 156.31"/>
  <polyline class="cls-2" points="3162.8 92.68 3177.77 92.68 3177.77 2.78"/>
  <line class="cls-2" x1="3133.85" y1="59.51" x2="3177.77" y2="59.51"/>
  <polyline class="cls-2" points="3188.5 3.19 3188.5 136.86 3297.24 136.86 3297.24 5.99"/>
  <polyline class="cls-2" points="3311.08 6.55 3311.08 142.22 3414.42 142.22 3414.42 10.71"/>
  <polyline class="cls-2" points="3426.67 11.36 3426.67 142.22 3462.67 142.22 3462.67 13.53"/>
  <polyline class="cls-2" points="3476.44 14.48 3476.44 110.06 3504.02 110.06 3504.02 16.59"/>
  <line class="cls-2" x1="3462.67" y1="110.06" x2="3426.67" y2="110.06"/>
  <line class="cls-2" x1="3462.67" y1="82.87" x2="3426.67" y2="82.87"/>
  <line class="cls-2" x1="3414.42" y1="102.65" x2="3311.08" y2="102.65"/>
  <line class="cls-2" x1="3377.94" y1="142.22" x2="3377.94" y2="102.65"/>
  <line class="cls-2" x1="3342.79" y1="142.22" x2="3342.79" y2="102.65"/>
  <line class="cls-2" x1="3362.75" y1="102.65" x2="3362.75" y2="8.37"/>
  <line class="cls-2" x1="3337.96" y1="70.03" x2="3311.08" y2="70.03"/>
  <line class="cls-2" x1="3414.42" y1="70.03" x2="3387.61" y2="70.03"/>
  <line class="cls-2" x1="3297.24" y1="100.6" x2="3188.5" y2="100.6"/>
  <line class="cls-2" x1="3242.87" y1="4.62" x2="3242.87" y2="100.6"/>
  <line class="cls-2" x1="3188.5" y1="66.82" x2="3225.34" y2="66.82"/>
  <line class="cls-2" x1="3297.24" y1="66.82" x2="3261.12" y2="66.82"/>
  <line class="cls-2" x1="3261.12" y1="136.86" x2="3261.12" y2="100.6"/>
  <line class="cls-2" x1="3222.93" y1="136.86" x2="3222.93" y2="100.6"/>
  <line class="cls-2" x1="3487.47" y1="110.06" x2="3487.47" y2="199.9"/>
  <line class="cls-2" x1="3530.89" y1="124.72" x2="3530.89" y2="18.69"/>
  <line class="cls-2" x1="3556.62" y1="124.72" x2="3556.62" y2="21.36"/>
  <line class="cls-2" x1="3581.55" y1="124.72" x2="3581.55" y2="24.12"/>
  <polyline class="cls-2" points="3487.47 124.72 3611.7 124.72 3611.7 191.86 3643.87 191.86 3643.87 164.12 3611.7 164.92"/>
  <polyline class="cls-2" points="3643.87 164.12 3653.52 164.12 3653.52 35.1"/>
  <polyline class="cls-2" points="3622.02 29.91 3622.02 107.83 3594.01 107.83 3594.01 25.77"/>
  <line class="cls-2" x1="3622.02" y1="96.98" x2="3594.01" y2="96.98"/>
  <polyline class="cls-2" points="3663.22 36.89 3663.22 177.83 3723.87 177.83 3723.87 49.85"/>
  <line class="cls-2" x1="3693.54" y1="43.14" x2="3693.54" y2="177.83"/>
  <line class="cls-2" x1="3723.87" y1="154.98" x2="3663.22" y2="154.98"/>
  <rect class="cls-2" x="3734.5" y="130.68" width="49.46" height="50.85"/>
  <polyline class="cls-2" points="3734.5 181.53 3734.5 216.2 3783.96 216.2 3783.96 181.53"/>
  <polyline class="cls-2" points="3162.8 308.47 3177.69 308.69 3177.69 391.73"/>
  <line class="cls-2" x1="3133.78" y1="338.52" x2="3177.69" y2="338.52"/>
  <polyline class="cls-2" points="3188.43 391.73 3188.43 261.17 3297.17 261.17 3297.17 387.32"/>
  <polyline class="cls-2" points="3311.01 386.72 3311.01 255.81 3414.34 255.81 3414.34 381.41"/>
  <polyline class="cls-2" points="3426.59 380.67 3426.59 255.81 3462.59 255.81 3462.59 378.31"/>
  <polyline class="cls-2" points="3476.37 377.33 3476.37 287.97 3503.95 287.97 3503.95 375.22"/>
  <line class="cls-2" x1="3462.59" y1="287.97" x2="3426.59" y2="287.97"/>
  <line class="cls-2" x1="3462.59" y1="315.16" x2="3426.59" y2="315.16"/>
  <line class="cls-2" x1="3414.34" y1="295.38" x2="3311.01" y2="295.38"/>
  <line class="cls-2" x1="3377.87" y1="255.81" x2="3377.87" y2="295.38"/>
  <line class="cls-2" x1="3342.72" y1="255.81" x2="3342.72" y2="295.38"/>
  <line class="cls-2" x1="3362.68" y1="295.38" x2="3362.68" y2="384.26"/>
  <line class="cls-2" x1="3337.88" y1="328" x2="3311.01" y2="328"/>
  <line class="cls-2" x1="3414.34" y1="328" x2="3387.54" y2="328"/>
  <line class="cls-2" x1="3297.17" y1="297.43" x2="3188.43" y2="297.43"/>
  <line class="cls-2" x1="3242.8" y1="389.66" x2="3242.8" y2="297.43"/>
  <line class="cls-2" x1="3188.43" y1="331.2" x2="3225.27" y2="331.2"/>
  <line class="cls-2" x1="3297.17" y1="331.2" x2="3261.05" y2="331.2"/>
  <line class="cls-2" x1="3261.05" y1="261.17" x2="3261.05" y2="297.43"/>
  <line class="cls-2" x1="3222.86" y1="261.17" x2="3222.86" y2="297.43"/>
  <line class="cls-2" x1="3487.4" y1="287.97" x2="3487.4" y2="198.13"/>
  <line class="cls-2" x1="3530.82" y1="273.31" x2="3530.82" y2="373.91"/>
  <line class="cls-2" x1="3556.55" y1="273.31" x2="3556.55" y2="370.55"/>
  <line class="cls-2" x1="3581.48" y1="273.31" x2="3581.48" y2="367.98"/>
  <polyline class="cls-2" points="3487.4 273.31 3611.63 273.31 3611.63 206.17 3643.79 206.17 3643.79 233.91 3611.63 233.11"/>
  <polyline class="cls-2" points="3643.79 233.91 3653.44 233.91 3653.44 358.74"/>
  <polyline class="cls-2" points="3621.95 363.17 3621.95 290.2 3593.94 290.2 3593.94 366.59"/>
  <line class="cls-2" x1="3621.95" y1="301.05" x2="3593.94" y2="301.05"/>
  <polyline class="cls-2" points="3663.15 357.23 3663.15 220.2 3723.79 220.2 3723.79 345.61"/>
  <line class="cls-2" x1="3693.47" y1="351.94" x2="3693.47" y2="220.2"/>
  <line class="cls-2" x1="3723.79" y1="243.05" x2="3663.15" y2="243.05"/>
  <rect class="cls-2" x="3734.42" y="216.5" width="49.46" height="50.85"/>
  <rect class="cls-2" x="3522" y="158.29" width="51.09" height="81.34" transform="translate(7095.1 397.92) rotate(180)"/>
  <rect class="cls-2" x="3370.14" y="158.29" width="36.9" height="81.34" transform="translate(6777.18 397.92) rotate(180)"/>
  <rect class="cls-2" x="3324.45" y="158.29" width="38.23" height="81.34" transform="translate(6687.12 397.92) rotate(180)"/>
  <rect class="cls-2" x="3448.71" y="158.29" width="38.69" height="81.45" transform="translate(6936.11 398.03) rotate(180)"/>
  <polyline class="cls-3" points="3204.41 243.05 3269.01 243.05 3269.01 154.98 3204.41 154.98"/>
  <line class="cls-2" x1="3324.45" y1="239.63" x2="3269.01" y2="239.63"/>
  <line class="cls-2" x1="3324.45" y1="158.29" x2="3269.01" y2="158.29"/>
  <line class="cls-2" x1="3448.71" y1="239.74" x2="3407.04" y2="239.74"/>
  <line class="cls-2" x1="3448.71" y1="158.29" x2="3407.04" y2="158.29"/>
  <line class="cls-2" x1="3487.47" y1="199.9" x2="3370.14" y2="199.9"/>
  <line class="cls-2" x1="3362.68" y1="199.9" x2="3269.01" y2="199.9"/>
  <path class="cls-3" d="M3114.21,1.45s668.86,35.2,669.67,196.68-669.67,195.6-669.67,195.6"/>
</svg>