<?xml version="1.0" encoding="UTF-8"?><svg xmlns="http://www.w3.org/2000/svg" viewBox="0 0 3421.93 339.26"><defs><style>.cls-1{stroke:#173387;}.cls-1,.cls-2,.cls-3{fill:none;stroke-miterlimit:10;}.cls-1,.cls-3{stroke-width:2px;}.cls-4{fill:#173387;}.cls-2,.cls-3{stroke:#171636;}</style></defs><g id="_3eme_plan"><path class="cls-3" d="M3008.63,12.99v312.78s415,33.12,412.28-156.59c-2.72-189.71-412.28-156.19-412.28-156.19Z"/><rect class="cls-2" x="3263.56" y="157.89" width="65.98" height="18.99"/><rect class="cls-2" x="3160.59" y="161.88" width="32.99" height="13.99"/><rect class="cls-2" x="3108.61" y="111.92" width="62.98" height="16.99"/><rect class="cls-2" x="3064.62" y="160.88" width="64.98" height="15.99"/><rect class="cls-2" x="3108.61" y="209.85" width="68.39" height="14.99"/><circle class="cls-2" cx="3055.61" cy="262.6" r="22.99"/><circle class="cls-2" cx="3055.61" cy="76.94" r="22.48"/><polygon class="cls-3" points="2797.69 2 2797.69 82.44 2852.74 117.35 2852.74 221.18 2797.69 256.32 2797.69 337.76 698.26 337.76 698.26 2 2797.69 2"/><rect class="cls-2" x="2748.7" y="133.9" width="104.03" height="74.95"/><rect class="cls-2" x="2697.72" y="73.95" width="45.99" height="37.97"/><rect class="cls-2" x="2699.72" y="226.84" width="43.99" height="36.97"/><rect class="cls-2" x="2699.72" y="263.81" width="34.99" height="25.98"/><rect class="cls-2" x="2697.72" y="49.96" width="34.99" height="23.98"/><polyline class="cls-2" points="2792.69 180.87 2792.69 158.89 2818.69 158.89 2818.69 180.87"/><line class="cls-2" x1="2721.71" y1="111.92" x2="2721.71" y2="225.84"/><polyline class="cls-2" points="2697.72 49.96 2585.75 49.96 2585.75 287.79 2699.72 287.79"/><polyline class="cls-2" points="2511.77 335.76 2511.77 279.8 2585.75 279.8"/><polyline class="cls-2" points="2512.77 2 2512.77 60.96 2585.75 60.96"/><line class="cls-2" x1="2511.77" y1="279.8" x2="2511.77" y2="205.85"/><line class="cls-2" x1="2465.78" y1="205.85" x2="2548.76" y2="205.85"/><line class="cls-2" x1="2512.77" y1="60.96" x2="2512.77" y2="133.9"/><line class="cls-2" x1="2548.76" y1="132.9" x2="2465.78" y2="132.9"/><line class="cls-2" x1="2488.78" y1="132.9" x2="2488.78" y2="205.85"/><rect class="cls-2" x="2521.33" y="157.89" width="32.29" height="23.49"/><path class="cls-2" d="M2185.86,2v60.96h208.94s28.08-22.79,59.98,0h57.98"/><polyline class="cls-2" points="2347.81 61.96 2347.81 84.94 2326.82 84.94 2326.82 129.91 2338.82 129.91 2338.82 337.76"/><rect class="cls-2" x="2291.83" y="129.91" width="46.99" height="38.97"/><rect class="cls-2" x="2291.83" y="169.38" width="46.99" height="38.97"/><rect class="cls-2" x="2291.83" y="208.85" width="46.99" height="128.91"/><rect class="cls-2" x="2255.84" y="274.8" width="35.99" height="35.99"/><rect class="cls-2" x="2220.85" y="317.77" width="22.99" height="19.99"/><rect class="cls-2" x="2265.84" y="129.91" width="26.3" height="78.37"/><line class="cls-2" x1="2290.83" y1="90.29" x2="2326.82" y2="90.29"/><line class="cls-2" x1="2302.77" y1="114.91" x2="2302.77" y2="89.94"/><line class="cls-2" x1="2295.83" y1="114.92" x2="2295.83" y2="89.94"/><polyline class="cls-2" points="2219.85 129.91 2265.84 129.91 2265.84 85.42"/><line class="cls-2" x1="2243.84" y1="84.94" x2="2243.84" y2="129.91"/><line class="cls-2" x1="2219.85" y1="84.94" x2="2220.85" y2="317.77"/><line class="cls-2" x1="2278.99" y1="129.91" x2="2278.99" y2="186.87"/><line class="cls-2" x1="2265.84" y1="208.28" x2="2265.84" y2="231.03"/><line class="cls-2" x1="2394.8" y1="62.95" x2="2394.8" y2="86.94"/><line class="cls-2" x1="2454.78" y1="62.95" x2="2454.78" y2="86.94"/><line class="cls-2" x1="2394.8" y1="337.76" x2="2394.8" y2="317.77"/><line class="cls-2" x1="2454.78" y1="337.76" x2="2454.78" y2="317.77"/><polyline class="cls-2" points="2091.88 227.84 2091.88 277.3 2220.35 277.3"/><line class="cls-2" x1="2184.84" y1="337.76" x2="2184.84" y2="277.3"/><rect class="cls-2" x="2115.88" y="293.79" width="35.86" height="43.97"/><rect class="cls-2" x="2081.89" y="292.79" width="33.99" height="44.97"/><rect class="cls-2" x="2044.9" y="225.84" width="35.99" height="49.96"/><rect class="cls-2" x="1997.91" y="225.84" width="35.99" height="49.96"/><rect class="cls-2" x="1986.91" y="129.91" width="117.97" height="77.94"/><polyline class="cls-2" points="2185.86 62.95 2092.88 62.95 2092.88 110.92"/><line class="cls-2" x1="2080.89" y1="275.8" x2="2081.89" y2="292.79"/><line class="cls-2" x1="2128.22" y1="277.3" x2="2128.22" y2="293.79"/><line class="cls-2" x1="2033.9" y1="275.8" x2="2033.9" y2="337.76"/><line class="cls-2" x1="2033.9" y1="245.82" x2="2044.9" y2="245.82"/><polyline class="cls-2" points="1997.91 245.82 1989.91 245.82 1989.91 337.76"/><polyline class="cls-2" points="1989.91 245.82 1989.91 233.83 1975.92 233.83"/><line class="cls-2" x1="1999.91" y1="129.91" x2="1999.91" y2="207.85"/><line class="cls-2" x1="1986.91" y1="183.87" x2="1999.91" y2="183.87"/><line class="cls-2" x1="1986.91" y1="155.89" x2="1999.91" y2="155.89"/><line class="cls-2" x1="2091.88" y1="129.91" x2="2091.88" y2="207.85"/><line class="cls-2" x1="2265.64" y1="186.87" x2="2292.13" y2="186.87"/><path class="cls-3" d="M2123.87,206.85v-26.98s28.46.4,39.99,26.98h-39.99Z"/><path class="cls-3" d="M2123.87,157.89c-1.37.1,0-25.48,0-25.48l38.84-.65s-5.14,23.79-38.84,26.14Z"/><rect class="cls-2" x="2081.39" y="2" width="34.99" height="44.97"/><rect class="cls-2" x="2116.38" y="2" width="34.99" height="39.97"/><rect class="cls-2" x="1940.92" y="225.84" width="34.99" height="49.96"/><line class="cls-2" x1="1975.92" y1="337.76" x2="1975.92" y2="275.8"/><line class="cls-2" x1="1940.92" y1="244.82" x2="1929.92" y2="244.82"/><rect class="cls-2" x="1894.94" y="225.34" width="34.99" height="49.96"/><line class="cls-2" x1="1929.93" y1="337.26" x2="1929.93" y2="275.3"/><line class="cls-2" x1="1894.94" y1="244.33" x2="1883.94" y2="244.33"/><rect class="cls-2" x="1848.95" y="226.34" width="34.99" height="49.96"/><line class="cls-2" x1="1883.94" y1="338.26" x2="1883.94" y2="276.3"/><line class="cls-2" x1="1848.95" y1="245.32" x2="1834.95" y2="245.32"/><rect class="cls-2" x="1800.46" y="226.34" width="34.99" height="49.96"/><line class="cls-2" x1="1835.45" y1="338.26" x2="1835.45" y2="276.3"/><line class="cls-2" x1="1800.46" y1="245.32" x2="1789.46" y2="245.32"/><rect class="cls-2" x="1754.48" y="225.84" width="34.99" height="49.96"/><line class="cls-2" x1="1789.47" y1="337.76" x2="1789.47" y2="275.8"/><line class="cls-2" x1="1754.48" y1="244.82" x2="1743.48" y2="244.82"/><rect class="cls-2" x="1708.49" y="226.84" width="34.99" height="49.96"/><line class="cls-2" x1="1743.48" y1="338.76" x2="1743.48" y2="276.8"/><line class="cls-2" x1="1708.49" y1="245.82" x2="1696.99" y2="245.82"/><rect class="cls-2" x="1662.5" y="225.34" width="34.99" height="49.96"/><line class="cls-2" x1="1697.49" y1="337.26" x2="1697.49" y2="275.3"/><line class="cls-2" x1="1662.5" y1="244.33" x2="1651.5" y2="244.33"/><rect class="cls-2" x="1616.52" y="224.84" width="34.99" height="49.96"/><line class="cls-2" x1="1651.51" y1="336.76" x2="1651.51" y2="274.8"/><line class="cls-2" x1="1616.52" y1="243.83" x2="1605.52" y2="243.83"/><rect class="cls-2" x="1570.53" y="225.84" width="34.99" height="49.96"/><line class="cls-2" x1="1605.52" y1="337.76" x2="1605.52" y2="275.8"/><line class="cls-2" x1="1570.53" y1="244.82" x2="1556.53" y2="244.82"/><rect class="cls-2" x="1522.54" y="226.34" width="34.99" height="49.96"/><line class="cls-2" x1="1557.53" y1="338.26" x2="1557.53" y2="276.3"/><line class="cls-2" x1="1522.54" y1="245.32" x2="1508.54" y2="245.32"/><rect class="cls-2" x="2044.64" y="62.95" width="35.99" height="49.96"/><rect class="cls-2" x="1997.66" y="62.95" width="35.99" height="49.96"/><line class="cls-2" x1="2080.63" y1="62.95" x2="2081.63" y2="45.97"/><line class="cls-2" x1="2033.65" y1="62.95" x2="2033.65" y2="1"/><line class="cls-2" x1="2033.65" y1="92.93" x2="2044.64" y2="92.93"/><polyline class="cls-2" points="1997.66 92.94 1989.66 92.94 1989.66 1"/><polyline class="cls-2" points="1989.66 92.94 1989.66 104.92 1975.66 104.92"/><rect class="cls-2" x="1940.67" y="62.95" width="34.99" height="49.96"/><line class="cls-2" x1="1975.66" y1="1" x2="1975.66" y2="62.95"/><line class="cls-2" x1="1940.67" y1="93.93" x2="1929.67" y2="93.93"/><rect class="cls-2" x="1894.69" y="63.45" width="34.99" height="49.96"/><line class="cls-2" x1="1929.68" y1="1.5" x2="1929.68" y2="63.45"/><line class="cls-2" x1="1894.69" y1="94.43" x2="1883.69" y2="94.43"/><rect class="cls-2" x="1848.7" y="62.45" width="34.99" height="49.96"/><line class="cls-2" x1="1883.69" y1=".5" x2="1883.69" y2="62.45"/><line class="cls-2" x1="1848.7" y1="93.43" x2="1834.7" y2="93.43"/><rect class="cls-2" x="1800.21" y="62.46" width="34.99" height="49.96"/><line class="cls-2" x1="1835.2" y1=".5" x2="1835.2" y2="62.46"/><line class="cls-2" x1="1800.21" y1="93.43" x2="1789.21" y2="93.43"/><rect class="cls-2" x="1754.23" y="62.96" width="34.99" height="49.96"/><line class="cls-2" x1="1789.22" y1="1" x2="1789.22" y2="62.96"/><line class="cls-2" x1="1754.23" y1="93.93" x2="1743.23" y2="93.93"/><rect class="cls-2" x="1708.24" y="61.96" width="34.99" height="49.96"/><line class="cls-2" x1="1743.23" x2="1743.23" y2="61.96"/><line class="cls-2" x1="1708.24" y1="92.93" x2="1696.74" y2="92.93"/><rect class="cls-2" x="1662.25" y="63.45" width="34.99" height="49.96"/><line class="cls-2" x1="1697.24" y1="1.5" x2="1697.24" y2="63.45"/><line class="cls-2" x1="1662.25" y1="94.43" x2="1651.25" y2="94.43"/><rect class="cls-2" x="1616.27" y="63.95" width="34.99" height="49.96"/><line class="cls-2" x1="1651.26" y1="2" x2="1651.26" y2="63.95"/><line class="cls-2" x1="1616.27" y1="94.93" x2="1605.26" y2="94.93"/><rect class="cls-2" x="1570.28" y="62.95" width="34.99" height="49.96"/><line class="cls-2" x1="1605.27" y1="1" x2="1605.27" y2="62.95"/><line class="cls-2" x1="1570.28" y1="93.93" x2="1556.28" y2="93.93"/><rect class="cls-2" x="1522.29" y="62.45" width="34.99" height="49.96"/><line class="cls-2" x1="1557.28" y1=".5" x2="1557.28" y2="62.45"/><line class="cls-2" x1="1522.29" y1="93.43" x2="1510.04" y2="93.43"/><rect class="cls-2" x="1719.99" y="130.91" width="254.93" height="76.95"/><rect class="cls-2" x="1637.01" y="129.91" width="70.98" height="77.94"/><rect class="cls-2" x="1557.03" y="130.91" width="68.98" height="76.95"/><rect class="cls-2" x="1323.09" y="129.91" width="222.94" height="78.94"/><rect class="cls-2" x="1319.09" y="226.84" width="63.95" height="63.95"/><rect class="cls-2" x="1427.07" y="226.84" width="81.98" height="63.95"/><rect class="cls-2" x="1383.05" y="226.84" width="44.02" height="63.95"/><rect class="cls-2" x="1323.66" y="291.79" width="185.38" height="46.97"/><line class="cls-2" x1="1952.92" y1="130.91" x2="1952.92" y2="207.85"/><line class="cls-2" x1="1932.93" y1="129.91" x2="1932.93" y2="207.85"/><line class="cls-2" x1="1952.92" y1="144.9" x2="1933.93" y2="144.9"/><line class="cls-2" x1="1952.92" y1="193.86" x2="1932.93" y2="193.86"/><line class="cls-2" x1="1952.92" y1="199.85" x2="1974.92" y2="199.85"/><line class="cls-2" x1="1818.96" y1="207.85" x2="1818.96" y2="130.91"/><line class="cls-2" x1="1800.96" y1="130.91" x2="1801.96" y2="207.85"/><line class="cls-2" x1="1772.47" y1="207.85" x2="1772.47" y2="130.91"/><line class="cls-2" x1="1801.46" y1="145.9" x2="1772.47" y2="145.9"/><line class="cls-2" x1="1801.96" y1="193.86" x2="1771.98" y2="193.86"/><polyline class="cls-2" points="1719.99 154.89 1754.98 154.89 1754.98 130.91"/><line class="cls-2" x1="1682" y1="129.91" x2="1682" y2="207.85"/><line class="cls-2" x1="1638.01" y1="168.88" x2="1681" y2="168.88"/><line class="cls-2" x1="1583.02" y1="130.91" x2="1583.02" y2="207.85"/><line class="cls-2" x1="1626.01" y1="169.38" x2="1583.02" y2="169.38"/><line class="cls-2" x1="1505.04" y1="129.91" x2="1505.04" y2="208.85"/><line class="cls-2" x1="1546.03" y1="181.87" x2="1505.04" y2="181.87"/><line class="cls-2" x1="1474.23" y1="129.91" x2="1474.23" y2="208.85"/><line class="cls-2" x1="1505.04" y1="147.24" x2="1474.23" y2="147.24"/><line class="cls-2" x1="1505.04" y1="194.86" x2="1474.23" y2="194.86"/><line class="cls-2" x1="1364.08" y1="129.91" x2="1364.08" y2="208.85"/><line class="cls-2" x1="1347.09" y1="129.91" x2="1347.09" y2="208.85"/><line class="cls-2" x1="1322.09" y1="193.86" x2="1347.09" y2="193.86"/><line class="cls-2" x1="1322.09" y1="144.64" x2="1347.09" y2="144.64"/><line class="cls-2" x1="1464.54" y1="226.84" x2="1464.54" y2="291.79"/><line class="cls-2" x1="1427.07" y1="273.8" x2="1464.54" y2="273.8"/><line class="cls-2" x1="1445.8" y1="291.79" x2="1445.8" y2="273.8"/><rect class="cls-2" x="1320.59" y="49.96" width="63.95" height="63.95"/><rect class="cls-2" x="1428.57" y="49.96" width="81.98" height="63.95"/><rect class="cls-2" x="1384.55" y="49.96" width="44.02" height="63.95"/><rect class="cls-2" x="1325.16" y="2" width="185.38" height="46.97"/><line class="cls-2" x1="1466.04" y1="113.92" x2="1466.04" y2="48.96"/><line class="cls-2" x1="1428.57" y1="66.95" x2="1466.04" y2="66.95"/><line class="cls-2" x1="1447.3" y1="48.96" x2="1447.3" y2="66.95"/><rect class="cls-2" x="1101.15" y="130.91" width="25.99" height="76.95"/><rect class="cls-2" x="1160.14" y="241.83" width="36.99" height="95.93"/><line class="cls-2" x1="1319.59" y1="276.3" x2="1197.13" y2="276.3"/><line class="cls-2" x1="1160.14" y1="290.79" x2="1197.13" y2="290.79"/><rect class="cls-2" x="1165.14" y="129.91" width="30.99" height="78.94"/><rect class="cls-2" x="1101.15" y="242.33" width="46.99" height="95.43"/><rect class="cls-2" x="1101.15" y="225.84" width="21.18" height="16.9"/><rect class="cls-2" x="1043.17" y="225.84" width="46.99" height="111.92"/><line class="cls-2" x1="1101.15" y1="237.54" x2="1090.16" y2="237.54"/><line class="cls-2" x1="1043.17" y1="258.81" x2="1090.16" y2="258.81"/><rect class="cls-2" x="938.2" y="225.84" width="94.29" height="111.92"/><rect class="cls-2" x="1160.14" y="2.5" width="35.99" height="94.43"/><rect class="cls-2" x="823.23" y="129.91" width="266.93" height="77.94"/><rect class="cls-2" x="1044.17" y="2.25" width="46.04" height="109.42"/><rect class="cls-2" x="938.2" y="1.5" width="92.97" height="111.42"/><line class="cls-2" x1="1196.13" y1="63.95" x2="1320.59" y2="63.95"/><path class="cls-3" d="M1217.12,153.89v-24.98h32.99s-3.14,24.98-32.99,24.98Z"/><path class="cls-3" d="M1217.12,208.85v-21.48s30.86-1.91,32.99,21.48h-32.99Z"/><rect class="cls-2" x="1101.15" y="2" width="46.99" height="93.93"/><polyline class="cls-2" points="1101.15 95.93 1101.15 112.92 1125.15 112.92 1125.15 95.93"/><line class="cls-2" x1="1090.21" y1="100.93" x2="1101.15" y2="100.93"/><line class="cls-2" x1="1044.17" y1="79.94" x2="1090.21" y2="79.94"/><line class="cls-2" x1="986.19" y1="1.5" x2="986.19" y2="113.92"/><line class="cls-2" x1="938.2" y1="80.94" x2="1031.17" y2="80.94"/><line class="cls-2" x1="1048.17" y1="129.91" x2="1048.17" y2="207.85"/><line class="cls-2" x1="1020.18" y1="129.91" x2="1020.18" y2="206.85"/><line class="cls-2" x1="1048.17" y1="144.9" x2="1020.18" y2="144.9"/><line class="cls-2" x1="1048.17" y1="192.86" x2="1020.18" y2="192.86"/><line class="cls-2" x1="1001.18" y1="129.91" x2="1001.18" y2="207.85"/><line class="cls-2" x1="910.21" y1="129.91" x2="910.21" y2="207.85"/><line class="cls-2" x1="893.21" y1="129.91" x2="893.21" y2="207.85"/><line class="cls-2" x1="870.22" y1="129.91" x2="870.22" y2="207.85"/><line class="cls-2" x1="893.21" y1="144.9" x2="870.22" y2="144.9"/><line class="cls-2" x1="893.21" y1="192.86" x2="870.22" y2="192.86"/><polyline class="cls-2" points="847.22 129.91 847.22 186.87 870.56 186.87"/><line class="cls-2" x1="985.35" y1="225.84" x2="985.35" y2="337.76"/><line class="cls-2" x1="938.2" y1="257.32" x2="1031.17" y2="257.32"/><polyline class="cls-2" points="824.23 337.76 824.23 289.29 835.23 289.29 835.23 225.84 929.2 225.84 929.2 337.76"/><line class="cls-2" x1="882.21" y1="337.76" x2="882.21" y2="225.84"/><line class="cls-2" x1="835.23" y1="257.32" x2="929.2" y2="257.32"/><polyline class="cls-2" points="835.23 289.29 870.22 289.29 870.22 337.76"/><polyline class="cls-2" points="893.21 337.76 893.21 290.04 929.2 290.04"/><rect class="cls-2" x="938.2" y="290.04" width="37.19" height="47.72"/><rect class="cls-2" x="997.47" y="291.79" width="35.03" height="45.97"/><rect class="cls-2" x="1043.17" y="290.79" width="36.88" height="46.97"/><rect class="cls-2" x="1114.15" y="291.79" width="33.99" height="45.97"/><rect class="cls-2" x="1160.14" y="2.5" width="35.99" height="44.07"/><rect class="cls-2" x="1114.15" y="1.99" width="33.99" height="44.57"/><rect class="cls-2" x="1044.17" y="1.5" width="34.99" height="46.47"/><rect class="cls-2" x="997.47" y="1.5" width="33.71" height="43.3"/><rect class="cls-2" x="938.2" y="1.99" width="37.19" height="42.81"/><rect class="cls-2" x="881.71" y="2.5" width="46.49" height="110.42"/><rect class="cls-2" x="825.23" y="1.99" width="43.99" height="45.97"/><rect class="cls-2" x="835.23" y="81.94" width="46.49" height="30.98"/><line class="cls-2" x1="927.2" y1="81.94" x2="881.71" y2="81.94"/><polyline class="cls-2" points="893.21 1.99 893.21 46.57 928.2 46.57"/><line class="cls-2" x1="835.23" y1="81.94" x2="835.23" y2="47.97"/><rect class="cls-2" x="777.24" y="47.97" width="47.99" height="63.95"/><rect class="cls-2" x="730.26" y="47.96" width="46.99" height="37.97"/><rect class="cls-2" x="787.24" y="47.96" width="37.99" height="34.98"/><rect class="cls-2" x="730.26" y="85.94" width="35.68" height="27.75"/><rect class="cls-2" x="787.24" y="129.91" width="23.99" height="77.94"/><rect class="cls-2" x="730.26" y="129.91" width="47.99" height="77.94"/><rect class="cls-2" x="777.24" y="225.84" width="47.99" height="63.45"/><rect class="cls-2" x="730.26" y="225.84" width="35.99" height="26.98"/><rect class="cls-2" x="730.26" y="252.82" width="46.99" height="36.47"/><line class="cls-2" x1="730.26" y1="47.96" x2="730.26" y2="288.79"/><line class="cls-2" x1="730.26" y1="168.88" x2="778.24" y2="168.88"/><path class="cls-3" d="M491.32,16.99v307.78S86.61,256.94,1.45,168.89C94.5,88.43,455.9,12.53,491.32,16.99Z"/><polyline class="cls-2" points="54.03 135.9 74.95 145.88 85.46 161.88 82.85 181.38 70.81 195.86 50.72 202.85"/><polygon class="cls-2" points="196.41 141.9 196.41 152.9 208.4 152.9 208.4 165 235.39 165 235.39 135.9 210.4 135.9 196.41 141.9"/><polygon class="cls-2" points="196.41 196.85 196.4 187.86 208.4 187.87 208.4 177.36 235.39 177.36 235.39 202.85 208.4 202.85 196.41 196.85"/><rect class="cls-2" x="292.37" y="141.9" width="45.99" height="53.96"/><rect class="cls-2" x="450.33" y="132.9" width="40.99" height="73.95"/></g><g id="points"><path class="cls-4" d="M1673.38,314.16c15.32,0,15.35-23.81,0-23.81s-15.35,23.81,0,23.81h0Z"/><circle class="cls-1" cx="1672.25" cy="301.6" r="20.8"/></g></svg>