<svg id="Layer_1" xmlns="http://www.w3.org/2000/svg" version="1.1" viewBox="0 0 3421.9 377.8"><defs><style>.st0{stroke:#173387}.st0,.st1,.st2{fill:none;stroke-miterlimit:10}.st0,.st2{stroke-width:2px}.st3{fill:#171636}.st4{fill:#173387}.st1,.st2{stroke:#171636}</style></defs><g id="_3eme-bis_plan"><path class="st2" d="M3195 197.7c-.3-6.3-.4-9.1-.9-13.3-11-93.6-117.2-108.7-202-117.9-88.7-9.6-499.6-26.5-499.6-26.5h-1799S352.7 40 56 197.7c220.3 118.2 451.4 152.4 643.4 157.8 192.1 5.4 1699 5.7 1818.5 1.9s386.4-16.3 496.6-32.7c81.1-13.6 179.1-22.8 180.5-127ZM511 340.5V55.9"/><path class="st1" d="M280.9 106.5v34.1H322v15.3h139.7v-11.3H511M280.9 290.9v-35.8H320v-14.7h141.7v11.3H511"/><path class="st1" d="M396 322v-64.3h-15.5v-17.3M312 255.1v44.8M312 140.6v-43M461.7 144.6v-31.9H511M511 281.2h-49.3v-29.5M482.7 336.5v-55.3M189.3 259.1V137.6M329.3 171.9h170.3V220H329.3zM388.3 171.9V220M396 171.9V220M429.1 171.9V220M476.4 171.9V220"/><path class="st2" d="M699.5 355.5V40"/><path class="st1" d="M737.7 356.3V40M699.5 87.3h38.2M699.5 162.9h38.2M699.5 234h38.2M699.5 271.6h38.2M699.5 308.8h38.2"/><circle class="st1" cx="669.2" cy="281.2" r="19.5"/><circle class="st1" cx="669.2" cy="115.6" r="19.5"/><path class="st1" d="M599.7 162.9h43V234h-43zM511 162.9h57.2V234H511zM749.2 277.1h74v79.2h-74zM749.2 41.7h74v74h-74zM749.2 135.1h32v126.6h-32zM834.2 39.8h75v79.5h-75zM918.1 39.8h77.3v79.5h-77.3zM1004.7 39.8h76.2v79.5h-76.2zM1090.8 39.8h75.1v79.5h-75.1zM834.2 277.1H907v80.8h-72.8zM918.1 277.1h75v80.8h-75zM1004.7 277.1h73.4v81.6h-73.4zM1090.8 277.1h72.3V359h-72.3zM1056.6 135.1h21.5v126.6h-21.5z"/><path class="st1" d="M813.2 162.9h243.4V234H813.2zM792.5 357v-79.9M749.2 308.8h20.2l11.8 31.7v15.8M781.2 41.7v11.6l-10.2 34h-21.8M792.5 115.6V41.7M823.2 87.3h-30.7M876.7 119.3V39.8M909.3 87.3h-32.6M866.1 39.8v13l-10.4 34.5h-21.5M962.7 119.3V39.8M995.4 87.3h-32.7M952.2 39.8v13l-10.4 34.5h-23.7M1048 119.4V39.9M1080.6 87.4H1048M1037.5 39.9v13l-10.4 34.5h-21.5M1133.3 119.4V39.9M1165.9 87.4h-32.6M1122.7 39.9v13l-10.4 34.5h-21.5M874.9 278.4v79.5M907.5 310.4h-32.6M864.4 357.9v-13l-9.5-34.6h-21.4M961 278.4v79.5M993.6 310.4H961M952.2 357.7v-13l-10.4-34.4h-23.7M1046.2 278.3v79.4M1078.9 310.3h-32.7M1035.7 357.7v-13l-10.4-34.4h-21.5M1131.5 278.3v79.4M1164.1 310.3h-32.6M1121 357.7v-13l-10.4-34.4h-21.5M823.2 308.8h-30.7"/><path class="st1" d="M1048 234v27.7H792.5v-51.5h20.7M813.2 234h-20.7M828.6 261.7V234M866.1 261.7V234M904.9 261.7V234M941.1 261.7V234M979 261.7v-98.8M1014.5 261.7V234M1078.1 234h-21.5M1078.1 217h-21.5M1078.1 197.8h-21.5M1078.1 162.9h-21.5M1021.5 234v-71.1M995.4 234v-71.1M1021.5 176.9h-26.1M1021.5 217h-26.1M891.2 234v-71.1M876.7 234v-71.1M855.7 234v-71.1M876.7 221.2h-21M876.7 174.1h-21M813.2 198.4h-20.7v-63.3h253.7v27.8M1009.9 162.9v-27.8M974.4 162.9v-27.8M936.8 162.9v-27.8M899.2 162.9v-27.8M861.6 162.9v-27.8M823.2 162.9v-27.8"/><path class="st1" d="M813.2 162.9v-9h-20.7M813.2 174.1h-20.7M781.2 172.6h-32M781.2 221.2h-32M737.7 196.4h-38.2M737.7 123.3h-38.2M1090.8 261.7V135.1M1200.1 227.1v6.9h-25.3v-21.7s17.9-2.7 25.3 14.8ZM1200.1 166.8v-6.4h-25.3v22.1s18.4 1.8 25.3-15.6ZM1128.3 162.9h25.8V234h-25.8zM1174.8 296.7h41.5v62.5h-41.5zM1206.1 40.1h64.8V90h-64.8zM1174.8 40h31.3v47.2h-31.3zM1271 40.1h43.9v59.1H1271zM1314.9 40.1h41.9v59.1h-41.9z"/><path class="st1" d="M1356.7 40h31.7v39.6h-31.7zM1356.7 79.7h31.7v19.5h-31.7zM1388.4 40.1h37.3v59.1h-37.3z"/><path class="st1" d="M1425.6 40.1h38.3v59.1h-38.3zM1463.9 40.1h32.2v59.1h-32.2zM1271 162.9h165.4V234H1271z"/><path class="st1" d="M1271 116.5h213.9v161.9H1271zM1496.1 79.7h-32.2M1372.5 99.2V79.7M1308.7 162.9v-46.4M1340.9 162.9v-46.4M1377.9 162.9v-46.4M1414.4 162.9v-46.4M1484.8 162.9h-48.5M1448.1 116.5v46.4M1484.8 208.8h-48.5"/><path class="st1" d="M1436.3 234h21v44.4M1484.8 242.1h-27.5M1421 234v44.4M1384.3 278.4V234M1346.5 278.4V234M1308.7 278.4V234M1292.9 234v-71.1M1306.2 234v-71.1M1396.5 234v-71.1M1410.3 234v-71.1M1436.3 219.6h-26M1436.3 176.9h-26M1292.9 219.6H1271M1292.9 174.7H1271M1228.6 296.7h42.4v62.6h-42.4zM1271 296.7h43.9v62.7H1271zM1314.9 296.7h41.9v62.8h-41.9z"/><path class="st1" d="M1228.6 327.4h32.2v32.2h-32.2zM1174.8 325.6h33.9v33.9h-33.9zM1356.7 296.7h31.9v62.8h-31.9z"/><path class="st1" d="M1367.4 327.4h21.2v32.2h-21.2zM1356.7 296.7h31.9v19h-31.9z"/><path class="st1" d="M1388.6 296.7h36.8v62.9h-36.8zM1425.4 296.7h37.8v63h-37.8zM1463.2 296.7h31.2v63h-31.2z"/><path class="st1" d="M1473.2 325.7h21.2v34h-21.2zM1463.2 296.7h31.2v19h-31.2zM1494.4 296.7h38.7v63.1h-38.7z"/><path class="st1" d="M1533.1 296.7h38.7v63.1h-38.7zM1571.8 296.7h40.6v63.2h-40.6zM1612.4 296.7h31.5v63.2h-31.5z"/><path class="st1" d="M1612.4 325.7h21.2v34.2h-21.2zM1612.4 296.7h31.5v19h-31.5zM1496.1 40.1h37v59.1h-37zM1533.1 40.1h38.7v59.1h-38.7zM1571.8 40.1h40.6v59.1h-40.6zM1474 40.1h22v29.6h-22zM1494.4 116.5h64.1v161.9h-64.1z"/><path class="st1" d="M1525.1 232.3h33.4v46.1h-33.4zM1494.4 162.9h23.6v69.4h-23.6zM1525.1 232.3h-7.1M1558.5 197.6H1518M1558.5 162.9H1518M1528.8 116.5v18.2h-3.7v28.2M1612.4 40.1h31.5v59.1h-31.5zM1643.9 40.1h38.1v59.1h-38.1z"/><path class="st1" d="M1612.4 81.8h31.5v17.3h-31.5zM1612.4 40.1h21.4v29.6h-21.4zM1568.9 116.5h64.9v161.9h-64.9z"/><path class="st1" d="M1568.9 116.5h41V234h-41zM1633.8 162.9h-64.9M1633.8 135.5h-23.9M1633.8 187.7h-23.9M1633.8 208.8h-23.9M1609.9 198.4h-41M1609.9 234h23.9M1598.6 278.4v-16.8h2.7V234M1628.2 315.7v-19M1480 99.2V79.7M1628.2 99.2V81.8M1372.7 315.7l-.2-19M1478.8 315.7v-19M1643.9 296.7h38.1v63.2h-38.1zM1682 296.7h42.8v63.2H1682zM1682 40.1h42.8v59.1H1682zM1724.8 40.1h36.1v59.1h-36.1zM1760.9 40.1h32.9v59.1h-32.9z"/><path class="st1" d="M1793.8 40.1h37.4v59.1h-37.4zM1831.2 40.1h43.8v59.1h-43.8zM1875 40.1h36.8v59.1H1875z"/><path class="st1" d="M1911.7 40.1h32.5v59.1h-32.5zM1944.2 40.1h36.2v59.1h-36.2zM1980.4 40.1h37.4v59.1h-37.4z"/><path class="st1" d="M2017.7 40.1h33.1v59.1h-33.1zM2050.8 40.1h38v59.1h-38zM2088.8 40.1h42.3v59.1h-42.3z"/><path class="st1" d="M2131 40.1h37.4v59.1H2131zM2168.4 40.1h30.6v59.1h-30.6zM2199.1 40.1h38.6v59.1h-38.6zM2237.7 40.1h37.4v59.1h-37.4z"/><path class="st1" d="M2275 40h44.1v44.4H2275zM2199.1 58.1h-8.6l-11.7 20.8v20.3M2037 99.2V78.6l-10.1-20.5h-9.2M1922.8 99.2V78.6l11.6-20.5h9.8M1793.8 78.6h-32.9M1777.3 99.2V78.6M1726 299.8h36.1v59.1H1726zM1762.1 299.8h32.9v59.1h-32.9zM1795 299.8h37.4v59.1H1795zM1832.4 299.8h43.8v59.1h-43.8zM1876.2 299.8h36.8v59.1h-36.8z"/><path class="st1" d="M1912.9 299.8h32.5v59.1h-32.5zM1945.4 299.8h36.2v59.1h-36.2z"/><path class="st1" d="M1981.5 299.8h37.4v59.1h-37.4zM2018.9 299.8h33.1v59.1h-33.1zM2052 299.8h38v59.1h-38zM2090 299.8h42.3v59.1H2090z"/><path class="st1" d="M2132.2 299.8h37.4v59.1h-37.4zM2169.6 299.8h30.6v59.1h-30.6zM2200.2 299.8h38.6v59.1h-38.6zM2238.8 299.8h37.4v59.1h-37.4z"/><path class="st1" d="M2200.2 340.8h-8.5L2180 320v-20.2M2038.2 299.8v20.5l-10.1 20.5h-9.2M1923.9 299.8v20.5l11.7 20.5h9.8M1795 320.3h-32.9M1778.5 299.8v20.5M2276.2 299.8h42.9v59.1h-42.9zM1682 162.9h164.3V234H1682zM1846.3 162.9h129.1V234h-129.1zM1916.2 234h37.1v44.4h-37.1zM1878.5 234h37.7v44.4h-37.7zM1832.4 234h35.4v44.4h-35.4zM1793.8 234h38.6v44.4h-38.6z"/><path class="st1" d="M1755.9 234h37.9v44.4h-37.9zM1719.9 234h36v44.4h-36zM1682 234h37.8v44.4H1682zM1643.9 234h38.1v44.4h-38.1zM1643.9 162.9h38.1V234h-38.1zM1643.9 116.8h20.3v46.1h-20.3zM1664.2 116.8h17.8v46.1h-17.8zM1682 116.8h36.2v46.1H1682zM1718.2 116.8h37.7v46.1h-37.7zM1755.9 116.8h37.9v46.1h-37.9zM1828.6 116.8h178.9v46.1h-178.9z"/><path class="st1" d="M1793.8 128.2h9.8v-11.4h25M1953.3 234h54.2v44.4h-54.2zM1889.6 234v-71.1M1828.6 234v-71.1M1811.2 234v-71.1M1707.5 234v-71.1M1724.8 234v-71.1M2007.5 162.9v24.4s28.9-4.3 29.5-14.3M2007.5 234v-25.7s29.1-.3 29.5 14.1M1985.7 234v-71.1M2083.7 162.9h170.1V234h-170.1zM2083.7 234h62.3v44.4h-62.3z"/><path class="st1" d="M2145.9 234h39v44.4h-39zM2184.9 234h34.6v44.4h-34.6zM2219.5 234h23v44.4h-23zM2083.7 116.9h33.5v46h-33.5zM2117.2 116.9h40.4v46h-40.4z"/><path class="st1" d="M2157.5 116.9h37.4v46h-37.4zM2194.9 116.9h47.7v46h-47.7zM2109.9 278.4v-9.1h-3V234l1.5-23.1h29M2219.6 162.9v-46.1M2242.6 139.8l-23.9.1M2231.1 234v-71.1M2199.1 234v-71.1M2160.1 234v-20.5h-22.7V234v-71.1M2137.4 185.1h-30.5v-22.2M2114.8 210.9v-25.8M2253.7 116.9h65.4v161.5h-65.4z"/><path class="st1" d="M2286.4 244.6h32.7v33.8h-32.7zM2286.4 197.6h32.7v47h-32.7zM2286.4 152.5h32.7v45.1h-32.7zM2286.4 116.9h32.7v35.6h-32.7zM2253.7 244.6h22.5v33.8h-22.5zM2253.7 190.7h22.5v53.9h-22.5zM2253.7 149.9h22.5v40.8h-22.5zM2253.7 116.8h22.5v33.1h-22.5zM2319.1 299.8V84.4"/><path class="st2" d="M2360.5 162.9V89.1c0 .9 171 0 171 0v23.6s92 .5 92.4 0 0 9.2 0 9.2l45.8 28v96.8c0-.9-45.8 26.4-45.8 26.4v11.1H2531v19h-168.7v-69.1h-22.6V163h20.8Z"/><path class="st1" d="M2392.9 234h-30.5M2392.9 162.9h-32.4M2424.3 303.1V89.5M2574.1 284.2V234h-9.7v-73.7h9.7v-47.5M2619.4 231.9l50.4-1.8M2617.6 162.9c.5-.3 52.2 0 52.2 0M2624 187.1h19.6v23.1H2624zM2369.8 187.1h23.1v23.1h-23.1zM2339.7 128.4h20.8v34.5h-20.8zM2339.7 234h22.6v34h-22.6zM2566.2 89.5h31v23.3h-31z"/><path class="st1" d="M2531.6 86.3h34.7v26.5h-34.7zM2564.4 284.2h32.8V305h-32.8zM2531.6 284.2h32.8v24.5h-32.8z"/><circle class="st1" cx="2643.7" cy="284.2" r="19.9"/><circle class="st1" cx="2643.8" cy="110.3" r="19.9"/><path class="st1" d="M2669.8 166.3h44.4v63.8h-44.4zM2780.3 166.3h34.7v65.6h-34.7z"/><path class="st1" d="M2814.9 146.9h87.8v103.6h-87.8z"/><path class="st2" d="M3003 326.3V67.7"/><path class="st1" d="M2902.8 199.1H3003M2875 317.9v20.9M2875 303.1v-52.7M2875 146.9V58.2M2978.6 115.4s-74.4-1.4-75.8 0M2978.6 158h-51.3M2978.6 237.9h-51.3M2978.6 280.5h-75.8M2945.3 317.9v14.9M2945.3 80.8V62.6M3019.3 135.8h25v124.3h-25zM2617.6 353.6v-69.4M2617.6 45.5v67.3"/></g><g id="points"><path class="st3" d="M1463.9 151.6c3.1 0 6.3-1.3 8.4-3.5s3.6-5.4 3.5-8.4c-.3-6.4-5.2-11.9-11.9-11.9s-6.3 1.3-8.4 3.5-3.6 5.4-3.5 8.4c.3 6.4 5.2 11.9 11.9 11.9ZM1663 81.5c3.1 0 6.3-1.3 8.4-3.5 2.1-2.1 3.6-5.4 3.5-8.4-.3-6.5-5.2-11.9-11.9-11.9s-6.3 1.3-8.4 3.5-3.6 5.4-3.5 8.4c.3 6.4 5.2 11.9 11.9 11.9ZM1589.4 192.7c3.1 0 6.3-1.3 8.4-3.5 2.1-2.1 3.6-5.4 3.5-8.4-.3-6.4-5.2-11.9-11.9-11.9s-6.3 1.3-8.4 3.5-3.6 5.4-3.5 8.4c.3 6.4 5.2 11.9 11.9 11.9Z"/><path class="st4" d="M1704.5 340.9c3.1 0 6.3-1.3 8.4-3.5 2.1-2.1 3.6-5.5 3.5-8.4-.3-6.5-5.2-11.9-11.9-11.9s-6.3 1.3-8.4 3.5-3.6 5.5-3.5 8.4c.3 6.5 5.2 11.9 11.9 11.9ZM1541.8 267.3c3.1 0 6.3-1.3 8.4-3.5 2.1-2.1 3.6-5.5 3.5-8.4-.3-6.4-5.2-11.9-11.9-11.9s-6.3 1.3-8.4 3.5-3.6 5.4-3.5 8.4c.3 6.4 5.2 11.9 11.9 11.9ZM2219.6 344.7c3.1 0 6.3-1.3 8.4-3.5 2.1-2.1 3.6-5.5 3.5-8.4-.3-6.5-5.2-11.9-11.9-11.9s-6.3 1.3-8.4 3.5-3.6 5.5-3.5 8.4c.3 6.5 5.2 11.9 11.9 11.9Z"/><circle class="st0" cx="1703.4" cy="328.3" r="20.8"/><path class="st4" d="M1664.1 338.2c3.1 0 6.3-1.3 8.4-3.5s3.6-5.5 3.5-8.4c-.3-6.5-5.2-11.9-11.9-11.9s-6.3 1.3-8.4 3.5-3.6 5.5-3.5 8.4c.3 6.5 5.2 11.9 11.9 11.9Z"/><circle class="st0" cx="1663" cy="325.6" r="20.8"/><path class="st4" d="M1779.6 341.9c3.1 0 6.3-1.3 8.4-3.5 2.1-2.1 3.6-5.5 3.5-8.4-.3-6.5-5.2-11.9-11.9-11.9s-6.3 1.3-8.4 3.5-3.6 5.5-3.5 8.4c.3 6.5 5.2 11.9 11.9 11.9Z"/><circle class="st0" cx="1778.5" cy="329.3" r="20.8"/><path class="st4" d="M957.9 163.1c3 0 6.3-1.3 8.4-3.5s3.6-5.4 3.5-8.4c-.3-6.4-5.2-11.9-11.9-11.9s-6.3 1.3-8.4 3.5-3.6 5.4-3.5 8.4c.3 6.4 5.2 11.9 11.9 11.9Z"/><circle class="st0" cx="956.7" cy="150.6" r="20.8"/><path class="st4" d="M1149.9 76.8c3.1 0 6.3-1.3 8.4-3.5s3.6-5.4 3.5-8.4c-.3-6.5-5.2-11.9-11.9-11.9s-6.3 1.3-8.4 3.5-3.6 5.5-3.5 8.4c.3 6.4 5.2 11.9 11.9 11.9Z"/><circle class="st0" cx="1148.8" cy="64.2" r="20.8"/><path class="st3" d="M1064.8 72.1c3.1 0 6.3-1.3 8.4-3.5s3.6-5.5 3.5-8.4c-.3-6.5-5.2-11.9-11.9-11.9s-6.3 1.3-8.4 3.5-3.6 5.5-3.5 8.4c.3 6.4 5.2 11.9 11.9 11.9Z"/><ellipse class="st2" cx="1065.2" cy="61.3" rx="18.4" ry="19.6"/><path class="st3" d="M766.5 75.9c3 0 6.3-1.3 8.4-3.5 2.1-2.1 3.6-5.4 3.5-8.4-.3-6.5-5.2-11.9-11.9-11.9s-6.3 1.3-8.4 3.5-3.6 5.5-3.5 8.4c.3 6.4 5.2 11.9 11.9 11.9Z"/><ellipse class="st2" cx="766.8" cy="65" rx="18.4" ry="19.6"/><path class="st3" d="M1777.2 268.7c3.1 0 6.3-1.3 8.4-3.5s3.6-5.5 3.5-8.4c-.3-6.4-5.2-11.9-11.9-11.9s-6.3 1.3-8.4 3.5-3.6 5.4-3.5 8.4c.3 6.5 5.2 11.9 11.9 11.9Z"/><circle class="st2" cx="1776.1" cy="256.2" r="20.8"/><path class="st3" d="M1329.9 267.9c3.1 0 6.3-1.3 8.4-3.5 2.1-2.1 3.6-5.5 3.5-8.4-.3-6.4-5.2-11.9-11.9-11.9s-6.3 1.3-8.4 3.5-3.6 5.4-3.5 8.4c.3 6.5 5.2 11.9 11.9 11.9Z"/><circle class="st2" cx="1328.8" cy="255.4" r="20.8"/><path class="st3" d="M718.5 301.7c3 0 6.3-1.3 8.4-3.5s3.6-5.5 3.5-8.4c-.3-6.5-5.2-11.9-11.9-11.9s-6.3 1.3-8.4 3.5-3.6 5.5-3.5 8.4c.3 6.5 5.2 11.9 11.9 11.9Z"/><circle class="st2" cx="718.9" cy="290.9" r="19.5"/><path class="st3" d="M718.5 340.5c3 0 6.3-1.3 8.4-3.5s3.6-5.5 3.5-8.4c-.3-6.5-5.2-11.9-11.9-11.9s-6.3 1.3-8.4 3.5c-2.1 2.1-3.6 5.5-3.5 8.4.3 6.5 5.2 11.9 11.9 11.9Z"/><circle class="st2" cx="718.9" cy="329.7" r="19.5"/><path class="st3" d="M2068.6 76.7c3.1 0 6.3-1.3 8.4-3.5s3.6-5.4 3.5-8.4c-.3-6.5-5.2-11.9-11.9-11.9s-6.3 1.3-8.4 3.5-3.6 5.5-3.5 8.4c.3 6.4 5.2 11.9 11.9 11.9Z"/><circle class="st2" cx="2069.8" cy="65.4" r="19"/><path class="st3" d="M2149.7 78.5c3.1 0 6.3-1.3 8.4-3.5 2.1-2.1 3.6-5.4 3.5-8.4-.3-6.5-5.2-11.9-11.9-11.9s-6.3 1.3-8.4 3.5c-2.1 2.1-3.6 5.5-3.5 8.4.3 6.4 5.2 11.9 11.9 11.9Z"/><circle class="st2" cx="2150.9" cy="67.3" r="19"/><path class="st4" d="M1895.7 341.9c3.1 0 6.3-1.3 8.4-3.5 2.1-2.1 3.6-5.5 3.5-8.4-.3-6.5-5.2-11.9-11.9-11.9s-6.3 1.3-8.4 3.5-3.6 5.5-3.5 8.4c.3 6.5 5.2 11.9 11.9 11.9Z"/><circle class="st0" cx="1894.5" cy="329.3" r="20.8"/><path class="st3" d="M976.9 344.9c3 0 6.3-1.3 8.4-3.5s3.6-5.5 3.5-8.4c-.3-6.5-5.2-11.9-11.9-11.9s-6.3 1.3-8.4 3.5c-2.1 2.1-3.6 5.5-3.5 8.4.3 6.5 5.2 11.9 11.9 11.9Z"/><circle class="st2" cx="977.3" cy="334.1" r="19.5"/></g></svg>