<?xml version="1.0" encoding="UTF-8"?>
<svg id="_1ere_plan" data-name="1ere plan" xmlns="http://www.w3.org/2000/svg" viewBox="0 0 2337.57 461.5">
  <defs>
    <style>
      .cls-1 {
        stroke-dasharray: 7.96 3.98;
      }

      .cls-1, .cls-2, .cls-3, .cls-4, .cls-5, .cls-6 {
        fill: none;
        stroke: #171636;
      }

      .cls-1, .cls-3, .cls-4, .cls-5, .cls-6 {
        stroke-miterlimit: 10;
      }

      .cls-2 {
        stroke-linecap: round;
        stroke-linejoin: round;
      }

      .cls-3 {
        stroke-dasharray: 7.91 3.95;
      }

      .cls-4 {
        stroke-dasharray: 7.96 3.98;
      }

      .cls-6 {
        stroke-width: 2px;
      }
    </style>
  </defs>
  <line class="cls-6" x1="2066.88" y1="15.55" x2="2113.54" y2="15.55"/>
  <line class="cls-6" x1="1904.12" y1="15.55" x2="1949.33" y2="15.55"/>
  <path class="cls-6" d="M1647.08,447.37H77.75v6.44s-26.53.19-33.39,0c3.8-110.23-25.01-86.76-43.08-158.76-.62-60.56,0-78.66,0-127.98C9.39,120.25,51.22,113.38,44.35,8.5h33.4v7.05s1551.93,0,1551.93,0h158"/>
  <line class="cls-6" x1="1797.56" y1="447.37" x2="1752.75" y2="447.37"/>
  <line class="cls-6" x1="1952.79" y1="447.37" x2="1911.54" y2="447.37"/>
  <line class="cls-6" x1="2107.34" y1="447.37" x2="2066.77" y2="447.37"/>
  <polyline class="cls-6" points="2231.42 15.55 2266.12 15.55 2266.12 77.1 2336.57 77.1 2336.57 380.55 2265.18 380.55 2265.18 447.37 2221.43 447.37"/>
  <line class="cls-6" x1="1.28" y1="295.05" x2="42.39" y2="295.05"/>
  <line class="cls-6" x1="1.28" y1="164.58" x2="42.39" y2="164.58"/>
  <polyline class="cls-6" points="77.75 447.37 77.75 334.42 99.2 334.42"/>
  <polyline class="cls-6" points="77.75 15.55 77.75 127.68 99.2 127.68"/>
  <path class="cls-6" d="M74.38,185.92v90.41h46.57v60.27h445.89v26.48h155.82v-85.99h141.24v92.04h85.68c40.15,25.46,82.74,14.2,98.41,0,21.05.49,67.07,0,67.07,0l14.68,14.68h56.31l9.3-14.68,19.09-.49,11.75,15.65h58.26l13.22-16.63h49.94v-45.04h54.83v-46.02h85.19v-101.34h-23.99v-22.52h-32.8v-29.38h-82.74v-30.35h-51.41l-16.4-16.4h-53.12l-11.75,14.93h-19.09l-11.75-15.18h-57.77l-12.24,15.67h-51.9v60.1h-119.53v-53.74h-376.3v24.01H120.57v62.18l-46.19,1.34Z"/>
  <polygon class="cls-6" points="1545.06 333.95 1545.06 123.32 1673.44 123.32 1673.44 182.12 1770.3 182.12 1770.3 273.99 1672.67 273.99 1672.67 333.95 1545.06 333.95"/>
  <polygon class="cls-6" points="2124.71 96.74 2124.71 362.41 1811.7 362.41 1811.7 267.19 1799.08 267.19 1799.08 191.96 1811.7 191.96 1811.7 96.74 2124.71 96.74"/>
  <line class="cls-6" x1="1811.7" y1="362.47" x2="1811.7" y2="362.41"/>
  <path class="cls-6" d="M2141.28,273.76s-.91-89.06,0-89.06h108.88v89.06h-108.88Z"/>
  <line class="cls-6" x1="722.65" y1="277.08" x2="722.65" y2="98.38"/>
  <line class="cls-6" x1="566.84" y1="336.59" x2="566.84" y2="122.39"/>
  <polyline class="cls-5" points="120.57 184.57 438.81 184.57 438.81 278.19 138.54 278.19 138.54 184.57"/>
  <line class="cls-5" x1="148.4" y1="122.39" x2="148.4" y2="184.57"/>
  <line class="cls-5" x1="227.27" y1="122.39" x2="227.27" y2="184.57"/>
  <polyline class="cls-5" points="340.85 122.39 340.85 169.8 227.27 169.8"/>
  <line class="cls-5" x1="269.97" y1="122.39" x2="269.97" y2="169.8"/>
  <path class="cls-5" d="M304.37,122.39c.19,0,0,47.41,0,47.41"/>
  <line class="cls-5" x1="169.67" y1="184.57" x2="169.67" y2="278.19"/>
  <line class="cls-5" x1="198.53" y1="184.57" x2="198.53" y2="278.19"/>
  <line class="cls-5" x1="138.54" y1="231.38" x2="198.53" y2="231.38"/>
  <line class="cls-5" x1="169.67" y1="205.29" x2="198.53" y2="205.29"/>
  <line class="cls-5" x1="169.67" y1="256.98" x2="198.53" y2="256.98"/>
  <line class="cls-5" x1="216.9" y1="184.57" x2="216.9" y2="278.19"/>
  <line class="cls-5" x1="335.3" y1="184.57" x2="335.3" y2="278.19"/>
  <ellipse class="cls-4" cx="276.1" cy="231.38" rx="59.2" ry="46.81"/>
  <ellipse class="cls-1" cx="1933" cy="229.65" rx="57.18" ry="45.08"/>
  <ellipse class="cls-3" cx="829.1" cy="230.28" rx="57.59" ry="47.9"/>
  <ellipse class="cls-4" cx="1383.09" cy="228.96" rx="59.2" ry="46.81"/>
  <polyline class="cls-5" points="120.95 292.89 355.11 292.89 355.11 336.59"/>
  <line class="cls-5" x1="389.19" y1="184.57" x2="389.19" y2="278.19"/>
  <line class="cls-5" x1="355.11" y1="278.19" x2="355.11" y2="184.57"/>
  <line class="cls-5" x1="389.19" y1="231.38" x2="438.81" y2="231.38"/>
  <polyline class="cls-5" points="355.11 122.39 355.11 169.8 566.84 169.8"/>
  <line class="cls-5" x1="526.42" y1="122.39" x2="526.42" y2="169.8"/>
  <line class="cls-5" x1="490.03" y1="122.39" x2="490.03" y2="169.8"/>
  <line class="cls-5" x1="454.07" y1="122.39" x2="454.07" y2="169.8"/>
  <line class="cls-5" x1="425.57" y1="122.39" x2="425.57" y2="169.8"/>
  <polyline class="cls-5" points="368.39 336.59 368.39 292.67 425.57 292.67 425.57 306.06 512 306.06 512 291.62 566.84 291.62"/>
  <line class="cls-5" x1="425.57" y1="336.59" x2="425.57" y2="306.06"/>
  <line class="cls-5" x1="439.96" y1="336.59" x2="439.96" y2="306.06"/>
  <line class="cls-5" x1="467.62" y1="306.06" x2="467.62" y2="336.59"/>
  <line class="cls-5" x1="512" y1="306.06" x2="512" y2="336.59"/>
  <rect class="cls-5" x="454.07" y="184.57" width="44.55" height="107.05"/>
  <polyline class="cls-5" points="566.84 182.38 510.48 182.38 510.48 278.19 566.84 278.19"/>
  <path class="cls-5" d="M124.85,40.22c35.19-28.56,91.44-30,131.54-3.75-37.5,30-92.02,32.02-131.54,3.75Z"/>
  <path class="cls-5" d="M269.53,38.32c37.48-28.56,97.39-30,140.09-3.75-39.94,30-98,32.02-140.09,3.75Z"/>
  <path class="cls-5" d="M425.57,38.32c37.79-28.56,98.2-30,141.27-3.75-40.27,30-98.82,32.02-141.27,3.75Z"/>
  <path class="cls-5" d="M583.61,38.32c37.79-28.56,98.2-30,141.27-3.75-40.27,30-98.82,32.02-141.27,3.75Z"/>
  <path class="cls-5" d="M583.61,427.34c37.79-28.56,98.2-30,141.27-3.75-40.27,30-98.82,32.02-141.27,3.75Z"/>
  <path class="cls-5" d="M427.98,425.27c38.61-27.44,99.04-27.11,141.31.39-41.13,28.81-99.72,29.11-141.31-.39Z"/>
  <path class="cls-5" d="M270.75,425.27c38.61-27.44,99.04-27.11,141.31.39-41.13,28.81-99.72,29.11-141.31-.39Z"/>
  <path class="cls-5" d="M123.49,422.7c36.39-27.5,93.26-27.28,132.99.15-38.76,28.88-93.9,29.28-132.99-.15Z"/>
  <polygon class="cls-6" points="118.34 441.26 118.34 419.08 115.52 419.08 115.52 414.95 125.29 414.95 125.29 419.08 122.03 419.08 122.03 441.44 125.29 441.44 125.29 445.56 115.52 445.56 115.52 441.18 118.34 441.26"/>
  <polygon class="cls-6" points="259.3 441.26 259.3 419.08 256.48 419.08 256.48 414.95 266.25 414.95 266.25 419.08 262.99 419.08 262.99 441.44 266.25 441.44 266.25 445.56 256.48 445.56 256.48 441.18 259.3 441.26"/>
  <polygon class="cls-6" points="416.82 443.08 416.82 420.89 414 420.89 414 416.76 423.77 416.76 423.77 420.89 420.51 420.89 420.51 443.25 423.77 443.25 423.77 447.37 414 447.37 414 442.99 416.82 443.08"/>
  <polygon class="cls-6" points="574.39 443.08 574.39 420.89 571.57 420.89 571.57 416.76 581.34 416.76 581.34 420.89 578.08 420.89 578.08 443.25 581.34 443.25 581.34 447.37 571.57 447.37 571.57 442.99 574.39 443.08"/>
  <polygon class="cls-6" points="731.78 443.08 731.78 420.89 728.96 420.89 728.96 416.76 738.73 416.76 738.73 420.89 735.47 420.89 735.47 443.25 738.73 443.25 738.73 447.37 728.96 447.37 728.96 442.99 731.78 443.08"/>
  <path class="cls-5" d="M2096.48,440.97c37.79-28.56,98.2-30,141.27-3.75-40.27,30-98.82,32.02-141.27,3.75Z"/>
  <path class="cls-5" d="M1938.86,438.9c38.61-27.44,99.04-27.11,141.31.39-41.13,28.81-99.72,29.11-141.31-.39Z"/>
  <path class="cls-5" d="M1783.62,438.9c38.61-27.44,99.04-27.11,141.31.39-41.13,28.81-99.72,29.11-141.31-.39Z"/>
  <path class="cls-5" d="M1630.31,437.35c37.95-27.46,97.3-27.16,138.82.32-40.42,28.83-97.97,29.16-138.82-.32Z"/>
  <polygon class="cls-6" points="1620.22 441.9 1620.22 419.71 1617.4 419.71 1617.4 415.58 1627.16 415.58 1627.16 419.71 1623.91 419.71 1623.91 442.07 1627.16 442.07 1627.16 446.19 1617.4 446.19 1617.4 441.81 1620.22 441.9"/>
  <polygon class="cls-6" points="1775.18 441.9 1775.18 419.71 1772.36 419.71 1772.36 415.58 1782.12 415.58 1782.12 419.71 1778.87 419.71 1778.87 442.07 1782.12 442.07 1782.12 446.19 1772.36 446.19 1772.36 441.81 1775.18 441.9"/>
  <polygon class="cls-6" points="1931.7 441.71 1931.7 419.52 1928.87 419.52 1928.87 415.39 1938.64 415.39 1938.64 419.52 1935.39 419.52 1935.39 441.88 1938.64 441.88 1938.64 446 1928.87 446 1928.87 441.62 1931.7 441.71"/>
  <polygon class="cls-6" points="2086.26 441.71 2086.26 419.52 2083.44 419.52 2083.44 415.39 2093.21 415.39 2093.21 419.52 2089.95 419.52 2089.95 441.88 2093.21 441.88 2093.21 446 2083.44 446 2083.44 441.62 2086.26 441.71"/>
  <polygon class="cls-6" points="2244.65 441.71 2244.65 419.52 2241.83 419.52 2241.83 415.39 2251.6 415.39 2251.6 419.52 2248.34 419.52 2248.34 441.88 2251.6 441.88 2251.6 446 2241.83 446 2241.83 441.62 2244.65 441.71"/>
  <path class="cls-5" d="M2097.55,25.67c39.12-28.56,101.65-30,146.22-3.75-41.69,30-102.29,32.02-146.22,3.75Z"/>
  <path class="cls-5" d="M1936.47,23.6c39.97-27.44,102.52-27.11,146.27.39-42.58,28.81-103.22,29.11-146.27-.39Z"/>
  <path class="cls-5" d="M1773.71,23.6c39.97-27.44,102.52-27.11,146.27.39-42.58,28.81-103.22,29.11-146.27-.39Z"/>
  <path class="cls-5" d="M1621.29,21.03c37.67-27.5,96.53-27.28,137.66.15-40.12,28.88-97.19,29.28-137.66-.15Z"/>
  <polygon class="cls-6" points="1615.96 42.59 1615.96 20.41 1613.04 20.41 1613.04 16.28 1623.15 16.28 1623.15 20.41 1619.78 20.41 1619.78 42.77 1623.15 42.77 1623.15 46.89 1613.04 46.89 1613.04 42.51 1615.96 42.59"/>
  <polygon class="cls-6" points="1761.87 42.59 1761.87 20.41 1758.95 20.41 1758.95 16.28 1769.06 16.28 1769.06 20.41 1765.69 20.41 1765.69 42.77 1769.06 42.77 1769.06 46.89 1758.95 46.89 1758.95 42.51 1761.87 42.59"/>
  <polygon class="cls-6" points="1925.91 42.41 1925.91 20.22 1922.99 20.22 1922.99 16.09 1933.11 16.09 1933.11 20.22 1929.73 20.22 1929.73 42.58 1933.11 42.58 1933.11 46.7 1922.99 46.7 1922.99 42.32 1925.91 42.41"/>
  <polygon class="cls-6" points="2088.01 42.41 2088.01 20.22 2085.09 20.22 2085.09 16.09 2095.2 16.09 2095.2 20.22 2091.83 20.22 2091.83 42.58 2095.2 42.58 2095.2 46.7 2085.09 46.7 2085.09 42.32 2088.01 42.41"/>
  <polygon class="cls-6" points="2250.93 44.41 2250.93 22.22 2248 22.22 2248 18.09 2258.12 18.09 2258.12 22.22 2254.75 22.22 2254.75 44.58 2258.12 44.58 2258.12 48.7 2248 48.7 2248 44.32 2250.93 44.41"/>
  <polygon class="cls-6" points="117.79 43.2 117.79 21.02 114.97 21.02 114.97 16.89 124.74 16.89 124.74 21.02 121.48 21.02 121.48 43.38 124.74 43.38 124.74 47.5 114.97 47.5 114.97 43.12 117.79 43.2"/>
  <polygon class="cls-6" points="258.75 43.2 258.75 21.02 255.93 21.02 255.93 16.89 265.7 16.89 265.7 21.02 262.44 21.02 262.44 43.38 265.7 43.38 265.7 47.5 255.93 47.5 255.93 43.12 258.75 43.2"/>
  <polygon class="cls-6" points="416.27 43.02 416.27 20.83 413.45 20.83 413.45 16.7 423.22 16.7 423.22 20.83 419.96 20.83 419.96 43.19 423.22 43.19 423.22 47.31 413.45 47.31 413.45 42.93 416.27 43.02"/>
  <polygon class="cls-6" points="573.84 44.02 573.84 21.83 571.02 21.83 571.02 17.7 580.78 17.7 580.78 21.83 577.53 21.83 577.53 44.19 580.78 44.19 580.78 48.31 571.02 48.31 571.02 43.93 573.84 44.02"/>
  <polygon class="cls-6" points="731.23 43.02 731.23 20.83 728.4 20.83 728.4 16.7 738.17 16.7 738.17 20.83 734.92 20.83 734.92 43.19 738.17 43.19 738.17 47.31 728.4 47.31 728.4 42.93 731.23 43.02"/>
  <line class="cls-5" x1="176.26" y1="336.59" x2="176.26" y2="292.89"/>
  <line class="cls-5" x1="227.27" y1="336.59" x2="227.27" y2="292.89"/>
  <line class="cls-5" x1="270.78" y1="336.59" x2="270.78" y2="292.89"/>
  <line class="cls-5" x1="314.84" y1="336.59" x2="314.84" y2="292.89"/>
  <polyline class="cls-5" points="393.7 336.59 393.7 321.33 400.75 321.33 400.75 292.89"/>
  <line class="cls-5" x1="454.07" y1="231.38" x2="498.62" y2="231.38"/>
  <line class="cls-5" x1="533.61" y1="182.38" x2="533.61" y2="278.19"/>
  <path class="cls-6" d="M630.72,183.53c.01,14.85-6.1,27.46-35.63,28.55,0-8.59,0-28.55,0-28.55h71.91s-.01,8.7,0,10.3c35.3,9.39,33.92,63.25,0,74.7,0,.6,0,9.65,0,9.65h-71.91v-28.54c22.59.34,36.06,7.36,35.99,28.54"/>
  <polyline class="cls-5" points="722.65 183.53 943.14 182.29 943.14 152.12"/>
  <polyline class="cls-5" points="863.89 277.08 943.14 277.08 943.14 182.29"/>
  <line class="cls-5" x1="751.79" y1="183.53" x2="751.79" y2="277.08"/>
  <line class="cls-5" x1="771.51" y1="183.53" x2="771.51" y2="277.08"/>
  <line class="cls-5" x1="886.69" y1="183.53" x2="886.69" y2="277.08"/>
  <line class="cls-5" x1="908.18" y1="182.29" x2="908.18" y2="277.08"/>
  <line class="cls-5" x1="908.18" y1="200.14" x2="943.14" y2="200.14"/>
  <line class="cls-5" x1="908.18" y1="230.28" x2="943.14" y2="230.28"/>
  <rect class="cls-6" x="1135.59" y="200.14" width="104.76" height="58.71"/>
  <rect class="cls-6" x="1077.75" y="215.19" width="30.56" height="28.92"/>
  <polygon class="cls-2" points="1062.44 260.91 1108.3 244.11 1124.28 259.97 1108.3 215.19 1124.28 198.83 1077.75 215.19 1062.44 200.14 1077.75 244.11 1062.44 260.91"/>
  <line class="cls-2" x1="1062.44" y1="260.91" x2="1077.75" y2="215.19"/>
  <line class="cls-2" x1="1062.44" y1="200.14" x2="1108.3" y2="215.19"/>
  <polyline class="cls-2" points="1124.28 198.83 1108.3 244.11 1077.75 244.11 1124.28 259.97"/>
  <polyline class="cls-5" points="1347.6 322.62 1347.6 275.77 1269.56 275.77 1269.56 182.15 1347.6 182.15 1348.09 123.36"/>
  <polyline class="cls-5" points="1463.63 175.25 1463.63 182.15 1347.6 182.15"/>
  <line class="cls-5" x1="1305.03" y1="182.15" x2="1305.03" y2="275.77"/>
  <line class="cls-5" x1="1323.89" y1="182.15" x2="1323.89" y2="275.77"/>
  <line class="cls-5" x1="1269.56" y1="201.13" x2="1305.03" y2="201.13"/>
  <line class="cls-5" x1="1269.56" y1="229.49" x2="1305.03" y2="229.49"/>
  <line class="cls-5" x1="1269.56" y1="258.85" x2="1305.03" y2="258.85"/>
  <line class="cls-5" x1="1402.44" y1="276.18" x2="1347.6" y2="275.77"/>
  <line class="cls-5" x1="1442.3" y1="182.15" x2="1442.3" y2="276.18"/>
  <line class="cls-5" x1="1347.6" y1="307.05" x2="1402.44" y2="307.05"/>
  <line class="cls-5" x1="1463.63" y1="182.15" x2="1463.63" y2="276.18"/>
  <line class="cls-5" x1="1487.62" y1="252.2" x2="1463.63" y2="252.2"/>
  <line class="cls-5" x1="1487.62" y1="228.96" x2="1463.63" y2="228.96"/>
  <line class="cls-5" x1="1487.62" y1="203.63" x2="1463.63" y2="203.63"/>
  <polyline class="cls-5" points="1424.6 182.15 1424.6 153.03 1430.83 153.03"/>
  <polyline class="cls-5" points="1402.44 123.36 1402.44 135.84 1347.6 135.84"/>
  <polyline class="cls-5" points="1545.06 273.99 1657.68 273.99 1672.67 273.99 1673.44 182.12 1545.06 182.12"/>
  <line class="cls-5" x1="1657.68" y1="182.15" x2="1657.68" y2="273.99"/>
  <line class="cls-5" x1="1630.39" y1="123.32" x2="1630.39" y2="182.12"/>
  <rect class="cls-5" x="1811.7" y="182.15" width="223.96" height="94.03"/>
  <line class="cls-5" x1="1856.04" y1="182.15" x2="1856.04" y2="276.18"/>
  <polyline class="cls-5" points="1869.59 247.99 1898.13 247.99 1898.13 265.22 1945.11 265.51 1945.11 192.29 1869.59 192.29 1869.59 247.99 1869.59 276.18"/>
  <line class="cls-5" x1="1898.13" y1="247.99" x2="1898.13" y2="192.29"/>
  <line class="cls-5" x1="1883.14" y1="247.99" x2="1883.14" y2="192.29"/>
  <line class="cls-5" x1="1995.85" y1="182.15" x2="1995.85" y2="276.18"/>
  <line class="cls-5" x1="1954.63" y1="182.15" x2="1954.63" y2="276.18"/>
  <line class="cls-5" x1="2035.67" y1="221.12" x2="1995.85" y2="221.12"/>
  <line class="cls-5" x1="1995.85" y1="252.82" x2="1954.63" y2="252.82"/>
  <path class="cls-5" d="M2174.65,215.4v28.18s35.42.38,35.42,0v-28.18h-35.42Z"/>
</svg>