<svg id="partie_1" xmlns="http://www.w3.org/2000/svg" viewBox="0 0 651.39 364.79"><defs><style>.cls-10,.cls-11,.cls-4,.cls-7,.cls-8,.cls-9{stroke:#171636}.cls-8,.cls-9{stroke-linejoin:round}.cls-10,.cls-8{stroke-linecap:round}.cls-4{fill:#1c1a35}.cls-10,.cls-11,.cls-4,.cls-7{stroke-miterlimit:10}.cls-10,.cls-11,.cls-8,.cls-9{fill:none}.cls-7{fill:#c7bead}</style></defs><path class="cls-11" d="M650.89 106.91v9.56"/><path class="cls-8" d="m637.22 99.14-33.23-10.9M558.21 77.03l-11.98 5.23-11.56-4.78"/><path d="M136.13 354.73s-15.98-3.05-31.37-5.08c-8.25-1.09-15.15-.47-21.96-2.09-20.02-4.78-62.74-21.06-70.36-29.58L.49 309.02l.15 10.9 6.01 2.59c5.54 2.39 24.38 13.44 35.37 18.02s42.9 12.88 62.14 12.7l31.67 11.05" style="fill:#f2f2f2;stroke-linecap:round;stroke-linejoin:round;stroke:#171636"/><path class="cls-11" d="m35.56 330.88-.06-8.12 36.07-16.65 50.32 15.65v11l-33.04 15.75"/><path class="cls-11" d="M86.68 348.7v-9.98l35.21-16.96 6.5 2.29 90.11-45.33 9.44 4.52 37.9-18.55M35.5 322.76l51.18 15.96"/><path class="cls-9" d="m151.45 243.34 66.67-29.01 19.38-9.21M633.25 100.81l13.16-5.55-54.98-18.19M535.27 69.87l11.17 4.28 15.27-6.92 10.19 3.37M408.87 126.06l14.58-6.4 71.78-34.33M278.56 185.61l64.89-30.83 24.25-10.64"/><path style="stroke-linecap:round;stroke-linejoin:round;stroke:#171636;fill:#f5f6f0" d="m639.65 112.32 11.24-5.41-17.64-6.1.01 8.79 6.39 2.72-503.52 242.41-.3 9.56 515.06-247.82"/><path class="cls-9" d="M110.99 260.94.5 309.02M545.73 101.28l31.5 12.31 26.76-13.63V87.22l-26.53 12.91-31.73-11.89v13.04zM589.6 76.46l-13.39 6.35-18-5.78 13.69-6.43"/><path class="cls-8" d="m571.9 70.6 1.92-.9 17.61 5.61"/><path class="cls-9" d="m589.6 76.46 1.83-.87V86.7l-15.14 7.56-18.2-6.76.06-5.12-12.42 5.86M558.21 77.03l-.12 10.64M68.63 307.66l-.03-4.97 25.78-11.78 14.97-7.46M149.73 263.32l.57-.29 7.87-2.79 13.24 3.67V256.03l32.34-16.23 9 .11h.04l.4.01v-11.78l5.22-.34 16.6 5.54M240.75 245.15V254.8l18.91 7.45 6.18 2.44.52 15.26-38.07 18.22-11.04-2.96-88.52 43.48-10.39-4.24"/><path class="cls-9" d="m240.75 235.24-7.84-.25v11.2l7.84 3.97-34.36 16.56-15.22-8.45-19.75-2.25"/><path class="cls-11" d="m213.19 228.13 19.72 6.86"/><path class="cls-4" d="m156.11 189.54-2.88 33.2c-27.7 12.7-39.45.03-39.45 0l2.44-33.33c0 8.4 34.56 10.03 39.89.13Z"/><path d="m153.23 222.74-1.78 20.6-1.72 19.98-2.84 32.79c-5.11 16.55-39.19 9.11-38.6 1.78l1.06-14.44 1.64-22.51 2.79-38.2s11.75 12.7 39.45 0Z" style="fill:#c7bead;stroke-linejoin:round;stroke:#171636"/><path class="cls-4" d="m156.22 188.22-.11 1.32c-5.33 9.9-39.89 8.27-39.89-.13 4.28-8 38.5-7.34 40-1.19Z"/><path class="cls-11" d="M156.57 188.44c-.11.38-.27.75-.46 1.1"/><path class="cls-4" d="m283.18 129.26-2.68 32.65c-21.95 13.44-37.04 4.2-39.42 2.55l2.99-33.98c.72 9.29 38.41 7.37 39.11-1.22Z"/><path class="cls-4" d="M283.18 129.26c-.7 8.59-38.39 10.51-39.11 1.22l.11-1.22c5.39-6.89 37.24-8.67 39 0Z"/><path class="cls-7" d="m280.5 161.91-1.94 23.7-.9 11.01-2.4 29.21-.97 11.87c-1.18 1.92-4.2 3.99-8.05 5.72-8.01 3.58-19.57 5.67-25.49 1.73v-9.9l-5.74-1.91 2.49-28.22 3.58-40.66c2.38 1.65 17.47 10.89 39.42-2.55Z"/><path d="M244.07 130.48c-.03-.38.01-.79.11-1.22" style="fill:#333;stroke-miterlimit:10;stroke:#171636"/><path class="cls-4" d="m413.5 67.23-2.61 33.17c-22.32 12.16-39.34.88-39.34.88l3.06-34.05c0 9.32 38.54 9.38 38.89 0Z"/><path class="cls-7" d="m410.89 100.4-2.02 25.66-.74 9.45h-.01l-1.03 13.18-.72 9.11-1 12.63-.32 4.09c-2.56 7.21-35.52 15.19-40.76 7.49l1.61-17.91 1.8-19.96 3.85-42.86s17.02 11.28 39.34-.88Z"/><path d="M413.5 67.23c-.35 9.38-38.89 9.32-38.89 0 3.48-6.84 38.7-9.01 38.89 0Z" style="fill:#1b1935;stroke-miterlimit:10;stroke:#171636"/><path d="m540.17 6.66-2.63 33.46c-8.17 9.84-38.98 3.33-38.96 3.13l2.86-36c1.4 9.22 36.53 7.57 38.73-.59Z" style="fill:#1c1a35;stroke-linejoin:round;stroke:#171636"/><path class="cls-7" d="m537.54 40.12-4.91 62.49-.76 9.73c-.45 6.56-20.06 17.61-39.61 10.32l2.97-37.33 3.35-42.08c-.02.2 30.79 6.71 38.96-3.13Z"/><path d="m540.26 5.47-.09 1.19c-2.2 8.16-37.33 9.81-38.73.59 2.04-7.5 37.74-9.65 38.82-1.78Z" style="stroke-miterlimit:10;fill:#171636;stroke:#171636"/><path class="cls-11" d="M540.26 5.47c.05.41.02.81-.09 1.19"/><path class="cls-9" d="m603.99 87.22-12.56-3.96"/><path class="cls-10" d="m532.63 102.6 16.78 6.53v14.67l-55.12 25.96-24.22-9.69V125.9l22.84-11.37"/><path class="cls-10" d="m470.07 125.9 24.22 8.86 55.12-25.63"/><path class="cls-8" d="M444.88 170.86v17.22l37.5-18.36V152.8l-37.5 18.06z"/><path class="cls-10" d="m444.88 170.86-38.51-13.07M408.13 135.51l9.12-4.05 17.47 5.72M434.72 137.18l8.79-3.66s12.63 1.08 20.35 13.21M463.86 146.73l-37.96 17.49M434.72 137.18l-27.63 11.51M444.88 188.08l-30.39-11.17M338.99 170.7v9.19l10.38 3.11"/><path class="cls-8" d="m340.51 187.85-.02 11.37 22.76 7.85v-10.85"/><path class="cls-10" d="M412.59 197.07v-12.48M363.25 207.07l21.04-11.86 15.52 5.33 8.91-4.73"/><path class="cls-10" d="M399.81 190.85c-.07.17 0 9.69 0 9.69M384.29 185.18v10.03"/><path class="cls-8" d="M323.13 218.37v4.37l24.18-11.07v-4.49l-24.18 11.19z"/><path class="cls-8" d="m347.31 207.18-22.91-8.17-22.37 9.62 21.1 9.74"/><path class="cls-10" d="M302.03 208.63v4.22l21.1 9.89M482.38 152.8l-18.52-6.07"/><path class="cls-8" d="m259.66 262.25 16.33-8.21.06-7.46 20.26 7.34 121.61-55.08-9.2-3.03"/><path class="cls-10" d="m275.99 254.04 20.32 7.83 121.57-54.8.04-8.23M296.31 253.99v7.88"/><path class="cls-8" d="m276.05 246.58 16.54-7.51v-7.4l-51.84 23.13"/><path class="cls-11" d="m292.59 231.67-17.33-5.84"/><path class="cls-9" d="M646.41 95.26V105M241.08 164.46c-.22-.15-.33-.24-.33-.24M206.39 266.72v8.19l34.36-16.98v-7.77l-17.7-8.97-10.3-1.28M171.41 263.91l47.09 14.81"/><path class="cls-8" d="m405.37 170.43 9.08 3.39-13.3 6.63 11.44 4.14-12.78 6.26-15.52-5.67-21.04 11.04-22.74-8.37 19.34-10.59-20.86-6.56 19.8-8.79 7.11 2.19"/><path class="cls-8" d="m412.59 195.21 1.9-1.24-.04-20.15"/><path class="cls-10" d="M494.29 134.76v15M577.46 100.13l-.23 13.46"/><path style="fill:none;stroke:#1b1935;stroke-miterlimit:10" d="m576.21 82.81.08 11.45"/><path class="cls-9" d="m236.26 215.39-83.03 37.66 18.18 4.88M338.79 173.82l-7.22-1.66-53.91 24.45"/><path class="cls-11" d="M153.23 261.99v-8.94"/></svg>