<svg id="partie_3" xmlns="http://www.w3.org/2000/svg" xmlns:xlink="http://www.w3.org/1999/xlink" viewBox="0 0 1008.01 494.52"><defs><linearGradient id="Dégradé_sans_nom_15" data-name="Dégradé sans nom 15" x1="416.52" y1="283.19" x2="416.52" y2="260.5" gradientUnits="userSpaceOnUse"><stop offset="0" stop-color="#333"/><stop offset="1" stop-color="#9a9a9e"/></linearGradient><linearGradient id="Dégradé_sans_nom_15-2" data-name="Dégradé sans nom 15" x1="541.14" y1="222.65" x2="541.14" y2="202.74" xlink:href="#Dégradé_sans_nom_15"/><linearGradient id="Dégradé_sans_nom_15-3" data-name="Dégradé sans nom 15" x1="592" y1="198.42" x2="592" y2="176.98" xlink:href="#Dégradé_sans_nom_15"/><linearGradient id="Dégradé_sans_nom_15-4" data-name="Dégradé sans nom 15" x1="286.87" y1="344.6" x2="286.87" y2="324.39" xlink:href="#Dégradé_sans_nom_15"/><style>.cls-4{stroke:#171636;stroke-linecap:round;stroke-linejoin:round;fill:none}</style></defs><path d="M872.74 139.72S377.48 375.27 274.42 424.14C171.36 473 1 493.95 1 493.95v-18.7c73.72-.72 213.77-45.73 213.77-45.73l3.27 7.44c3.72-.48 24.93-9.65 57.56-24.54 150.23-68.56 542.61-258.33 585.67-278.99 2.79-1.34 5.71-2.78 8.72-4.32h.01c17.57-8.93 38.51-20.91 58.65-33.65h0c2.63-1.67 5.25-3.35 7.84-5.03h0c37.85-24.6 70.81-50.91 69.96-63.17 0-.08 0-.15-.01-.22 15.05 36.24-133.7 112.68-133.7 112.68Z" style="fill:#171636;stroke-miterlimit:10;stroke:#171636;stroke-linecap:round"/><path d="M869.99 129.11c-3.01 1.54-5.93 2.98-8.72 4.32-43.06 20.66-435.44 210.43-585.67 278.99V395.1l9.9-4.68v-6.35l497.94-237.31 6.34 4.93 73.3-35.95v9.87l6.91 3.5Z" style="stroke-linejoin:round;stroke:#171636;stroke-linecap:round;fill:#f5f6f0"/><path class="cls-4" d="M870 129.11h-.01M1006.44 27.05c-.44-.76-.91-1.49-1.4-2.19-29.77-43.01-144.65 4.31-175.49 18.05"/><path class="cls-4" d="M822 41.03s169.95-77.11 183.71-18.6h0c.34 1.46.59 3 .73 4.62.01.07.01.14.01.22M165.98 347.03C262.18 298.84 699 80.94 744.24 75.06c12.56 4.63 17.18 5.95 17.18 5.95l60.26-24.15M.5 474.51s24.36-47.99 101.47-83.37c2.26.89 5.75 1.86 7.68 2.61 12.11-5.3 23.2-13.38 37.65-19.67v-17.67M928.65 95.47v-.01"/><path class="cls-4" d="M1005.71 22.43h0c.05.7-.18 1.51-.67 2.43-7.15 13.45-68.55 48.89-68.55 48.89M936.49 73.75v16.69c-2.59 1.68-5.21 3.36-7.84 5.02V82.28l-31.94-9.48v11.98l-33.28-10.65V61.89l-32.47-9.85v12.77l-9.28-2.26v-5.68l.21-10.45.11-5.39 7.55 1.88 19.91 4.96v7.18l5.65 1.77v-7.15l50.61 15.14v7.84l5.8 1.82v-7.41l24.97 6.69ZM761.42 81.01l17.52 6.44 22.01-10.81 28.81 10.81v5.6h4s0 10.81-2 12.01c12.01 3.2 31.32 10.69 31.32 10.69M275.6 395.11l-128.3-38.7 19.39-4.95-.71-4.43 119.53 37.04M101.97 391.13l112.8 38.4M830.96 64.81l14.01-8.53M896.71 84.78l14.64-7.64M414.77 322.47l-37.06-12.01-26.52 13.93-7.96-1.8-89.03 42.96-39.43-12.28 90.19-43.57-6.44-1.51 29.94-14.02-34.26-10.93M626.29 187.49l-215.2 103.49-39-12.28"/><path class="cls-4" d="m381.36 240.34 16.04 5.79-50.62 24.72 25.31 7.85 212.66-103.59M501.03 281.35l-18.14-5.87-49.21 22.37-22.59-6.87M440.55 249.69l39.32-19.49 29.73 8.31-39.96 19.82-29.09-8.64zM783.44 146.76l-25.07-8.68 20.97-8.33 35.2-15.59-9.45-2.92 12.43-5.96-18.39-5.47 30.63-12.36M814.54 114.16v13.82"/><path class="cls-4" d="M817.52 105.28v11.83l6.05 1.46.07 4.86-44.04 22-.26-15.68M833.52 99.81l-16 7.07M823.57 118.57l-9.03 3.55M817.52 117.11l-2.98 1.35M571.01 148.99l23.69 7.4-27.2 13.09 17.25 5.63M626.29 187.49l16.76 5.16 26.19-11.41 24.46 8.29"/><path style="fill:url(#Dégradé_sans_nom_15);stroke-linejoin:round;stroke:#171636;stroke-linecap:round" d="m388.97 274.09 28.54-13.59 26.55 8.28-28.81 14.41-26.28-9.1z"/><path class="cls-4" d="M417.51 282.06V260.5"/><path style="fill:url(#Dégradé_sans_nom_15-2);stroke-linejoin:round;stroke:#171636;stroke-linecap:round" d="m517.08 214.35 22.56-11.61 25.56 7.63-24.06 12.28-24.06-8.3z"/><path class="cls-4" d="m541.14 222.65-1.5-19.91"/><path style="fill:url(#Dégradé_sans_nom_15-3);stroke-linejoin:round;stroke:#171636;stroke-linecap:round" d="m618.79 185.26-27.75 13.16-25.84-8.96 25.84-12.48 27.75 8.28z"/><path class="cls-4" d="M591.04 197.77v-20.79"/><path style="fill:url(#Dégradé_sans_nom_15-4);stroke-linejoin:round;stroke:#171636;stroke-linecap:round" d="m262.16 335.17 23.35-10.78 26.06 8.51-23.4 11.7-26.01-9.43z"/><path class="cls-4" d="M285.51 343.63v-19.24M783.33 127.98l-80.96-25.69 31.43-14.84 19.36 6.14 10.43-5.86 35.54 12.08M666.2 105.28l42.14 15.07-5.97 3.74 26.37 9.6 8.1-4.2 21.53 8.59"/><path class="cls-4" d="m735.33 169.69-95.69-35.1 12-5.1s3-9.04 16.2-7.37c9.3-5.23 18.03-9.81 18.03-9.81M275.6 412.42l-128.3-38.34M314.77 289.8l36.06-17.69M388.97 314.11l37.66-18.4M644.38 136.34l-35.98 17.27 17.89 5.86-4.99 2.58 24.81 7.64 5.66-1.61 26.24 7.03-8.77 6.13"/></svg>