<?xml version="1.0" encoding="UTF-8"?>
<svg id="Layer_1" xmlns="http://www.w3.org/2000/svg" version="1.1" viewBox="0 0 2858 478.1">
  <!-- Generator: Adobe Illustrator 29.1.0, SVG Export Plug-In . SVG Version: 2.1.0 Build 142)  -->
  <defs>
    <style>
      .st0 {
        stroke: #173387;
      }

      .st0, .st1, .st2 {
        fill: none;
        stroke-miterlimit: 10;
      }

      .st0, .st2 {
        stroke-width: 2px;
      }

      .st3 {
        fill: #171636;
      }

      .st4 {
        fill: #173387;
      }

      .st1, .st2 {
        stroke: #171636;
      }
    </style>
  </defs>
  <g id="_2eme_plan">
    <polygon class="st2" points="2715.6 299.8 2857 299.8 2857 184.8 2715.6 184.8 2715.6 113.8 2651.3 113.8 2651.3 78.3 2619.9 78.3 2619.9 1 1 1 1 477.1 2624.3 477.1 2624.3 406 2651.4 406 2651.4 374.5 2716 374.5 2715.6 299.8"/>
    <path class="st2" d="M2510.7,325.1h48.3v-162.8h-48.3v-87.9h-24.1c-1.9,0-22.6-22.6-22.6-22.6h-64.1l-22.1,22.1h-23.1v20.9h-30.3l-19.5-19.5h-67.2l-17.8,17.8h-69.5l-20.2-20.2h-67.1l-21.2,21.2h-111.3v-25.9h-94.7v68.1h-281.1v-45.2h-120.1l-17.6-17.6h-57.9l-15.9,15.9h-20.6s-15.6-13-15.6-15.6-59.4,0-59.4,0l-17.6,17.6h-51.7v62.8h-377v-60.7h-175.2v-13.6H46v315.8h578.3v-9.3h175.8v-91h159.7v94.1h89.8c20.4,21.7,78,31,111.4,2.5,26.6-.6,73.1,0,73.1,0l16.4,16.4h58.5l17.8-17.8h15.6l18.3,18.3h57.2l17.4-17.5h118.1v-65.7h283.6v88.5h92.9v-24.8h112.1l21.4,21.4h67.2l20.9-20.9h63.9l21.1,21.1h68l22.6-22.6h28.2v21.4h21.7l21.1,21h67.5l21.7-21.7h23.5v-84.2h0Z"/>
    <path class="st1" d="M2354.7,94.8v94h-28.4v105.9h28.4s-.6,93.8,0,93.8"/>
    <polyline class="st1" points="2510.7 325.1 2510.7 293.6 2354.7 293.6"/>
    <polyline class="st1" points="2493.4 293.6 2493.4 189.8 2378.3 189.8 2372 206.6 2372 277.5 2379 293.6"/>
    <line class="st1" x1="2510.7" y1="189.8" x2="2510.7" y2="162.3"/>
    <line class="st1" x1="2493.4" y1="189.8" x2="2559" y2="189.8"/>
    <line class="st1" x1="2510.7" y1="293.6" x2="2559" y2="293.6"/>
    <polyline class="st1" points="2378.3 189.8 2354.7 188.8 2354.7 216.1 2344.8 228.4 2326.3 228.4"/>
    <polyline class="st1" points="2009.8 94.8 2009.8 188.8 2168.5 188.8 2168.5 293.6 2009.8 293.6 2009.8 389.5"/>
    <line class="st1" x1="2009.8" y1="188.8" x2="2009.8" y2="293.6"/>
    <polyline class="st1" points="1930 389.5 1930 348.5 1837.1 348.5"/>
    <path class="st1" d="M1930.6,94.1v42.4h-94.7v52.2h18.6v104.9h-477.3v-5.6s54.1-47.3,0-94.2v-5h270.6s.6,104.8,0,104.8"/>
    <path class="st2" d="M1930,188.8c-7.7,24.2-39.7,34.5-46.7,34.5-.6-14.1,0-34.5,0-34.5h78.4v104.9h-78.7v-34.4s39.3,6.7,47,34.4c22.7-14.1,49.3-64.2,0-104.9h0Z"/>
    <polyline class="st1" points="1835.9 293.6 1835.9 188.8 1710.8 188.8"/>
    <line class="st1" x1="1710.8" y1="136.3" x2="1710.8" y2="293.6"/>
    <line class="st1" x1="1789.2" y1="136.3" x2="1789.2" y2="188.8"/>
    <polyline class="st1" points="1576.5 188.9 1576.5 136.3 1490.8 136.3 1490.8 188.8"/>
    <line class="st1" x1="1490.8" y1="91.1" x2="1490.8" y2="136.3"/>
    <line class="st1" x1="1522.3" y1="188.9" x2="1522.3" y2="136.3"/>
    <line class="st1" x1="1592.4" y1="293.6" x2="1592.4" y2="188.8"/>
    <line class="st1" x1="1467.8" y1="293.6" x2="1467.8" y2="188.9"/>
    <line class="st1" x1="1443.7" y1="293.6" x2="1443.7" y2="188.9"/>
    <line class="st1" x1="1405.8" y1="293.6" x2="1405.8" y2="188.9"/>
    <line class="st1" x1="1443.7" y1="271.6" x2="1405.8" y2="271.6"/>
    <line class="st1" x1="1443.7" y1="241.2" x2="1405.8" y2="241.2"/>
    <line class="st1" x1="1443.7" y1="210.7" x2="1405.8" y2="210.7"/>
    <line class="st1" x1="1621" y1="293.6" x2="1621" y2="188.9"/>
    <line class="st1" x1="1647.9" y1="209.2" x2="1621" y2="209.2"/>
    <line class="st1" x1="1648" y1="241.4" x2="1621" y2="241.4"/>
    <line class="st1" x1="1647.9" y1="271.6" x2="1621" y2="271.6"/>
    <polyline class="st1" points="1381.3 284 1381.3 258.1 1388.4 258.1 1388.4 224 1380.4 224 1380.4 196.8"/>
    <line class="st1" x1="1601.4" y1="325.8" x2="1601.4" y2="293.6"/>
    <line class="st1" x1="1487.3" y1="391.5" x2="1487.3" y2="293.6"/>
    <line class="st1" x1="1553.6" y1="325.8" x2="1487.3" y2="325.8"/>
    <line class="st1" x1="1443.7" y1="391.5" x2="1443.7" y2="344.4"/>
    <line class="st1" x1="1335.4" y1="390.6" x2="1335.4" y2="344.4"/>
    <line class="st1" x1="1224.3" y1="391.9" x2="1224.3" y2="344.4"/>
    <line class="st1" x1="1443.7" y1="136.3" x2="1443.7" y2="91.1"/>
    <line class="st1" x1="1333.1" y1="89.4" x2="1333.1" y2="136.3"/>
    <path class="st1" d="M1224.3,91.5s0,46.2,0,44.8"/>
    <line class="st1" x1="1178.4" y1="154.3" x2="1178.4" y2="391.8"/>
    <polyline class="st1" points="1178.4 188.9 801.5 188.9 800.1 295.4"/>
    <polyline class="st1" points="1045.3 188.9 1045.3 295 959.8 295.4"/>
    <line class="st1" x1="982.1" y1="188.9" x2="982.1" y2="295.3"/>
    <line class="st1" x1="1005.3" y1="188.9" x2="1005.3" y2="295.2"/>
    <line class="st1" x1="1045.3" y1="271.6" x2="1005.3" y2="271.6"/>
    <line class="st1" x1="1045.3" y1="210.7" x2="1005.3" y2="210.7"/>
    <line class="st1" x1="1045.3" y1="240.4" x2="1005.3" y2="240.4"/>
    <line class="st1" x1="1037.3" y1="295" x2="1037.3" y2="312.5"/>
    <line class="st1" x1="1035.6" y1="389.5" x2="1035.6" y2="374"/>
    <line class="st1" x1="855.2" y1="188.9" x2="855.2" y2="295.3"/>
    <line class="st1" x1="831" y1="188.9" x2="831" y2="295.4"/>
    <line class="st1" x1="800.4" y1="273" x2="831" y2="273"/>
    <line class="st1" x1="800.8" y1="240.4" x2="831" y2="240.4"/>
    <line class="st1" x1="801.2" y1="206.6" x2="831" y2="206.6"/>
    <polyline class="st1" points="801.3 130.2 769.3 130.2 769.3 93.6"/>
    <polyline class="st1" points="800.1 351.6 769.3 351.6 769.3 386.4"/>
    <polyline class="st1" points="624.3 386.4 624.3 338.5 561.7 338.5 561.7 315.3 499.2 315.3 499.2 329.1 484.7 329.1 484.7 315.3 422.3 315.3 422.3 395.7"/>
    <path class="st2" d="M655.2,218.4v-32.2h40.4s4.4,29-40.4,32.2Z"/>
    <path class="st2" d="M655.2,260.6v34.6h40.5s4.9-34-40.5-34.6Z"/>
    <rect class="st1" x="587" y="186.2" width="37.2" height="105.3"/>
    <line class="st1" x1="624.3" y1="256.4" x2="587" y2="256.4"/>
    <line class="st1" x1="624.3" y1="218.4" x2="587" y2="218.4"/>
    <rect class="st1" x="499.4" y="186.2" width="30.9" height="105.3"/>
    <line class="st1" x1="530.3" y1="256.4" x2="499.4" y2="256.4"/>
    <line class="st1" x1="530.3" y1="218.4" x2="499.4" y2="218.4"/>
    <polyline class="st1" points="626.1 93.6 626.1 139.5 562.4 139.5 562.4 161.6 499.4 161.6 499.4 80"/>
    <line class="st1" x1="562.4" y1="139.5" x2="562.4" y2="80"/>
    <line class="st1" x1="577.6" y1="139.5" x2="577.6" y2="80"/>
    <line class="st1" x1="562.4" y1="120.8" x2="499.4" y2="120.8"/>
    <line class="st1" x1="577.6" y1="338.5" x2="577.6" y2="395.7"/>
    <line class="st1" x1="561.7" y1="338.5" x2="561.7" y2="395.7"/>
    <line class="st1" x1="499.2" y1="329.1" x2="499.2" y2="395.7"/>
    <line class="st1" x1="484.7" y1="329.1" x2="484.7" y2="395.7"/>
    <line class="st1" x1="561.7" y1="358.4" x2="499.4" y2="358.4"/>
    <polyline class="st1" points="484.7 80 484.7 161.6 422.3 161.6 422.3 80"/>
    <line class="st1" x1="499.4" y1="149.6" x2="484.7" y2="149.6"/>
    <rect class="st1" x="139.1" y="186.2" width="345.6" height="105.3"/>
    <line class="st1" x1="430.8" y1="291.6" x2="430.8" y2="186.2"/>
    <line class="st1" x1="390.3" y1="291.6" x2="390.3" y2="186.2"/>
    <line class="st1" x1="430.8" y1="206.6" x2="390.3" y2="206.6"/>
    <line class="st1" x1="430.8" y1="238.9" x2="390.3" y2="238.9"/>
    <line class="st1" x1="430.8" y1="270.7" x2="390.3" y2="270.7"/>
    <line class="st1" x1="366.6" y1="291.6" x2="366.6" y2="186.2"/>
    <line class="st1" x1="238.3" y1="291.6" x2="238.3" y2="186.2"/>
    <line class="st1" x1="218.3" y1="291.6" x2="218.3" y2="186.2"/>
    <line class="st1" x1="185.7" y1="291.6" x2="185.7" y2="186.2"/>
    <line class="st1" x1="218.3" y1="206.6" x2="185.7" y2="206.6"/>
    <line class="st1" x1="218.3" y1="238.9" x2="185.7" y2="238.9"/>
    <line class="st1" x1="218.3" y1="270.7" x2="185.7" y2="270.7"/>
    <polyline class="st1" points="405.6 80 405.6 164.1 295.9 164.1 295.9 80"/>
    <line class="st1" x1="350.8" y1="80" x2="350.8" y2="164.1"/>
    <line class="st1" x1="405.6" y1="122" x2="295.9" y2="122"/>
    <line class="st1" x1="484.7" y1="120.8" x2="422.3" y2="120.8"/>
    <polyline class="st1" points="279.4 80 279.4 164.1 171.2 164.1 171.2 80"/>
    <line class="st1" x1="225.3" y1="80" x2="225.3" y2="164.1"/>
    <line class="st1" x1="279.4" y1="120.8" x2="171.2" y2="120.8"/>
    <line class="st1" x1="100.2" y1="80" x2="100.2" y2="164.1"/>
    <line class="st1" x1="154.5" y1="120.8" x2="100.2" y2="120.8"/>
    <polyline class="st1" points="46 186.2 124.6 186.2 124.6 291.6 46 291.6"/>
    <line class="st1" x1="46" y1="238.9" x2="124.6" y2="238.9"/>
    <line class="st1" x1="100.2" y1="395.7" x2="100.2" y2="315.3"/>
    <line class="st1" x1="154.5" y1="358.4" x2="100.2" y2="358.4"/>
    <polyline class="st1" points="279.9 395.7 279.9 315.3 169.4 315.3 169.4 395.7"/>
    <line class="st1" x1="224.6" y1="395.7" x2="224.6" y2="315.3"/>
    <line class="st1" x1="279.9" y1="358.4" x2="169.4" y2="358.4"/>
    <polyline class="st1" points="405.2 395.7 405.2 315.3 296.5 315.3 296.5 395.7"/>
    <line class="st1" x1="350.8" y1="395.7" x2="350.8" y2="315.3"/>
    <line class="st1" x1="405.2" y1="358.4" x2="296.5" y2="358.4"/>
    <line class="st1" x1="484.7" y1="358.4" x2="421" y2="358.4"/>
    <polyline class="st1" points="169.4 1 154.5 32.4 154.5 80 154.5 164.1 46 164.1"/>
    <polyline class="st1" points="169.4 477.1 154.5 447.5 154.5 395.7 154.5 315.3 46 315.3"/>
  </g>
  <g id="points">
    <path class="st3" d="M532.1,154.2c3,0,6.3-1.3,8.4-3.5s3.6-5.4,3.5-8.4c-.3-6.4-5.2-11.9-11.9-11.9s-6.3,1.3-8.4,3.5-3.6,5.4-3.5,8.4c.3,6.4,5.2,11.9,11.9,11.9h0Z"/>
    <path class="st4" d="M198.5,154.2c3.1,0,6.3-1.3,8.4-3.5s3.6-5.4,3.5-8.4c-.3-6.4-5.2-11.9-11.9-11.9s-6.3,1.3-8.4,3.5-3.6,5.4-3.5,8.4c.3,6.4,5.2,11.9,11.9,11.9h0Z"/>
    <circle class="st0" cx="197.4" cy="141.7" r="20.8"/>
    <path class="st4" d="M457.4,345.3c3,0,6.3-1.3,8.4-3.5s3.6-5.5,3.5-8.4c-.3-6.5-5.2-11.9-11.9-11.9s-6.3,1.3-8.4,3.5-3.6,5.5-3.5,8.4c.3,6.5,5.2,11.9,11.9,11.9h0Z"/>
    <circle class="st0" cx="456.2" cy="332.8" r="20.8"/>
    <path class="st4" d="M604.6,381.6c3,0,6.3-1.3,8.4-3.5s3.6-5.5,3.5-8.4c-.3-6.5-5.2-11.9-11.9-11.9s-6.3,1.3-8.4,3.5-3.6,5.5-3.5,8.4c.3,6.5,5.2,11.9,11.9,11.9h0Z"/>
    <circle class="st0" cx="603.5" cy="369" r="20.8"/>
    <path class="st4" d="M532,390.3c3,0,6.3-1.3,8.4-3.5s3.6-5.5,3.5-8.4c-.3-6.5-5.2-11.9-11.9-11.9s-6.3,1.3-8.4,3.5-3.6,5.5-3.5,8.4c.3,6.5,5.2,11.9,11.9,11.9h0Z"/>
    <circle class="st0" cx="530.9" cy="377.8" r="20.8"/>
    <path class="st4" d="M252.8,346c3.1,0,6.3-1.3,8.4-3.5s3.6-5.5,3.5-8.4c-.3-6.5-5.2-11.9-11.9-11.9s-6.3,1.3-8.4,3.5-3.6,5.5-3.5,8.4c.3,6.5,5.2,11.9,11.9,11.9h0Z"/>
    <circle class="st0" cx="251.6" cy="333.4" r="20.8"/>
    <path class="st3" d="M325.5,391.1c3,0,6.3-1.3,8.4-3.5s3.6-5.5,3.5-8.4c-.3-6.5-5.2-11.9-11.9-11.9s-6.3,1.3-8.4,3.5-3.6,5.5-3.5,8.4c.3,6.5,5.2,11.9,11.9,11.9h0Z"/>
    <path class="st3" d="M455.3,385.9c3,0,6.3-1.3,8.4-3.5s3.6-5.5,3.5-8.4c-.3-6.5-5.2-11.9-11.9-11.9s-6.3,1.3-8.4,3.5-3.6,5.5-3.5,8.4c.3,6.5,5.2,11.9,11.9,11.9h0Z"/>
    <circle class="st2" cx="325.5" cy="379.1" r="19"/>
    <path class="st3" d="M325.5,349.6c3,0,6.3-1.3,8.4-3.5s3.6-5.5,3.5-8.4c-.3-6.5-5.2-11.9-11.9-11.9s-6.3,1.3-8.4,3.5-3.6,5.5-3.5,8.4c.3,6.5,5.2,11.9,11.9,11.9h0Z"/>
    <circle class="st2" cx="325.5" cy="337.7" r="19"/>
  </g>
</svg>