<?xml version="1.0" encoding="UTF-8"?><svg xmlns="http://www.w3.org/2000/svg" viewBox="0 0 4425.11 483.03"><defs><style>.cls-1{stroke:#173387;}.cls-1,.cls-2,.cls-3{fill:none;stroke-miterlimit:10;}.cls-1,.cls-3{stroke-width:2px;}.cls-4{fill:#173387;}.cls-5{fill:#c7bead;}.cls-2,.cls-3{stroke:#1d1c38;}</style></defs><g id="_5eme_plan"><path class="cls-3" d="M1484.98,479.94c541.3,4.07,1153.76,1.87,1806.22-3.85,411.74.54,789.04-48.4,1131.82-234.59C4080.24,55.31,3702.95,6.4,3291.21,6.94,2638.75,1.22,2026.28-.98,1484.99,3.09,891.1-2.25,441.08,119.53,3.72,241.5c437.36,121.97,887.37,243.77,1481.26,238.44Z"/><polygon class="cls-2" points="4305.54 278.46 4233.83 303.64 4233.83 239.64 4305.54 239.64 4305.54 278.46"/><polygon class="cls-2" points="4223.46 306.9 4155.02 329.12 4155.02 260.98 4223.46 260.98 4223.46 306.9"/><polygon class="cls-2" points="4143.17 332.38 4076.5 354.61 4076.5 267.2 4143.17 267.2 4143.17 332.38"/><polygon class="cls-2" points="4062.57 359.35 4062.57 302.16 3990.28 302.16 3990.28 379.79 4062.57 359.35"/><polygon class="cls-2" points="3977.24 382.98 3977.24 296.09 3933.24 296.09 3933.24 394.53 3977.24 382.98"/><rect class="cls-2" x="3933.24" y="239.64" width="129.33" height="46.44"/><polygon class="cls-2" points="4305.54 200.83 4233.83 175.64 4233.83 239.64 4305.54 239.64 4305.54 200.83"/><polygon class="cls-2" points="4223.46 172.38 4155.02 150.16 4155.02 218.31 4223.46 218.31 4223.46 172.38"/><polygon class="cls-2" points="4142.13 143.48 4075.46 124.68 4075.46 198.65 4142.13 198.65 4142.13 143.48"/><polygon class="cls-2" points="4062.57 119.94 4062.57 177.12 3990.28 177.12 3990.28 99.49 4062.57 119.94"/><polygon class="cls-2" points="3977.24 96.31 3977.24 183.2 3933.24 183.2 3933.24 84.75 3977.24 96.31"/><rect class="cls-2" x="3933.24" y="193.2" width="129.33" height="46.44"/><polygon class="cls-2" points="3869.91 239.64 3869.91 286.09 3808.57 286.09 3808.57 293.12 3727.24 293.12 3727.24 239.64 3869.91 239.64"/><polygon class="cls-2" points="3869.91 239.64 3869.91 193.2 3808.57 193.2 3808.57 186.16 3727.24 186.16 3727.24 239.64 3869.91 239.64"/><polygon class="cls-2" points="3869.91 81.27 3821.31 69.27 3821.31 163.49 3869.91 163.49 3869.91 81.27"/><polygon class="cls-2" points="3805.76 69.27 3711.96 47.05 3711.96 163.49 3805.76 163.49 3805.76 69.27"/><polygon class="cls-2" points="3869.91 409.27 3805.76 425.27 3805.76 304.38 3869.91 304.38 3869.91 409.27"/><polygon class="cls-2" points="3790.5 427.2 3711.68 439.64 3711.68 316.68 3790.5 316.68 3790.5 427.2"/><polygon class="cls-2" points="3600.28 316.68 3696.72 316.68 3696.72 442.01 3600.28 454.75 3600.28 316.68"/><polygon class="cls-2" points="3587.83 454.75 3490.05 464.53 3490.05 316.68 3587.83 316.68 3587.83 454.75"/><polygon class="cls-2" points="3474.94 464.53 3425.61 467.64 3425.61 316.68 3474.94 316.68 3474.94 464.53"/><rect class="cls-2" x="3320.5" y="318.75" width="93.41" height="54.52"/><rect class="cls-2" x="3585.46" y="186.16" width="111.26" height="106.96"/><rect class="cls-2" x="3507.24" y="188.68" width="63.56" height="104.44"/><rect class="cls-2" x="3445.02" y="188.68" width="50.67" height="104.44"/><polygon class="cls-2" points="3698.35 47.05 3604.13 31.94 3604.13 148.83 3698.35 148.83 3698.35 47.05"/><polygon class="cls-2" points="3587.24 163.49 3474.35 163.49 3474.35 22.16 3587.24 30.61 3587.24 163.49"/><rect class="cls-2" x="3397.31" y="22.16" width="64.59" height="141.33"/><polygon class="cls-2" points="3382.43 22.16 3320.5 18.98 3320.5 187.27 3382.43 187.27 3382.43 22.16"/><rect class="cls-2" x="3063.46" y="130.98" width="221.04" height="221.04"/><polygon class="cls-2" points="3063.46 352.01 3063.46 377.49 2703.17 377.49 2703.17 106.09 3063.46 106.09 3063.46 130.98 3063.46 352.01"/><rect class="cls-2" x="2543.17" y="137.49" width="76.44" height="208"/><rect class="cls-2" x="2329.77" y="137.49" width="176" height="208"/><rect class="cls-2" x="1724.94" y="138.38" width="360.3" height="208.59"/><rect class="cls-2" x="1331.46" y="27.27" width="171.56" height="72"/><rect class="cls-2" x="1331.46" y="148.75" width="146.67" height="189.04"/><rect class="cls-2" x="858.87" y="191.42" width="155.85" height="104.3"/><rect class="cls-2" x="574.8" y="191.42" width="72" height="104.37"/><polygon class="cls-2" points="239.76 288.01 239.76 288.01 177.09 269.12 177.09 217.79 239.76 200.01 239.76 288.01"/><rect class="cls-2" x="662.65" y="191.42" width="84" height="104.3"/><rect class="cls-2" x="795.09" y="191.42" width="63.78" height="104.3"/><polygon class="cls-2" points="746.65 295.72 783.09 295.72 783.09 66.31 746.65 73.86 746.65 191.42 746.65 295.72"/><rect class="cls-2" x="675.98" y="119.64" width="70.67" height="53.78"/><polygon class="cls-2" points="746.65 406.16 746.65 319.94 662.65 319.94 662.65 390.61 746.65 406.16"/><polygon class="cls-2" points="746.65 406.16 783.09 413.27 783.09 319.94 746.65 319.94 746.65 406.16"/><polygon class="cls-2" points="646.8 387.27 573.54 369.94 573.54 311.27 646.8 311.27 646.8 387.27"/><rect class="cls-2" x="2820.29" y="8.31" width="108" height="81.33"/><rect class="cls-2" x="3204.35" y="18.98" width="84.42" height="89.78"/><rect class="cls-2" x="3140.35" y="18.98" width="46.22" height="89.78"/><rect class="cls-2" x="3204.8" y="373.27" width="83.98" height="96.67"/><rect class="cls-2" x="3140.35" y="373.27" width="46.22" height="96.67"/><line class="cls-2" x1="177.09" y1="289.29" x2="177.09" y2="193.72"/><line class="cls-2" x1="239.76" y1="306.04" x2="239.76" y2="176.96"/><polyline class="cls-2" points="675.98 119.64 662.65 119.64 662.65 79.35"/><line class="cls-2" x1="563.88" y1="384.13" x2="563.88" y2="99.5"/><line class="cls-2" x1="522.85" y1="375.25" x2="522.85" y2="107.76"/><polyline class="cls-2" points="457.61 360.45 457.61 279.86 393.13 279.86 393.13 205.47 404.48 205.47 404.48 135.65"/><polyline class="cls-2" points="457.61 122.56 457.61 204.84 404.48 204.84"/><line class="cls-2" x1="457.61" y1="279.86" x2="457.61" y2="204.84"/><polyline class="cls-2" points="469.41 119.64 469.41 191.42 522.85 191.42 563.88 191.42"/><polyline class="cls-2" points="563.88 295.72 522.85 295.79 469.41 295.79 469.41 363.05"/><line class="cls-2" x1="563.88" y1="244.01" x2="522.85" y2="244.01"/><line class="cls-2" x1="563.88" y1="319.94" x2="522.85" y2="319.94"/><line class="cls-2" x1="563.88" y1="260.2" x2="522.85" y2="260.2"/><line class="cls-2" x1="563.88" y1="225.03" x2="522.85" y2="225.03"/><line class="cls-2" x1="563.88" y1="163.7" x2="522.85" y2="163.7"/><line class="cls-2" x1="610.8" y1="311.27" x2="610.8" y2="378.75"/><line class="cls-2" x1="646.8" y1="349.27" x2="610.8" y2="349.27"/><polyline class="cls-2" points="646.8 81.97 646.8 163.7 601.9 163.7 601.9 90.95"/><line class="cls-2" x1="646.8" y1="119.64" x2="601.9" y2="119.64"/><line class="cls-2" x1="610.8" y1="295.79" x2="610.8" y2="191.42"/><line class="cls-2" x1="646.8" y1="242.35" x2="574.8" y2="242.35"/><line class="cls-2" x1="646.8" y1="270.91" x2="574.8" y2="270.91"/><line class="cls-2" x1="646.8" y1="220.69" x2="573.54" y2="220.69"/><line class="cls-2" x1="746.65" y1="366.61" x2="662.65" y2="366.61"/><line class="cls-2" x1="695.59" y1="319.94" x2="695.59" y2="366.61"/><line class="cls-2" x1="783.09" y1="343.27" x2="746.65" y2="343.27"/><line class="cls-2" x1="783.09" y1="381.61" x2="746.65" y2="381.61"/><line class="cls-2" x1="783.09" y1="260.2" x2="746.65" y2="260.2"/><line class="cls-2" x1="783.09" y1="230.83" x2="746.65" y2="230.83"/><line class="cls-2" x1="783.09" y1="191.42" x2="746.65" y2="191.42"/><line class="cls-2" x1="783.09" y1="155.53" x2="746.65" y2="155.53"/><line class="cls-2" x1="746.65" y1="119.64" x2="783.09" y2="119.64"/><polyline class="cls-2" points="892.05 442.01 892.05 360.45 842.12 360.45 842.12 340.36 798.45 340.36 798.45 428.04"/><polyline class="cls-2" points="845.25 435.29 845.25 387.27 842.12 378.75 842.12 360.45"/><line class="cls-2" x1="798.45" y1="370.31" x2="842.12" y2="370.31"/><polyline class="cls-2" points="858.87 191.42 858.87 173.42 814.04 173.42 814.04 122.83 955.01 122.83 955.01 112.88 908.44 112.88 908.44 38.94"/><polyline class="cls-2" points="892.05 41.01 892.05 111.64 798.45 111.64 798.45 54.98"/><polyline class="cls-2" points="907.17 444.06 907.17 391.18 970.54 391.18 970.54 378.75 1050.03 378.75 1050.03 460.69"/><polyline class="cls-2" points="1017.74 345.01 1017.74 322.79 940.11 322.79 940.11 343.27 1014.72 343.27"/><line class="cls-2" x1="892.05" y1="191.42" x2="892.05" y2="122.83"/><polyline class="cls-2" points="892.05 173.42 940.11 173.42 940.11 142.69 955.01 142.69 955.01 122.83"/><polyline class="cls-2" points="955.01 142.69 1003.45 142.69 1003.45 85.56 982.34 85.56 982.34 29.94"/><polyline class="cls-2" points="955.01 32.83 955.01 112.88 1003.45 112.88"/><line class="cls-2" x1="908.44" y1="76.33" x2="955.01" y2="76.33"/><polyline class="cls-2" points="1003.45 85.56 1017.74 85.56 1017.74 27.27"/><polyline class="cls-2" points="1050.03 22.34 1050.03 125.92 1017.74 125.92 1017.74 85.56 1050.03 85.56"/><polyline class="cls-2" points="1033.88 125.92 1033.88 243.27 1014.72 243.27"/><line class="cls-2" x1="955.01" y1="151.6" x2="1033.88" y2="151.6"/><line class="cls-2" x1="845.25" y1="173.42" x2="845.25" y2="122.83"/><line class="cls-2" x1="1017.74" y1="457.37" x2="1017.74" y2="378.75"/><line class="cls-2" x1="1050.03" y1="419.72" x2="1017.74" y2="419.72"/><line class="cls-2" x1="970.54" y1="391.18" x2="970.54" y2="452.06"/><polyline class="cls-2" points="1128.39 15.39 1128.39 125.92 1064.78 125.92 1064.78 41.01 1072.07 35.78 1072.07 20.22"/><line class="cls-2" x1="1128.39" y1="82.82" x2="1064.78" y2="82.82"/><line class="cls-2" x1="1101.22" y1="125.92" x2="1101.22" y2="82.82"/><polyline class="cls-2" points="1142.26 14.32 1142.26 125.92 1208.7 125.92 1208.7 9.87"/><polyline class="cls-2" points="1221.63 9.13 1221.63 122.83 1286.15 122.83 1286.15 82.82 1299.06 82.82 1299.06 5.59"/><line class="cls-2" x1="1208.7" y1="82.82" x2="1142.26" y2="82.82"/><line class="cls-2" x1="1175.48" y1="125.92" x2="1175.48" y2="11.96"/><line class="cls-2" x1="1253.88" y1="122.83" x2="1253.88" y2="7.48"/><line class="cls-2" x1="1286.15" y1="82.82" x2="1221.63" y2="82.82"/><rect class="cls-2" x="1064.78" y="146.53" width="63.61" height="44.89" transform="translate(2193.18 337.95) rotate(180)"/><rect class="cls-2" x="1142.26" y="148.75" width="62.41" height="42.67" transform="translate(2346.93 340.17) rotate(180)"/><rect class="cls-2" x="1221.63" y="148.75" width="64.51" height="42.67" transform="translate(2507.78 340.17) rotate(180)"/><rect class="cls-2" x="1064.78" y="191.42" width="234.27" height="104.3" transform="translate(2363.84 487.14) rotate(180)"/><rect class="cls-2" x="1064.78" y="295.72" width="63.61" height="42.84" transform="translate(2193.18 634.27) rotate(180)"/><rect class="cls-2" x="1142.26" y="295.72" width="64.64" height="42.84" transform="translate(2349.16 634.27) rotate(180)"/><rect class="cls-2" x="1221.63" y="295.72" width="32.24" height="42.07" transform="translate(2475.51 633.51) rotate(180)"/><line class="cls-2" x1="1253.88" y1="191.42" x2="1253.88" y2="148.75"/><line class="cls-2" x1="1175.48" y1="191.42" x2="1175.48" y2="148.13"/><line class="cls-2" x1="1096.59" y1="191.42" x2="1096.59" y2="146.53"/><line class="cls-2" x1="1096.59" y1="337.79" x2="1096.59" y2="295.72"/><line class="cls-2" x1="1174.58" y1="337.79" x2="1174.58" y2="295.72"/><line class="cls-2" x1="1142.26" y1="191.42" x2="1142.26" y2="295.72"/><line class="cls-2" x1="1299.06" y1="477.44" x2="1299.06" y2="76.33"/><polyline class="cls-2" points="1253.88 337.79 1268.15 345.01 1268.15 358.49 1221.63 358.49 1221.63 473.89"/><polyline class="cls-2" points="1253.88 475.55 1253.88 393.77 1299.06 393.77"/><line class="cls-2" x1="1268.15" y1="345.01" x2="1299.06" y2="345.01"/><line class="cls-2" x1="1268.15" y1="358.49" x2="1299.06" y2="358.49"/><polyline class="cls-2" points="1221.63 393.77 1253.88 393.77 1253.88 358.49"/><line class="cls-2" x1="1253.88" y1="404.04" x2="1221.63" y2="404.04"/><polyline class="cls-2" points="1204.67 472.92 1204.67 358.49 1142.26 358.49 1142.26 468.7"/><line class="cls-2" x1="1174.58" y1="471.01" x2="1174.58" y2="358.49"/><line class="cls-2" x1="1204.67" y1="393.77" x2="1142.26" y2="393.77"/><polyline class="cls-2" points="1128.39 467.63 1128.39 393.77 1128.39 356.46 1064.78 356.46 1064.78 435.29 1072.67 443.18 1072.67 462.77"/><line class="cls-2" x1="1128.39" y1="393.77" x2="1064.78" y2="393.77"/><line class="cls-2" x1="1331.46" y1="337.79" x2="1299.06" y2="337.79"/><line class="cls-2" x1="1331.46" y1="148.75" x2="1299.06" y2="148.75"/><polyline class="cls-2" points="1551.01 2.62 1551.01 148.13 1478.13 148.13"/><line class="cls-2" x1="1299.06" y1="125.92" x2="1551.01" y2="125.92"/><polyline class="cls-2" points="1551.01 148.13 1551.01 338.55 1477.07 337.79"/><line class="cls-2" x1="1478.13" y1="302.45" x2="1551.01" y2="302.45"/><line class="cls-2" x1="1478.13" y1="184.6" x2="1551.01" y2="184.6"/><line class="cls-2" x1="1441.01" y1="480.1" x2="1441.01" y2="337.79"/><polyline class="cls-2" points="1347.7 338.55 1347.7 367.62 1441.01 367.62"/><line class="cls-2" x1="1488.32" y1="480.1" x2="1488.32" y2="337.79"/><line class="cls-2" x1="1582.32" y1="480.6" x2="1582.32" y2="2.43"/><line class="cls-2" x1="1551.01" y1="338.55" x2="1582.32" y2="338.55"/><line class="cls-2" x1="1488.32" y1="358.49" x2="1582.32" y2="358.49"/><polyline class="cls-2" points="1709.94 481.26 1709.94 313.85 1645.87 313.85 1645.87 417.18 1659.65 417.18 1659.65 430.96 1630.72 430.96 1630.72 319.36 1582.32 319.36"/><line class="cls-2" x1="1709.94" y1="364.14" x2="1646.13" y2="364.14"/><line class="cls-2" x1="1659.65" y1="417.18" x2="1709.94" y2="417.18"/><line class="cls-2" x1="1646.13" y1="430.96" x2="1646.13" y2="480.1"/><line class="cls-2" x1="1630.72" y1="381.36" x2="1582.32" y2="381.36"/><line class="cls-2" x1="1724.94" y1="346.98" x2="1709.94" y2="346.98"/><line class="cls-2" x1="1709.94" y1="313.85" x2="1724.94" y2="313.85"/><line class="cls-2" x1="1724.94" y1="181.87" x2="1582.32" y2="181.87"/><polyline class="cls-2" points="1770.16 138.38 1770.16 89.75 1582.32 89.75"/><polyline class="cls-2" points="1582.32 67.63 1770.16 67.63 1770.16 2.62"/><line class="cls-2" x1="1717.44" y1="1.73" x2="1717.44" y2="67.63"/><line class="cls-2" x1="1659.65" y1="67.63" x2="1659.65" y2="2.62"/><line class="cls-2" x1="1627.17" y1="67.63" x2="1627.17" y2="1.73"/><line class="cls-2" x1="1739.2" y1="138.38" x2="1739.2" y2="89.75"/><polyline class="cls-2" points="1832.7 137.49 1832.7 75.38 1849.06 75.38 1849.06 89.75 1910.61 89.75 1910.61 44.51 1848.28 44.51 1848.28 1.3"/><line class="cls-2" x1="1848.28" y1="44.51" x2="1848.28" y2="54.64"/><line class="cls-2" x1="1849.06" y1="75.38" x2="1849.06" y2="67.63"/><line class="cls-2" x1="1943.34" y1="346.98" x2="1943.34" y2="141.9"/><polyline class="cls-2" points="1910.61 346.98 1910.61 138.38 1910.61 44.51 1910.61 1.15"/><polyline class="cls-2" points="1848.28 480.6 1848.28 367.62 1819.27 367.62 1819.27 346.98"/><polyline class="cls-2" points="1910.61 480.6 1910.61 367.62 1863.87 367.62 1863.87 345.49 1863.87 138.38"/><line class="cls-2" x1="2052.41" y1="346.98" x2="2052.41" y2="138.38"/><polyline class="cls-2" points="2085.24 303.96 2144.35 303.96 2144.35 181.87 2085.24 181.87"/><polyline class="cls-2" points="2192.66 481.96 2192.66 295.39 2177.85 295.39 2177.85 189.43 2192.66 189.43 2192.66 1.06"/><polyline class="cls-2" points="2192.66 295.39 2224.6 295.39 2224.6 190.21 2192.66 190.21"/><polyline class="cls-2" points="2427.54 481.96 2427.54 420.2 2444.01 420.2 2444.01 346.98"/><line class="cls-2" x1="2410.38" y1="138.38" x2="2410.38" y2="1.52"/><line class="cls-2" x1="2505.77" y1="1.52" x2="2505.77" y2="137.49"/><line class="cls-2" x1="2505.77" y1="345.49" x2="2505.77" y2="481.18"/><polyline class="cls-2" points="2505.77 69.95 2459.79 69.95 2459.79 1.52"/><polyline class="cls-2" points="2615.57 1.52 2615.57 111.39 2505.77 111.39"/><polyline class="cls-2" points="2615.57 480.71 2615.57 392.75 2505.77 392.75"/><line class="cls-2" x1="2553.81" y1="481.96" x2="2553.81" y2="392.75"/><line class="cls-2" x1="2581.39" y1="392.75" x2="2581.39" y2="345.49"/><line class="cls-2" x1="2703.17" y1="295.39" x2="2619.61" y2="295.39"/><polyline class="cls-2" points="2619.61 137.49 2661.39 138.38 2661.39 121 2703.17 121 2703.17 56.45 2632.72 56.45 2632.72 138.38"/><line class="cls-2" x1="2661.39" y1="2.53" x2="2661.39" y2="56.45"/><polyline class="cls-2" points="2661.39 121 2661.39 97.42 2632.72 97.42"/><line class="cls-2" x1="2632.72" y1="56.45" x2="2615.57" y2="56.45"/><polyline class="cls-2" points="2738.41 106.09 2738.41 56.45 2703.17 56.45"/><polyline class="cls-2" points="2753.5 56.45 2753.5 89.64 2803.6 89.64 2803.6 3.31"/><line class="cls-2" x1="2738.41" y1="56.45" x2="2803.6" y2="56.45"/><line class="cls-2" x1="2753.5" y1="56.45" x2="2753.5" y2="3.02"/><line class="cls-2" x1="2703.17" y1="377.49" x2="2703.17" y2="480.28"/><line class="cls-2" x1="2743.14" y1="480.71" x2="2743.14" y2="377.49"/><polyline class="cls-2" points="2928.29 38.15 2944.03 38.15 2944.03 92.83 3063.46 92.83 3063.46 106.09 3117.95 106.09 3117.95 72.12 3063.46 72.12 3063.46 92.83"/><line class="cls-2" x1="3090.38" y1="106.09" x2="3090.38" y2="72.12"/><polyline class="cls-2" points="3063.46 72.12 3063.46 57.17 3020.45 57.17 3020.45 92.83"/><polyline class="cls-2" points="3117.95 5.5 3117.95 57.17 3029.4 57.17 3029.4 4.82"/><line class="cls-2" x1="2991.9" y1="92.83" x2="2991.9" y2="4.54"/><line class="cls-2" x1="2944.03" y1="55.42" x2="2991.9" y2="55.42"/><line class="cls-2" x1="3140.35" y1="57.17" x2="3186.57" y2="57.17"/><polyline class="cls-2" points="3242.57 18.98 3242.57 57.17 3204.8 57.17"/><line class="cls-2" x1="3257.76" y1="108.75" x2="3257.76" y2="18.98"/><rect class="cls-2" x="2756.37" y="392.75" width="94.05" height="86.68" transform="translate(5606.8 872.17) rotate(180)"/><rect class="cls-2" x="2865.98" y="392.75" width="94.7" height="85.95" transform="translate(5826.67 871.44) rotate(180)"/><rect class="cls-2" x="2756.37" y="392.75" width="47.03" height="39.3" transform="translate(5559.77 824.79) rotate(180)"/><rect class="cls-2" x="2803.4" y="392.75" width="47.03" height="39.3" transform="translate(5653.82 824.79) rotate(180)"/><rect class="cls-2" x="2803.4" y="432.05" width="47.03" height="47.03" transform="translate(5653.82 911.12) rotate(180)"/><rect class="cls-2" x="2865.46" y="430.82" width="47.88" height="47.88" transform="translate(5778.79 909.52) rotate(180)"/><rect class="cls-2" x="2913.33" y="421.61" width="47.35" height="57.09" transform="translate(5874.02 900.3) rotate(180)"/><rect class="cls-2" x="2926.95" y="392.75" width="33.73" height="28.86" transform="translate(5887.64 814.35) rotate(180)"/><rect class="cls-2" x="3053.43" y="421.61" width="64.86" height="55.92" transform="translate(6171.72 899.13) rotate(180)"/><rect class="cls-2" x="3063.46" y="377.49" width="54.83" height="29.68" transform="translate(6181.75 784.67) rotate(180)"/><polyline class="cls-2" points="3038.51 478.14 3038.51 429.1 3007.38 429.1 3007.38 419.27 2976.58 419.27 2976.58 448.7 2960.69 448.7"/><line class="cls-2" x1="3007.38" y1="429.1" x2="3007.38" y2="477.53"/><line class="cls-2" x1="2991.81" y1="401.76" x2="2991.81" y2="377.49"/><line class="cls-2" x1="3118.29" y1="377.49" x2="3118.29" y2="352.01"/><line class="cls-2" x1="3117.95" y1="106.09" x2="3117.95" y2="130.98"/><line class="cls-2" x1="3288.77" y1="421.61" x2="3204.8" y2="421.61"/><line class="cls-2" x1="3242.57" y1="469.94" x2="3242.57" y2="373.27"/><line class="cls-2" x1="3186.57" y1="421.61" x2="3140.35" y2="421.61"/><polyline class="cls-2" points="3382.43 72.12 3338.89 72.12 3338.89 19.92"/><line class="cls-2" x1="3382.43" y1="116.38" x2="3320.5" y2="116.38"/><line class="cls-2" x1="3382.43" y1="151.63" x2="3320.5" y2="151.63"/><polyline class="cls-2" points="3445.02 22.16 3445.02 72.12 3397.31 72.12"/><line class="cls-2" x1="3461.91" y1="114.46" x2="3397.31" y2="114.46"/><line class="cls-2" x1="3429.61" y1="163.49" x2="3429.61" y2="114.46"/><line class="cls-2" x1="3320.5" y1="187.27" x2="3320.5" y2="318.75"/><polyline class="cls-2" points="3320.5 476.04 3320.5 373.27 3288.77 373.27"/><line class="cls-2" x1="3288.77" y1="407.18" x2="3320.5" y2="407.18"/><polyline class="cls-2" points="3320.5 469.94 3417.02 467.64 3417.02 392.75 3391.19 392.75 3391.19 430.19 3320.5 430.19"/><line class="cls-2" x1="3368.76" y1="467.64" x2="3368.76" y2="431.34"/><line class="cls-2" x1="3417.02" y1="430.19" x2="3391.19" y2="430.19"/><line class="cls-2" x1="3368.76" y1="373.27" x2="3368.76" y2="318.75"/><polyline class="cls-2" points="3320.5 293.12 3360.66 293.12 3360.66 187.27"/><line class="cls-2" x1="3495.68" y1="241.49" x2="3445.02" y2="241.49"/><line class="cls-2" x1="3474.94" y1="369.29" x2="3425.61" y2="369.29"/><line class="cls-2" x1="3474.94" y1="407.18" x2="3425.61" y2="407.18"/><line class="cls-2" x1="3539.02" y1="459.64" x2="3539.02" y2="318.75"/><line class="cls-2" x1="3587.24" y1="369.29" x2="3490.05" y2="369.29"/><line class="cls-2" x1="3587.24" y1="410.72" x2="3490.05" y2="410.72"/><line class="cls-2" x1="3570.8" y1="226.91" x2="3507.24" y2="226.91"/><line class="cls-2" x1="3538.65" y1="188.68" x2="3538.65" y2="226.91"/><line class="cls-2" x1="3587.24" y1="114.46" x2="3474.35" y2="114.46"/><polyline class="cls-2" points="3524.82 27 3524.82 72.12 3474.94 72.12"/><line class="cls-2" x1="3587.24" y1="72.12" x2="3539.02" y2="72.12"/><polyline class="cls-2" points="3539.02 163.49 3539.02 114.46 3539.02 27"/><line class="cls-2" x1="3604.13" y1="148.83" x2="3604.13" y2="186.16"/><line class="cls-2" x1="3651.24" y1="39.49" x2="3651.24" y2="448.38"/><line class="cls-2" x1="3604.13" y1="84.75" x2="3651.24" y2="84.75"/><line class="cls-2" x1="3698.35" y1="99.49" x2="3651.24" y2="99.49"/><polyline class="cls-2" points="3696.72 241.49 3651.24 241.49 3587.24 241.49"/><line class="cls-2" x1="3696.72" y1="357.34" x2="3651.24" y2="357.34"/><line class="cls-2" x1="3651.24" y1="369.29" x2="3600.28" y2="369.29"/><line class="cls-2" x1="3651.24" y1="403.83" x2="3600.28" y2="403.83"/><line class="cls-2" x1="3696.72" y1="401.35" x2="3651.24" y2="401.35"/><line class="cls-2" x1="3681.98" y1="186.16" x2="3681.98" y2="148.83"/><line class="cls-2" x1="3758.86" y1="163.49" x2="3758.86" y2="58.16"/><line class="cls-2" x1="3805.76" y1="114.46" x2="3758.86" y2="114.46"/><line class="cls-2" x1="3758.86" y1="99.49" x2="3711.96" y2="99.49"/><line class="cls-2" x1="3808.57" y1="286.09" x2="3808.57" y2="193.2"/><line class="cls-2" x1="3764.72" y1="293.12" x2="3764.72" y2="186.16"/><polyline class="cls-2" points="3790.5 394.53 3774.19 394.53 3774.19 401.35 3711.96 401.35"/><line class="cls-2" x1="3790.5" y1="335.18" x2="3711.68" y2="335.18"/><line class="cls-2" x1="3869.91" y1="124.68" x2="3821.31" y2="124.68"/><line class="cls-2" x1="3933.24" y1="207.79" x2="3869.91" y2="207.79"/><line class="cls-2" x1="3933.24" y1="274.99" x2="3869.91" y2="274.99"/><line class="cls-2" x1="3933.24" y1="286.09" x2="3933.24" y2="296.09"/><polyline class="cls-2" points="3933.24 394.53 3883.41 407.18 3883.41 274.99"/><polyline class="cls-2" points="3933.24 318.75 3901.57 318.75 3901.57 306.75 3883.41 306.75"/><polyline class="cls-2" points="3915.18 397.94 3915.18 340.98 3883.41 340.98"/><line class="cls-2" x1="3933.24" y1="239.64" x2="3869.91" y2="239.64"/><polyline class="cls-2" points="3883.41 207.64 3883.41 74.93 3933.24 84.75"/><line class="cls-2" x1="3933.24" y1="193.2" x2="3933.24" y2="183.2"/><line class="cls-2" x1="3933.24" y1="171.9" x2="3883.41" y2="171.9"/><polyline class="cls-2" points="3915.18 81.19 3915.18 141.29 3883.41 141.29"/><line class="cls-2" x1="4017.16" y1="193.2" x2="4017.16" y2="286.09"/><line class="cls-2" x1="3967" y1="193.2" x2="3967" y2="286.09"/><line class="cls-2" x1="3977.24" y1="154.62" x2="3933.24" y2="154.62"/><line class="cls-2" x1="3977.24" y1="128.99" x2="3933.24" y2="128.99"/><line class="cls-2" x1="3977.24" y1="329.12" x2="3933.24" y2="329.12"/><line class="cls-2" x1="3977.24" y1="354.61" x2="3933.24" y2="354.61"/><line class="cls-2" x1="4022.67" y1="370.63" x2="4022.67" y2="303.64"/><line class="cls-2" x1="4022.67" y1="177.12" x2="4022.67" y2="108.65"/><line class="cls-2" x1="4263.78" y1="293.12" x2="4263.78" y2="186.16"/><polyline class="cls-2" points="4233.83 229.85 4170.96 229.85 4170.96 251.59 4233.83 251.59"/><line class="cls-2" x1="4183.86" y1="319.76" x2="4183.86" y2="260.98"/><line class="cls-2" x1="4183.86" y1="218.31" x2="4183.86" y2="159.52"/><line class="cls-2" x1="4108.8" y1="198.65" x2="4108.8" y2="133.98"/><line class="cls-2" x1="4108.8" y1="345.31" x2="4108.8" y2="267.2"/></g><g id="points"><path class="cls-4" d="M1192.12,66.55c15.32,0,15.35-23.81,0-23.81s-15.35,23.81,0,23.81h0Z"/><path class="cls-4" d="M3625.76,179.4c15.32,0,15.35-23.81,0-23.81s-15.35,23.81,0,23.81h0Z"/><path class="cls-4" d="M3563.13,60.59c15.32,0,15.35-23.81,0-23.81s-15.35,23.81,0,23.81h0Z"/><path class="cls-4" d="M3107.67,104.73c15.32,0,15.35-23.81,0-23.81s-15.35,23.81,0,23.81h0Z"/><path class="cls-4" d="M4007.96,331.67c15.32,0,15.35-23.81,0-23.81s-15.35,23.81,0,23.81h0Z"/><path class="cls-4" d="M4044.29,360.51c15.32,0,15.35-23.81,0-23.81s-15.35,23.81,0,23.81h0Z"/><path class="cls-4" d="M3899.3,385.18c15.32,0,15.35-23.81,0-23.81s-15.35,23.81,0,23.81h0Z"/><path class="cls-4" d="M3450.28,401.1c15.32,0,15.35-23.81,0-23.81s-15.35,23.81,0,23.81h0Z"/><path class="cls-4" d="M728.21,160.66c15.32,0,15.35-23.81,0-23.81s-15.35,23.81,0,23.81h0Z"/><path class="cls-4" d="M695.59,108.28c15.32,0,15.35-23.81,0-23.81s-15.35,23.81,0,23.81h0Z"/><path class="cls-5" d="M764.87,147.56c15.32,0,15.35-23.81,0-23.81s-15.35,23.81,0,23.81h0Z"/><path class="cls-5" d="M931.73,108.28c15.32,0,15.35-23.81,0-23.81s-15.35,23.81,0,23.81h0Z"/><path class="cls-5" d="M1003.45,76.12c15.32,0,15.35-23.81,0-23.81s-15.35,23.81,0,23.81h0Z"/><path class="cls-5" d="M1101.22,453.91c15.32,0,15.35-23.81,0-23.81s-15.35,23.81,0,23.81h0Z"/><path class="cls-5" d="M1268.15,116.28c15.32,0,15.35-23.81,0-23.81s-15.35,23.81,0,23.81h0Z"/><path class="cls-5" d="M3950.26,229.1c15.32,0,15.35-23.81,0-23.81s-15.35,23.81,0,23.81h0Z"/><path class="cls-5" d="M4126.03,335.13c15.32,0,15.35-23.81,0-23.81s-15.35,23.81,0,23.81h0Z"/><path class="cls-5" d="M4202.4,314.07c15.32,0,15.35-23.81,0-23.81s-15.35,23.81,0,23.81h0Z"/><path class="cls-5" d="M4283.72,289.41c15.32,0,15.35-23.81,0-23.81s-15.35,23.81,0,23.81h0Z"/><path class="cls-5" d="M4093.04,179.4c15.32,0,15.35-23.81,0-23.81s-15.35,23.81,0,23.81h0Z"/><path class="cls-5" d="M4202.4,218.38c15.32,0,15.35-23.81,0-23.81s-15.35,23.81,0,23.81h0Z"/><path class="cls-5" d="M4202.4,191.03c15.32,0,15.35-23.81,0-23.81s-15.35,23.81,0,23.81h0Z"/><path class="cls-4" d="M3226.69,461.47c15.32,0,15.35-23.81,0-23.81s-15.35,23.81,0,23.81h0Z"/><path class="cls-4" d="M3163.46,411.97c15.32,0,15.35-23.81,0-23.81s-15.35,23.81,0,23.81h0Z"/><circle class="cls-1" cx="3225.37" cy="448.7" r="22.08"/></g></svg>