<?xml version="1.0" encoding="UTF-8"?><svg xmlns="http://www.w3.org/2000/svg" viewBox="0 0 3421.93 377.79"><defs><style>.cls-1{stroke:#c7bead;}.cls-1,.cls-2,.cls-3,.cls-4{fill:none;stroke-miterlimit:10;}.cls-1,.cls-2,.cls-4{stroke-width:2px;}.cls-2{stroke:#173387;}.cls-5{fill:#173387;}.cls-3,.cls-4{stroke:#171636;}.cls-6{fill:#c7bead;}</style></defs><g id="_3eme-bis_plan"><path class="cls-4" d="M3195,197.7c-.34-6.29-.4-9.05-.91-13.32-11.03-93.62-117.21-108.67-202.02-117.86-88.69-9.61-499.56-26.48-499.56-26.48H693.5s-340.77,0-637.49,157.68c220.3,118.23,451.35,152.42,643.44,157.79,192.08,5.37,1698.96,5.67,1818.5,1.88,119.54-3.79,386.37-16.27,496.56-32.69,81.08-13.6,179.07-22.76,180.49-127Z"/><line class="cls-4" x1="511.01" y1="340.55" x2="511.01" y2="55.92"/><polyline class="cls-3" points="280.9 106.53 280.9 140.61 322 140.61 322 155.92 461.73 155.92 461.73 144.61 511.01 144.61"/><polyline class="cls-3" points="280.9 290.85 280.9 255.06 320 255.06 320 240.42 461.73 240.42 461.73 251.73 511.01 251.73"/><polyline class="cls-3" points="395.96 321.96 395.96 257.72 380.55 257.72 380.55 240.42"/><line class="cls-3" x1="312.02" y1="255.06" x2="312.02" y2="299.94"/><line class="cls-3" x1="312.02" y1="140.61" x2="312.02" y2="97.55"/><polyline class="cls-3" points="461.73 144.61 461.73 112.67 511.01 112.67"/><polyline class="cls-3" points="511.01 281.19 461.73 281.19 461.73 251.73"/><line class="cls-3" x1="482.68" y1="336.47" x2="482.68" y2="281.19"/><line class="cls-3" x1="189.31" y1="259.1" x2="189.31" y2="137.6"/><rect class="cls-3" x="329.32" y="171.89" width="170.34" height="48.08"/><line class="cls-3" x1="388.26" y1="171.89" x2="388.26" y2="219.96"/><line class="cls-3" x1="395.96" y1="171.89" x2="395.96" y2="219.96"/><line class="cls-3" x1="429.13" y1="171.89" x2="429.13" y2="219.96"/><line class="cls-3" x1="476.37" y1="171.89" x2="476.37" y2="219.96"/><line class="cls-4" x1="699.45" y1="355.51" x2="699.45" y2="40.04"/><line class="cls-3" x1="737.66" y1="356.27" x2="737.66" y2="40.04"/><line class="cls-3" x1="699.45" y1="87.27" x2="737.66" y2="87.27"/><line class="cls-3" x1="699.45" y1="162.87" x2="737.66" y2="162.87"/><line class="cls-3" x1="699.45" y1="233.96" x2="737.66" y2="233.96"/><line class="cls-3" x1="699.45" y1="271.58" x2="737.66" y2="271.58"/><line class="cls-3" x1="699.45" y1="308.83" x2="737.66" y2="308.83"/><circle class="cls-3" cx="669.19" cy="281.19" r="19.45"/><circle class="cls-3" cx="669.19" cy="115.63" r="19.45"/><rect class="cls-3" x="599.68" y="162.87" width="43.04" height="71.09" transform="translate(1242.41 396.84) rotate(180)"/><rect class="cls-3" x="511.01" y="162.87" width="57.21" height="71.09" transform="translate(1079.24 396.84) rotate(180)"/><rect class="cls-3" x="749.23" y="277.1" width="73.95" height="79.17" transform="translate(1572.42 633.38) rotate(180)"/><rect class="cls-3" x="749.23" y="41.69" width="73.95" height="73.95" transform="translate(1572.42 157.32) rotate(180)"/><rect class="cls-3" x="749.23" y="135.09" width="32.01" height="126.65" transform="translate(1530.48 396.83) rotate(180)"/><rect class="cls-3" x="834.22" y="39.81" width="75.05" height="79.47" transform="translate(1743.49 159.08) rotate(180)"/><rect class="cls-3" x="918.1" y="39.81" width="77.26" height="79.47" transform="translate(1913.46 159.08) rotate(180)"/><rect class="cls-3" x="1004.74" y="39.81" width="76.15" height="79.47" transform="translate(2085.63 159.08) rotate(180)"/><rect class="cls-3" x="1090.83" y="39.81" width="75.05" height="79.47" transform="translate(2256.7 159.08) rotate(180)"/><rect class="cls-3" x="834.22" y="277.1" width="72.84" height="80.77" transform="translate(1741.28 634.97) rotate(180)"/><rect class="cls-3" x="918.1" y="277.1" width="75.05" height="80.77" transform="translate(1911.25 634.97) rotate(180)"/><rect class="cls-3" x="1004.74" y="277.1" width="73.4" height="81.62" transform="translate(2082.87 635.83) rotate(180)"/><rect class="cls-3" x="1090.83" y="277.1" width="72.29" height="81.92" transform="translate(2253.95 636.13) rotate(180)"/><rect class="cls-3" x="1056.61" y="135.09" width="21.52" height="126.65" transform="translate(2134.75 396.83) rotate(180)"/><rect class="cls-3" x="813.25" y="162.87" width="243.36" height="71.09" transform="translate(1869.86 396.84) rotate(180)"/><line class="cls-3" x1="792.52" y1="357.03" x2="792.52" y2="277.1"/><polyline class="cls-3" points="749.23 308.83 769.37 308.83 781.24 340.55 781.24 356.27"/><polyline class="cls-3" points="781.24 41.69 781.24 53.32 770.98 87.27 749.23 87.27"/><line class="cls-3" x1="792.52" y1="115.63" x2="792.52" y2="41.69"/><line class="cls-3" x1="823.18" y1="87.27" x2="792.52" y2="87.27"/><line class="cls-3" x1="876.65" y1="119.27" x2="876.65" y2="39.81"/><line class="cls-3" x1="909.27" y1="87.27" x2="876.65" y2="87.27"/><polyline class="cls-3" points="866.13 39.81 866.13 52.82 855.7 87.27 834.22 87.27"/><line class="cls-3" x1="962.74" y1="119.27" x2="962.74" y2="39.81"/><line class="cls-3" x1="995.36" y1="87.27" x2="962.74" y2="87.27"/><polyline class="cls-3" points="952.22 39.81 952.22 52.82 941.79 87.27 918.1 87.27"/><line class="cls-3" x1="1048" y1="119.39" x2="1048" y2="39.93"/><line class="cls-3" x1="1080.62" y1="87.39" x2="1048" y2="87.39"/><polyline class="cls-3" points="1037.48 39.93 1037.48 52.93 1027.05 87.39 1005.57 87.39"/><line class="cls-3" x1="1133.26" y1="119.39" x2="1133.26" y2="39.93"/><line class="cls-3" x1="1165.88" y1="87.39" x2="1133.26" y2="87.39"/><polyline class="cls-3" points="1122.74 39.93 1122.74 52.93 1112.31 87.39 1090.83 87.39"/><line class="cls-3" x1="874.89" y1="278.39" x2="874.89" y2="357.86"/><line class="cls-3" x1="907.51" y1="310.4" x2="874.89" y2="310.4"/><polyline class="cls-3" points="864.38 357.86 864.38 344.85 854.93 310.28 833.45 310.28"/><line class="cls-3" x1="960.98" y1="278.39" x2="960.98" y2="357.86"/><line class="cls-3" x1="993.6" y1="310.4" x2="960.98" y2="310.4"/><polyline class="cls-3" points="952.22 357.74 952.22 344.73 941.79 310.28 918.1 310.28"/><line class="cls-3" x1="1046.24" y1="278.27" x2="1046.24" y2="357.74"/><line class="cls-3" x1="1078.86" y1="310.28" x2="1046.24" y2="310.28"/><polyline class="cls-3" points="1035.72 357.74 1035.72 344.73 1025.29 310.28 1003.81 310.28"/><line class="cls-3" x1="1131.5" y1="278.27" x2="1131.5" y2="357.74"/><line class="cls-3" x1="1164.12" y1="310.28" x2="1131.5" y2="310.28"/><polyline class="cls-3" points="1120.98 357.74 1120.98 344.73 1110.55 310.28 1089.07 310.28"/><line class="cls-3" x1="823.18" y1="308.83" x2="792.52" y2="308.83"/><polyline class="cls-3" points="1048 233.96 1048 261.74 792.52 261.74 792.52 210.25 813.25 210.25"/><line class="cls-3" x1="813.25" y1="233.96" x2="792.52" y2="233.96"/><line class="cls-3" x1="828.63" y1="261.74" x2="828.63" y2="233.96"/><line class="cls-3" x1="866.13" y1="261.74" x2="866.13" y2="233.96"/><line class="cls-3" x1="904.89" y1="261.74" x2="904.89" y2="233.96"/><line class="cls-3" x1="941.07" y1="261.74" x2="941.07" y2="233.96"/><polyline class="cls-3" points="979.05 261.74 979.05 233.96 979.05 162.87"/><line class="cls-3" x1="1014.49" y1="261.74" x2="1014.49" y2="233.96"/><line class="cls-3" x1="1078.13" y1="233.96" x2="1056.61" y2="233.96"/><line class="cls-3" x1="1078.13" y1="216.99" x2="1056.61" y2="216.99"/><line class="cls-3" x1="1078.13" y1="197.77" x2="1056.61" y2="197.77"/><line class="cls-3" x1="1078.13" y1="162.87" x2="1056.61" y2="162.87"/><line class="cls-3" x1="1021.52" y1="233.96" x2="1021.52" y2="162.87"/><line class="cls-3" x1="995.36" y1="233.96" x2="995.36" y2="162.87"/><line class="cls-3" x1="1021.52" y1="176.91" x2="995.36" y2="176.91"/><line class="cls-3" x1="1021.52" y1="216.99" x2="995.36" y2="216.99"/><line class="cls-3" x1="891.2" y1="233.96" x2="891.2" y2="162.87"/><line class="cls-3" x1="876.65" y1="233.96" x2="876.65" y2="162.87"/><line class="cls-3" x1="855.7" y1="233.96" x2="855.7" y2="162.87"/><line class="cls-3" x1="876.65" y1="221.25" x2="855.7" y2="221.25"/><line class="cls-3" x1="876.65" y1="174.07" x2="855.7" y2="174.07"/><polyline class="cls-3" points="813.25 198.42 792.52 198.42 792.52 135.09 1046.24 135.09 1046.24 162.87"/><line class="cls-3" x1="1009.88" y1="162.87" x2="1009.88" y2="135.09"/><line class="cls-3" x1="974.41" y1="162.87" x2="974.41" y2="135.09"/><line class="cls-3" x1="936.81" y1="162.87" x2="936.81" y2="135.09"/><line class="cls-3" x1="899.21" y1="162.87" x2="899.21" y2="135.09"/><line class="cls-3" x1="861.61" y1="162.87" x2="861.61" y2="135.09"/><line class="cls-3" x1="823.18" y1="162.87" x2="823.18" y2="135.09"/><polyline class="cls-3" points="813.25 162.87 813.25 153.85 792.52 153.85"/><line class="cls-3" x1="813.25" y1="174.07" x2="792.52" y2="174.07"/><line class="cls-3" x1="781.24" y1="172.65" x2="749.23" y2="172.65"/><line class="cls-3" x1="781.24" y1="221.25" x2="749.23" y2="221.25"/><line class="cls-3" x1="737.66" y1="196.42" x2="699.45" y2="196.42"/><line class="cls-3" x1="737.66" y1="123.34" x2="699.45" y2="123.34"/><line class="cls-3" x1="1090.83" y1="261.74" x2="1090.83" y2="135.09"/><path class="cls-3" d="M1200.13,227.06v6.91h-25.32v-21.66s17.95-2.74,25.32,14.75Z"/><path class="cls-3" d="M1200.13,166.75v-6.44h-25.32v22.1s18.41,1.83,25.32-15.65Z"/><rect class="cls-3" x="1128.35" y="162.87" width="25.75" height="71.09"/><rect class="cls-3" x="1174.81" y="296.71" width="41.53" height="62.48" transform="translate(2391.16 655.9) rotate(180)"/><rect class="cls-3" x="1206.13" y="40.04" width="64.83" height="49.93" transform="translate(2477.09 130.02) rotate(180)"/><rect class="cls-3" x="1174.81" y="40.04" width="31.32" height="47.22" transform="translate(2380.95 127.31) rotate(180)"/><rect class="cls-3" x="1270.96" y="40.04" width="43.9" height="59.12" transform="translate(2585.82 139.21) rotate(180)"/><rect class="cls-3" x="1314.86" y="40.04" width="41.86" height="59.12" transform="translate(2671.57 139.21) rotate(180)"/><rect class="cls-3" x="1356.72" y="40.04" width="31.65" height="39.62" transform="translate(2745.08 119.7) rotate(180)"/><rect class="cls-3" x="1356.72" y="79.66" width="31.65" height="19.5" transform="translate(2745.08 178.82) rotate(180)"/><rect class="cls-3" x="1388.36" y="40.04" width="37.26" height="59.12" transform="translate(2813.99 139.21) rotate(180)"/><rect class="cls-3" x="1425.63" y="40.04" width="38.28" height="59.12" transform="translate(2889.54 139.21) rotate(180)"/><rect class="cls-3" x="1463.91" y="40.04" width="32.16" height="59.12" transform="translate(2959.98 139.21) rotate(180)"/><rect class="cls-3" x="1270.96" y="162.87" width="165.39" height="71.09" transform="translate(2707.31 396.84) rotate(180)"/><rect class="cls-3" x="1270.96" y="116.52" width="213.88" height="161.87" transform="translate(2755.8 394.91) rotate(180)"/><line class="cls-3" x1="1496.07" y1="79.66" x2="1463.91" y2="79.66"/><line class="cls-3" x1="1372.54" y1="99.16" x2="1372.54" y2="79.66"/><line class="cls-3" x1="1308.73" y1="162.87" x2="1308.73" y2="116.52"/><line class="cls-3" x1="1340.89" y1="162.87" x2="1340.89" y2="116.52"/><line class="cls-3" x1="1377.9" y1="162.87" x2="1377.9" y2="116.52"/><line class="cls-3" x1="1414.4" y1="162.87" x2="1414.4" y2="116.52"/><line class="cls-3" x1="1484.84" y1="162.87" x2="1436.35" y2="162.87"/><line class="cls-3" x1="1448.09" y1="116.52" x2="1448.09" y2="162.87"/><line class="cls-3" x1="1484.84" y1="208.77" x2="1436.35" y2="208.77"/><polyline class="cls-3" points="1436.35 233.96 1457.28 233.96 1457.28 278.39"/><line class="cls-3" x1="1484.84" y1="242.09" x2="1457.28" y2="242.09"/><line class="cls-3" x1="1421.03" y1="233.96" x2="1421.03" y2="278.39"/><line class="cls-3" x1="1384.28" y1="278.39" x2="1384.28" y2="233.96"/><line class="cls-3" x1="1346.51" y1="278.39" x2="1346.51" y2="233.96"/><line class="cls-3" x1="1308.73" y1="278.39" x2="1308.73" y2="233.96"/><line class="cls-3" x1="1292.91" y1="233.96" x2="1292.91" y2="162.87"/><line class="cls-3" x1="1306.18" y1="233.96" x2="1306.18" y2="162.87"/><line class="cls-3" x1="1396.53" y1="233.96" x2="1396.53" y2="162.87"/><line class="cls-3" x1="1410.31" y1="233.96" x2="1410.31" y2="162.87"/><line class="cls-3" x1="1436.35" y1="219.63" x2="1410.31" y2="219.63"/><line class="cls-3" x1="1436.35" y1="176.91" x2="1410.31" y2="176.91"/><line class="cls-3" x1="1292.91" y1="219.63" x2="1270.96" y2="219.63"/><line class="cls-3" x1="1292.91" y1="174.71" x2="1270.96" y2="174.71"/><rect class="cls-3" x="1228.59" y="296.71" width="42.37" height="62.62" transform="translate(2499.55 656.04) rotate(180)"/><rect class="cls-3" x="1270.96" y="296.71" width="43.9" height="62.72" transform="translate(2585.82 656.14) rotate(180)"/><rect class="cls-3" x="1314.86" y="296.71" width="41.86" height="62.81" transform="translate(2671.57 656.23) rotate(180)"/><rect class="cls-3" x="1228.59" y="327.36" width="32.16" height="32.16" transform="translate(2489.34 686.88) rotate(180)"/><rect class="cls-3" x="1174.81" y="325.65" width="33.87" height="33.87" transform="translate(2383.5 685.17) rotate(180)"/><rect class="cls-3" x="1356.72" y="296.71" width="31.88" height="62.81" transform="translate(2745.31 656.23) rotate(180)"/><rect class="cls-3" x="1367.37" y="327.36" width="21.22" height="32.16" transform="translate(2755.97 686.88) rotate(180)"/><rect class="cls-3" x="1356.72" y="296.71" width="31.88" height="18.99" transform="translate(2745.31 612.41) rotate(180)"/><rect class="cls-3" x="1388.6" y="296.71" width="36.83" height="62.94" transform="translate(2814.02 656.36) rotate(180)"/><rect class="cls-3" x="1425.43" y="296.71" width="37.77" height="62.99" transform="translate(2888.62 656.41) rotate(180)"/><rect class="cls-3" x="1463.2" y="296.71" width="31.21" height="62.99" transform="translate(2957.6 656.41) rotate(180)"/><rect class="cls-3" x="1473.18" y="325.65" width="21.22" height="34.05" transform="translate(2967.59 685.36) rotate(180)"/><rect class="cls-3" x="1463.2" y="296.71" width="31.21" height="18.99" transform="translate(2957.6 612.41) rotate(180)"/><rect class="cls-3" x="1494.41" y="296.71" width="38.7" height="63.08" transform="translate(3027.52 656.5) rotate(180)"/><rect class="cls-3" x="1533.11" y="296.71" width="38.7" height="63.12" transform="translate(3104.93 656.54) rotate(180)"/><rect class="cls-3" x="1571.82" y="296.71" width="40.58" height="63.16" transform="translate(3184.21 656.58) rotate(180)"/><rect class="cls-3" x="1612.39" y="296.71" width="31.53" height="63.18" transform="translate(3256.31 656.6) rotate(180)"/><rect class="cls-3" x="1612.39" y="325.65" width="21.22" height="34.23" transform="translate(3246.01 685.54) rotate(180)"/><rect class="cls-3" x="1612.39" y="296.71" width="31.53" height="18.99" transform="translate(3256.31 612.41) rotate(180)"/><rect class="cls-3" x="1496.07" y="40.04" width="37.04" height="59.12" transform="translate(3029.18 139.21) rotate(180)"/><rect class="cls-3" x="1533.11" y="40.04" width="38.7" height="59.12" transform="translate(3104.93 139.21) rotate(180)"/><rect class="cls-3" x="1571.82" y="40.04" width="40.58" height="59.12" transform="translate(3184.21 139.21) rotate(180)"/><rect class="cls-3" x="1474.04" y="40.04" width="22.04" height="29.56" transform="translate(2970.11 109.65) rotate(180)"/><rect class="cls-3" x="1494.41" y="116.52" width="64.1" height="161.87" transform="translate(3052.92 394.91) rotate(180)"/><rect class="cls-3" x="1525.06" y="232.32" width="33.45" height="46.07" transform="translate(3083.57 510.71) rotate(180)"/><rect class="cls-3" x="1494.41" y="162.87" width="23.55" height="69.45" transform="translate(3012.37 395.19) rotate(180)"/><line class="cls-3" x1="1525.06" y1="232.32" x2="1517.96" y2="232.32"/><line class="cls-3" x1="1558.51" y1="197.59" x2="1517.96" y2="197.59"/><line class="cls-3" x1="1558.51" y1="162.87" x2="1517.96" y2="162.87"/><polyline class="cls-3" points="1528.77 116.52 1528.77 134.67 1525.06 134.67 1525.06 162.87"/><rect class="cls-3" x="1612.39" y="40.04" width="31.53" height="59.12" transform="translate(3256.31 139.21) rotate(180)"/><rect class="cls-3" x="1643.92" y="40.04" width="38.09" height="59.12" transform="translate(3325.92 139.21) rotate(180)"/><rect class="cls-3" x="1612.39" y="81.83" width="31.53" height="17.33" transform="translate(3256.31 180.99) rotate(180)"/><rect class="cls-3" x="1612.39" y="40.04" width="21.39" height="29.56" transform="translate(3246.18 109.65) rotate(180)"/><rect class="cls-3" x="1568.89" y="116.52" width="64.9" height="161.87" transform="translate(3202.67 394.91) rotate(180)"/><rect class="cls-3" x="1568.89" y="116.52" width="41.01" height="117.45" transform="translate(3178.79 350.48) rotate(180)"/><polyline class="cls-3" points="1633.78 162.87 1609.9 162.87 1568.89 162.87"/><line class="cls-3" x1="1633.78" y1="135.46" x2="1609.9" y2="135.46"/><line class="cls-3" x1="1633.78" y1="187.74" x2="1609.9" y2="187.74"/><line class="cls-3" x1="1633.78" y1="208.77" x2="1609.9" y2="208.77"/><line class="cls-3" x1="1609.9" y1="198.42" x2="1568.89" y2="198.42"/><line class="cls-3" x1="1609.9" y1="233.96" x2="1633.78" y2="233.96"/><polyline class="cls-3" points="1598.63 278.39 1598.63 261.65 1601.34 261.65 1601.34 233.96"/><line class="cls-3" x1="1628.16" y1="315.7" x2="1628.16" y2="296.71"/><line class="cls-3" x1="1479.99" y1="99.16" x2="1479.99" y2="79.66"/><line class="cls-3" x1="1628.16" y1="99.16" x2="1628.16" y2="81.83"/><line class="cls-3" x1="1372.66" y1="315.7" x2="1372.54" y2="296.71"/><line class="cls-3" x1="1478.8" y1="315.7" x2="1478.8" y2="296.71"/><rect class="cls-3" x="1643.92" y="296.71" width="38.09" height="63.2" transform="translate(3325.92 656.62) rotate(180)"/><rect class="cls-3" x="1682" y="296.71" width="42.81" height="63.18" transform="translate(3406.82 656.6) rotate(180)"/><rect class="cls-3" x="1682" y="40.04" width="42.81" height="59.12" transform="translate(3406.82 139.21) rotate(180)"/><rect class="cls-3" x="1724.82" y="40.04" width="36.05" height="59.12" transform="translate(3485.69 139.21) rotate(180)"/><rect class="cls-3" x="1760.87" y="40.04" width="32.9" height="59.12" transform="translate(3554.64 139.21) rotate(180)"/><rect class="cls-3" x="1793.77" y="40.04" width="37.41" height="59.12" transform="translate(3624.94 139.21) rotate(180)"/><rect class="cls-3" x="1831.17" y="40.04" width="43.79" height="59.12" transform="translate(3706.14 139.21) rotate(180)"/><rect class="cls-3" x="1874.96" y="40.04" width="36.76" height="59.12" transform="translate(3786.69 139.21) rotate(180)"/><rect class="cls-3" x="1911.72" y="40.04" width="32.47" height="59.12" transform="translate(3855.92 139.21) rotate(180)"/><rect class="cls-3" x="1944.19" y="40.04" width="36.15" height="59.12" transform="translate(3924.54 139.21) rotate(180)"/><rect class="cls-3" x="1980.34" y="40.04" width="37.37" height="59.12" transform="translate(3998.06 139.21) rotate(180)"/><rect class="cls-3" x="2017.71" y="40.04" width="33.08" height="59.12" transform="translate(4068.51 139.21) rotate(180)"/><rect class="cls-3" x="2050.8" y="40.04" width="37.98" height="59.12" transform="translate(4139.58 139.21) rotate(180)"/><rect class="cls-3" x="2088.78" y="40.04" width="42.27" height="59.12" transform="translate(4219.84 139.21) rotate(180)"/><rect class="cls-3" x="2131.06" y="40.04" width="37.37" height="59.12" transform="translate(4299.48 139.21) rotate(180)"/><rect class="cls-3" x="2168.43" y="40.04" width="30.63" height="59.12" transform="translate(4367.49 139.21) rotate(180)"/><rect class="cls-3" x="2199.06" y="40.04" width="38.6" height="59.12" transform="translate(4436.72 139.21) rotate(180)"/><rect class="cls-3" x="2237.66" y="40.04" width="37.37" height="59.12" transform="translate(4512.69 139.21) rotate(180)"/><rect class="cls-3" x="2275.03" y="40.04" width="44.11" height="44.4" transform="translate(4594.17 124.49) rotate(180)"/><polyline class="cls-3" points="2199.06 58.1 2190.48 58.1 2178.84 78.93 2178.84 99.16"/><polyline class="cls-3" points="2036.97 99.16 2036.97 78.63 2026.9 58.1 2017.71 58.1"/><polyline class="cls-3" points="1922.75 99.16 1922.75 78.63 1934.39 58.1 1944.19 58.1"/><line class="cls-3" x1="1793.77" y1="78.63" x2="1760.87" y2="78.63"/><line class="cls-3" x1="1777.32" y1="99.16" x2="1777.32" y2="78.63"/><rect class="cls-3" x="1726.01" y="299.75" width="36.05" height="59.12" transform="translate(3488.07 658.62) rotate(180)"/><rect class="cls-3" x="1762.06" y="299.75" width="32.9" height="59.12" transform="translate(3557.02 658.62) rotate(180)"/><rect class="cls-3" x="1794.96" y="299.75" width="37.41" height="59.12" transform="translate(3627.32 658.62) rotate(180)"/><rect class="cls-3" x="1832.36" y="299.75" width="43.79" height="59.12" transform="translate(3708.52 658.62) rotate(180)"/><rect class="cls-3" x="1876.15" y="299.75" width="36.76" height="59.12" transform="translate(3789.07 658.62) rotate(180)"/><rect class="cls-3" x="1912.91" y="299.75" width="32.47" height="59.12" transform="translate(3858.3 658.62) rotate(180)"/><rect class="cls-3" x="1945.38" y="299.75" width="36.15" height="59.12" transform="translate(3926.91 658.62) rotate(180)"/><rect class="cls-3" x="1981.53" y="299.75" width="37.37" height="59.12" transform="translate(4000.43 658.62) rotate(180)"/><rect class="cls-3" x="2018.9" y="299.75" width="33.08" height="59.12" transform="translate(4070.89 658.62) rotate(180)"/><rect class="cls-3" x="2051.99" y="299.75" width="37.98" height="59.12" transform="translate(4141.96 658.62) rotate(180)"/><rect class="cls-3" x="2089.97" y="299.75" width="42.27" height="59.12" transform="translate(4222.21 658.62) rotate(180)"/><rect class="cls-3" x="2132.24" y="299.75" width="37.37" height="59.12" transform="translate(4301.86 658.62) rotate(180)"/><rect class="cls-3" x="2169.62" y="299.75" width="30.63" height="59.12" transform="translate(4369.87 658.62) rotate(180)"/><rect class="cls-3" x="2200.25" y="299.75" width="38.6" height="59.12" transform="translate(4439.1 658.62) rotate(180)"/><rect class="cls-3" x="2238.85" y="299.75" width="37.37" height="59.12" transform="translate(4515.06 658.62) rotate(180)"/><polyline class="cls-3" points="2200.25 340.81 2191.67 340.81 2180.03 319.98 2180.03 299.75"/><polyline class="cls-3" points="2038.16 299.75 2038.16 320.28 2028.09 340.81 2018.9 340.81"/><polyline class="cls-3" points="1923.94 299.75 1923.94 320.28 1935.58 340.81 1945.38 340.81"/><line class="cls-3" x1="1794.96" y1="320.28" x2="1762.06" y2="320.28"/><line class="cls-3" x1="1778.51" y1="299.75" x2="1778.51" y2="320.28"/><rect class="cls-3" x="2276.22" y="299.75" width="42.92" height="59.12" transform="translate(4595.36 658.62) rotate(180)"/><rect class="cls-3" x="1682" y="162.87" width="164.27" height="71.09" transform="translate(3528.28 396.84) rotate(180)"/><rect class="cls-3" x="1846.27" y="162.87" width="129.11" height="71.09" transform="translate(3821.66 396.84) rotate(180)"/><rect class="cls-3" x="1916.21" y="233.96" width="37.12" height="44.43" transform="translate(3869.54 512.36) rotate(180)"/><rect class="cls-3" x="1878.55" y="233.96" width="37.66" height="44.43" transform="translate(3794.76 512.36) rotate(180)"/><rect class="cls-3" x="1832.36" y="233.96" width="35.43" height="44.43" transform="translate(3700.16 512.36) rotate(180)"/><rect class="cls-3" x="1793.77" y="233.96" width="38.59" height="44.43" transform="translate(3626.13 512.36) rotate(180)"/><rect class="cls-3" x="1755.89" y="233.96" width="37.87" height="44.43" transform="translate(3549.66 512.36) rotate(180)"/><rect class="cls-3" x="1719.85" y="233.96" width="36.04" height="44.43" transform="translate(3475.75 512.36) rotate(180)"/><rect class="cls-3" x="1682" y="233.96" width="37.85" height="44.43" transform="translate(3401.86 512.36) rotate(180)"/><rect class="cls-3" x="1643.92" y="233.96" width="38.09" height="44.43" transform="translate(3325.92 512.36) rotate(180)"/><rect class="cls-3" x="1643.92" y="162.87" width="38.09" height="71.09" transform="translate(3325.92 396.84) rotate(180)"/><rect class="cls-3" x="1643.92" y="116.78" width="20.32" height="46.09" transform="translate(3308.16 279.65) rotate(180)"/><rect class="cls-3" x="1664.24" y="116.78" width="17.76" height="46.09" transform="translate(3346.25 279.65) rotate(180)"/><rect class="cls-3" x="1682" y="116.78" width="36.15" height="46.09" transform="translate(3400.16 279.65) rotate(180)"/><rect class="cls-3" x="1718.15" y="116.78" width="37.74" height="46.09" transform="translate(3474.05 279.65) rotate(180)"/><rect class="cls-3" x="1755.89" y="116.78" width="37.87" height="46.09" transform="translate(3549.66 279.65) rotate(180)"/><rect class="cls-3" x="1828.55" y="116.78" width="178.94" height="46.09" transform="translate(3836.05 279.65) rotate(180)"/><polyline class="cls-3" points="1793.77 128.25 1803.61 128.25 1803.61 116.78 1828.55 116.78"/><rect class="cls-3" x="1953.33" y="233.96" width="54.16" height="44.43" transform="translate(3960.82 512.36) rotate(180)"/><line class="cls-3" x1="1889.63" y1="233.96" x2="1889.63" y2="162.87"/><line class="cls-3" x1="1828.55" y1="233.96" x2="1828.55" y2="162.87"/><line class="cls-3" x1="1811.16" y1="233.96" x2="1811.16" y2="162.87"/><line class="cls-3" x1="1707.54" y1="233.96" x2="1707.54" y2="162.87"/><line class="cls-3" x1="1724.82" y1="233.96" x2="1724.82" y2="162.87"/><path class="cls-3" d="M2007.49,162.87v24.45s28.86-4.3,29.48-14.34"/><path class="cls-3" d="M2007.49,233.96v-25.71s29.14-.29,29.48,14.05"/><line class="cls-3" x1="1985.7" y1="233.96" x2="1985.7" y2="162.87"/><rect class="cls-3" x="2083.67" y="162.87" width="170.06" height="71.09" transform="translate(4337.4 396.84) rotate(180)"/><rect class="cls-3" x="2083.67" y="233.96" width="62.27" height="44.43" transform="translate(4229.61 512.36) rotate(180)"/><rect class="cls-3" x="2145.94" y="233.96" width="38.99" height="44.43" transform="translate(4330.87 512.36) rotate(180)"/><rect class="cls-3" x="2184.93" y="233.96" width="34.62" height="44.43" transform="translate(4404.48 512.36) rotate(180)"/><rect class="cls-3" x="2219.55" y="233.96" width="23.02" height="44.43" transform="translate(4462.11 512.36) rotate(180)"/><rect class="cls-3" x="2083.67" y="116.85" width="33.5" height="46.02" transform="translate(4200.84 279.72) rotate(180)"/><rect class="cls-3" x="2117.17" y="116.85" width="40.37" height="46.02" transform="translate(4274.7 279.72) rotate(180)"/><rect class="cls-3" x="2157.53" y="116.85" width="37.36" height="46.02" transform="translate(4352.43 279.72) rotate(180)"/><rect class="cls-3" x="2194.89" y="116.85" width="47.67" height="46.02" transform="translate(4437.46 279.72) rotate(180)"/><polyline class="cls-3" points="2109.92 278.39 2109.92 269.31 2106.86 269.31 2106.86 233.96 2108.39 210.9 2137.35 210.9"/><line class="cls-3" x1="2219.55" y1="162.87" x2="2219.55" y2="116.85"/><line class="cls-3" x1="2242.56" y1="139.83" x2="2218.73" y2="139.86"/><line class="cls-3" x1="2231.06" y1="233.96" x2="2231.06" y2="162.87"/><line class="cls-3" x1="2199.06" y1="233.96" x2="2199.06" y2="162.87"/><polyline class="cls-3" points="2160.11 233.96 2160.11 213.48 2137.35 213.48 2137.35 233.96 2137.35 162.87"/><polyline class="cls-3" points="2137.35 185.13 2106.86 185.13 2106.86 162.87"/><line class="cls-3" x1="2114.8" y1="210.9" x2="2114.8" y2="185.13"/><rect class="cls-3" x="2253.73" y="116.85" width="65.41" height="161.54" transform="translate(4572.87 395.24) rotate(180)"/><rect class="cls-3" x="2286.43" y="244.65" width="32.71" height="33.75" transform="translate(4605.58 523.04) rotate(180)"/><rect class="cls-3" x="2286.43" y="197.62" width="32.71" height="47.02" transform="translate(4605.58 442.27) rotate(180)"/><rect class="cls-3" x="2286.43" y="152.5" width="32.71" height="45.13" transform="translate(4605.58 350.12) rotate(180)"/><rect class="cls-3" x="2286.43" y="116.85" width="32.71" height="35.64" transform="translate(4605.58 269.35) rotate(180)"/><rect class="cls-3" x="2253.73" y="244.65" width="22.49" height="33.75" transform="translate(4529.95 523.04) rotate(180)"/><rect class="cls-3" x="2253.73" y="190.72" width="22.49" height="53.93" transform="translate(4529.95 435.36) rotate(180)"/><rect class="cls-3" x="2253.73" y="149.92" width="22.49" height="40.8" transform="translate(4529.95 340.64) rotate(180)"/><rect class="cls-3" x="2253.73" y="116.85" width="22.49" height="33.07" transform="translate(4529.95 266.77) rotate(180)"/><line class="cls-3" x1="2319.14" y1="299.75" x2="2319.14" y2="84.45"/><path class="cls-4" d="M2360.53,162.87s0-74.72,0-73.79,171.04,0,171.04,0v23.58s91.99.46,92.45,0,0,9.25,0,9.25l45.76,28.02s0,97.72,0,96.79-45.76,26.35-45.76,26.35v11.09h-92.92v18.95h-168.73v-69.15h-22.65v-71.09h20.8Z"/><line class="cls-3" x1="2392.89" y1="233.96" x2="2362.38" y2="233.96"/><line class="cls-3" x1="2392.89" y1="162.87" x2="2360.53" y2="162.87"/><line class="cls-3" x1="2424.32" y1="303.11" x2="2424.32" y2="89.47"/><polyline class="cls-3" points="2574.1 284.16 2574.1 233.96 2564.39 233.96 2564.39 160.27 2574.1 160.27 2574.1 112.82"/><line class="cls-3" x1="2619.4" y1="231.92" x2="2669.79" y2="230.07"/><path class="cls-3" d="M2617.55,162.87c.46-.29,52.24,0,52.24,0"/><rect class="cls-3" x="2624.02" y="187.08" width="19.65" height="23.11" transform="translate(5267.69 397.28) rotate(180)"/><rect class="cls-3" x="2369.77" y="187.08" width="23.11" height="23.11" transform="translate(4762.66 397.28) rotate(180)"/><rect class="cls-3" x="2339.73" y="128.37" width="20.8" height="34.5" transform="translate(4700.25 291.24) rotate(180)"/><rect class="cls-3" x="2339.73" y="233.96" width="22.65" height="34.01" transform="translate(4702.1 501.94) rotate(180)"/><rect class="cls-3" x="2566.23" y="89.47" width="30.98" height="23.32" transform="translate(5163.45 202.27) rotate(180)"/><rect class="cls-3" x="2531.57" y="86.31" width="34.67" height="26.49" transform="translate(5097.8 199.1) rotate(180)"/><rect class="cls-3" x="2564.39" y="284.16" width="32.82" height="20.8" transform="translate(5161.6 589.12) rotate(180)"/><rect class="cls-3" x="2531.57" y="284.16" width="32.82" height="24.5" transform="translate(5095.96 592.82) rotate(180)"/><circle class="cls-3" cx="2643.67" cy="284.16" r="19.88"/><circle class="cls-3" cx="2643.8" cy="110.35" r="19.88"/><rect class="cls-3" x="2669.79" y="166.28" width="44.38" height="63.79" transform="translate(5383.95 396.35) rotate(180)"/><rect class="cls-3" x="2780.27" y="166.28" width="34.67" height="65.64" transform="translate(5595.21 398.2) rotate(180)"/><rect class="cls-3" x="2814.94" y="146.86" width="87.83" height="103.55" transform="translate(5717.71 397.28) rotate(180)"/><line class="cls-4" x1="3002.97" y1="326.33" x2="3002.97" y2="67.73"/><line class="cls-3" x1="2902.77" y1="199.1" x2="3002.97" y2="199.1"/><line class="cls-3" x1="2875.03" y1="317.9" x2="2875.03" y2="338.76"/><line class="cls-3" x1="2875.03" y1="303.11" x2="2875.03" y2="250.41"/><line class="cls-3" x1="2875.03" y1="146.86" x2="2875.03" y2="58.24"/><path class="cls-3" d="M2978.58,115.43s-74.43-1.39-75.81,0"/><line class="cls-3" x1="2978.58" y1="157.96" x2="2927.27" y2="157.96"/><line class="cls-3" x1="2978.58" y1="237.93" x2="2927.27" y2="237.93"/><line class="cls-3" x1="2978.58" y1="280.46" x2="2902.77" y2="280.46"/><line class="cls-3" x1="2945.3" y1="317.9" x2="2945.3" y2="332.79"/><line class="cls-3" x1="2945.3" y1="80.76" x2="2945.3" y2="62.63"/><rect class="cls-3" x="3019.26" y="135.77" width="24.96" height="124.35" transform="translate(6063.49 395.89) rotate(180)"/><line class="cls-3" x1="2617.55" y1="353.56" x2="2617.55" y2="284.16"/><line class="cls-3" x1="2617.55" y1="45.45" x2="2617.55" y2="112.8"/></g><g id="points"><path class="cls-6" d="M1463.91,151.6c3.05,0,6.26-1.33,8.42-3.49s3.62-5.45,3.49-8.42c-.29-6.45-5.23-11.91-11.91-11.91-3.05,0-6.26,1.33-8.42,3.49s-3.62,5.45-3.49,8.42c.29,6.45,5.23,11.91,11.91,11.91h0Z"/><path class="cls-6" d="M1662.96,81.51c3.05,0,6.26-1.33,8.42-3.49,2.07-2.07,3.62-5.45,3.49-8.42-.29-6.45-5.23-11.91-11.91-11.91-3.05,0-6.26,1.33-8.42,3.49s-3.62,5.45-3.49,8.42c.29,6.45,5.23,11.91,11.91,11.91h0Z"/><path class="cls-6" d="M1589.39,192.68c3.05,0,6.26-1.33,8.42-3.49,2.07-2.07,3.62-5.45,3.49-8.42-.29-6.45-5.23-11.91-11.91-11.91-3.05,0-6.26,1.33-8.42,3.49s-3.62,5.45-3.49,8.42c.29,6.45,5.23,11.91,11.91,11.91h0Z"/><path class="cls-5" d="M1704.54,340.86c3.05,0,6.26-1.33,8.42-3.49,2.07-2.07,3.62-5.45,3.49-8.42-.29-6.45-5.23-11.91-11.91-11.91-3.05,0-6.26,1.33-8.42,3.49s-3.62,5.45-3.49,8.42c.29,6.45,5.23,11.91,11.91,11.91h0Z"/><path class="cls-5" d="M1541.78,267.26c3.05,0,6.26-1.33,8.42-3.49,2.07-2.07,3.62-5.45,3.49-8.42-.29-6.45-5.23-11.91-11.91-11.91-3.05,0-6.26,1.33-8.42,3.49s-3.62,5.45-3.49,8.42c.29,6.45,5.23,11.91,11.91,11.91h0Z"/><path class="cls-5" d="M2219.55,344.7c3.05,0,6.26-1.33,8.42-3.49,2.07-2.07,3.62-5.45,3.49-8.42-.29-6.45-5.23-11.91-11.91-11.91-3.05,0-6.26,1.33-8.42,3.49s-3.62,5.45-3.49,8.42c.29,6.45,5.23,11.91,11.91,11.91h0Z"/><circle class="cls-2" cx="1703.41" cy="328.3" r="20.8"/><path class="cls-5" d="M1664.09,338.21c3.05,0,6.26-1.33,8.42-3.49s3.62-5.45,3.49-8.42c-.29-6.45-5.23-11.91-11.91-11.91-3.05,0-6.26,1.33-8.42,3.49s-3.62,5.45-3.49,8.42c.29,6.45,5.23,11.91,11.91,11.91h0Z"/><circle class="cls-2" cx="1662.96" cy="325.65" r="20.8"/><path class="cls-5" d="M1779.64,341.87c3.05,0,6.26-1.33,8.42-3.49,2.07-2.07,3.62-5.45,3.49-8.42-.29-6.45-5.23-11.91-11.91-11.91-3.05,0-6.26,1.33-8.42,3.49s-3.62,5.45-3.49,8.42c.29,6.45,5.23,11.91,11.91,11.91h0Z"/><circle class="cls-2" cx="1778.51" cy="329.31" r="20.8"/><path class="cls-5" d="M957.86,163.14c3.05,0,6.26-1.33,8.42-3.49s3.62-5.45,3.49-8.42c-.29-6.45-5.23-11.91-11.91-11.91-3.05,0-6.26,1.33-8.42,3.49s-3.62,5.45-3.49,8.42c.29,6.45,5.23,11.91,11.91,11.91h0Z"/><circle class="cls-2" cx="956.73" cy="150.59" r="20.8"/><path class="cls-5" d="M1149.91,76.75c3.05,0,6.26-1.33,8.42-3.49s3.62-5.45,3.49-8.42c-.29-6.45-5.23-11.91-11.91-11.91-3.05,0-6.26,1.33-8.42,3.49s-3.62,5.45-3.49,8.42c.29,6.45,5.23,11.91,11.91,11.91h0Z"/><circle class="cls-2" cx="1148.78" cy="64.19" r="20.8"/><path class="cls-6" d="M1064.83,72.12c3.05,0,6.26-1.33,8.42-3.49s3.62-5.45,3.49-8.42c-.29-6.45-5.23-11.91-11.91-11.91-3.05,0-6.26,1.33-8.42,3.49s-3.62,5.45-3.49,8.42c.29,6.45,5.23,11.91,11.91,11.91h0Z"/><ellipse class="cls-1" cx="1065.22" cy="61.27" rx="18.44" ry="19.58"/><path class="cls-6" d="M766.45,75.86c3.05,0,6.26-1.33,8.42-3.49,2.07-2.07,3.62-5.45,3.49-8.42-.29-6.45-5.23-11.91-11.91-11.91-3.05,0-6.26,1.33-8.42,3.49s-3.62,5.45-3.49,8.42c.29,6.45,5.23,11.91,11.91,11.91h0Z"/><ellipse class="cls-1" cx="766.83" cy="65.01" rx="18.44" ry="19.58"/><path class="cls-6" d="M1777.24,268.74c3.05,0,6.26-1.33,8.42-3.49s3.62-5.45,3.49-8.42c-.29-6.45-5.23-11.91-11.91-11.91-3.05,0-6.26,1.33-8.42,3.49s-3.62,5.45-3.49,8.42c.29,6.45,5.23,11.91,11.91,11.91h0Z"/><circle class="cls-1" cx="1776.11" cy="256.18" r="20.8"/><path class="cls-6" d="M1329.9,267.91c3.05,0,6.26-1.33,8.42-3.49,2.07-2.07,3.62-5.45,3.49-8.42-.29-6.45-5.23-11.91-11.91-11.91-3.05,0-6.26,1.33-8.42,3.49s-3.62,5.45-3.49,8.42c.29,6.45,5.23,11.91,11.91,11.91h0Z"/><circle class="cls-1" cx="1328.76" cy="255.35" r="20.8"/><path class="cls-6" d="M718.53,301.7c3.05,0,6.26-1.33,8.42-3.49s3.62-5.45,3.49-8.42c-.29-6.45-5.23-11.91-11.91-11.91-3.05,0-6.26,1.33-8.42,3.49s-3.62,5.45-3.49,8.42c.29,6.45,5.23,11.91,11.91,11.91h0Z"/><ellipse class="cls-1" cx="718.94" cy="290.85" rx="19.54" ry="19.55"/><path class="cls-6" d="M718.53,340.52c3.05,0,6.26-1.33,8.42-3.49s3.62-5.45,3.49-8.42c-.29-6.45-5.23-11.91-11.91-11.91-3.05,0-6.26,1.33-8.42,3.49-2.07,2.07-3.62,5.45-3.49,8.42.29,6.45,5.23,11.91,11.91,11.91h0Z"/><ellipse class="cls-1" cx="718.94" cy="329.67" rx="19.54" ry="19.55"/><path class="cls-6" d="M2068.6,76.67c3.05,0,6.26-1.33,8.42-3.49s3.62-5.45,3.49-8.42c-.29-6.45-5.23-11.91-11.91-11.91-3.05,0-6.26,1.33-8.42,3.49s-3.62,5.45-3.49,8.42c.29,6.45,5.23,11.91,11.91,11.91h0Z"/><circle class="cls-1" cx="2069.79" cy="65.45" r="18.99"/><path class="cls-6" d="M2149.74,78.53c3.05,0,6.26-1.33,8.42-3.49,2.07-2.07,3.62-5.45,3.49-8.42-.29-6.45-5.23-11.91-11.91-11.91-3.05,0-6.26,1.33-8.42,3.49-2.07,2.07-3.62,5.45-3.49,8.42.29,6.45,5.23,11.91,11.91,11.91h0Z"/><circle class="cls-1" cx="2150.93" cy="67.31" r="18.99"/><path class="cls-5" d="M1895.67,341.87c3.05,0,6.26-1.33,8.42-3.49,2.07-2.07,3.62-5.45,3.49-8.42-.29-6.45-5.23-11.91-11.91-11.91-3.05,0-6.26,1.33-8.42,3.49s-3.62,5.45-3.49,8.42c.29,6.45,5.23,11.91,11.91,11.91h0Z"/><circle class="cls-2" cx="1894.53" cy="329.31" r="20.8"/><path class="cls-6" d="M976.88,344.92c3.05,0,6.26-1.33,8.42-3.49s3.62-5.45,3.49-8.42c-.29-6.45-5.23-11.91-11.91-11.91-3.05,0-6.26,1.33-8.42,3.49-2.07,2.07-3.62,5.45-3.49,8.42.29,6.45,5.23,11.91,11.91,11.91h0Z"/><ellipse class="cls-1" cx="977.29" cy="334.07" rx="19.54" ry="19.55"/></g></svg>