<svg id="Layer_1" xmlns="http://www.w3.org/2000/svg" version="1.1" viewBox="0 0 4425.1 483"><defs><style>.st0{fill:#171636}.st1{fill:#173387}.st2{fill:none;stroke:#1d1c38;stroke-miterlimit:10}</style></defs><g id="_5eme_plan"><path d="M1485 479.9c541.3 4.1 1153.8 1.9 1806.2-3.9 411.7.5 789-48.4 1131.8-234.6C4080.2 55.3 3702.9 6.4 3291.2 6.9 2638.8 1.2 2026.3-1 1485 3.1 891.1-2.2 441.1 119.5 3.7 241.5c437.4 122 887.4 243.8 1481.3 238.4Z" style="stroke-width:2px;fill:none;stroke:#1d1c38;stroke-miterlimit:10"/><path class="st2" d="m4305.5 278.5-71.7 25.1v-64h71.7v38.9zM4223.5 306.9l-68.5 22.2V261h68.5v45.9zM4143.2 332.4l-66.7 22.2v-87.4h66.7v65.2zM4062.6 359.4v-57.2h-72.3v77.6l72.3-20.4zM3977.2 383v-86.9h-44v98.4l44-11.5zM3933.2 239.6h129.3V286h-129.3zM4305.5 200.8l-71.7-25.2v64h71.7v-38.8zM4223.5 172.4l-68.5-22.2v68.1h68.5v-45.9zM4142.1 143.5l-66.6-18.8v73.9h66.6v-55.1zM4062.6 119.9v57.2h-72.3V99.5l72.3 20.4zM3977.2 96.3v86.9h-44V84.8l44 11.5zM3933.2 193.2h129.3v46.4h-129.3zM3869.9 239.6v46.5h-61.3v7h-81.4v-53.5h142.7zM3869.9 239.6v-46.4h-61.3v-7h-81.4v53.4h142.7zM3869.9 81.3l-48.6-12v94.2h48.6V81.3zM3805.8 69.3 3712 47v116.5h93.8V69.3zM3869.9 409.3l-64.1 16V304.4h64.1v104.9zM3790.5 427.2l-78.8 12.4V316.7h78.8v110.5zM3600.3 316.7h96.4V442l-96.4 12.8V316.7zM3587.8 454.8l-97.7 9.7V316.7h97.7v138.1zM3474.9 464.5l-49.3 3.1V316.7h49.3v147.8zM3320.5 318.8h93.4v54.5h-93.4zM3585.5 186.2h111.3v107h-111.3zM3507.2 188.7h63.6v104.4h-63.6zM3445 188.7h50.7v104.4H3445zM3698.4 47l-94.3-15.1v116.9h94.3V47zM3587.2 163.5h-112.8V22.2l112.8 8.4v132.9zM3397.3 22.2h64.6v141.3h-64.6zM3382.4 22.2l-61.9-3.2v168.3h61.9V22.2zM3063.5 131h221v221h-221zM3063.5 352v25.5h-360.3V106.1h360.3V352zM2543.2 137.5h76.4v208h-76.4zM2329.8 137.5h176v208h-176zM1724.9 138.4h360.3V347h-360.3zM1331.5 27.3h171.6v72h-171.6zM1331.5 148.8h146.7v189h-146.7zM858.9 191.4h155.8v104.3H858.9zM574.8 191.4h72v104.4h-72zM239.8 288l-62.7-18.9v-51.3l62.7-17.8v88zM662.7 191.4h84v104.3h-84zM795.1 191.4h63.8v104.3h-63.8zM746.7 295.7h36.4V66.3l-36.4 7.6v221.8zM676 119.6h70.7v53.8H676zM746.7 406.2v-86.3h-84v70.7l84 15.6zM746.7 406.2l36.4 7.1v-93.4h-36.4v86.3zM646.8 387.3l-73.3-17.4v-58.6h73.3v76zM2820.3 8.3h108v81.3h-108zM3204.4 19h84.4v89.8h-84.4zM3140.4 19h46.2v89.8h-46.2zM3204.8 373.3h84V470h-84zM3140.4 373.3h46.2V470h-46.2zM177.1 289.3v-95.6M239.8 306V177M676 119.6h-13.3V79.3M563.9 384.1V99.5M522.8 375.2V107.8M457.6 360.5v-80.6h-64.5v-74.4h11.4v-69.9"/><path class="st2" d="M457.6 122.6v82.2h-53.1M457.6 279.9v-75.1M469.4 119.6v71.8h94.5M563.9 295.7l-41.1.1h-53.4V363M563.9 244h-41.1M563.9 319.9h-41.1M563.9 260.2h-41.1M563.9 225h-41.1M563.9 163.7h-41.1M610.8 311.3v67.5M646.8 349.3h-36M646.8 82v81.7h-44.9V90.9M646.8 119.6h-44.9M610.8 295.8V191.4M646.8 242.4h-72M646.8 270.9h-72M646.8 220.7h-73.3M746.7 366.6h-84M695.6 319.9v46.7M783.1 343.3h-36.4M783.1 381.6h-36.4M783.1 260.2h-36.4M783.1 230.8h-36.4M783.1 191.4h-36.4M783.1 155.5h-36.4M746.7 119.6h36.4M892 442v-81.5h-49.9v-20.1h-43.6V428"/><path class="st2" d="M845.2 435.3v-48l-3.1-8.5v-18.3M798.5 370.3h43.6M858.9 191.4v-18H814v-50.6h141v-9.9h-46.6v-74"/><path class="st2" d="M892 41v70.6h-93.5V55M907.2 444.1v-52.9h63.3v-12.4h79.5v81.9M1017.7 345v-22.2h-77.6v20.5h74.6M892 191.4v-68.6M892 173.4h48.1v-30.7H955v-19.9M955 142.7h48.5V85.6h-21.2V29.9"/><path class="st2" d="M955 32.8v80.1h48.5M908.4 76.3H955M1003.5 85.6h14.2V27.3M1050 22.3v103.6h-32.3V85.6h32.3M1033.9 125.9v117.4h-19.2M955 151.6h78.9M845.2 173.4v-50.6M1017.7 457.4v-78.6M1050 419.7h-32.3M970.5 391.2v60.9M1128.4 15.4v110.5h-63.6V41l7.3-5.2V20.2M1128.4 82.8h-63.6M1101.2 125.9V82.8M1142.3 14.3v111.6h66.4V9.9M1221.6 9.1v113.7h64.6v-40h12.9V5.6M1208.7 82.8h-66.4M1175.5 125.9V12M1253.9 122.8V7.5M1286.2 82.8h-64.6M1064.8 146.5h63.6v44.9h-63.6zM1142.3 148.8h62.4v42.7h-62.4zM1221.6 148.8h64.5v42.7h-64.5z"/><path class="st2" d="M1064.8 191.4h234.3v104.3h-234.3zM1064.8 295.7h63.6v42.8h-63.6zM1142.3 295.7h64.6v42.8h-64.6zM1221.6 295.7h32.2v42.1h-32.2zM1253.9 191.4v-42.6M1175.5 191.4v-43.3M1096.6 191.4v-44.9M1096.6 337.8v-42.1M1174.6 337.8v-42.1M1142.3 191.4v104.3M1299.1 477.4V76.3M1253.9 337.8l14.3 7.2v13.5h-46.6v115.4"/><path class="st2" d="M1253.9 475.5v-81.7h45.2M1268.2 345h30.9M1268.2 358.5h30.9M1221.6 393.8h32.3v-35.3M1253.9 404h-32.3M1204.7 472.9V358.5h-62.4v110.2M1174.6 471V358.5M1204.7 393.8h-62.4M1128.4 467.6V356.5h-63.6v78.8l7.9 7.9v19.6M1128.4 393.8h-63.6M1331.5 337.8h-32.4M1331.5 148.8h-32.4M1551 2.6v145.5h-72.9M1299.1 125.9H1551M1551 148.1v190.4l-73.9-.7M1478.1 302.5h72.9M1478.1 184.6h72.9M1441 480.1V337.8M1347.7 338.5v29.1h93.3M1488.3 480.1V337.8M1582.3 480.6V2.4M1551 338.5h31.3M1488.3 358.5h94M1709.9 481.3V313.9h-64v103.3h13.8V431h-29V319.4h-48.4M1709.9 364.1h-63.8M1659.7 417.2h50.2M1646.1 431v49.1M1630.7 381.4h-48.4M1724.9 347h-15M1709.9 313.9h15M1724.9 181.9h-142.6M1770.2 138.4V89.8h-187.9M1582.3 67.6h187.9v-65M1717.4 1.7v65.9M1659.7 67.6v-65M1627.2 67.6V1.7M1739.2 138.4V89.8M1832.7 137.5V75.4h16.4v14.4h61.5V44.5h-62.3V1.3M1848.3 44.5v10.1M1849.1 75.4v-7.8M1943.3 347V141.9M1910.6 347V1.1M1848.3 480.6v-113h-29V347M1910.6 480.6v-113h-46.7V138.4M2052.4 347V138.4M2085.2 304h59.2V181.9h-59.2M2192.7 482V295.4h-14.8v-106h14.8V1.1M2192.7 295.4h31.9V190.2h-31.9M2427.5 482v-61.8h16.5V347M2410.4 138.4V1.5M2505.8 1.5v136M2505.8 345.5v135.7M2505.8 69.9h-46V1.5M2615.6 1.5v109.9h-109.8M2615.6 480.7v-87.9h-109.8M2553.8 482v-89.2M2581.4 392.8v-47.3M2703.2 295.4h-83.6M2619.6 137.5l41.8.9V121h41.8V56.5h-70.5v81.9M2661.4 2.5v54"/><path class="st2" d="M2661.4 121V97.4h-28.7M2632.7 56.5h-17.1M2738.4 106.1V56.5h-35.2M2753.5 56.5v33.1h50.1V3.3M2738.4 56.5h65.2M2753.5 56.5V3M2703.2 377.5v102.8M2743.1 480.7V377.5M2928.3 38.2h15.7v54.6h119.5v13.3h54.4v-34h-54.4v20.7M3090.4 106.1v-34"/><path class="st2" d="M3063.5 72.1V57.2h-43.1v35.6M3117.9 5.5v51.7h-88.5V4.8M2991.9 92.8V4.5M2944 55.4h47.9M3140.4 57.2h46.2M3242.6 19v38.2h-37.8M3257.8 108.8V19M2756.4 392.7h94.1v86.7h-94.1zM2866 392.7h94.7v86H2866z"/><path class="st2" d="M2756.4 392.7h47V432h-47zM2803.4 392.7h47V432h-47zM2803.4 432h47v47h-47zM2865.5 430.8h47.9v47.9h-47.9z"/><path class="st2" d="M2913.3 421.6h47.4v57.1h-47.4zM2927 392.7h33.7v28.9H2927zM3053.4 421.6h64.9v55.9h-64.9zM3063.5 377.5h54.8v29.7h-54.8z"/><path class="st2" d="M3038.5 478.1v-49h-31.1v-9.8h-30.8v29.4h-15.9M3007.4 429.1v48.4M2991.8 401.8v-24.3M3118.3 377.5V352M3117.9 106.1V131M3288.8 421.6h-84M3242.6 469.9v-96.6M3186.6 421.6h-46.2M3382.4 72.1h-43.5V19.9M3382.4 116.4h-61.9M3382.4 151.6h-61.9M3445 22.2v49.9h-47.7M3461.9 114.5h-64.6M3429.6 163.5v-49M3320.5 187.3v131.5M3320.5 476V373.3h-31.7M3288.8 407.2h31.7M3320.5 469.9l96.5-2.3v-74.8h-25.8v37.4h-70.7M3368.8 467.6v-36.3M3417 430.2h-25.8M3368.8 373.3v-54.5M3320.5 293.1h40.2V187.3M3495.7 241.5H3445M3474.9 369.3h-49.3M3474.9 407.2h-49.3M3539 459.6V318.8M3587.2 369.3h-97.1M3587.2 410.7h-97.1M3570.8 226.9h-63.6M3538.6 188.7v38.2M3587.2 114.5h-112.8M3524.8 27v45.1h-49.9M3587.2 72.1H3539M3539 163.5V27M3604.1 148.8v37.4M3651.2 39.5v408.9M3604.1 84.8h47.1M3698.4 99.5h-47.2M3696.7 241.5h-109.5M3696.7 357.3h-45.5M3651.2 369.3h-50.9M3651.2 403.8h-50.9M3696.7 401.4h-45.5M3682 186.2v-37.4M3758.9 163.5V58.2M3805.8 114.5h-46.9M3758.9 99.5H3712M3808.6 286.1v-92.9M3764.7 293.1V186.2M3790.5 394.5h-16.3v6.9H3712M3790.5 335.2h-78.8M3869.9 124.7h-48.6M3933.2 207.8h-63.3M3933.2 275h-63.3M3933.2 286.1v10M3933.2 394.5l-49.8 12.7V275"/><path class="st2" d="M3933.2 318.8h-31.6v-12h-18.2M3915.2 397.9V341h-31.8M3933.2 239.6h-63.3M3883.4 207.6V74.9l49.8 9.9M3933.2 193.2v-10M3933.2 171.9h-49.8"/><path class="st2" d="M3915.2 81.2v60.1h-31.8M4017.2 193.2v92.9M3967 193.2v92.9M3977.2 154.6h-44M3977.2 129h-44M3977.2 329.1h-44M3977.2 354.6h-44M4022.7 370.6v-67M4022.7 177.1v-68.4M4263.8 293.1V186.2M4233.8 229.9H4171v21.7h62.8M4183.9 319.8V261M4183.9 218.3v-58.8M4108.8 198.6V134M4108.8 345.3v-78.1"/></g><g id="points"><path class="st0" d="M544 346.3v-.1.1Z"/><path class="st1" d="M764.4 360.3c.1 0 .1-.2 0-.2s-.1.2 0 .2ZM766.1 364.4v-.9c0-.1-.2-.1-.2 0v.9c0 .1.2.1.2 0ZM544.5 320c3 0 6.3-1.3 8.4-3.5 2.1-2.1 3.6-5.5 3.5-8.4-.3-6.5-5.2-11.9-11.9-11.9s-6.3 1.3-8.4 3.5-3.6 5.5-3.5 8.4c.3 6.5 5.2 11.9 11.9 11.9Z"/><path class="st0" d="M544.8 147.8c3 0 6.3-1.3 8.4-3.5 2.1-2.1 3.6-5.4 3.5-8.4-.3-6.4-5.2-11.9-11.9-11.9s-6.3 1.3-8.4 3.5-3.6 5.5-3.5 8.4c.3 6.4 5.2 11.9 11.9 11.9ZM544 188.5c3 0 6.3-1.3 8.4-3.5s3.6-5.4 3.5-8.4c-.3-6.4-5.2-11.9-11.9-11.9s-6.3 1.3-8.4 3.5-3.6 5.4-3.5 8.4c.3 6.4 5.2 11.9 11.9 11.9ZM544 218.3c3 0 6.3-1.3 8.4-3.5s3.6-5.4 3.5-8.4c-.3-6.4-5.2-11.9-11.9-11.9s-6.3 1.3-8.4 3.5c-2.1 2.1-3.6 5.4-3.5 8.4.3 6.4 5.2 11.9 11.9 11.9ZM591.9 218.3c3 0 6.3-1.3 8.4-3.5s3.6-5.4 3.5-8.4c-.3-6.4-5.2-11.9-11.9-11.9s-6.3 1.3-8.4 3.5c-2.1 2.1-3.6 5.4-3.5 8.4.3 6.4 5.2 11.9 11.9 11.9ZM723.5 111.4c3 0 6.3-1.3 8.4-3.5s3.6-5.4 3.5-8.4c-.3-6.4-5.2-11.9-11.9-11.9s-6.3 1.3-8.4 3.5-3.6 5.4-3.5 8.4c.3 6.4 5.2 11.9 11.9 11.9Z"/><path class="st1" d="M543.8 289.5c3 0 6.3-1.3 8.4-3.5s3.6-5.5 3.5-8.4c-.3-6.5-5.2-11.9-11.9-11.9s-6.3 1.3-8.4 3.5c-2.1 2.1-3.6 5.5-3.5 8.4.3 6.5 5.2 11.9 11.9 11.9ZM628.8 378.5c3 0 6.3-1.3 8.4-3.5s3.6-5.5 3.5-8.4c-.3-6.5-5.2-11.9-11.9-11.9s-6.3 1.3-8.4 3.5-3.6 5.5-3.5 8.4c.3 6.5 5.2 11.9 11.9 11.9ZM629.3 298.1c3 0 6.3-1.3 8.4-3.5 2.1-2.1 3.6-5.5 3.5-8.4-.3-6.5-5.2-11.9-11.9-11.9s-6.3 1.3-8.4 3.5-3.6 5.5-3.5 8.4c.3 6.5 5.2 11.9 11.9 11.9ZM628.8 218.3c3 0 6.3-1.3 8.4-3.5s3.6-5.4 3.5-8.4c-.3-6.4-5.2-11.9-11.9-11.9s-6.3 1.3-8.4 3.5c-2.1 2.1-3.6 5.4-3.5 8.4.3 6.4 5.2 11.9 11.9 11.9ZM629.3 114.9c3 0 6.3-1.3 8.4-3.5s3.6-5.4 3.5-8.4c-.3-6.4-5.2-11.9-11.9-11.9s-6.3 1.3-8.4 3.5-3.6 5.4-3.5 8.4c.3 6.4 5.2 11.9 11.9 11.9ZM686.1 114.9c3 0 6.3-1.3 8.4-3.5s3.6-5.4 3.5-8.4c-.3-6.4-5.2-11.9-11.9-11.9s-6.3 1.3-8.4 3.5-3.6 5.4-3.5 8.4c.3 6.4 5.2 11.9 11.9 11.9ZM592.8 268.5c3 0 6.3-1.3 8.4-3.5s3.6-5.5 3.5-8.4c-.3-6.4-5.2-11.9-11.9-11.9s-6.3 1.3-8.4 3.5c-2.1 2.1-3.6 5.4-3.5 8.4.3 6.5 5.2 11.9 11.9 11.9ZM765.5 290.9c3 0 6.3-1.3 8.4-3.5 2.1-2.1 3.6-5.5 3.5-8.4-.3-6.5-5.2-11.9-11.9-11.9s-6.3 1.3-8.4 3.5-3.6 5.5-3.5 8.4c.3 6.5 5.2 11.9 11.9 11.9ZM764.9 222.4c3 0 6.3-1.3 8.4-3.5 2.1-2.1 3.6-5.4 3.5-8.4-.3-6.4-5.2-11.9-11.9-11.9s-6.3 1.3-8.4 3.5-3.6 5.4-3.5 8.4c.3 6.4 5.2 11.9 11.9 11.9ZM829.1 94.7c3 0 6.3-1.3 8.4-3.5s3.6-5.4 3.5-8.4c-.3-6.4-5.2-11.9-11.9-11.9s-6.3 1.3-8.4 3.5-3.6 5.4-3.5 8.4c.3 6.4 5.2 11.9 11.9 11.9ZM931.7 71.8c3 0 6.3-1.3 8.4-3.5s3.6-5.5 3.5-8.4c-.3-6.5-5.2-11.9-11.9-11.9s-6.3 1.3-8.4 3.5c-2.1 2.1-3.6 5.5-3.5 8.4.3 6.4 5.2 11.9 11.9 11.9ZM1096.6 68.3c3.1 0 6.3-1.3 8.4-3.5s3.6-5.5 3.5-8.4c-.3-6.5-5.2-11.9-11.9-11.9s-6.3 1.3-8.4 3.5-3.6 5.5-3.5 8.4c.3 6.5 5.2 11.9 11.9 11.9ZM1158.7 68.3c3.1 0 6.3-1.3 8.4-3.5s3.6-5.5 3.5-8.4c-.3-6.5-5.2-11.9-11.9-11.9s-6.3 1.3-8.4 3.5-3.6 5.5-3.5 8.4c.3 6.5 5.2 11.9 11.9 11.9ZM1193.5 68.3c3.1 0 6.3-1.3 8.4-3.5s3.6-5.5 3.5-8.4c-.3-6.5-5.2-11.9-11.9-11.9s-6.3 1.3-8.4 3.5-3.6 5.5-3.5 8.4c.3 6.5 5.2 11.9 11.9 11.9ZM1237.8 185.3c3.1 0 6.3-1.3 8.4-3.5s3.6-5.4 3.5-8.4c-.3-6.4-5.2-11.9-11.9-11.9s-6.3 1.3-8.4 3.5-3.6 5.4-3.5 8.4c.3 6.4 5.2 11.9 11.9 11.9Z"/><path class="st0" d="M765 255.2c3 0 6.3-1.3 8.4-3.5s3.6-5.4 3.5-8.4c-.3-6.4-5.2-11.9-11.9-11.9s-6.3 1.3-8.4 3.5c-2.1 2.1-3.6 5.4-3.5 8.4.3 6.4 5.2 11.9 11.9 11.9ZM695.6 160.7c3 0 6.3-1.3 8.4-3.5 2.1-2.1 3.6-5.4 3.5-8.4-.3-6.4-5.2-11.9-11.9-11.9s-6.3 1.3-8.4 3.5-3.6 5.4-3.5 8.4c.3 6.4 5.2 11.9 11.9 11.9Z"/><path class="st1" d="M718.1 354.1c3 0 6.3-1.3 8.4-3.5 2.1-2.1 3.6-5.5 3.5-8.4-.3-6.5-5.2-11.9-11.9-11.9s-6.3 1.3-8.4 3.5-3.6 5.5-3.5 8.4c.3 6.5 5.2 11.9 11.9 11.9ZM769 343.5c3 0 6.3-1.3 8.4-3.5s3.6-5.5 3.5-8.4c-.3-6.5-5.2-11.9-11.9-11.9s-6.3 1.3-8.4 3.5c-2.1 2.1-3.6 5.5-3.5 8.4.3 6.5 5.2 11.9 11.9 11.9ZM769 375c3 0 6.3-1.3 8.4-3.5s3.6-5.5 3.5-8.4c-.3-6.5-5.2-11.9-11.9-11.9s-6.3 1.3-8.4 3.5-3.6 5.5-3.5 8.4c.3 6.5 5.2 11.9 11.9 11.9ZM820.3 368.4c3 0 6.3-1.3 8.4-3.5s3.6-5.5 3.5-8.4c-.3-6.5-5.2-11.9-11.9-11.9s-6.3 1.3-8.4 3.5-3.6 5.5-3.5 8.4c.3 6.5 5.2 11.9 11.9 11.9ZM940.1 433.5c3 0 6.3-1.3 8.4-3.5 2.1-2.1 3.6-5.5 3.5-8.4-.3-6.5-5.2-11.9-11.9-11.9s-6.3 1.3-8.4 3.5-3.6 5.5-3.5 8.4c.3 6.5 5.2 11.9 11.9 11.9ZM990.8 442.9c3 0 6.3-1.3 8.4-3.5s3.6-5.5 3.5-8.4c-.3-6.5-5.2-11.9-11.9-11.9s-6.3 1.3-8.4 3.5-3.6 5.5-3.5 8.4c.3 6.5 5.2 11.9 11.9 11.9ZM869.3 427.6c3 0 6.3-1.3 8.4-3.5s3.6-5.5 3.5-8.4c-.3-6.5-5.2-11.9-11.9-11.9s-6.3 1.3-8.4 3.5-3.6 5.5-3.5 8.4c.3 6.5 5.2 11.9 11.9 11.9ZM1158.7 388c3.1 0 6.3-1.3 8.4-3.5s3.6-5.5 3.5-8.4c-.3-6.5-5.2-11.9-11.9-11.9s-6.3 1.3-8.4 3.5-3.6 5.5-3.5 8.4c.3 6.5 5.2 11.9 11.9 11.9ZM1237.8 388c3.1 0 6.3-1.3 8.4-3.5s3.6-5.5 3.5-8.4c-.3-6.5-5.2-11.9-11.9-11.9s-6.3 1.3-8.4 3.5-3.6 5.5-3.5 8.4c.3 6.5 5.2 11.9 11.9 11.9ZM1085.5 331.9c3.1 0 6.3-1.3 8.4-3.5s3.6-5.5 3.5-8.4c-.3-6.5-5.2-11.9-11.9-11.9s-6.3 1.3-8.4 3.5-3.6 5.5-3.5 8.4c.3 6.5 5.2 11.9 11.9 11.9ZM1241 442.9c3.1 0 6.3-1.3 8.4-3.5s3.6-5.5 3.5-8.4c-.3-6.5-5.2-11.9-11.9-11.9s-6.3 1.3-8.4 3.5-3.6 5.5-3.5 8.4c.3 6.5 5.2 11.9 11.9 11.9ZM1276.5 442.9c3.1 0 6.3-1.3 8.4-3.5s3.6-5.5 3.5-8.4c-.3-6.5-5.2-11.9-11.9-11.9s-6.3 1.3-8.4 3.5-3.6 5.5-3.5 8.4c.3 6.5 5.2 11.9 11.9 11.9ZM3955.2 324.7c3.1 0 6.3-1.3 8.4-3.5s3.6-5.5 3.5-8.4c-.3-6.5-5.2-11.9-11.9-11.9s-6.3 1.3-8.4 3.5c-2.1 2.1-3.6 5.5-3.5 8.4.3 6.5 5.2 11.9 11.9 11.9ZM4092.1 298c3.1 0 6.3-1.3 8.4-3.5 2.1-2.1 3.6-5.5 3.5-8.4-.3-6.5-5.2-11.9-11.9-11.9s-6.3 1.3-8.4 3.5-3.6 5.5-3.5 8.4c.3 6.5 5.2 11.9 11.9 11.9ZM4171 322.8c3 0 6.3-1.3 8.4-3.5 2.1-2.1 3.6-5.5 3.5-8.4-.3-6.5-5.2-11.9-11.9-11.9s-6.3 1.3-8.4 3.5c-2.1 2.1-3.6 5.5-3.5 8.4.3 6.5 5.2 11.9 11.9 11.9ZM4092.1 160.7c3.1 0 6.3-1.3 8.4-3.5s3.6-5.4 3.5-8.4c-.3-6.4-5.2-11.9-11.9-11.9s-6.3 1.3-8.4 3.5-3.6 5.4-3.5 8.4c.3 6.4 5.2 11.9 11.9 11.9ZM4128.2 166.5c3 0 6.3-1.3 8.4-3.5s3.6-5.4 3.5-8.4c-.3-6.4-5.2-11.9-11.9-11.9s-6.3 1.3-8.4 3.5c-2.1 2.1-3.6 5.4-3.5 8.4.3 6.4 5.2 11.9 11.9 11.9ZM4249.7 239c3 0 6.3-1.3 8.4-3.5 2.1-2.1 3.6-5.4 3.5-8.4-.3-6.4-5.2-11.9-11.9-11.9s-6.3 1.3-8.4 3.5-3.6 5.4-3.5 8.4c.3 6.4 5.2 11.9 11.9 11.9ZM4287.7 239c3 0 6.3-1.3 8.4-3.5 2.1-2.1 3.6-5.4 3.5-8.4-.3-6.4-5.2-11.9-11.9-11.9s-6.3 1.3-8.4 3.5c-2.1 2.1-3.6 5.4-3.5 8.4.3 6.4 5.2 11.9 11.9 11.9ZM3955.2 386.5c3.1 0 6.3-1.3 8.4-3.5 2.1-2.1 3.6-5.5 3.5-8.4-.3-6.5-5.2-11.9-11.9-11.9s-6.3 1.3-8.4 3.5-3.6 5.5-3.5 8.4c.3 6.5 5.2 11.9 11.9 11.9ZM4009.1 171.4c3.1 0 6.3-1.3 8.4-3.5 2.1-2.1 3.6-5.4 3.5-8.4-.3-6.4-5.2-11.9-11.9-11.9s-6.3 1.3-8.4 3.5-3.6 5.4-3.5 8.4c.3 6.4 5.2 11.9 11.9 11.9ZM4043.5 230.2c3.1 0 6.3-1.3 8.4-3.5 2.1-2.1 3.6-5.4 3.5-8.4-.3-6.4-5.2-11.9-11.9-11.9s-6.3 1.3-8.4 3.5-3.6 5.4-3.5 8.4c.3 6.4 5.2 11.9 11.9 11.9Z"/><path class="st0" d="M1096.6 388c3.1 0 6.3-1.3 8.4-3.5s3.6-5.5 3.5-8.4c-.3-6.5-5.2-11.9-11.9-11.9s-6.3 1.3-8.4 3.5-3.6 5.5-3.5 8.4c.3 6.5 5.2 11.9 11.9 11.9ZM629.3 270.9c3 0 6.3-1.3 8.4-3.5s3.6-5.5 3.5-8.4c-.3-6.4-5.2-11.9-11.9-11.9s-6.3 1.3-8.4 3.5-3.6 5.4-3.5 8.4c.3 6.5 5.2 11.9 11.9 11.9ZM824 409.8c3 0 6.3-1.3 8.4-3.5s3.6-5.5 3.5-8.4c-.3-6.5-5.2-11.9-11.9-11.9s-6.3 1.3-8.4 3.5-3.6 5.5-3.5 8.4c.3 6.5 5.2 11.9 11.9 11.9ZM869.3 390.7c3 0 6.3-1.3 8.4-3.5s3.6-5.5 3.5-8.4c-.3-6.5-5.2-11.9-11.9-11.9s-6.3 1.3-8.4 3.5-3.6 5.5-3.5 8.4c.3 6.5 5.2 11.9 11.9 11.9ZM990.8 411.6c3 0 6.3-1.3 8.4-3.5s3.6-5.5 3.5-8.4c-.3-6.5-5.2-11.9-11.9-11.9s-6.3 1.3-8.4 3.5c-2.1 2.1-3.6 5.5-3.5 8.4.3 6.5 5.2 11.9 11.9 11.9ZM1033.9 411.6c3.1 0 6.3-1.3 8.4-3.5s3.6-5.5 3.5-8.4c-.3-6.5-5.2-11.9-11.9-11.9s-6.3 1.3-8.4 3.5c-2.1 2.1-3.6 5.5-3.5 8.4.3 6.5 5.2 11.9 11.9 11.9ZM1101.2 429.1c3.1 0 6.3-1.3 8.4-3.5s3.6-5.5 3.5-8.4c-.3-6.5-5.2-11.9-11.9-11.9s-6.3 1.3-8.4 3.5-3.6 5.5-3.5 8.4c.3 6.5 5.2 11.9 11.9 11.9ZM1101.2 459.8c3.1 0 6.3-1.3 8.4-3.5 2.1-2.1 3.6-5.5 3.5-8.4-.3-6.5-5.2-11.9-11.9-11.9s-6.3 1.3-8.4 3.5-3.6 5.5-3.5 8.4c.3 6.5 5.2 11.9 11.9 11.9ZM1158.7 438.1c3.1 0 6.3-1.3 8.4-3.5s3.6-5.5 3.5-8.4c-.3-6.5-5.2-11.9-11.9-11.9s-6.3 1.3-8.4 3.5-3.6 5.5-3.5 8.4c.3 6.5 5.2 11.9 11.9 11.9ZM1189.4 438.1c3.1 0 6.3-1.3 8.4-3.5s3.6-5.5 3.5-8.4c-.3-6.5-5.2-11.9-11.9-11.9s-6.3 1.3-8.4 3.5-3.6 5.5-3.5 8.4c.3 6.5 5.2 11.9 11.9 11.9ZM1241 469.3c3.1 0 6.3-1.3 8.4-3.5s3.6-5.5 3.5-8.4c-.3-6.5-5.2-11.9-11.9-11.9s-6.3 1.3-8.4 3.5-3.6 5.5-3.5 8.4c.3 6.5 5.2 11.9 11.9 11.9ZM1189.4 467.4c3.1 0 6.3-1.3 8.4-3.5s3.6-5.5 3.5-8.4c-.3-6.5-5.2-11.9-11.9-11.9s-6.3 1.3-8.4 3.5-3.6 5.5-3.5 8.4c.3 6.5 5.2 11.9 11.9 11.9ZM1279.5 469.3c3.1 0 6.3-1.3 8.4-3.5s3.6-5.5 3.5-8.4c-.3-6.5-5.2-11.9-11.9-11.9s-6.3 1.3-8.4 3.5-3.6 5.5-3.5 8.4c.3 6.5 5.2 11.9 11.9 11.9ZM1189.4 388c3.1 0 6.3-1.3 8.4-3.5s3.6-5.5 3.5-8.4c-.3-6.5-5.2-11.9-11.9-11.9s-6.3 1.3-8.4 3.5-3.6 5.5-3.5 8.4c.3 6.5 5.2 11.9 11.9 11.9ZM1114.6 331.9c3.1 0 6.3-1.3 8.4-3.5s3.6-5.5 3.5-8.4c-.3-6.5-5.2-11.9-11.9-11.9s-6.3 1.3-8.4 3.5-3.6 5.5-3.5 8.4c.3 6.5 5.2 11.9 11.9 11.9ZM1158.7 331.9c3.1 0 6.3-1.3 8.4-3.5s3.6-5.5 3.5-8.4c-.3-6.5-5.2-11.9-11.9-11.9s-6.3 1.3-8.4 3.5-3.6 5.5-3.5 8.4c.3 6.5 5.2 11.9 11.9 11.9ZM1189.4 331.9c3.1 0 6.3-1.3 8.4-3.5s3.6-5.5 3.5-8.4c-.3-6.5-5.2-11.9-11.9-11.9s-6.3 1.3-8.4 3.5-3.6 5.5-3.5 8.4c.3 6.5 5.2 11.9 11.9 11.9ZM1237.8 331.9c3.1 0 6.3-1.3 8.4-3.5s3.6-5.5 3.5-8.4c-.3-6.5-5.2-11.9-11.9-11.9s-6.3 1.3-8.4 3.5-3.6 5.5-3.5 8.4c.3 6.5 5.2 11.9 11.9 11.9ZM1237.8 68.3c3.1 0 6.3-1.3 8.4-3.5s3.6-5.5 3.5-8.4c-.3-6.5-5.2-11.9-11.9-11.9s-6.3 1.3-8.4 3.5-3.6 5.5-3.5 8.4c.3 6.5 5.2 11.9 11.9 11.9ZM1276.5 66.6c3.1 0 6.3-1.3 8.4-3.5s3.6-5.5 3.5-8.4c-.3-6.5-5.2-11.9-11.9-11.9s-6.3 1.3-8.4 3.5-3.6 5.5-3.5 8.4c.3 6.5 5.2 11.9 11.9 11.9ZM1276.5 38.8c3.1 0 6.3-1.3 8.4-3.5s3.6-5.5 3.5-8.4c-.3-6.4-5.2-11.9-11.9-11.9s-6.3 1.3-8.4 3.5-3.6 5.5-3.5 8.4c.3 6.4 5.2 11.9 11.9 11.9ZM1272.3 116.3c3.1 0 6.3-1.3 8.4-3.5s3.6-5.4 3.5-8.4c-.3-6.4-5.2-11.9-11.9-11.9s-6.3 1.3-8.4 3.5-3.6 5.4-3.5 8.4c.3 6.4 5.2 11.9 11.9 11.9ZM1272.3 182c3.1 0 6.3-1.3 8.4-3.5s3.6-5.4 3.5-8.4c-.3-6.4-5.2-11.9-11.9-11.9s-6.3 1.3-8.4 3.5c-2.1 2.1-3.6 5.4-3.5 8.4.3 6.4 5.2 11.9 11.9 11.9ZM3955.2 123.2c3.1 0 6.3-1.3 8.4-3.5s3.6-5.4 3.5-8.4c-.3-6.4-5.2-11.9-11.9-11.9s-6.3 1.3-8.4 3.5-3.6 5.4-3.5 8.4c.3 6.4 5.2 11.9 11.9 11.9ZM3955.2 153.2c3.1 0 6.3-1.3 8.4-3.5s3.6-5.4 3.5-8.4c-.3-6.4-5.2-11.9-11.9-11.9s-6.3 1.3-8.4 3.5-3.6 5.4-3.5 8.4c.3 6.4 5.2 11.9 11.9 11.9ZM3955.2 183.8c3.1 0 6.3-1.3 8.4-3.5s3.6-5.4 3.5-8.4c-.3-6.4-5.2-11.9-11.9-11.9s-6.3 1.3-8.4 3.5-3.6 5.4-3.5 8.4c.3 6.4 5.2 11.9 11.9 11.9ZM3955.2 230.2c3.1 0 6.3-1.3 8.4-3.5s3.6-5.4 3.5-8.4c-.3-6.4-5.2-11.9-11.9-11.9s-6.3 1.3-8.4 3.5-3.6 5.4-3.5 8.4c.3 6.4 5.2 11.9 11.9 11.9ZM3955.2 272.9c3.1 0 6.3-1.3 8.4-3.5s3.6-5.5 3.5-8.4c-.3-6.4-5.2-11.9-11.9-11.9s-6.3 1.3-8.4 3.5-3.6 5.4-3.5 8.4c.3 6.5 5.2 11.9 11.9 11.9ZM4043.5 278.3c3.1 0 6.3-1.3 8.4-3.5 2.1-2.1 3.6-5.5 3.5-8.4-.3-6.5-5.2-11.9-11.9-11.9s-6.3 1.3-8.4 3.5c-2.2 2.2-3.6 5.5-3.5 8.4.3 6.5 5.2 11.9 11.9 11.9ZM3955.2 353c3.1 0 6.3-1.3 8.4-3.5s3.6-5.5 3.5-8.4c-.3-6.5-5.2-11.9-11.9-11.9s-6.3 1.3-8.4 3.5-3.6 5.5-3.5 8.4c.3 6.5 5.2 11.9 11.9 11.9ZM1276.5 331.9c3.1 0 6.3-1.3 8.4-3.5s3.6-5.5 3.5-8.4c-.3-6.5-5.2-11.9-11.9-11.9s-6.3 1.3-8.4 3.5-3.6 5.5-3.5 8.4c.3 6.5 5.2 11.9 11.9 11.9ZM1276.5 393.3c3.1 0 6.3-1.3 8.4-3.5s3.6-5.5 3.5-8.4c-.3-6.5-5.2-11.9-11.9-11.9s-6.3 1.3-8.4 3.5-3.6 5.5-3.5 8.4c.3 6.5 5.2 11.9 11.9 11.9ZM1114.6 182c3.1 0 6.3-1.3 8.4-3.5s3.6-5.4 3.5-8.4c-.3-6.4-5.2-11.9-11.9-11.9s-6.3 1.3-8.4 3.5c-2.1 2.1-3.6 5.4-3.5 8.4.3 6.4 5.2 11.9 11.9 11.9ZM1080.3 182c3.1 0 6.3-1.3 8.4-3.5s3.6-5.4 3.5-8.4c-.3-6.4-5.2-11.9-11.9-11.9s-6.3 1.3-8.4 3.5c-2.1 2.1-3.6 5.4-3.5 8.4.3 6.4 5.2 11.9 11.9 11.9ZM1033.9 451.8c3.1 0 6.3-1.3 8.4-3.5s3.6-5.5 3.5-8.4c-.3-6.5-5.2-11.9-11.9-11.9s-6.3 1.3-8.4 3.5-3.6 5.5-3.5 8.4c.3 6.5 5.2 11.9 11.9 11.9ZM769 409.8c3 0 6.3-1.3 8.4-3.5s3.6-5.5 3.5-8.4c-.3-6.5-5.2-11.9-11.9-11.9s-6.3 1.3-8.4 3.5-3.6 5.5-3.5 8.4c.3 6.5 5.2 11.9 11.9 11.9ZM765.5 185.3c3 0 6.3-1.3 8.4-3.5s3.6-5.4 3.5-8.4c-.3-6.4-5.2-11.9-11.9-11.9s-6.3 1.3-8.4 3.5-3.6 5.4-3.5 8.4c.3 6.4 5.2 11.9 11.9 11.9ZM829.1 160.7c3 0 6.3-1.3 8.4-3.5s3.6-5.4 3.5-8.4c-.3-6.4-5.2-11.9-11.9-11.9s-6.3 1.3-8.4 3.5-3.6 5.4-3.5 8.4c.3 6.4 5.2 11.9 11.9 11.9ZM869.3 163.5c3 0 6.3-1.3 8.4-3.5s3.6-5.4 3.5-8.4c-.3-6.4-5.2-11.9-11.9-11.9s-6.3 1.3-8.4 3.5-3.6 5.4-3.5 8.4c.3 6.4 5.2 11.9 11.9 11.9ZM869.3 93.9c3 0 6.3-1.3 8.4-3.5s3.6-5.4 3.5-8.4c-.3-6.4-5.2-11.9-11.9-11.9s-6.3 1.3-8.4 3.5-3.6 5.4-3.5 8.4c.3 6.4 5.2 11.9 11.9 11.9ZM914.3 163.5c3 0 6.3-1.3 8.4-3.5s3.6-5.4 3.5-8.4c-.3-6.4-5.2-11.9-11.9-11.9s-6.3 1.3-8.4 3.5-3.6 5.4-3.5 8.4c.3 6.4 5.2 11.9 11.9 11.9ZM978.9 107.1c3 0 6.3-1.3 8.4-3.5 2.1-2.1 3.6-5.4 3.5-8.4-.3-6.4-5.2-11.9-11.9-11.9s-6.3 1.3-8.4 3.5-3.6 5.4-3.5 8.4c.3 6.4 5.2 11.9 11.9 11.9ZM970.5 75.2c3 0 6.3-1.3 8.4-3.5s3.6-5.4 3.5-8.4c-.3-6.5-5.2-11.9-11.9-11.9s-6.3 1.3-8.4 3.5-3.6 5.5-3.5 8.4c.3 6.4 5.2 11.9 11.9 11.9ZM1033.9 116.3c3.1 0 6.3-1.3 8.4-3.5s3.6-5.4 3.5-8.4c-.3-6.4-5.2-11.9-11.9-11.9s-6.3 1.3-8.4 3.5-3.6 5.4-3.5 8.4c.3 6.4 5.2 11.9 11.9 11.9ZM1085.5 116.3c3.1 0 6.3-1.3 8.4-3.5s3.6-5.4 3.5-8.4c-.3-6.4-5.2-11.9-11.9-11.9s-6.3 1.3-8.4 3.5-3.6 5.4-3.5 8.4c.3 6.4 5.2 11.9 11.9 11.9ZM1114.6 116.3c3.1 0 6.3-1.3 8.4-3.5s3.6-5.4 3.5-8.4c-.3-6.4-5.2-11.9-11.9-11.9s-6.3 1.3-8.4 3.5-3.6 5.4-3.5 8.4c.3 6.4 5.2 11.9 11.9 11.9ZM1158.7 116.3c3.1 0 6.3-1.3 8.4-3.5s3.6-5.4 3.5-8.4c-.3-6.4-5.2-11.9-11.9-11.9s-6.3 1.3-8.4 3.5-3.6 5.4-3.5 8.4c.3 6.4 5.2 11.9 11.9 11.9ZM1193.5 116.3c3.1 0 6.3-1.3 8.4-3.5s3.6-5.4 3.5-8.4c-.3-6.4-5.2-11.9-11.9-11.9s-6.3 1.3-8.4 3.5-3.6 5.4-3.5 8.4c.3 6.4 5.2 11.9 11.9 11.9ZM1237.8 116.3c3.1 0 6.3-1.3 8.4-3.5s3.6-5.4 3.5-8.4c-.3-6.4-5.2-11.9-11.9-11.9s-6.3 1.3-8.4 3.5-3.6 5.4-3.5 8.4c.3 6.4 5.2 11.9 11.9 11.9ZM1158.7 185.3c3.1 0 6.3-1.3 8.4-3.5s3.6-5.4 3.5-8.4c-.3-6.4-5.2-11.9-11.9-11.9s-6.3 1.3-8.4 3.5-3.6 5.4-3.5 8.4c.3 6.4 5.2 11.9 11.9 11.9ZM1189.4 185.3c3.1 0 6.3-1.3 8.4-3.5s3.6-5.4 3.5-8.4c-.3-6.4-5.2-11.9-11.9-11.9s-6.3 1.3-8.4 3.5-3.6 5.4-3.5 8.4c.3 6.4 5.2 11.9 11.9 11.9ZM1000.8 75.2c3 0 6.3-1.3 8.4-3.5s3.6-5.4 3.5-8.4c-.3-6.5-5.2-11.9-11.9-11.9s-6.3 1.3-8.4 3.5-3.6 5.5-3.5 8.4c.3 6.4 5.2 11.9 11.9 11.9ZM1033.9 71.8c3.1 0 6.3-1.3 8.4-3.5s3.6-5.5 3.5-8.4c-.3-6.5-5.2-11.9-11.9-11.9s-6.3 1.3-8.4 3.5c-2.1 2.1-3.6 5.5-3.5 8.4.3 6.4 5.2 11.9 11.9 11.9ZM931.7 107.1c3 0 6.3-1.3 8.4-3.5 2.1-2.1 3.6-5.4 3.5-8.4-.3-6.4-5.2-11.9-11.9-11.9s-6.3 1.3-8.4 3.5-3.6 5.4-3.5 8.4c.3 6.4 5.2 11.9 11.9 11.9ZM978.6 137.8c3 0 6.3-1.3 8.4-3.5s3.6-5.4 3.5-8.4c-.3-6.4-5.2-11.9-11.9-11.9s-6.3 1.3-8.4 3.5-3.6 5.4-3.5 8.4c.3 6.5 5.2 11.9 11.9 11.9ZM766 147.8c3 0 6.3-1.3 8.4-3.5 2.1-2.1 3.6-5.4 3.5-8.4-.3-6.4-5.2-11.9-11.9-11.9s-6.3 1.3-8.4 3.5-3.6 5.5-3.5 8.4c.3 6.4 5.2 11.9 11.9 11.9ZM765 111.2c3 0 6.3-1.3 8.4-3.5s3.6-5.4 3.5-8.4c-.3-6.4-5.2-11.9-11.9-11.9s-6.3 1.3-8.4 3.5-3.6 5.4-3.5 8.4c.3 6.4 5.2 11.9 11.9 11.9ZM543.4 361.2c3 0 6.3-1.3 8.4-3.5s3.6-5.5 3.5-8.4c-.3-6.5-5.2-11.9-11.9-11.9s-6.3 1.3-8.4 3.5-3.6 5.5-3.5 8.4c.3 6.5 5.2 11.9 11.9 11.9ZM591.9 355.2c3 0 6.3-1.3 8.4-3.5s3.6-5.5 3.5-8.4c-.3-6.5-5.2-11.9-11.9-11.9s-6.3 1.3-8.4 3.5-3.6 5.5-3.5 8.4c.3 6.5 5.2 11.9 11.9 11.9ZM629.3 343.5c3 0 6.3-1.3 8.4-3.5s3.6-5.5 3.5-8.4c-.3-6.5-5.2-11.9-11.9-11.9s-6.3 1.3-8.4 3.5c-2.1 2.1-3.6 5.5-3.5 8.4.3 6.5 5.2 11.9 11.9 11.9ZM677.2 354.7c3 0 6.3-1.3 8.4-3.5 2.1-2.1 3.6-5.5 3.5-8.4-.3-6.5-5.2-11.9-11.9-11.9s-6.3 1.3-8.4 3.5-3.6 5.5-3.5 8.4c.3 6.5 5.2 11.9 11.9 11.9ZM708 399.2c3 0 6.3-1.3 8.4-3.5s3.6-5.5 3.5-8.4c-.3-6.5-5.2-11.9-11.9-11.9s-6.3 1.3-8.4 3.5-3.6 5.5-3.5 8.4c.3 6.5 5.2 11.9 11.9 11.9Z"/><path class="st1" d="M729.7 164c3 0 6.3-1.3 8.4-3.5 2.1-2.1 3.6-5.4 3.5-8.4-.3-6.4-5.2-11.9-11.9-11.9s-6.3 1.3-8.4 3.5-3.6 5.4-3.5 8.4c.3 6.4 5.2 11.9 11.9 11.9ZM4007.3 334.9c3.1 0 6.3-1.3 8.4-3.5 2.1-2.1 3.6-5.5 3.5-8.4-.3-6.5-5.2-11.9-11.9-11.9s-6.3 1.3-8.4 3.5-3.6 5.5-3.5 8.4c.3 6.5 5.2 11.9 11.9 11.9Z"/><path class="st0" d="M4043.9 331.7c3.1 0 6.3-1.3 8.4-3.5s3.6-5.5 3.5-8.4c-.3-6.5-5.2-11.9-11.9-11.9s-6.3 1.3-8.4 3.5c-2.1 2.1-3.6 5.5-3.5 8.4.3 6.5 5.2 11.9 11.9 11.9ZM4172.3 290.3c3 0 6.3-1.3 8.4-3.5 2.1-2.1 3.6-5.5 3.5-8.4-.3-6.5-5.2-11.9-11.9-11.9s-6.3 1.3-8.4 3.5c-2.1 2.1-3.6 5.5-3.5 8.4.3 6.5 5.2 11.9 11.9 11.9ZM4206.2 286.9c3 0 6.3-1.3 8.4-3.5s3.6-5.5 3.5-8.4c-.3-6.5-5.2-11.9-11.9-11.9s-6.3 1.3-8.4 3.5-3.6 5.5-3.5 8.4c.3 6.5 5.2 11.9 11.9 11.9ZM4206.2 315.5c3 0 6.3-1.3 8.4-3.5s3.6-5.5 3.5-8.4c-.3-6.5-5.2-11.9-11.9-11.9s-6.3 1.3-8.4 3.5-3.6 5.5-3.5 8.4c.3 6.5 5.2 11.9 11.9 11.9ZM4007.3 366.5c3.1 0 6.3-1.3 8.4-3.5 2.1-2.1 3.6-5.5 3.5-8.4-.3-6.5-5.2-11.9-11.9-11.9s-6.3 1.3-8.4 3.5-3.6 5.5-3.5 8.4c.3 6.5 5.2 11.9 11.9 11.9ZM4249.7 267.2c3 0 6.3-1.3 8.4-3.5s3.6-5.5 3.5-8.4c-.3-6.4-5.2-11.9-11.9-11.9s-6.3 1.3-8.4 3.5-3.6 5.4-3.5 8.4c.3 6.4 5.2 11.9 11.9 11.9ZM4249.7 210.6c3 0 6.3-1.3 8.4-3.5s3.6-5.4 3.5-8.4c-.3-6.4-5.2-11.9-11.9-11.9s-6.3 1.3-8.4 3.5-3.6 5.4-3.5 8.4c.3 6.4 5.2 11.9 11.9 11.9ZM4249.7 298c3 0 6.3-1.3 8.4-3.5s3.6-5.5 3.5-8.4c-.3-6.5-5.2-11.9-11.9-11.9s-6.3 1.3-8.4 3.5-3.6 5.5-3.5 8.4c.3 6.5 5.2 11.9 11.9 11.9ZM4287.7 290.3c3 0 6.3-1.3 8.4-3.5s3.6-5.5 3.5-8.4c-.3-6.5-5.2-11.9-11.9-11.9s-6.3 1.3-8.4 3.5c-2.1 2.1-3.6 5.5-3.5 8.4.3 6.5 5.2 11.9 11.9 11.9ZM4287.7 214.3c3 0 6.3-1.3 8.4-3.5s3.6-5.4 3.5-8.4c-.3-6.4-5.2-11.9-11.9-11.9s-6.3 1.3-8.4 3.5c-2.1 2.1-3.6 5.4-3.5 8.4.3 6.4 5.2 11.9 11.9 11.9ZM4287.7 263.5c3 0 6.3-1.3 8.4-3.5s3.6-5.4 3.5-8.4c-.3-6.4-5.2-11.9-11.9-11.9s-6.3 1.3-8.4 3.5-3.6 5.4-3.5 8.4c.3 6.4 5.2 11.9 11.9 11.9ZM4202.4 219.6c3 0 6.3-1.3 8.4-3.5s3.6-5.4 3.5-8.4c-.3-6.4-5.2-11.9-11.9-11.9s-6.3 1.3-8.4 3.5-3.6 5.4-3.5 8.4c.3 6.4 5.2 11.9 11.9 11.9ZM4202.4 191.1c3 0 6.3-1.3 8.4-3.5s3.6-5.4 3.5-8.4c-.3-6.4-5.2-11.9-11.9-11.9s-6.3 1.3-8.4 3.5-3.6 5.4-3.5 8.4c.3 6.4 5.2 11.9 11.9 11.9ZM4167.7 183.8c3 0 6.3-1.3 8.4-3.5s3.6-5.4 3.5-8.4c-.3-6.4-5.2-11.9-11.9-11.9s-6.3 1.3-8.4 3.5-3.6 5.4-3.5 8.4c.3 6.4 5.2 11.9 11.9 11.9ZM4128.2 298c3 0 6.3-1.3 8.4-3.5s3.6-5.5 3.5-8.4c-.3-6.5-5.2-11.9-11.9-11.9s-6.3 1.3-8.4 3.5c-2.1 2.1-3.6 5.5-3.5 8.4.3 6.5 5.2 11.9 11.9 11.9ZM4128.2 331.7c3 0 6.3-1.3 8.4-3.5s3.6-5.5 3.5-8.4c-.3-6.5-5.2-11.9-11.9-11.9s-6.3 1.3-8.4 3.5c-2.1 2.1-3.6 5.5-3.5 8.4.3 6.5 5.2 11.9 11.9 11.9ZM4092.1 341c3.1 0 6.3-1.3 8.4-3.5s3.6-5.5 3.5-8.4c-.3-6.5-5.2-11.9-11.9-11.9s-6.3 1.3-8.4 3.5-3.6 5.5-3.5 8.4c.3 6.5 5.2 11.9 11.9 11.9ZM4092.1 195.1c3.1 0 6.3-1.3 8.4-3.5s3.6-5.4 3.5-8.4c-.3-6.4-5.2-11.9-11.9-11.9s-6.3 1.3-8.4 3.5-3.6 5.4-3.5 8.4c.3 6.4 5.2 11.9 11.9 11.9ZM4043.9 171.4c3.1 0 6.3-1.3 8.4-3.5s3.6-5.4 3.5-8.4c-.3-6.4-5.2-11.9-11.9-11.9s-6.3 1.3-8.4 3.5c-2.1 2.1-3.6 5.4-3.5 8.4.3 6.4 5.2 11.9 11.9 11.9ZM4043.9 140.9c3.1 0 6.3-1.3 8.4-3.5s3.6-5.4 3.5-8.4c-.3-6.4-5.2-11.9-11.9-11.9s-6.3 1.3-8.4 3.5c-2.1 2.1-3.6 5.4-3.5 8.4.3 6.4 5.2 11.9 11.9 11.9ZM4007.3 136.6c3.1 0 6.3-1.3 8.4-3.5 2.1-2.1 3.6-5.4 3.5-8.4-.3-6.4-5.2-11.9-11.9-11.9s-6.3 1.3-8.4 3.5-3.6 5.4-3.5 8.4c.3 6.5 5.2 11.9 11.9 11.9ZM4128.2 195.1c3 0 6.3-1.3 8.4-3.5s3.6-5.4 3.5-8.4c-.3-6.4-5.2-11.9-11.9-11.9s-6.3 1.3-8.4 3.5c-2.1 2.1-3.6 5.4-3.5 8.4.3 6.4 5.2 11.9 11.9 11.9ZM4167.7 214.3c3 0 6.3-1.3 8.4-3.5s3.6-5.4 3.5-8.4c-.3-6.4-5.2-11.9-11.9-11.9s-6.3 1.3-8.4 3.5-3.6 5.4-3.5 8.4c.3 6.4 5.2 11.9 11.9 11.9ZM1159.1 42.4c3.1 0 6.3-1.3 8.4-3.5s3.6-5.5 3.5-8.4c-.3-6.4-5.2-11.9-11.9-11.9s-6.3 1.3-8.4 3.5c-2.1 2.1-3.6 5.5-3.5 8.4.3 6.4 5.2 11.9 11.9 11.9ZM1193.3 40.9c3.1 0 6.3-1.3 8.4-3.5s3.6-5.5 3.5-8.4c-.3-6.4-5.2-11.9-11.9-11.9s-6.3 1.3-8.4 3.5-3.6 5.5-3.5 8.4c.3 6.4 5.2 11.9 11.9 11.9ZM1236.2 38.8c3.1 0 6.3-1.3 8.4-3.5s3.6-5.5 3.5-8.4c-.3-6.4-5.2-11.9-11.9-11.9s-6.3 1.3-8.4 3.5-3.6 5.5-3.5 8.4c.3 6.4 5.2 11.9 11.9 11.9ZM679.9 394.6c3 0 6.3-1.3 8.4-3.5s3.6-5.5 3.5-8.4c-.3-6.5-5.2-11.9-11.9-11.9s-6.3 1.3-8.4 3.5c-2.1 2.1-3.6 5.5-3.5 8.4.3 6.5 5.2 11.9 11.9 11.9Z"/><path class="st1" d="M4044.1 361.4c3.1 0 6.3-1.3 8.4-3.5s3.6-5.5 3.5-8.4c-.3-6.5-5.2-11.9-11.9-11.9s-6.3 1.3-8.4 3.5-3.6 5.5-3.5 8.4c.3 6.5 5.2 11.9 11.9 11.9Z"/></g></svg>