<svg id="Layer_1" xmlns="http://www.w3.org/2000/svg" version="1.1" viewBox="0 0 3889.6 403.6"><defs><style>.st0{stroke:#173387}.st0,.st1,.st2,.st3{fill:none}.st0,.st2,.st3{stroke-miterlimit:10}.st0,.st3{stroke-width:2px}.st1{stroke-linejoin:round}.st1,.st2,.st3{stroke:#171636}.st4{fill:#171636}.st5{fill:#173387}</style></defs><g id="_4eme_plan"><path class="st3" d="M3888.1 201.1c-12.3 132.3-111 173.3-754.3 192-620.6 21.5-2344.3 0-2344.3 0s-630.3-78-787.9-192C161.5 87 778.5 6.1 794.7 6c16.2 0 2198-6.8 2338.2-4.6C3407.3 11.5 3907 .1 3888.1 201Z"/><path class="st2" d="M384.8 325.9V74.5M789.6 393.1V6.5M463.1 341.4v-95.3h-34.4v9.7h8.2v20.6h-40.8v51.9M498.1 347.9v-14.2M632.1 370.5v-22.6M726.1 384.5v-25.3M833.2 393.6V6.5M789.6 62.5h43.6M789.6 112.2h43.6M789.6 156.3h43.6M789.6 201.2h43.6M789.6 246.1h43.6M789.6 289h43.6M789.6 339.2h43.6M844.9 6.5v94.3h108.3V5.6M899 5.6v95.2M844.9 21.8h-11.7"/><path class="st2" d="M844.9 62.5h26.9V49.7M927.1 49.7v12.8h26.1M885.3 5.8v11.7M913.7 5.7v11.8M965 5.3v94.3h108.3V4.4M1019.1 4.4v95.2M964.7 15h-11.8"/><path class="st2" d="M965 61.3h26.9V48.5M1047.2 48.5v12.8h26.1M1005.3 4.6v11.7M1033.8 4.5v11.8M1087 4.9v94.9h108.3V4.6M1141.2 4.6v95.2M1087.3 14h-14"/><path class="st2" d="M1087 61.5h26.9V48.7M1169.3 48.7v12.8h26M1127.4 4.8v11.7M1155.8 4.7v11.8M150.2 266.8V134.9M384.8 232.7h-53.3v-63.3h53.3M47.8 227.6v-53M331.5 192.8H150.2M331.5 209.8H150.2M463.1 58.6v89h-24.8v-21.5h-42.2v-54M442 246.1v-98.5M463.1 246.1H474v-89.8h-10.9M474 246.1h48.2v-36.3h-24.1v-17H474M632.1 244.3v-88h-72.8v89.8l72.8-1.8zM672.5 242.9s.7-87.3 0-86.6c-.7.7 53.6 0 53.6 0v86.6h-53.6ZM789.6 86.6H752V127h37.6M726.1 14.7v27.8M632.1 28.9v18.9M498.1 52v14.7M846.5 117.9h80.6v165.4h-80.6zM953.2 394.9v-94.4H844.9v94.4M833.2 380.7h11.7M899 300.5v94.4"/><path class="st2" d="M844.9 339.2h26.9v12.9M952.9 339.2h-25.8v12.9M913.7 394.9v-10.4M885.3 394.9v-10.4M1073.3 395.1v-94.4H965v94.4M953.2 380.9H965M1019.1 300.7v95.6"/><path class="st2" d="M965 339.4h26.9v12.8M1073 339.4h-25.8v12.8M1033.8 396.3v-11.6M1005.3 396.3v-11.6M1195.6 397v-97.1h-109.1V397M1073 388.4h14.2M1141.4 299.9V397"/><path class="st2" d="M1087.2 338.6h26.9v12.9M1195.2 338.6h-25.7v12.9M1156 397v-13.1M1127.6 397v-13.1M927.1 246.1h-80.6M927.1 199.8h-80.6M927.1 156.3h-80.6M896.6 117.9v38.4M927.1 137.1h-30.5M1261.1 283.2V117.9h-29.6v38.4h-11.3v-38.4H940v165.3h280.2v-37.1h8.2v37.1h32.7zM1261.1 246.1H940.2M1261.1 156.3H940.2M987.4 283.2v-37.1M1033.8 283.2V156.3M1077.4 283.2v-37.1M1125.2 283.2v-37.1M1172 283.2V156.3M1188.6 283.2v-37.1M1206.8 246.1v-89.8M1201.6 246.1v-89.8M1153.8 246.1V117.9M1201.6 228.9H1172M1201.6 171.2H1172M1019.1 246.1V117.9M994.2 246.1v-89.8M1019.1 228.9h-24.9M1019.1 171.2h-24.9M973.8 156.3v-38.4M1060.1 156.3v-38.4M1107 156.3v-38.4M1208.4 4.8v95h52.7v-95M1247.3 4.8V15"/><path class="st2" d="M1208.4 61.5h26.4V52M1261.1 397.9v-98h-54.3v98M1246.9 397.9v-9.5"/><path class="st2" d="M1206.8 338.6h27.2v12.9M1396.3 4.3v70.3h-68.4v43.3h-66.8M1327.9 74.6h-66.8M1396.3 399v-73.2h-68.4v-42.6h-66.8M1327.9 325.8h-66.8M1335.6 154.8h32.7v91.3h-32.7z"/><path class="st1" d="M1394.1 182v-25.7h41c-14.5 3.5-4 23.8-41 25.7ZM1394.1 218.6v27.5h41c-13.6-4.1-6.6-27.5-41-27.5Z"/><path class="st2" d="M1368.3 215.9h-32.7M1368.3 185.2h-32.7"/><path class="st1" d="M1736.1 246.1v-89.8h-220v89.8h220M1543.2 246.1v-89.8M1559.4 246.1v-89.8M1543.2 228.9h-27.1M1543.2 171.2h-27.1M1543.2 200.5h-27.1M1696.2 246.1v-89.8M1669.1 246.1v-89.8M1736.1 228.9h-39.9M1736.1 201.2h-39.9M1736.1 176h-39.9M1635.7 156.3V3.6M1637.6 400.6V246.1M1516.1 400.6v-18.9M1516.1 3.6v17.9M1810.6 3.2v71.1M1848.8 74.3h-77.2M1810.6 401.5v-74.3M1848.8 327.2h-77.2M1970.4 402.2v-75M2009.4 327.2h-78M1970.4 2.8v71.5M2009.4 74.3h-78M2237.6 246.1v-98.6h-53.3v8.8h-166.2v86.6h166.2V254h53.3v-7.9zM2144.4 2.8v153.5M2184.3 147.5v-41.2h113.5v12.5l-113.5.5M2211.6 2.2v46.7h81.3s7.6-1.1 7.6 9.2v16.2h10.3V52.6s1.6-15.3-20.1-14.4c-21.7.8-66.7 0-66.7 0v-36M2301.1 118.3V82h9.8v24.4s.5 9.2-9.8 11.9ZM2211.6 48.9h-10.8V33.7h-7.6v-4.3h-22.8V2.2M2165.6 156.3v-26.1M2184.3 254v41.2h143.8v-12.5l-143.8-.5M2211.1 402.6v-51.5h113.1s7.6 1.1 7.6-9.2.3-20.3.3-20.3h10.3l-.3 25.7s1.6 15.3-20.1 14.4c-21.7-.9-70.5 0-70.5 0v8.2h-13.9v32.7M2332.3 281.7v32h9.8v-20.1s.5-9.2-9.8-11.9ZM2237.6 369.9v-18.8M2251.5 361.7v-10.6M2237.6 357.7h13.9M2211.1 362.1h-40.6v40.5M2144.7 402.6v-10.9h25.8M2144.7 391.7V242.9M2164.6 242.9v27.9"/><path class="st2" d="M2398.5 402.5V1.8M2372 401.5v-66.3h26.5M2398.5 274.6H2359v-29.2M2398.5 245.4h-106.4v-89.1h106.4M2398.5 126.9h-43.1v29.4M2398.5 100.1h-43.1v26.8M2372 245.4v-89.1M2184.3 242.9h53.3M2184.3 156.3h53.3M2217.9 242.9v-95.4M2237.6 176.5h-19.7M2237.6 227.3h-19.7M2196 242.9v-86.6M2035.5 242.9v-86.6M2018.1 176.5h17.4M2018.1 227.3h17.4M2051.2 242.9v-86.6M2398.5 41.3h-43.1M2478.9 402.2v-38h-27.7v-69h-52.7M2451.2 364.2v38.4M2451.2 327.2h-52.7M2506.1 141.6h35.5v115.3h-35.5zM2438.7 1.7v72.6H2355.4V1.8M2478.9 1.6v72.7h-40.2M2546.9 1.5v72.8h-68M2586.5 1.4v72.9h-39.6"/><path class="st2" d="M2679.1 1.3v77.6h-53.3V40.1h-39.3"/><path class="st2" d="M2615.1 40.1v52.6h-28.6V74.3M2748.4 1.2v38.9h-40V1.2"/><path class="st2" d="M2692.9 1.2v77.7h51.1V40M2506.1 402.2v-18.8M2559.6 401.5v-79.9h41.2v-76.2h23.6v-25.8h-51.9v-46.7h28.3v-64.1H2800v193h-199.2"/><path class="st2" d="M2600.8 401.5v-79.9h172.5v78.6M2559.6 346.9h41.2M2575.4 321.6v25.3M2679.8 401.1v-52.4M2711.5 401.1v-79.5M2746.2 400.5v-19.8M2800 399.9v-33.6h-26.7M2759.5 301.8V272h40.5M2748.4 143.4h21.2v86.1h-21.2zM2744 301.8v-9.5h-36.1v-39.5h10.5v-144M2698.2 301.8v-56.4h-24.3v56.4M2624.4 245.4h94M2718.4 156.3h-117.6M2679.8 245.4v-89.1M2840.8 399.4v-154h15.5v-89.1h-15.5V1.4M2840.8 92.7h-25.7V40.1h-55.6V1.2"/><path class="st2" d="M2786.6 59.1h-27.1v-19M2800 40.1V1.4M2840.8 49.6h-25.7M2840.8 321.6h-27v18.5h27M2679.1 40.1h-40.5V1.2M2624.4 1.2l1.4 38.9M3133.9 393.1v-84.6h28.9V92.7h-28.9V1.5M2856.3 245.4h103.9v-89.1h-103.9"/><path class="st2" d="M2960.2 245.4h13.9v-89.1h-13.9M3162.8 92.7h15V2.8M3133.9 59.5h43.9M3188.5 3.2v133.7h108.7V6M3311.1 6.6v135.6h103.3V10.7M3426.7 11.4v130.8h36V13.5M3476.4 14.5v95.6h27.6V16.6M3462.7 110.1h-36M3462.7 82.9h-36M3414.4 102.7h-103.3M3377.9 142.2v-39.5M3342.8 142.2v-39.5M3362.8 102.7V8.4M3338 70h-26.9M3414.4 70h-26.8M3297.2 100.6h-108.7M3242.9 4.6v96M3188.5 66.8h36.8M3297.2 66.8h-36.1M3261.1 136.9v-36.3M3222.9 136.9v-36.3M3487.5 110.1v89.8M3530.9 124.7v-106M3556.6 124.7V21.4M3581.6 124.7V24.1M3487.5 124.7h124.2v67.2h32.2v-27.8l-32.2.8M3643.9 164.1h9.6v-129M3622 29.9v77.9h-28v-82M3622 97h-28M3663.2 36.9v140.9h60.7v-128M3693.5 43.1v134.7M3723.9 155h-60.7M3734.5 130.7h49.5v50.9h-49.5z"/><path class="st2" d="M3734.5 181.5v34.7h49.5v-34.7M3162.8 308.5l14.9.2v83M3133.8 338.5h43.9M3188.4 391.7V261.2h108.8v126.1M3311 386.7V255.8h103.3v125.6M3426.6 380.7V255.8h36v122.5M3476.4 377.3V288h27.5v87.2M3462.6 288h-36M3462.6 315.2h-36M3414.3 295.4H3311M3377.9 255.8v39.6M3342.7 255.8v39.6M3362.7 295.4v88.9M3337.9 328H3311M3414.3 328h-26.8M3297.2 297.4h-108.8M3242.8 389.7v-92.3M3188.4 331.2h36.9M3297.2 331.2h-36.1M3261.1 261.2v36.2M3222.9 261.2v36.2M3487.4 288v-89.9M3530.8 273.3v100.6M3556.6 273.3v97.2M3581.5 273.3V368M3487.4 273.3h124.2v-67.1h32.2v27.7l-32.2-.8M3643.8 233.9h9.6v124.8M3621.9 363.2v-73h-28v76.4M3621.9 301h-28M3663.1 357.2v-137h60.7v125.4M3693.5 351.9V220.2M3723.8 243.1h-60.7M3734.4 216.5h49.5v50.9h-49.5z"/><path class="st2" d="M3522 158.3h51.1v81.3H3522zM3370.1 158.3h36.9v81.3h-36.9zM3324.4 158.3h38.2v81.3h-38.2zM3448.7 158.3h38.7v81.4h-38.7z"/><path class="st3" d="M3204.4 243.1h64.6V155h-64.6"/><path class="st2" d="M3324.4 239.6H3269M3324.4 158.3H3269M3448.7 239.7H3407M3448.7 158.3H3407M3487.5 199.9h-117.4M3362.7 199.9H3269"/><path class="st3" d="M3114.2 1.5s668.9 35.2 669.7 196.7c.8 161.5-669.7 195.6-669.7 195.6"/></g><g id="points"><path class="st5" d="M1168.2 90.7c3.1 0 6.3-1.3 8.4-3.5 2.1-2.1 3.6-5.4 3.5-8.4-.3-6.4-5.2-11.9-11.9-11.9s-6.3 1.3-8.4 3.5-3.6 5.4-3.5 8.4c.3 6.4 5.2 11.9 11.9 11.9Z"/><circle class="st0" cx="1167.9" cy="78.3" r="17.8"/><circle class="st0" cx="922.2" cy="78.3" r="17.8"/><path class="st5" d="M988.7 90.2c3 0 6.3-1.3 8.4-3.5s3.6-5.4 3.5-8.4c-.3-6.4-5.2-11.9-11.9-11.9s-6.3 1.3-8.4 3.5c-2.1 2.1-3.6 5.4-3.5 8.4.3 6.4 5.2 11.9 11.9 11.9ZM811.4 193.9c3 0 6.3-1.3 8.4-3.5s3.6-5.4 3.5-8.4c-.3-6.4-5.2-11.9-11.9-11.9s-6.3 1.3-8.4 3.5c-2.1 2.1-3.6 5.4-3.5 8.4.3 6.4 5.2 11.9 11.9 11.9ZM811.4 149.7c3 0 6.3-1.3 8.4-3.5s3.6-5.4 3.5-8.4c-.3-6.4-5.2-11.9-11.9-11.9s-6.3 1.3-8.4 3.5-3.6 5.4-3.5 8.4c.3 6.4 5.2 11.9 11.9 11.9ZM1036.7 149.7c3.1 0 6.3-1.3 8.4-3.5s3.6-5.4 3.5-8.4c-.3-6.4-5.2-11.9-11.9-11.9s-6.3 1.3-8.4 3.5-3.6 5.4-3.5 8.4c.3 6.4 5.2 11.9 11.9 11.9ZM994.2 149.7c3 0 6.3-1.3 8.4-3.5s3.6-5.4 3.5-8.4c-.3-6.4-5.2-11.9-11.9-11.9s-6.3 1.3-8.4 3.5-3.6 5.4-3.5 8.4c.3 6.4 5.2 11.9 11.9 11.9ZM811.4 281.9c3 0 6.3-1.3 8.4-3.5 2.1-2.1 3.6-5.5 3.5-8.4-.3-6.5-5.2-11.9-11.9-11.9s-6.3 1.3-8.4 3.5-3.6 5.5-3.5 8.4c.3 6.5 5.2 11.9 11.9 11.9ZM922.2 90.2c3 0 6.3-1.3 8.4-3.5s3.6-5.4 3.5-8.4c-.3-6.4-5.2-11.9-11.9-11.9s-6.3 1.3-8.4 3.5-3.6 5.4-3.5 8.4c.3 6.4 5.2 11.9 11.9 11.9Z"/><circle class="st0" cx="871.8" cy="352.1" r="17.8"/><path class="st5" d="M871.8 364c3 0 6.3-1.3 8.4-3.5s3.6-5.5 3.5-8.4c-.3-6.5-5.2-11.9-11.9-11.9s-6.3 1.3-8.4 3.5-3.6 5.5-3.5 8.4c.3 6.5 5.2 11.9 11.9 11.9Z"/><circle class="st0" cx="875.7" cy="264.7" r="17.8"/><path class="st5" d="M875.7 276.6c3 0 6.3-1.3 8.4-3.5s3.6-5.5 3.5-8.4c-.3-6.5-5.2-11.9-11.9-11.9s-6.3 1.3-8.4 3.5c-2.1 2.1-3.6 5.5-3.5 8.4.3 6.5 5.2 11.9 11.9 11.9Z"/><circle class="st0" cx="988.4" cy="77.8" r="17.8"/><path class="st5" d="M1161 331.7c3.1 0 6.3-1.3 8.4-3.5s3.6-5.5 3.5-8.4c-.3-6.5-5.2-11.9-11.9-11.9s-6.3 1.3-8.4 3.5-3.6 5.5-3.5 8.4c.3 6.5 5.2 11.9 11.9 11.9Z"/><circle class="st0" cx="1160.7" cy="319.3" r="17.8"/><path class="st5" d="M1102.3 384.6c3.1 0 6.3-1.3 8.4-3.5s3.6-5.5 3.5-8.4c-.3-6.5-5.2-11.9-11.9-11.9s-6.3 1.3-8.4 3.5-3.6 5.5-3.5 8.4c.3 6.5 5.2 11.9 11.9 11.9Z"/><circle class="st0" cx="1102" cy="372.2" r="17.8"/><path class="st4" d="M878.4 149c3 0 6.3-1.3 8.4-3.5s3.6-5.4 3.5-8.4c-.3-6.4-5.2-11.9-11.9-11.9s-6.3 1.3-8.4 3.5-3.6 5.4-3.5 8.4c.3 6.4 5.2 11.9 11.9 11.9Z"/><circle class="st3" cx="879.5" cy="136.3" r="18.5"/><path class="st4" d="M1082.4 149.7c3.1 0 6.3-1.3 8.4-3.5s3.6-5.4 3.5-8.4c-.3-6.4-5.2-11.9-11.9-11.9s-6.3 1.3-8.4 3.5-3.6 5.4-3.5 8.4c.3 6.4 5.2 11.9 11.9 11.9ZM961.5 276.6c3 0 6.3-1.3 8.4-3.5s3.6-5.5 3.5-8.4c-.3-6.5-5.2-11.9-11.9-11.9s-6.3 1.3-8.4 3.5c-2.1 2.1-3.6 5.5-3.5 8.4.3 6.5 5.2 11.9 11.9 11.9ZM811.4 234.7c3 0 6.3-1.3 8.4-3.5 2.1-2.1 3.6-5.4 3.5-8.4-.3-6.4-5.2-11.9-11.9-11.9s-6.3 1.3-8.4 3.5-3.6 5.4-3.5 8.4c.3 6.4 5.2 11.9 11.9 11.9ZM811.4 378c3 0 6.3-1.3 8.4-3.5s3.6-5.5 3.5-8.4c-.3-6.5-5.2-11.9-11.9-11.9s-6.3 1.3-8.4 3.5-3.6 5.5-3.5 8.4c.3 6.5 5.2 11.9 11.9 11.9ZM811.4 328.1c3 0 6.3-1.3 8.4-3.5s3.6-5.5 3.5-8.4c-.3-6.5-5.2-11.9-11.9-11.9s-6.3 1.3-8.4 3.5-3.6 5.5-3.5 8.4c.3 6.5 5.2 11.9 11.9 11.9Z"/><circle class="st3" cx="1083.5" cy="137.1" r="18.5"/><path class="st4" d="M983.8 46.2c3 0 6.3-1.3 8.4-3.5s3.6-5.5 3.5-8.4c-.3-6.5-5.2-11.9-11.9-11.9s-6.3 1.3-8.4 3.5-3.6 5.4-3.5 8.4c.3 6.5 5.2 11.9 11.9 11.9Z"/><circle class="st3" cx="985" cy="33.5" r="18.5"/><path class="st4" d="M1225.8 46.2c3.1 0 6.3-1.3 8.4-3.5s3.6-5.5 3.5-8.4c-.3-6.5-5.2-11.9-11.9-11.9s-6.3 1.3-8.4 3.5-3.6 5.4-3.5 8.4c.3 6.5 5.2 11.9 11.9 11.9Z"/><circle class="st3" cx="1226.9" cy="33.5" r="18.5"/><path class="st4" d="M1040.6 336c3.1 0 6.3-1.3 8.4-3.5s3.6-5.5 3.5-8.4c-.3-6.5-5.2-11.9-11.9-11.9s-6.3 1.3-8.4 3.5-3.6 5.5-3.5 8.4c.3 6.5 5.2 11.9 11.9 11.9Z"/><circle class="st3" cx="1041.8" cy="323.4" r="18.5"/></g></svg>