<svg xmlns="http://www.w3.org/2000/svg" viewBox="0 0 3421.93 339.26"><defs><style>.cls-1{stroke:#173387}.cls-1,.cls-2,.cls-3{fill:none;stroke-miterlimit:10}.cls-1,.cls-3{stroke-width:2px}.cls-4{fill:#173387}.cls-2,.cls-3{stroke:#171636}</style></defs><g id="_3eme_plan"><path class="cls-3" d="M3008.63 12.99v312.78s415 33.12 412.28-156.59c-2.72-189.71-412.28-156.19-412.28-156.19Z"/><path class="cls-2" d="M3263.56 157.89h65.98v18.99h-65.98zM3160.59 161.88h32.99v13.99h-32.99zM3108.61 111.92h62.98v16.99h-62.98zM3064.62 160.88h64.98v15.99h-64.98zM3108.61 209.85H3177v14.99h-68.39z"/><circle class="cls-2" cx="3055.61" cy="262.6" r="22.99"/><circle class="cls-2" cx="3055.61" cy="76.94" r="22.48"/><path class="cls-3" d="M2797.69 2v80.44l55.05 34.91v103.83l-55.05 35.14v81.44H698.26V2h2099.43z"/><path class="cls-2" d="M2748.7 133.9h104.03v74.95H2748.7zM2697.72 73.95h45.99v37.97h-45.99zM2699.72 226.84h43.99v36.97h-43.99zM2699.72 263.81h34.99v25.98h-34.99zM2697.72 49.96h34.99v23.98h-34.99z"/><path class="cls-2" d="M2792.69 180.87v-21.98h26v21.98M2721.71 111.92v113.92M2697.72 49.96h-111.97v237.83h113.97M2511.77 335.76V279.8h73.98M2512.77 2v58.96h72.98M2511.77 279.8v-73.95M2465.78 205.85h82.98M2512.77 60.96v72.94M2548.76 132.9h-82.98M2488.78 132.9v72.95M2521.33 157.89h32.29v23.49h-32.29zM2185.86 2v60.96h208.94s28.08-22.79 59.98 0h57.98"/><path class="cls-2" d="M2347.81 61.96v22.98h-20.99v44.97h12v207.85"/><path class="cls-2" d="M2291.83 129.91h46.99v38.97h-46.99zM2291.83 169.38h46.99v38.97h-46.99zM2291.83 208.85h46.99v128.91h-46.99zM2255.84 274.8h35.99v35.99h-35.99zM2220.85 317.77h22.99v19.99h-22.99z"/><path class="cls-2" d="M2265.84 129.91h26.3v78.37h-26.3zM2290.83 90.29h35.99M2302.77 114.91V89.94M2295.83 114.92V89.94M2219.85 129.91h45.99V85.42M2243.84 84.94v44.97M2219.85 84.94l1 232.83M2278.99 129.91v56.96M2265.84 208.28v22.75M2394.8 62.95v23.99M2454.78 62.95v23.99M2394.8 337.76v-19.99M2454.78 337.76v-19.99M2091.88 227.84v49.46h128.47M2184.84 337.76V277.3M2115.88 293.79h35.86v43.97h-35.86zM2081.89 292.79h33.99v44.97h-33.99zM2044.9 225.84h35.99v49.96h-35.99zM1997.91 225.84h35.99v49.96h-35.99zM1986.91 129.91h117.97v77.94h-117.97zM2185.86 62.95h-92.98v47.97M2080.89 275.8l1 16.99M2128.22 277.3v16.49M2033.9 275.8v61.96M2033.9 245.82h11M1997.91 245.82h-8v91.94M1989.91 245.82v-11.99h-13.99M1999.91 129.91v77.94M1986.91 183.87h13M1986.91 155.89h13M2091.88 129.91v77.94M2265.64 186.87h26.49"/><path class="cls-3" d="M2123.87 206.85v-26.98s28.46.4 39.99 26.98h-39.99ZM2123.87 157.89c-1.37.1 0-25.48 0-25.48l38.84-.65s-5.14 23.79-38.84 26.14Z"/><path class="cls-2" d="M2081.39 2h34.99v44.97h-34.99zM2116.38 2h34.99v39.97h-34.99zM1940.92 225.84h34.99v49.96h-34.99zM1975.92 337.76V275.8M1940.92 244.82h-11M1894.94 225.34h34.99v49.96h-34.99zM1929.93 337.26V275.3M1894.94 244.33h-11M1848.95 226.34h34.99v49.96h-34.99zM1883.94 338.26V276.3M1848.95 245.32h-14M1800.46 226.34h34.99v49.96h-34.99zM1835.45 338.26V276.3M1800.46 245.32h-11M1754.48 225.84h34.99v49.96h-34.99zM1789.47 337.76V275.8M1754.48 244.82h-11M1708.49 226.84h34.99v49.96h-34.99zM1743.48 338.76V276.8M1708.49 245.82h-11.5M1662.5 225.34h34.99v49.96h-34.99zM1697.49 337.26V275.3M1662.5 244.33h-11M1616.52 224.84h34.99v49.96h-34.99zM1651.51 336.76V274.8M1616.52 243.83h-11M1570.53 225.84h34.99v49.96h-34.99zM1605.52 337.76V275.8M1570.53 244.82h-14M1522.54 226.34h34.99v49.96h-34.99zM1557.53 338.26V276.3M1522.54 245.32h-14M2044.64 62.95h35.99v49.96h-35.99zM1997.66 62.95h35.99v49.96h-35.99zM2080.63 62.95l1-16.98M2033.65 62.95V1M2033.65 92.93h10.99M1997.66 92.94h-8V1M1989.66 92.94v11.98h-14M1940.67 62.95h34.99v49.96h-34.99zM1975.66 1v61.95M1940.67 93.93h-11M1894.69 63.45h34.99v49.96h-34.99zM1929.68 1.5v61.95M1894.69 94.43h-11M1848.7 62.45h34.99v49.96h-34.99zM1883.69.5v61.95M1848.7 93.43h-14M1800.21 62.46h34.99v49.96h-34.99zM1835.2.5v61.96M1800.21 93.43h-11M1754.23 62.96h34.99v49.96h-34.99zM1789.22 1v61.96M1754.23 93.93h-11M1708.24 61.96h34.99v49.96h-34.99zM1743.23 0v61.96M1708.24 92.93h-11.5M1662.25 63.45h34.99v49.96h-34.99zM1697.24 1.5v61.95M1662.25 94.43h-11M1616.27 63.95h34.99v49.96h-34.99zM1651.26 2v61.95M1616.27 94.93h-11.01M1570.28 62.95h34.99v49.96h-34.99zM1605.27 1v61.95M1570.28 93.93h-14M1522.29 62.45h34.99v49.96h-34.99zM1557.28.5v61.95M1522.29 93.43h-12.25M1719.99 130.91h254.93v76.95h-254.93zM1637.01 129.91h70.98v77.94h-70.98zM1557.03 130.91h68.98v76.95h-68.98zM1323.09 129.91h222.94v78.94h-222.94zM1319.09 226.84h63.95v63.95h-63.95zM1427.07 226.84h81.98v63.95h-81.98zM1383.05 226.84h44.02v63.95h-44.02zM1323.66 291.79h185.38v46.97h-185.38zM1952.92 130.91v76.94M1932.93 129.91v77.94M1952.92 144.9h-18.99M1952.92 193.86h-19.99M1952.92 199.85h22M1818.96 207.85v-76.94M1800.96 130.91l1 76.94M1772.47 207.85v-76.94M1801.46 145.9h-28.99M1801.96 193.86h-29.98"/><path class="cls-2" d="M1719.99 154.89h34.99v-23.98M1682 129.91v77.94M1638.01 168.88H1681M1583.02 130.91v76.94M1626.01 169.38h-42.99M1505.04 129.91v78.94M1546.03 181.87h-40.99M1474.23 129.91v78.94M1505.04 147.24h-30.81M1505.04 194.86h-30.81M1364.08 129.91v78.94M1347.09 129.91v78.94M1322.09 193.86h25M1322.09 144.64h25M1464.54 226.84v64.95M1427.07 273.8h37.47M1445.8 291.79V273.8M1320.59 49.96h63.95v63.95h-63.95zM1428.57 49.96h81.98v63.95h-81.98zM1384.55 49.96h44.02v63.95h-44.02zM1325.16 2h185.38v46.97h-185.38zM1466.04 113.92V48.96M1428.57 66.95h37.47M1447.3 48.96v17.99M1101.15 130.91h25.99v76.95h-25.99zM1160.14 241.83h36.99v95.93h-36.99zM1319.59 276.3h-122.46M1160.14 290.79h36.99M1165.14 129.91h30.99v78.94h-30.99zM1101.15 242.33h46.99v95.43h-46.99z"/><path class="cls-2" d="M1101.15 225.84h21.18v16.9h-21.18zM1043.17 225.84h46.99v111.92h-46.99zM1101.15 237.54h-10.99M1043.17 258.81h46.99M938.2 225.84h94.29v111.92H938.2zM1160.14 2.5h35.99v94.43h-35.99zM823.23 129.91h266.93v77.94H823.23zM1044.17 2.25h46.04v109.42h-46.04zM938.2 1.5h92.97v111.42H938.2zM1196.13 63.95h124.46"/><path class="cls-3" d="M1217.12 153.89v-24.98h32.99s-3.14 24.98-32.99 24.98ZM1217.12 208.85v-21.48s30.86-1.91 32.99 21.48h-32.99Z"/><path class="cls-2" d="M1101.15 2h46.99v93.93h-46.99zM1101.15 95.93v16.99h24V95.93M1090.21 100.93h10.94M1044.17 79.94h46.04M986.19 1.5v112.42M938.2 80.94h92.97M1048.17 129.91v77.94M1020.18 129.91v76.94M1048.17 144.9h-27.99M1048.17 192.86h-27.99M1001.18 129.91v77.94M910.21 129.91v77.94M893.21 129.91v77.94M870.22 129.91v77.94M893.21 144.9h-22.99M893.21 192.86h-22.99M847.22 129.91v56.96h23.34M985.35 225.84v111.92M938.2 257.32h92.97M824.23 337.76v-48.47h11v-63.45h93.97v111.92M882.21 337.76V225.84M835.23 257.32h93.97"/><path class="cls-2" d="M835.23 289.29h34.99v48.47M893.21 337.76v-47.72h35.99M938.2 290.04h37.19v47.72H938.2zM997.47 291.79h35.03v45.97h-35.03zM1043.17 290.79h36.88v46.97h-36.88zM1114.15 291.79h33.99v45.97h-33.99zM1160.14 2.5h35.99v44.07h-35.99zM1114.15 1.99h33.99v44.57h-33.99zM1044.17 1.5h34.99v46.47h-34.99zM997.47 1.5h33.71v43.3h-33.71zM938.2 1.99h37.19V44.8H938.2zM881.71 2.5h46.49v110.42h-46.49zM825.23 1.99h43.99v45.97h-43.99z"/><path class="cls-2" d="M835.23 81.94h46.49v30.98h-46.49zM927.2 81.94h-45.49M893.21 1.99v44.58h34.99M835.23 81.94V47.97M777.24 47.97h47.99v63.95h-47.99z"/><path class="cls-2" d="M730.26 47.96h46.99v37.97h-46.99zM787.24 47.96h37.99v34.98h-37.99zM730.26 85.94h35.68v27.75h-35.68zM787.24 129.91h23.99v77.94h-23.99zM730.26 129.91h47.99v77.94h-47.99zM777.24 225.84h47.99v63.45h-47.99zM730.26 225.84h35.99v26.98h-35.99z"/><path class="cls-2" d="M730.26 252.82h46.99v36.47h-46.99zM730.26 47.96v240.83M730.26 168.88h47.98"/><path class="cls-3" d="M491.32 16.99v307.78S86.61 256.94 1.45 168.89C94.5 88.43 455.9 12.53 491.32 16.99Z"/><path class="cls-2" d="m54.03 135.9 20.92 9.98 10.51 16-2.61 19.5-12.04 14.48-20.09 6.99M196.41 141.9v11h11.99V165h26.99v-29.1H210.4l-13.99 6zM196.41 196.85l-.01-8.99 12 .01v-10.51h26.99v25.49H208.4l-11.99-6zM292.37 141.9h45.99v53.96h-45.99zM450.33 132.9h40.99v73.95h-40.99z"/></g><g id="points"><path class="cls-4" d="M1130.24 36.97c3.05 0 6.26-1.33 8.42-3.49s3.62-5.45 3.49-8.42c-.29-6.45-5.23-11.91-11.91-11.91-3.05 0-6.26 1.33-8.42 3.49s-3.62 5.45-3.49 8.42c.29 6.45 5.23 11.91 11.91 11.91ZM1682 263.72c3.05 0 6.26-1.33 8.42-3.49s3.62-5.45 3.49-8.42c-.29-6.45-5.23-11.91-11.91-11.91-3.05 0-6.26 1.33-8.42 3.49s-3.62 5.45-3.49 8.42c.29 6.45 5.23 11.91 11.91 11.91ZM1633.76 264.48c3.05 0 6.26-1.33 8.42-3.49s3.62-5.45 3.49-8.42c-.29-6.45-5.23-11.91-11.91-11.91-3.05 0-6.26 1.33-8.42 3.49s-3.62 5.45-3.49 8.42c.29 6.45 5.23 11.91 11.91 11.91ZM1662.25 199.23c3.05 0 6.26-1.33 8.42-3.49s3.62-5.45 3.49-8.42c-.29-6.45-5.23-11.91-11.91-11.91-3.05 0-6.26 1.33-8.42 3.49s-3.62 5.45-3.49 8.42c.29 6.45 5.23 11.91 11.91 11.91Z"/><circle class="cls-1" cx="1130.01" cy="24.86" r="17.35"/><path class="cls-4" d="M1061.66 36.64c3.05 0 6.26-1.33 8.42-3.49s3.62-5.45 3.49-8.42c-.29-6.45-5.23-11.91-11.91-11.91-3.05 0-6.26 1.33-8.42 3.49s-3.62 5.45-3.49 8.42c.29 6.45 5.23 11.91 11.91 11.91Z"/><circle class="cls-1" cx="1061.44" cy="24.52" r="17.35"/><path class="cls-4" d="M1066.39 255.94c3.05 0 6.26-1.33 8.42-3.49s3.62-5.45 3.49-8.42c-.29-6.45-5.23-11.91-11.91-11.91-3.05 0-6.26 1.33-8.42 3.49s-3.62 5.45-3.49 8.42c.29 6.45 5.23 11.91 11.91 11.91Z"/><circle class="cls-1" cx="1066.16" cy="243.83" r="17.35"/><path class="cls-4" d="M1066.39 285.92c3.05 0 6.26-1.33 8.42-3.49s3.62-5.45 3.49-8.42c-.29-6.45-5.23-11.91-11.91-11.91-3.05 0-6.26 1.33-8.42 3.49s-3.62 5.45-3.49 8.42c.29 6.45 5.23 11.91 11.91 11.91Z"/><circle class="cls-1" cx="1066.16" cy="273.8" r="17.35"/><path class="cls-4" d="M1584.15 45.53c3.05 0 6.26-1.33 8.42-3.49s3.62-5.45 3.49-8.42c-.29-6.45-5.23-11.91-11.91-11.91-3.05 0-6.26 1.33-8.42 3.49-2.07 2.07-3.62 5.45-3.49 8.42.29 6.45 5.23 11.91 11.91 11.91Z"/><circle class="cls-1" cx="1584.91" cy="32.86" r="18.92"/><path class="cls-4" d="M1587.27 102.96c3.05 0 6.26-1.33 8.42-3.49s3.62-5.45 3.49-8.42c-.29-6.45-5.23-11.91-11.91-11.91-3.05 0-6.26 1.33-8.42 3.49-2.07 2.07-3.62 5.45-3.49 8.42.29 6.45 5.23 11.91 11.91 11.91Z"/><circle class="cls-1" cx="1588.02" cy="90.29" r="18.92"/><path class="cls-4" d="M1580.77 313.39c3.05 0 6.26-1.33 8.42-3.49s3.62-5.45 3.49-8.42c-.29-6.45-5.23-11.91-11.91-11.91-3.05 0-6.26 1.33-8.42 3.49-2.07 2.07-3.62 5.45-3.49 8.42.29 6.45 5.23 11.91 11.91 11.91Z"/><circle class="cls-1" cx="1581.52" cy="300.71" r="18.92"/><path class="cls-4" d="M1490.37 95.54c3.05 0 6.26-1.33 8.42-3.49s3.62-5.45 3.49-8.42c-.29-6.45-5.23-11.91-11.91-11.91-3.05 0-6.26 1.33-8.42 3.49s-3.62 5.45-3.49 8.42c.29 6.45 5.23 11.91 11.91 11.91Z"/><circle class="cls-1" cx="1491.13" cy="82.87" r="18.92"/><path class="cls-4" d="M1768.61 43.54c3.05 0 6.26-1.33 8.42-3.49s3.62-5.45 3.49-8.42c-.29-6.45-5.23-11.91-11.91-11.91-3.05 0-6.26 1.33-8.42 3.49-2.07 2.07-3.62 5.45-3.49 8.42.29 6.45 5.23 11.91 11.91 11.91Z"/><circle class="cls-1" cx="1767.47" cy="30.98" r="20.8"/></g></svg>