<?xml version="1.0" encoding="UTF-8"?>
<svg id="partie_3" xmlns="http://www.w3.org/2000/svg" xmlns:xlink="http://www.w3.org/1999/xlink" viewBox="0 0 1008.01 494.52">
  <defs>
    <style>
      .cls-1 {
        fill: #f5f6f0;
      }

      .cls-1, .cls-2, .cls-3, .cls-4, .cls-5, .cls-6, .cls-7 {
        stroke: #171636;
        stroke-linecap: round;
      }

      .cls-1, .cls-2, .cls-3, .cls-4, .cls-5, .cls-7 {
        stroke-linejoin: round;
      }

      .cls-2 {
        fill: url(#Dégradé_sans_nom_15-2);
      }

      .cls-3 {
        fill: url(#Dégradé_sans_nom_15-3);
      }

      .cls-4 {
        fill: none;
      }

      .cls-5 {
        fill: url(#Dégradé_sans_nom_15-4);
      }

      .cls-6 {
        fill: #171636;
        stroke-miterlimit: 10;
      }

      .cls-7 {
        fill: url(#Dégradé_sans_nom_15);
      }
    </style>
    <linearGradient id="Dégradé_sans_nom_15" data-name="Dégradé sans nom 15" x1="416.52" y1="283.19" x2="416.52" y2="260.5" gradientUnits="userSpaceOnUse">
      <stop offset="0" stop-color="#333"/>
      <stop offset="1" stop-color="#9a9a9e"/>
    </linearGradient>
    <linearGradient id="Dégradé_sans_nom_15-2" data-name="Dégradé sans nom 15" x1="541.14" y1="222.65" x2="541.14" y2="202.74" xlink:href="#Dégradé_sans_nom_15"/>
    <linearGradient id="Dégradé_sans_nom_15-3" data-name="Dégradé sans nom 15" x1="592" y1="198.42" x2="592" y2="176.98" xlink:href="#Dégradé_sans_nom_15"/>
    <linearGradient id="Dégradé_sans_nom_15-4" data-name="Dégradé sans nom 15" x1="286.87" y1="344.6" x2="286.87" y2="324.39" xlink:href="#Dégradé_sans_nom_15"/>
  </defs>
  <path class="cls-6" d="M872.74,139.72s-495.26,235.55-598.32,284.42C171.36,473,1,493.95,1,493.95v-18.7c73.72-.72,213.77-45.73,213.77-45.73l3.27,7.44c3.72-.48,24.93-9.65,57.56-24.54,150.23-68.56,542.61-258.33,585.67-278.99,2.79-1.34,5.71-2.78,8.72-4.32h.01c17.57-8.93,38.51-20.91,58.65-33.65h0c2.63-1.67,5.25-3.35,7.84-5.03h0c37.85-24.6,70.81-50.91,69.96-63.17,0-.08,0-.15-.01-.22,15.05,36.24-133.7,112.68-133.7,112.68Z"/>
  <path class="cls-1" d="M869.99,129.11c-3.01,1.54-5.93,2.98-8.72,4.32-43.06,20.66-435.44,210.43-585.67,278.99v-17.32l9.9-4.68v-6.35l497.94-237.31,6.34,4.93,73.3-35.95v9.87l6.91,3.5Z"/>
  <line class="cls-4" x1="870" y1="129.11" x2="869.99" y2="129.11"/>
  <path class="cls-4" d="M1006.44,27.05c-.44-.76-.91-1.49-1.4-2.19-29.77-43.01-144.65,4.31-175.49,18.05"/>
  <path class="cls-4" d="M822,41.03s169.95-77.11,183.71-18.6h0c.34,1.46.59,3,.73,4.62.01.07.01.14.01.22"/>
  <path class="cls-4" d="M165.98,347.03c96.2-48.19,533.02-266.09,578.26-271.97,12.56,4.63,17.18,5.95,17.18,5.95l60.26-24.15"/>
  <path class="cls-4" d="M.5,474.51s24.36-47.99,101.47-83.37c2.26.89,5.75,1.86,7.68,2.61,12.11-5.3,23.2-13.38,37.65-19.67v-17.67"/>
  <line class="cls-4" x1="928.65" y1="95.47" x2="928.65" y2="95.46"/>
  <path class="cls-4" d="M1005.71,22.43h0c.05.7-.18,1.51-.67,2.43-7.15,13.45-68.55,48.89-68.55,48.89"/>
  <path class="cls-4" d="M936.49,73.75v16.69c-2.59,1.68-5.21,3.36-7.84,5.02v-13.18l-31.94-9.48v11.98l-33.28-10.65v-12.24l-32.47-9.85v12.77l-9.28-2.26v-5.68l.21-10.45.11-5.39,7.55,1.88,19.91,4.96v7.18l5.65,1.77v-7.15l50.61,15.14v7.84l5.8,1.82v-7.41l24.97,6.69Z"/>
  <path class="cls-4" d="M761.42,81.01l17.52,6.44,22.01-10.81,28.81,10.81v5.6h4s0,10.81-2,12.01c12.01,3.2,31.32,10.69,31.32,10.69"/>
  <polyline class="cls-4" points="275.6 395.11 147.3 356.41 166.69 351.46 165.98 347.03 285.51 384.07"/>
  <line class="cls-4" x1="101.97" y1="391.13" x2="214.77" y2="429.53"/>
  <line class="cls-4" x1="830.96" y1="64.81" x2="844.97" y2="56.28"/>
  <line class="cls-4" x1="896.71" y1="84.78" x2="911.35" y2="77.14"/>
  <polyline class="cls-4" points="414.77 322.47 377.71 310.46 351.19 324.39 343.23 322.59 254.2 365.55 214.77 353.27 304.96 309.7 298.52 308.19 328.46 294.17 294.2 283.24"/>
  <polyline class="cls-4" points="626.29 187.49 411.09 290.98 372.09 278.7"/>
  <polyline class="cls-4" points="381.36 240.34 397.4 246.13 346.78 270.85 372.09 278.7 584.75 175.11"/>
  <polyline class="cls-4" points="501.03 281.35 482.89 275.48 433.68 297.85 411.09 290.98"/>
  <polygon class="cls-4" points="440.55 249.69 479.87 230.2 509.6 238.51 469.64 258.33 440.55 249.69"/>
  <polyline class="cls-4" points="783.44 146.76 758.37 138.08 779.34 129.75 814.54 114.16 805.09 111.24 817.52 105.28 799.13 99.81 829.76 87.45"/>
  <line class="cls-4" x1="814.54" y1="114.16" x2="814.54" y2="127.98"/>
  <polyline class="cls-4" points="817.52 105.28 817.52 117.11 823.57 118.57 823.64 123.43 779.6 145.43 779.34 129.75"/>
  <line class="cls-4" x1="833.52" y1="99.81" x2="817.52" y2="106.88"/>
  <line class="cls-4" x1="823.57" y1="118.57" x2="814.54" y2="122.12"/>
  <line class="cls-4" x1="817.52" y1="117.11" x2="814.54" y2="118.46"/>
  <polyline class="cls-4" points="571.01 148.99 594.7 156.39 567.5 169.48 584.75 175.11"/>
  <polyline class="cls-4" points="626.29 187.49 643.05 192.65 669.24 181.24 693.7 189.53"/>
  <polygon class="cls-7" points="388.97 274.09 417.51 260.5 444.06 268.78 415.25 283.19 388.97 274.09"/>
  <line class="cls-4" x1="417.51" y1="282.06" x2="417.51" y2="260.5"/>
  <polygon class="cls-2" points="517.08 214.35 539.64 202.74 565.2 210.37 541.14 222.65 517.08 214.35"/>
  <line class="cls-4" x1="541.14" y1="222.65" x2="539.64" y2="202.74"/>
  <polygon class="cls-3" points="618.79 185.26 591.04 198.42 565.2 189.46 591.04 176.98 618.79 185.26"/>
  <line class="cls-4" x1="591.04" y1="197.77" x2="591.04" y2="176.98"/>
  <polygon class="cls-5" points="262.16 335.17 285.51 324.39 311.57 332.9 288.17 344.6 262.16 335.17"/>
  <line class="cls-4" x1="285.51" y1="343.63" x2="285.51" y2="324.39"/>
  <polyline class="cls-4" points="783.33 127.98 702.37 102.29 733.8 87.45 753.16 93.59 763.59 87.73 799.13 99.81"/>
  <polyline class="cls-4" points="666.2 105.28 708.34 120.35 702.37 124.09 728.74 133.69 736.84 129.49 758.37 138.08"/>
  <path class="cls-4" d="M735.33,169.69l-95.69-35.1,12-5.1s3-9.04,16.2-7.37c9.3-5.23,18.03-9.81,18.03-9.81"/>
  <line class="cls-4" x1="275.6" y1="412.42" x2="147.3" y2="374.08"/>
  <line class="cls-4" x1="314.77" y1="289.8" x2="350.83" y2="272.11"/>
  <line class="cls-4" x1="388.97" y1="314.11" x2="426.63" y2="295.71"/>
  <polyline class="cls-4" points="644.38 136.34 608.4 153.61 626.29 159.47 621.3 162.05 646.11 169.69 651.77 168.08 678.01 175.11 669.24 181.24"/>
</svg>