<?xml version="1.0" encoding="UTF-8"?>
<svg id="partie_1" xmlns="http://www.w3.org/2000/svg" viewBox="0 0 651.39 364.79">
  <defs>
    <style>
      .cls-1 {
        fill: #f5f6f0;
      }

      .cls-1, .cls-2, .cls-3, .cls-4, .cls-5, .cls-6, .cls-7, .cls-8, .cls-9, .cls-10, .cls-11, .cls-12, .cls-13 {
        stroke: #171636;
      }

      .cls-1, .cls-2, .cls-5, .cls-8, .cls-9, .cls-12 {
        stroke-linejoin: round;
      }

      .cls-1, .cls-5, .cls-8, .cls-10 {
        stroke-linecap: round;
      }

      .cls-2, .cls-4 {
        fill: #1c1a35;
      }

      .cls-3 {
        fill: #171636;
      }

      .cls-3, .cls-4, .cls-14, .cls-6, .cls-7, .cls-10, .cls-11, .cls-13 {
        stroke-miterlimit: 10;
      }

      .cls-5 {
        fill: #f2f2f2;
      }

      .cls-14 {
        stroke: #1b1935;
      }

      .cls-14, .cls-8, .cls-9, .cls-10, .cls-11 {
        fill: none;
      }

      .cls-6 {
        fill: #1b1935;
      }

      .cls-7, .cls-12 {
        fill: #c7bead;
      }

      .cls-13 {
        fill: #333;
      }
    </style>
  </defs>
  <line class="cls-11" x1="650.89" y1="106.91" x2="650.89" y2="116.47"/>
  <line class="cls-8" x1="637.22" y1="99.14" x2="603.99" y2="88.24"/>
  <polyline class="cls-8" points="558.21 77.03 546.23 82.26 534.67 77.48"/>
  <path class="cls-5" d="M136.13,354.73s-15.98-3.05-31.37-5.08c-8.25-1.09-15.15-.47-21.96-2.09-20.02-4.78-62.74-21.06-70.36-29.58l-11.95-8.96.15,10.9,6.01,2.59c5.54,2.39,24.38,13.44,35.37,18.02s42.9,12.88,62.14,12.7c6.82,2.38,31.67,11.05,31.67,11.05"/>
  <polyline class="cls-11" points="35.56 330.88 35.5 322.76 71.57 306.11 121.89 321.76 121.89 332.76 88.85 348.51"/>
  <polyline class="cls-11" points="86.68 348.7 86.68 338.72 121.89 321.76 128.39 324.05 218.5 278.72 227.94 283.24 265.84 264.69"/>
  <line class="cls-11" x1="35.5" y1="322.76" x2="86.68" y2="338.72"/>
  <polyline class="cls-9" points="151.45 243.34 218.12 214.33 237.5 205.12"/>
  <polyline class="cls-9" points="633.25 100.81 646.41 95.26 591.43 77.07"/>
  <polyline class="cls-9" points="535.27 69.87 546.44 74.15 561.71 67.23 571.9 70.6"/>
  <polyline class="cls-9" points="408.87 126.06 423.45 119.66 495.23 85.33"/>
  <polyline class="cls-9" points="278.56 185.61 343.45 154.78 367.7 144.14"/>
  <polyline class="cls-1" points="639.65 112.32 650.89 106.91 633.25 100.81 633.26 109.6 639.65 112.32 136.13 354.73 135.83 364.29 650.89 116.47"/>
  <line class="cls-9" x1="110.99" y1="260.94" x2=".5" y2="309.02"/>
  <polygon class="cls-9" points="545.73 101.28 577.23 113.59 603.99 99.96 603.99 87.22 577.46 100.13 545.73 88.24 545.73 101.28"/>
  <polyline class="cls-9" points="589.6 76.46 576.21 82.81 558.21 77.03 571.9 70.6"/>
  <polyline class="cls-8" points="571.9 70.6 573.82 69.7 591.43 75.31"/>
  <polyline class="cls-9" points="589.6 76.46 591.43 75.59 591.43 77.07 591.43 86.7 576.29 94.26 558.09 87.5 558.15 82.38 545.73 88.24"/>
  <line class="cls-9" x1="558.21" y1="77.03" x2="558.09" y2="87.67"/>
  <polyline class="cls-9" points="68.63 307.66 68.6 302.69 94.38 290.91 109.35 283.45"/>
  <polyline class="cls-9" points="149.73 263.32 150.3 263.03 158.17 260.24 171.41 263.91 171.41 257.93 171.41 256.03 203.75 239.8 212.75 239.91 212.79 239.91 213.19 239.92 213.19 228.14 218.41 227.8 235.01 233.34"/>
  <polyline class="cls-9" points="240.75 245.15 240.75 250.16 240.75 254.8 259.66 262.25 265.84 264.69 266.36 279.95 228.29 298.17 217.25 295.21 128.73 338.69 118.34 334.45"/>
  <polyline class="cls-9" points="240.75 235.24 232.91 234.99 232.91 246.19 240.75 250.16 206.39 266.72 191.17 258.27 171.42 256.02"/>
  <line class="cls-11" x1="213.19" y1="228.13" x2="232.91" y2="234.99"/>
  <path class="cls-4" d="M156.11,189.54l-2.88,33.2c-27.7,12.7-39.45.03-39.45,0l2.44-33.33c0,8.4,34.56,10.03,39.89.13Z"/>
  <path class="cls-12" d="M153.23,222.74l-1.78,20.6-1.72,19.98-2.84,32.79c-5.11,16.55-39.19,9.11-38.6,1.78l1.06-14.44,1.64-22.51,2.79-38.2s11.75,12.7,39.45,0Z"/>
  <path class="cls-4" d="M156.22,188.22l-.11,1.32c-5.33,9.9-39.89,8.27-39.89-.13,4.28-8,38.5-7.34,40-1.19Z"/>
  <path class="cls-11" d="M156.57,188.44c-.11.38-.27.75-.46,1.1"/>
  <path class="cls-4" d="M283.18,129.26l-2.68,32.65c-21.95,13.44-37.04,4.2-39.42,2.55l2.99-33.98c.72,9.29,38.41,7.37,39.11-1.22Z"/>
  <path class="cls-4" d="M283.18,129.26c-.7,8.59-38.39,10.51-39.11,1.22l.11-1.22c5.39-6.89,37.24-8.67,39,0Z"/>
  <path class="cls-7" d="M280.5,161.91l-1.94,23.7-.9,11.01-2.4,29.21-.97,11.87c-1.18,1.92-4.2,3.99-8.05,5.72-8.01,3.58-19.57,5.67-25.49,1.73v-9.9l-5.74-1.91,2.49-28.22,3.58-40.66c2.38,1.65,17.47,10.89,39.42-2.55Z"/>
  <path class="cls-13" d="M244.07,130.48c-.03-.38.01-.79.11-1.22"/>
  <path class="cls-4" d="M413.5,67.23l-2.61,33.17c-22.32,12.16-39.34.88-39.34.88l3.06-34.05c0,9.32,38.54,9.38,38.89,0Z"/>
  <path class="cls-7" d="M410.89,100.4l-2.02,25.66-.74,9.45h-.01l-1.03,13.18-.72,9.11-1,12.63-.32,4.09c-2.56,7.21-35.52,15.19-40.76,7.49l1.61-17.91,1.8-19.96,3.85-42.86s17.02,11.28,39.34-.88Z"/>
  <path class="cls-6" d="M413.5,67.23c-.35,9.38-38.89,9.32-38.89,0,3.48-6.84,38.7-9.01,38.89,0Z"/>
  <path class="cls-2" d="M540.17,6.66l-2.63,33.46c-8.17,9.84-38.98,3.33-38.96,3.13l2.86-36c1.4,9.22,36.53,7.57,38.73-.59Z"/>
  <path class="cls-7" d="M537.54,40.12l-4.91,62.49-.76,9.73c-.45,6.56-20.06,17.61-39.61,10.32l2.97-37.33,3.35-42.08c-.02.2,30.79,6.71,38.96-3.13Z"/>
  <path class="cls-3" d="M540.26,5.47l-.09,1.19c-2.2,8.16-37.33,9.81-38.73.59,2.04-7.5,37.74-9.65,38.82-1.78Z"/>
  <path class="cls-11" d="M540.26,5.47c.05.41.02.81-.09,1.19"/>
  <line class="cls-9" x1="603.99" y1="87.22" x2="591.43" y2="83.26"/>
  <polyline class="cls-10" points="532.63 102.6 549.41 109.13 549.41 123.8 494.29 149.76 470.07 140.07 470.07 125.9 492.91 114.53"/>
  <polyline class="cls-10" points="470.07 125.9 494.29 134.76 549.41 109.13"/>
  <polygon class="cls-8" points="444.88 170.86 444.88 188.08 482.38 169.72 482.38 152.8 444.88 170.86"/>
  <line class="cls-10" x1="444.88" y1="170.86" x2="406.37" y2="157.79"/>
  <polyline class="cls-10" points="408.13 135.51 417.25 131.46 434.72 137.18"/>
  <path class="cls-10" d="M434.72,137.18l8.79-3.66s12.63,1.08,20.35,13.21"/>
  <line class="cls-10" x1="463.86" y1="146.73" x2="425.9" y2="164.22"/>
  <line class="cls-10" x1="434.72" y1="137.18" x2="407.09" y2="148.69"/>
  <line class="cls-10" x1="444.88" y1="188.08" x2="414.49" y2="176.91"/>
  <polyline class="cls-10" points="338.99 170.7 338.99 179.89 349.37 183"/>
  <polyline class="cls-8" points="340.51 187.85 340.49 199.22 363.25 207.07 363.25 196.22"/>
  <line class="cls-10" x1="412.59" y1="197.07" x2="412.59" y2="184.59"/>
  <polyline class="cls-10" points="363.25 207.07 384.29 195.21 399.81 200.54 408.72 195.81"/>
  <path class="cls-10" d="M399.81,190.85c-.07.17,0,9.69,0,9.69"/>
  <line class="cls-10" x1="384.29" y1="185.18" x2="384.29" y2="195.21"/>
  <polygon class="cls-8" points="323.13 218.37 323.13 222.74 347.31 211.67 347.31 207.18 323.13 218.37"/>
  <polyline class="cls-8" points="347.31 207.18 324.4 199.01 302.03 208.63 323.13 218.37"/>
  <polyline class="cls-10" points="302.03 208.63 302.03 212.85 323.13 222.74"/>
  <line class="cls-10" x1="482.38" y1="152.8" x2="463.86" y2="146.73"/>
  <polyline class="cls-8" points="259.66 262.25 275.99 254.04 276.05 246.58 296.31 253.92 417.92 198.84 408.72 195.81"/>
  <polyline class="cls-10" points="275.99 254.04 296.31 261.87 417.88 207.07 417.92 198.84"/>
  <line class="cls-10" x1="296.31" y1="253.99" x2="296.31" y2="261.87"/>
  <polyline class="cls-8" points="276.05 246.58 292.59 239.07 292.59 231.67 240.75 254.8"/>
  <line class="cls-11" x1="292.59" y1="231.67" x2="275.26" y2="225.83"/>
  <line class="cls-9" x1="646.41" y1="95.26" x2="646.41" y2="105"/>
  <path class="cls-9" d="M241.08,164.46c-.22-.15-.33-.24-.33-.24"/>
  <polyline class="cls-9" points="206.39 266.72 206.39 274.91 240.75 257.93 240.75 250.16 223.05 241.19 212.75 239.91"/>
  <line class="cls-9" x1="171.41" y1="263.91" x2="218.5" y2="278.72"/>
  <polyline class="cls-8" points="405.37 170.43 414.45 173.82 401.15 180.45 412.59 184.59 399.81 190.85 384.29 185.18 363.25 196.22 340.51 187.85 359.85 177.26 338.99 170.7 358.79 161.91 365.9 164.1"/>
  <polyline class="cls-8" points="412.59 195.21 414.49 193.97 414.45 173.82"/>
  <line class="cls-10" x1="494.29" y1="134.76" x2="494.29" y2="149.76"/>
  <line class="cls-10" x1="577.46" y1="100.13" x2="577.23" y2="113.59"/>
  <line class="cls-14" x1="576.21" y1="82.81" x2="576.29" y2="94.26"/>
  <polyline class="cls-9" points="236.26 215.39 153.23 253.05 171.41 257.93"/>
  <polyline class="cls-9" points="338.79 173.82 331.57 172.16 277.66 196.61"/>
  <line class="cls-11" x1="153.23" y1="261.99" x2="153.23" y2="253.05"/>
</svg>