<svg id="Layer_1" xmlns="http://www.w3.org/2000/svg" version="1.1" viewBox="0 0 3421.9 339.3"><defs><style>.st0{stroke:#173387}.st0,.st1,.st2{fill:none;stroke-miterlimit:10}.st0,.st2{stroke-width:2px}.st3{fill:#171636}.st4{fill:#173387}.st1,.st2{stroke:#171636}</style></defs><g id="_3eme_plan"><path class="st2" d="M3008.6 13v312.8s415 33.1 412.3-156.6C3418.2-20.5 3008.6 13 3008.6 13Z"/><path class="st1" d="M3263.6 157.9h66v19h-66zM3160.6 161.9h33v14h-33zM3108.6 111.9h63v17h-63zM3064.6 160.9h65v16h-65zM3108.6 209.9h68.4v15h-68.4z"/><circle class="st1" cx="3055.6" cy="262.6" r="23"/><circle class="st1" cx="3055.6" cy="76.9" r="22.5"/><path class="st2" d="M2797.7 2v80.4l55 34.9v103.9l-55 35.1v81.5H698.3V2h2099.4z"/><path class="st1" d="M2748.7 133.9h104v74.9h-104zM2697.7 73.9h46v38h-46zM2699.7 226.8h44v37h-44zM2699.7 263.8h35v26h-35z"/><path class="st1" d="M2697.7 50h35v24h-35zM2792.7 180.9v-22h26v22M2721.7 111.9v113.9"/><path class="st1" d="M2697.7 50h-111.9v237.8h113.9"/><path class="st1" d="M2511.8 335.8v-56h74M2512.8 2v59h73M2511.8 279.8v-73.9M2465.8 205.9h83M2512.8 61v72.9M2548.8 132.9h-83M2488.8 132.9v73M2521.3 157.9h32.3v23.5h-32.3zM2185.9 2v61h208.9s28.1-22.8 60 0h58"/><path class="st1" d="M2347.8 62v22.9h-21v45h12v207.9"/><path class="st1" d="M2291.8 129.9h47v39h-47zM2291.8 169.4h47v39h-47zM2291.8 208.9h47v128.9h-47zM2255.8 274.8h36v36h-36zM2220.9 317.8h23v20h-23z"/><path class="st1" d="M2265.8 129.9h26.3v78.4h-26.3zM2290.8 90.3h36M2302.8 114.9v-25M2295.8 114.9v-25M2219.9 129.9h45.9V85.4M2243.8 84.9v45M2219.9 84.9l1 232.9M2279 129.9v57M2265.8 208.3V231M2394.8 63v23.9M2454.8 63v23.9M2394.8 337.8v-20M2454.8 337.8v-20M2091.9 227.8v49.5h128.5M2184.8 337.8v-60.5M2115.9 293.8h35.9v44h-35.9zM2081.9 292.8h34v45h-34zM2044.9 225.8h36v50h-36zM1997.9 225.8h36v50h-36zM1986.9 129.9h118v77.9h-118zM2185.9 63h-93v47.9M2080.9 275.8l1 17M2128.2 277.3v16.5M2033.9 275.8v62M2033.9 245.8h11M1997.9 245.8h-8v92M1989.9 245.8v-12h-14M1999.9 129.9v78M1986.9 183.9h13M1986.9 155.9h13M2091.9 129.9v78M2265.6 186.9h26.5"/><path class="st2" d="M2123.9 206.9v-27s28.5.4 40 27h-40ZM2123.9 157.9c-1.4.1 0-25.5 0-25.5l38.8-.6s-5.1 23.8-38.8 26.1Z"/><path class="st1" d="M2081.4 2h35v45h-35zM2116.4 2h35v40h-35zM1940.9 225.8h35v50h-35zM1975.9 337.8v-62M1940.9 244.8h-11M1894.9 225.3h35v50h-35zM1929.9 337.3v-62M1894.9 244.3h-11M1848.9 226.3h35v50h-35zM1883.9 338.3v-62M1848.9 245.3h-14M1800.5 226.3h35v50h-35zM1835.4 338.3v-62M1800.5 245.3h-11M1754.5 225.8h35v50h-35zM1789.5 337.8v-62M1754.5 244.8h-11M1708.5 226.8h35v50h-35zM1743.5 338.8v-62M1708.5 245.8H1697M1662.5 225.3h35v50h-35zM1697.5 337.3v-62M1662.5 244.3h-11M1616.5 224.8h35v50h-35zM1651.5 336.8v-62M1616.5 243.8h-11M1570.5 225.8h35v50h-35zM1605.5 337.8v-62M1570.5 244.8h-14M1522.5 226.3h35v50h-35zM1557.5 338.3v-62M1522.5 245.3h-14M2044.6 63h36v50h-36zM1997.7 63h36v50h-36zM2080.6 63l1-17M2033.7 63V1M2033.7 92.9h10.9M1997.7 92.9h-8V1M1989.7 92.9v12h-14M1940.7 63h35v50h-35zM1975.7 1v62M1940.7 93.9h-11M1894.7 63.5h35v50h-35zM1929.7 1.5v62M1894.7 94.4h-11M1848.7 62.5h35v50h-35zM1883.7.5v62M1848.7 93.4h-14M1800.2 62.5h35v50h-35zM1835.2.5v62M1800.2 93.4h-11M1754.2 63h35v50h-35zM1789.2 1v62M1754.2 93.9h-11M1708.2 62h35v50h-35zM1743.2 0v62M1708.2 92.9h-11.5M1662.2 63.5h35v50h-35zM1697.2 1.5v62M1662.2 94.4h-11M1616.3 64h35v50h-35zM1651.3 2v62M1616.3 94.9h-11M1570.3 63h35v50h-35zM1605.3 1v62M1570.3 93.9h-14M1522.3 62.5h35v50h-35zM1557.3.5v62M1522.3 93.4H1510M1720 130.9h254.9v76.9H1720zM1637 129.9h71v77.9h-71zM1557 130.9h69v76.9h-69zM1323.1 129.9H1546v78.9h-222.9zM1319.1 226.8h63.9v64h-63.9zM1427.1 226.8h82v64h-82zM1383.1 226.8h44v64h-44zM1323.7 291.8h185.4v47h-185.4zM1952.9 130.9v77M1932.9 129.9v78M1952.9 144.9h-19M1952.9 193.9h-20M1952.9 199.9h22M1819 207.9v-77M1801 130.9l1 77M1772.5 207.9v-77M1801.5 145.9h-29M1802 193.9h-30"/><path class="st1" d="M1720 154.9h35v-24M1682 129.9v78M1638 168.9h43M1583 130.9v77M1626 169.4h-43M1505 129.9v79M1546 181.9h-41M1474.2 129.9v79M1505 147.2h-30.8M1505 194.9h-30.8M1364.1 129.9v79M1347.1 129.9v79M1322.1 193.9h25M1322.1 144.6h25M1464.5 226.8v65M1427.1 273.8h37.4M1445.8 291.8v-18M1320.6 50h63.9v64h-63.9zM1428.6 50h82v64h-82zM1384.6 50h44v64h-44zM1325.2 2h185.4v47h-185.4zM1466 113.9V49M1428.6 66.9h37.4M1447.3 49v17.9M1101.2 130.9h26v76.9h-26zM1160.1 241.8h37v95.9h-37zM1319.6 276.3h-122.5M1160.1 290.8h37M1165.1 129.9h31v78.9h-31zM1101.2 242.3h47v95.4h-47z"/><path class="st1" d="M1101.2 225.8h21.2v16.9h-21.2zM1043.2 225.8h47v111.9h-47zM1101.2 237.5h-11M1043.2 258.8h47M938.2 225.8h94.3v111.9h-94.3zM1160.1 2.5h36v94.4h-36zM823.2 129.9h266.9v77.9H823.2zM1044.2 2.2h46v109.4h-46zM938.2 1.5h93v111.4h-93zM1196.1 64h124.5"/><path class="st2" d="M1217.1 153.9v-25h33s-3.1 25-33 25ZM1217.1 208.9v-21.5s30.9-1.9 33 21.5h-33Z"/><path class="st1" d="M1101.2 2h47v93.9h-47zM1101.2 95.9v17h24v-17M1090.2 100.9h11M1044.2 79.9h46M986.2 1.5v112.4M938.2 80.9h93M1048.2 129.9v78M1020.2 129.9v77M1048.2 144.9h-28M1048.2 192.9h-28M1001.2 129.9v78M910.2 129.9v78M893.2 129.9v78M870.2 129.9v78M893.2 144.9h-23M893.2 192.9h-23M847.2 129.9v57h23.4M985.3 225.8v112M938.2 257.3h93M824.2 337.8v-48.5h11v-63.5h94v112M882.2 337.8v-112M835.2 257.3h94"/><path class="st1" d="M835.2 289.3h35v48.5M893.2 337.8V290h36M938.2 290h37.2v47.7h-37.2zM997.5 291.8h35v46h-35zM1043.2 290.8h36.9v47h-36.9zM1114.2 291.8h34v46h-34zM1160.1 2.5h36v44.1h-36zM1114.2 2h34v44.6h-34zM1044.2 1.5h35V48h-35zM997.5 1.5h33.7v43.3h-33.7zM938.2 2h37.2v42.8h-37.2zM881.7 2.5h46.5v110.4h-46.5zM825.2 2h44v46h-44zM835.2 81.9h46.5v31h-46.5zM927.2 81.9h-45.5"/><path class="st1" d="M893.2 2v44.6h35M835.2 81.9V48M777.2 48h48v63.9h-48z"/><path class="st1" d="M730.3 48h47v38h-47zM787.2 48h38v35h-38z"/><path class="st1" d="M730.3 85.9H766v27.8h-35.7zM787.2 129.9h24v77.9h-24zM730.3 129.9h48v77.9h-48zM777.2 225.8h48v63.5h-48zM730.3 225.8h36v27h-36z"/><path class="st1" d="M730.3 252.8h47v36.5h-47zM730.3 48v240.8M730.3 168.9h47.9"/><path class="st2" d="M491.3 17v307.8S86.6 256.9 1.5 168.9C94.5 88.4 455.9 12.5 491.3 17Z"/><path class="st1" d="m54 135.9 20.9 10 10.6 16-2.7 19.5-12 14.5-20.1 7M196.4 141.9v11h12V165h27v-29.1h-25l-14 6zM196.4 196.9v-9h12v-10.5h27v25.5h-27l-12-6zM292.4 141.9h46v54h-46zM450.3 132.9h41v73.9h-41z"/></g><g id="points"><path class="st3" d="M850.4 331.3c3 0 6.3-1.3 8.4-3.5s3.6-5.5 3.5-8.4c-.3-6.5-5.2-11.9-11.9-11.9s-6.3 1.3-8.4 3.5-3.6 5.5-3.5 8.4c.3 6.5 5.2 11.9 11.9 11.9ZM906.8 253.7c3 0 6.3-1.3 8.4-3.5s3.6-5.4 3.5-8.4c-.3-6.4-5.2-11.9-11.9-11.9s-6.3 1.3-8.4 3.5-3.6 5.4-3.5 8.4c.3 6.4 5.2 11.9 11.9 11.9ZM1659.5 160.4c3.1 0 6.3-1.3 8.4-3.5s3.6-5.4 3.5-8.4c-.3-6.4-5.2-11.9-11.9-11.9s-6.3 1.3-8.4 3.5-3.6 5.4-3.5 8.4c.3 6.4 5.2 11.9 11.9 11.9ZM2062.6 318.2c3.1 0 6.3-1.3 8.4-3.5 2.1-2.1 3.6-5.5 3.5-8.4-.3-6.5-5.2-11.9-11.9-11.9s-6.3 1.3-8.4 3.5-3.6 5.5-3.5 8.4c.3 6.5 5.2 11.9 11.9 11.9Z"/><path class="st4" d="M1133.1 37.7c3.1 0 6.3-1.3 8.4-3.5s3.6-5.5 3.5-8.4c-.3-6.4-5.2-11.9-11.9-11.9s-6.3 1.3-8.4 3.5-3.6 5.5-3.5 8.4c.3 6.4 5.2 11.9 11.9 11.9ZM1680 262.2c3.1 0 6.3-1.3 8.4-3.5s3.6-5.4 3.5-8.4c-.3-6.4-5.2-11.9-11.9-11.9s-6.3 1.3-8.4 3.5-3.6 5.4-3.5 8.4c.3 6.4 5.2 11.9 11.9 11.9ZM1634 263.7c3.1 0 6.3-1.3 8.4-3.5s3.6-5.4 3.5-8.4c-.3-6.4-5.2-11.9-11.9-11.9s-6.3 1.3-8.4 3.5-3.6 5.4-3.5 8.4c.3 6.4 5.2 11.9 11.9 11.9ZM1766.7 318.6c3.1 0 6.3-1.3 8.4-3.5s3.6-5.5 3.5-8.4c-.3-6.5-5.2-11.9-11.9-11.9s-6.3 1.3-8.4 3.5-3.6 5.5-3.5 8.4c.3 6.5 5.2 11.9 11.9 11.9ZM2015.9 262.7c3.1 0 6.3-1.3 8.4-3.5 2.1-2.1 3.6-5.4 3.5-8.4-.3-6.4-5.2-11.9-11.9-11.9s-6.3 1.3-8.4 3.5-3.6 5.4-3.5 8.4c.3 6.4 5.2 11.9 11.9 11.9ZM1655.4 199.2c3.1 0 6.3-1.3 8.4-3.5s3.6-5.4 3.5-8.4c-.3-6.4-5.2-11.9-11.9-11.9s-6.3 1.3-8.4 3.5-3.6 5.4-3.5 8.4c.3 6.4 5.2 11.9 11.9 11.9Z"/><circle class="st0" cx="1131.9" cy="25.2" r="20.8"/><path class="st4" d="M1062.8 37.3c3.1 0 6.3-1.3 8.4-3.5s3.6-5.5 3.5-8.4c-.3-6.4-5.2-11.9-11.9-11.9s-6.3 1.3-8.4 3.5-3.6 5.5-3.5 8.4c.3 6.4 5.2 11.9 11.9 11.9Z"/><circle class="st0" cx="1061.7" cy="24.7" r="20.8"/><path class="st4" d="M1068.3 255.3c3.1 0 6.3-1.3 8.4-3.5s3.6-5.4 3.5-8.4c-.3-6.4-5.2-11.9-11.9-11.9s-6.3 1.3-8.4 3.5-3.6 5.4-3.5 8.4c.3 6.4 5.2 11.9 11.9 11.9ZM1068.3 107.8c3.1 0 6.3-1.3 8.4-3.5s3.6-5.4 3.5-8.4c-.3-6.4-5.2-11.9-11.9-11.9s-6.3 1.3-8.4 3.5-3.6 5.4-3.5 8.4c.3 6.4 5.2 11.9 11.9 11.9Z"/><circle class="st0" cx="1067.2" cy="242.7" r="20.8"/><path class="st4" d="M1067.8 290.2c3.1 0 6.3-1.3 8.4-3.5s3.6-5.5 3.5-8.4c-.3-6.5-5.2-11.9-11.9-11.9s-6.3 1.3-8.4 3.5-3.6 5.5-3.5 8.4c.3 6.5 5.2 11.9 11.9 11.9Z"/><circle class="st0" cx="1066.7" cy="277.6" r="20.8"/><path class="st4" d="M1584.2 48.7c3.1 0 6.3-1.3 8.4-3.5s3.6-5.5 3.5-8.4c-.3-6.5-5.2-11.9-11.9-11.9s-6.3 1.3-8.4 3.5-3.6 5.4-3.5 8.4c.3 6.5 5.2 11.9 11.9 11.9Z"/><circle class="st0" cx="1583" cy="36.2" r="20.8"/><path class="st4" d="M1774 39.4c3.1 0 6.3-1.3 8.4-3.5s3.6-5.5 3.5-8.4c-.3-6.4-5.2-11.9-11.9-11.9s-6.3 1.3-8.4 3.5-3.6 5.5-3.5 8.4c.3 6.4 5.2 11.9 11.9 11.9Z"/><circle class="st0" cx="1772.9" cy="26.8" r="20.8"/><path class="st4" d="M1588.9 102.5c3.1 0 6.3-1.3 8.4-3.5s3.6-5.4 3.5-8.4c-.3-6.4-5.2-11.9-11.9-11.9s-6.3 1.3-8.4 3.5-3.6 5.4-3.5 8.4c.3 6.4 5.2 11.9 11.9 11.9Z"/><circle class="st0" cx="1587.8" cy="89.9" r="20.8"/><path class="st4" d="M1411.3 91.3c3.1 0 6.3-1.3 8.4-3.5s3.6-5.4 3.5-8.4c-.3-6.4-5.2-11.9-11.9-11.9s-6.3 1.3-8.4 3.5-3.6 5.4-3.5 8.4c.3 6.4 5.2 11.9 11.9 11.9Z"/><circle class="st0" cx="1410.2" cy="78.8" r="20.8"/><path class="st4" d="M1489.2 94.5c3.1 0 6.3-1.3 8.4-3.5 2.1-2.1 3.6-5.4 3.5-8.4-.3-6.4-5.2-11.9-11.9-11.9s-6.3 1.3-8.4 3.5-3.6 5.4-3.5 8.4c.3 6.4 5.2 11.9 11.9 11.9Z"/><circle class="st0" cx="1488" cy="81.9" r="20.8"/><path class="st4" d="M1675.6 314.2c3.1 0 6.3-1.3 8.4-3.5s3.6-5.5 3.5-8.4c-.3-6.5-5.2-11.9-11.9-11.9s-6.3 1.3-8.4 3.5-3.6 5.5-3.5 8.4c.3 6.5 5.2 11.9 11.9 11.9Z"/><circle class="st0" cx="1674.5" cy="301.6" r="20.8"/><path class="st4" d="M1584.2 315.2c3.1 0 6.3-1.3 8.4-3.5s3.6-5.5 3.5-8.4c-.3-6.5-5.2-11.9-11.9-11.9s-6.3 1.3-8.4 3.5-3.6 5.5-3.5 8.4c.3 6.5 5.2 11.9 11.9 11.9Z"/><circle class="st0" cx="1583" cy="302.6" r="20.8"/><path class="st4" d="M1406.2 269.4c3.1 0 6.3-1.3 8.4-3.5s3.6-5.5 3.5-8.4c-.3-6.4-5.2-11.9-11.9-11.9s-6.3 1.3-8.4 3.5-3.6 5.4-3.5 8.4c.3 6.5 5.2 11.9 11.9 11.9Z"/><circle class="st0" cx="1405.1" cy="256.8" r="20.8"/><path class="st4" d="M1490.8 270c3.1 0 6.3-1.3 8.4-3.5s3.6-5.5 3.5-8.4c-.3-6.4-5.2-11.9-11.9-11.9s-6.3 1.3-8.4 3.5-3.6 5.4-3.5 8.4c.3 6.5 5.2 11.9 11.9 11.9Z"/><circle class="st0" cx="1489.6" cy="257.5" r="20.8"/><path class="st4" d="M1725.7 98.8c3.1 0 6.3-1.3 8.4-3.5s3.6-5.4 3.5-8.4c-.3-6.4-5.2-11.9-11.9-11.9s-6.3 1.3-8.4 3.5-3.6 5.4-3.5 8.4c.3 6.4 5.2 11.9 11.9 11.9Z"/><path class="st3" d="M1536 47c3.1 0 6.3-1.3 8.4-3.5s3.6-5.5 3.5-8.4c-.3-6.5-5.2-11.9-11.9-11.9s-6.3 1.3-8.4 3.5-3.6 5.4-3.5 8.4c.3 6.5 5.2 11.9 11.9 11.9Z"/><circle class="st2" cx="1536.4" cy="36.2" r="19.5"/><path class="st3" d="M1719.8 41.8c3.1 0 6.3-1.3 8.4-3.5s3.6-5.5 3.5-8.4c-.3-6.4-5.2-11.9-11.9-11.9s-6.3 1.3-8.4 3.5-3.6 5.5-3.5 8.4c.3 6.4 5.2 11.9 11.9 11.9Z"/><circle class="st2" cx="1720.2" cy="31" r="19.5"/><path class="st3" d="M1859.3 317.6c3.1 0 6.3-1.3 8.4-3.5s3.6-5.5 3.5-8.4c-.3-6.5-5.2-11.9-11.9-11.9s-6.3 1.3-8.4 3.5-3.6 5.5-3.5 8.4c.3 6.5 5.2 11.9 11.9 11.9Z"/><circle class="st2" cx="1859.7" cy="306.8" r="19.5"/><path class="st3" d="M805.8 281.9c3 0 6.3-1.3 8.4-3.5s3.6-5.5 3.5-8.4c-.3-6.5-5.2-11.9-11.9-11.9s-6.3 1.3-8.4 3.5-3.6 5.5-3.5 8.4c.3 6.5 5.2 11.9 11.9 11.9Z"/><circle class="st2" cx="806.2" cy="271.1" r="19.5"/><path class="st3" d="M858.5 108.3c3 0 6.3-1.3 8.4-3.5s3.6-5.4 3.5-8.4c-.3-6.4-5.2-11.9-11.9-11.9s-6.3 1.3-8.4 3.5-3.6 5.4-3.5 8.4c.3 6.4 5.2 11.9 11.9 11.9Z"/><circle class="st2" cx="858.9" cy="97.4" r="19.5"/><path class="st3" d="M964.7 257.2c3 0 6.3-1.3 8.4-3.5s3.6-5.4 3.5-8.4c-.3-6.4-5.2-11.9-11.9-11.9s-6.3 1.3-8.4 3.5-3.6 5.4-3.5 8.4c.3 6.4 5.2 11.9 11.9 11.9Z"/><ellipse class="st2" cx="965.2" cy="246.4" rx="19.5" ry="19.6"/></g></svg>